<svg width="508" height="205" viewBox="0 0 508 205" fill="none" xmlns="http://www.w3.org/2000/svg">
<path d="M507.5 46.1667V7.99976C507.5 3.85777 504.142 0.499756 500 0.499756H468.5V46.1667H507.5Z" fill="#1E1E1E" fill-opacity="0.64"/>
<path d="M507.5 46.1667V7.99976C507.5 3.85777 504.142 0.499756 500 0.499756H468.5V46.1667H507.5Z" stroke="#9E9E9E"/>
<rect x="468.5" y="46.1667" width="39" height="45.6667" fill="#1E1E1E" fill-opacity="0.64"/>
<rect x="468.5" y="46.1667" width="39" height="45.6667" stroke="#9E9E9E"/>
<path d="M507.5 91.8333V130C507.5 134.142 504.142 137.5 500 137.5H468.5V91.8333H507.5Z" fill="#1E1E1E" fill-opacity="0.64"/>
<path d="M507.5 91.8333V130C507.5 134.142 504.142 137.5 500 137.5H468.5V91.8333H507.5Z" stroke="#9E9E9E"/>
<path d="M473.365 29.3333V27.5605L477.507 23.7253C477.859 23.3844 478.155 23.0776 478.393 22.8048C478.636 22.5321 478.82 22.2651 478.945 22.0037C479.07 21.7386 479.132 21.4526 479.132 21.1458C479.132 20.8048 479.054 20.5113 478.899 20.2651C478.744 20.0151 478.532 19.8238 478.263 19.6912C477.994 19.5548 477.689 19.4867 477.348 19.4867C476.992 19.4867 476.681 19.5586 476.416 19.7026C476.151 19.8465 475.946 20.0529 475.803 20.3219C475.659 20.5908 475.587 20.9109 475.587 21.2821H473.251C473.251 20.5208 473.424 19.8598 473.768 19.2992C474.113 18.7386 474.596 18.3048 475.217 17.998C475.839 17.6912 476.554 17.5378 477.365 17.5378C478.198 17.5378 478.924 17.6855 479.541 17.981C480.162 18.2726 480.645 18.6779 480.99 19.1969C481.335 19.7158 481.507 20.3105 481.507 20.981C481.507 21.4204 481.42 21.8541 481.246 22.2821C481.075 22.7101 480.77 23.1855 480.331 23.7083C479.892 24.2272 479.272 24.8503 478.473 25.5776L476.774 27.2423V27.3219H481.661V29.3333H473.365Z" fill="white"/>
<path d="M484.116 21.5293V20.5151H488.895V21.5293H487.113V26.3333H485.897V21.5293H484.116ZM494.762 23.4242C494.762 24.0586 494.642 24.5984 494.402 25.0435C494.163 25.4886 493.837 25.8285 493.424 26.0634C493.013 26.2963 492.551 26.4128 492.038 26.4128C491.521 26.4128 491.057 26.2954 490.646 26.0605C490.235 25.8257 489.91 25.4857 489.672 25.0406C489.433 24.5956 489.314 24.0567 489.314 23.4242C489.314 22.7897 489.433 22.2499 489.672 21.8048C489.91 21.3598 490.235 21.0208 490.646 20.7878C491.057 20.5529 491.521 20.4355 492.038 20.4355C492.551 20.4355 493.013 20.5529 493.424 20.7878C493.837 21.0208 494.163 21.3598 494.402 21.8048C494.642 22.2499 494.762 22.7897 494.762 23.4242ZM493.515 23.4242C493.515 23.0132 493.454 22.6666 493.331 22.3844C493.209 22.1022 493.038 21.8882 492.816 21.7423C492.595 21.5965 492.335 21.5236 492.038 21.5236C491.741 21.5236 491.481 21.5965 491.26 21.7423C491.038 21.8882 490.866 22.1022 490.743 22.3844C490.621 22.6666 490.561 23.0132 490.561 23.4242C490.561 23.8351 490.621 24.1817 490.743 24.4639C490.866 24.7461 491.038 24.9601 491.26 25.106C491.481 25.2518 491.741 25.3247 492.038 25.3247C492.335 25.3247 492.595 25.2518 492.816 25.106C493.038 24.9601 493.209 24.7461 493.331 24.4639C493.454 24.1817 493.515 23.8351 493.515 23.4242Z" fill="white"/>
<path d="M502.506 17.6969V29.3333H500.045V20.0321H499.977L497.312 21.7026V19.5208L500.193 17.6969H502.506Z" fill="white"/>
<path d="M473.365 75V73.2273L477.507 69.392C477.859 69.0511 478.155 68.7443 478.393 68.4716C478.636 68.1989 478.82 67.9318 478.945 67.6705C479.07 67.4053 479.132 67.1193 479.132 66.8125C479.132 66.4716 479.054 66.178 478.899 65.9318C478.744 65.6818 478.532 65.4905 478.263 65.358C477.994 65.2216 477.689 65.1534 477.348 65.1534C476.992 65.1534 476.681 65.2254 476.416 65.3693C476.151 65.5133 475.946 65.7197 475.803 65.9886C475.659 66.2576 475.587 66.5777 475.587 66.9489H473.251C473.251 66.1875 473.424 65.5265 473.768 64.9659C474.113 64.4053 474.596 63.9716 475.217 63.6648C475.839 63.358 476.554 63.2045 477.365 63.2045C478.198 63.2045 478.924 63.3523 479.541 63.6477C480.162 63.9394 480.645 64.3447 480.99 64.8636C481.335 65.3826 481.507 65.9773 481.507 66.6477C481.507 67.0871 481.42 67.5208 481.246 67.9489C481.075 68.3769 480.77 68.8523 480.331 69.375C479.892 69.8939 479.272 70.517 478.473 71.2443L476.774 72.9091V72.9886H481.661V75H473.365Z" fill="white"/>
<path d="M484.116 67.196V66.1818H488.895V67.196H487.113V72H485.897V67.196H484.116ZM494.762 69.0909C494.762 69.7254 494.642 70.2652 494.402 70.7102C494.163 71.1553 493.837 71.4953 493.424 71.7301C493.013 71.9631 492.551 72.0795 492.038 72.0795C491.521 72.0795 491.057 71.9621 490.646 71.7273C490.235 71.4924 489.91 71.1525 489.672 70.7074C489.433 70.2623 489.314 69.7235 489.314 69.0909C489.314 68.4564 489.433 67.9167 489.672 67.4716C489.91 67.0265 490.235 66.6875 490.646 66.4545C491.057 66.2197 491.521 66.1023 492.038 66.1023C492.551 66.1023 493.013 66.2197 493.424 66.4545C493.837 66.6875 494.163 67.0265 494.402 67.4716C494.642 67.9167 494.762 68.4564 494.762 69.0909ZM493.515 69.0909C493.515 68.6799 493.454 68.3333 493.331 68.0511C493.209 67.7689 493.038 67.5549 492.816 67.4091C492.595 67.2633 492.335 67.1903 492.038 67.1903C491.741 67.1903 491.481 67.2633 491.26 67.4091C491.038 67.5549 490.866 67.7689 490.743 68.0511C490.621 68.3333 490.561 68.6799 490.561 69.0909C490.561 69.5019 490.621 69.8485 490.743 70.1307C490.866 70.4129 491.038 70.6269 491.26 70.7727C491.481 70.9186 491.741 70.9915 492.038 70.9915C492.335 70.9915 492.595 70.9186 492.816 70.7727C493.038 70.6269 493.209 70.4129 493.331 70.1307C493.454 69.8485 493.515 69.5019 493.515 69.0909Z" fill="white"/>
<path d="M502.506 63.3636V75H500.045V65.6989H499.977L497.312 67.3693V65.1875L500.193 63.3636H502.506Z" fill="white"/>
<path d="M473.365 120.667V118.894L477.507 115.059C477.859 114.718 478.155 114.411 478.393 114.138C478.636 113.865 478.82 113.598 478.945 113.337C479.07 113.072 479.132 112.786 479.132 112.479C479.132 112.138 479.054 111.845 478.899 111.598C478.744 111.348 478.532 111.157 478.263 111.024C477.994 110.888 477.689 110.82 477.348 110.82C476.992 110.82 476.681 110.892 476.416 111.036C476.151 111.18 475.946 111.386 475.803 111.655C475.659 111.924 475.587 112.244 475.587 112.615H473.251C473.251 111.854 473.424 111.193 473.768 110.632C474.113 110.072 474.596 109.638 475.217 109.331C475.839 109.024 476.554 108.871 477.365 108.871C478.198 108.871 478.924 109.019 479.541 109.314C480.162 109.606 480.645 110.011 480.99 110.53C481.335 111.049 481.507 111.644 481.507 112.314C481.507 112.754 481.42 113.187 481.246 113.615C481.075 114.043 480.77 114.519 480.331 115.042C479.892 115.56 479.272 116.184 478.473 116.911L476.774 118.576V118.655H481.661V120.667H473.365Z" fill="white"/>
<path d="M484.116 112.863V111.848H488.895V112.863H487.113V117.667H485.897V112.863H484.116ZM494.762 114.757C494.762 115.392 494.642 115.932 494.402 116.377C494.163 116.822 493.837 117.162 493.424 117.397C493.013 117.63 492.551 117.746 492.038 117.746C491.521 117.746 491.057 117.629 490.646 117.394C490.235 117.159 489.91 116.819 489.672 116.374C489.433 115.929 489.314 115.39 489.314 114.757C489.314 114.123 489.433 113.583 489.672 113.138C489.91 112.693 490.235 112.354 490.646 112.121C491.057 111.886 491.521 111.769 492.038 111.769C492.551 111.769 493.013 111.886 493.424 112.121C493.837 112.354 494.163 112.693 494.402 113.138C494.642 113.583 494.762 114.123 494.762 114.757ZM493.515 114.757C493.515 114.346 493.454 114 493.331 113.718C493.209 113.435 493.038 113.221 492.816 113.076C492.595 112.93 492.335 112.857 492.038 112.857C491.741 112.857 491.481 112.93 491.26 113.076C491.038 113.221 490.866 113.435 490.743 113.718C490.621 114 490.561 114.346 490.561 114.757C490.561 115.168 490.621 115.515 490.743 115.797C490.866 116.079 491.038 116.293 491.26 116.439C491.481 116.585 491.741 116.658 492.038 116.658C492.335 116.658 492.595 116.585 492.816 116.439C493.038 116.293 493.209 116.079 493.331 115.797C493.454 115.515 493.515 115.168 493.515 114.757Z" fill="white"/>
<path d="M502.506 109.03V120.667H500.045V111.365H499.977L497.312 113.036V110.854L500.193 109.03H502.506Z" fill="white"/>
<rect x="36.5" y="137.5" width="144" height="33.5" fill="#1E1E1E" fill-opacity="0.64"/>
<rect x="36.5" y="137.5" width="144" height="33.5" stroke="#9E9E9E"/>
<rect x="180.5" y="137.5" width="144" height="33.5" fill="#1E1E1E" fill-opacity="0.64"/>
<rect x="180.5" y="137.5" width="144" height="33.5" stroke="#9E9E9E"/>
<rect x="324.5" y="137.5" width="144" height="33.5" fill="#1E1E1E" fill-opacity="0.64"/>
<rect x="324.5" y="137.5" width="144" height="33.5" stroke="#9E9E9E"/>
<path d="M36.5 171V197C36.5 201.142 39.8579 204.5 44 204.5H108.5V171H36.5Z" fill="#1E1E1E" fill-opacity="0.64"/>
<path d="M36.5 171V197C36.5 201.142 39.8579 204.5 44 204.5H108.5V171H36.5Z" stroke="#9E9E9E"/>
<rect x="108.5" y="171" width="72" height="33.5" fill="#1E1E1E" fill-opacity="0.64"/>
<rect x="108.5" y="171" width="72" height="33.5" stroke="#9E9E9E"/>
<rect x="180.5" y="171" width="72" height="33.5" fill="#9B1912"/>
<rect x="180.5" y="171" width="72" height="33.5" stroke="#9E9E9E"/>
<rect x="252.5" y="171" width="72" height="33.5" fill="#13120E"/>
<rect x="252.5" y="171" width="72" height="33.5" stroke="#9E9E9E"/>
<rect x="324.5" y="171" width="72" height="33.5" fill="#1E1E1E" fill-opacity="0.64"/>
<rect x="324.5" y="171" width="72" height="33.5" stroke="#9E9E9E"/>
<path d="M468.5 171V197C468.5 201.142 465.142 204.5 461 204.5H396.5V171H468.5Z" fill="#1E1E1E" fill-opacity="0.64"/>
<path d="M468.5 171V197C468.5 201.142 465.142 204.5 461 204.5H396.5V171H468.5Z" stroke="#9E9E9E"/>
<path d="M94.0916 148.614V160.25H91.6314V150.949H91.5632L88.8984 152.619V150.438L91.7791 148.614H94.0916Z" fill="white"/>
<path d="M99.869 150.105C99.8462 149.876 99.7487 149.698 99.5763 149.571C99.404 149.444 99.1701 149.381 98.8746 149.381C98.6739 149.381 98.5044 149.409 98.3661 149.466C98.2279 149.521 98.1218 149.598 98.0479 149.696C97.976 149.795 97.94 149.906 97.94 150.031C97.9362 150.135 97.958 150.226 98.0053 150.304C98.0546 150.382 98.1218 150.449 98.207 150.506C98.2923 150.561 98.3907 150.609 98.5025 150.651C98.6142 150.69 98.7335 150.724 98.8604 150.753L99.3832 150.878C99.637 150.935 99.8699 151.01 100.082 151.105C100.294 151.2 100.478 151.316 100.633 151.455C100.788 151.593 100.909 151.756 100.994 151.943C101.081 152.131 101.126 152.346 101.127 152.588C101.126 152.944 101.035 153.253 100.855 153.514C100.677 153.774 100.419 153.975 100.082 154.119C99.7468 154.261 99.3424 154.332 98.869 154.332C98.3993 154.332 97.9902 154.26 97.6417 154.116C97.2951 153.973 97.0243 153.759 96.8292 153.477C96.636 153.193 96.5347 152.842 96.5252 152.423H97.7156C97.7288 152.618 97.7847 152.781 97.8832 152.912C97.9835 153.041 98.1171 153.138 98.2837 153.205C98.4523 153.269 98.6426 153.301 98.8548 153.301C99.0631 153.301 99.244 153.271 99.3974 153.21C99.5527 153.15 99.6729 153.065 99.7582 152.957C99.8434 152.849 99.886 152.725 99.886 152.585C99.886 152.455 99.8472 152.345 99.7695 152.256C99.6938 152.167 99.582 152.091 99.4343 152.028C99.2885 151.966 99.1095 151.909 98.8974 151.858L98.2638 151.699C97.7733 151.58 97.386 151.393 97.1019 151.139C96.8178 150.885 96.6767 150.544 96.6786 150.114C96.6767 149.761 96.7705 149.454 96.9599 149.19C97.1512 148.927 97.4135 148.722 97.7468 148.574C98.0801 148.426 98.4589 148.352 98.8832 148.352C99.315 148.352 99.6919 148.426 100.014 148.574C100.338 148.722 100.59 148.927 100.77 149.19C100.949 149.454 101.042 149.759 101.048 150.105H99.869ZM101.733 149.446V148.432H106.512V149.446H104.73V154.25H103.515V149.446H101.733Z" fill="white"/>
<path d="M116.904 148.614V160.25H114.444V150.949H114.376L111.711 152.619V150.438L114.592 148.614H116.904ZM119.67 160.25V158.477L123.812 154.642C124.164 154.301 124.46 153.994 124.698 153.722C124.941 153.449 125.124 153.182 125.249 152.92C125.374 152.655 125.437 152.369 125.437 152.062C125.437 151.722 125.359 151.428 125.204 151.182C125.049 150.932 124.836 150.741 124.567 150.608C124.299 150.472 123.994 150.403 123.653 150.403C123.297 150.403 122.986 150.475 122.721 150.619C122.456 150.763 122.251 150.97 122.107 151.239C121.963 151.508 121.891 151.828 121.891 152.199H119.556C119.556 151.437 119.728 150.777 120.073 150.216C120.418 149.655 120.901 149.222 121.522 148.915C122.143 148.608 122.859 148.455 123.67 148.455C124.503 148.455 125.228 148.602 125.846 148.898C126.467 149.189 126.95 149.595 127.295 150.114C127.639 150.633 127.812 151.227 127.812 151.898C127.812 152.337 127.725 152.771 127.55 153.199C127.38 153.627 127.075 154.102 126.636 154.625C126.196 155.144 125.577 155.767 124.778 156.494L123.079 158.159V158.239H127.965V160.25H119.67Z" fill="white"/>
<path d="M231.404 160.25V158.477L235.546 154.642C235.898 154.301 236.194 153.994 236.433 153.722C236.675 153.449 236.859 153.182 236.984 152.92C237.109 152.655 237.171 152.369 237.171 152.062C237.171 151.722 237.094 151.428 236.938 151.182C236.783 150.932 236.571 150.741 236.302 150.608C236.033 150.472 235.728 150.403 235.387 150.403C235.031 150.403 234.72 150.475 234.455 150.619C234.19 150.763 233.986 150.97 233.842 151.239C233.698 151.508 233.626 151.828 233.626 152.199H231.29C231.29 151.437 231.463 150.777 231.808 150.216C232.152 149.655 232.635 149.222 233.256 148.915C233.878 148.608 234.594 148.455 235.404 148.455C236.237 148.455 236.963 148.602 237.58 148.898C238.201 149.189 238.684 149.595 239.029 150.114C239.374 150.633 239.546 151.227 239.546 151.898C239.546 152.337 239.459 152.771 239.285 153.199C239.114 153.627 238.809 154.102 238.37 154.625C237.931 155.144 237.311 155.767 236.512 156.494L234.813 158.159V158.239H239.7V160.25H231.404Z" fill="white"/>
<path d="M246.521 148.432V154.25H245.458L242.927 150.588H242.884V154.25H241.654V148.432H242.734L245.245 152.091H245.296V148.432H246.521ZM249.599 154.25H247.537V148.432H249.616C250.202 148.432 250.705 148.548 251.128 148.781C251.55 149.012 251.875 149.345 252.102 149.778C252.331 150.212 252.446 150.731 252.446 151.335C252.446 151.941 252.331 152.462 252.102 152.898C251.875 153.333 251.548 153.668 251.122 153.901C250.698 154.134 250.19 154.25 249.599 154.25ZM248.767 153.196H249.548C249.912 153.196 250.218 153.132 250.466 153.003C250.716 152.872 250.903 152.67 251.028 152.398C251.155 152.123 251.219 151.769 251.219 151.335C251.219 150.905 251.155 150.554 251.028 150.281C250.903 150.009 250.717 149.808 250.469 149.679C250.221 149.55 249.915 149.486 249.551 149.486H248.767V153.196Z" fill="white"/>
<path d="M262.904 148.614V160.25H260.444V150.949H260.376L257.711 152.619V150.438L260.592 148.614H262.904ZM265.67 160.25V158.477L269.812 154.642C270.164 154.301 270.46 153.994 270.698 153.722C270.941 153.449 271.124 153.182 271.249 152.92C271.374 152.655 271.437 152.369 271.437 152.062C271.437 151.722 271.359 151.428 271.204 151.182C271.049 150.932 270.836 150.741 270.567 150.608C270.299 150.472 269.994 150.403 269.653 150.403C269.297 150.403 268.986 150.475 268.721 150.619C268.456 150.763 268.251 150.97 268.107 151.239C267.963 151.508 267.891 151.828 267.891 152.199H265.556C265.556 151.437 265.728 150.777 266.073 150.216C266.418 149.655 266.901 149.222 267.522 148.915C268.143 148.608 268.859 148.455 269.67 148.455C270.503 148.455 271.228 148.602 271.846 148.898C272.467 149.189 272.95 149.595 273.295 150.114C273.639 150.633 273.812 151.227 273.812 151.898C273.812 152.337 273.725 152.771 273.55 153.199C273.38 153.627 273.075 154.102 272.636 154.625C272.196 155.144 271.577 155.767 270.778 156.494L269.079 158.159V158.239H273.965V160.25H265.67Z" fill="white"/>
<path d="M379.471 160.409C378.622 160.409 377.867 160.263 377.204 159.972C376.545 159.676 376.024 159.271 375.641 158.756C375.263 158.237 375.067 157.638 375.056 156.96H377.533C377.549 157.244 377.641 157.494 377.812 157.71C377.986 157.922 378.217 158.087 378.505 158.205C378.793 158.322 379.117 158.381 379.477 158.381C379.852 158.381 380.183 158.314 380.471 158.182C380.759 158.049 380.984 157.866 381.147 157.631C381.31 157.396 381.391 157.125 381.391 156.818C381.391 156.508 381.304 156.233 381.13 155.994C380.96 155.752 380.713 155.562 380.391 155.426C380.073 155.29 379.694 155.222 379.255 155.222H378.17V153.415H379.255C379.626 153.415 379.954 153.35 380.238 153.222C380.526 153.093 380.749 152.915 380.908 152.688C381.067 152.456 381.147 152.188 381.147 151.881C381.147 151.589 381.077 151.333 380.937 151.114C380.8 150.89 380.607 150.716 380.357 150.591C380.111 150.466 379.823 150.403 379.494 150.403C379.16 150.403 378.855 150.464 378.579 150.585C378.302 150.703 378.081 150.871 377.914 151.091C377.747 151.311 377.658 151.568 377.647 151.864H375.289C375.3 151.193 375.492 150.602 375.863 150.091C376.234 149.58 376.734 149.18 377.363 148.892C377.996 148.6 378.71 148.455 379.505 148.455C380.308 148.455 381.011 148.6 381.613 148.892C382.215 149.184 382.683 149.578 383.016 150.074C383.353 150.566 383.52 151.119 383.516 151.733C383.52 152.384 383.317 152.928 382.908 153.364C382.503 153.799 381.975 154.076 381.323 154.193V154.284C382.179 154.394 382.831 154.691 383.278 155.176C383.728 155.657 383.952 156.259 383.948 156.983C383.952 157.646 383.761 158.235 383.374 158.75C382.992 159.265 382.463 159.67 381.789 159.966C381.115 160.261 380.342 160.409 379.471 160.409Z" fill="white"/>
<path d="M385.971 154.25V148.432H388.266C388.705 148.432 389.08 148.51 389.391 148.668C389.703 148.823 389.941 149.044 390.104 149.33C390.269 149.614 390.351 149.948 390.351 150.332C390.351 150.719 390.268 151.051 390.101 151.33C389.935 151.606 389.693 151.818 389.377 151.966C389.062 152.114 388.682 152.188 388.235 152.188H386.698V151.199H388.036C388.271 151.199 388.466 151.167 388.621 151.102C388.776 151.038 388.892 150.941 388.968 150.812C389.045 150.684 389.084 150.524 389.084 150.332C389.084 150.139 389.045 149.976 388.968 149.844C388.892 149.711 388.775 149.611 388.618 149.543C388.463 149.473 388.267 149.438 388.03 149.438H387.201V154.25H385.971ZM389.113 151.602L390.559 154.25H389.201L387.786 151.602H389.113ZM393.283 154.25H391.221V148.432H393.3C393.885 148.432 394.389 148.548 394.811 148.781C395.234 149.012 395.559 149.345 395.786 149.778C396.015 150.212 396.13 150.731 396.13 151.335C396.13 151.941 396.015 152.462 395.786 152.898C395.559 153.333 395.232 153.668 394.806 153.901C394.382 154.134 393.874 154.25 393.283 154.25ZM392.451 153.196H393.232C393.596 153.196 393.901 153.132 394.15 153.003C394.4 152.872 394.587 152.67 394.712 152.398C394.839 152.123 394.902 151.769 394.902 151.335C394.902 150.905 394.839 150.554 394.712 150.281C394.587 150.009 394.4 149.808 394.152 149.679C393.904 149.55 393.598 149.486 393.235 149.486H392.451V153.196Z" fill="white"/>
<path d="M406.904 148.614V160.25H404.444V150.949H404.376L401.711 152.619V150.438L404.592 148.614H406.904ZM409.67 160.25V158.477L413.812 154.642C414.164 154.301 414.46 153.994 414.698 153.722C414.941 153.449 415.124 153.182 415.249 152.92C415.374 152.655 415.437 152.369 415.437 152.062C415.437 151.722 415.359 151.428 415.204 151.182C415.049 150.932 414.836 150.741 414.567 150.608C414.299 150.472 413.994 150.403 413.653 150.403C413.297 150.403 412.986 150.475 412.721 150.619C412.456 150.763 412.251 150.97 412.107 151.239C411.963 151.508 411.891 151.828 411.891 152.199H409.556C409.556 151.437 409.728 150.777 410.073 150.216C410.418 149.655 410.901 149.222 411.522 148.915C412.143 148.608 412.859 148.455 413.67 148.455C414.503 148.455 415.228 148.602 415.846 148.898C416.467 149.189 416.95 149.595 417.295 150.114C417.639 150.633 417.812 151.227 417.812 151.898C417.812 152.337 417.725 152.771 417.55 153.199C417.38 153.627 417.075 154.102 416.636 154.625C416.196 155.144 415.577 155.767 414.778 156.494L413.079 158.159V158.239H417.965V160.25H409.67Z" fill="white"/>
<path d="M61.6385 182.114V193.75H59.1783V184.449H59.1101L56.4453 186.119V183.938L59.326 182.114H61.6385ZM69.8643 186.972V188.892H64.5575V186.972H69.8643ZM76.9666 182.114V193.75H74.5064V184.449H74.4382L71.7734 186.119V183.938L74.6541 182.114H76.9666ZM84.0732 193.909C83.1982 193.909 82.4197 193.767 81.7379 193.483C81.0599 193.195 80.5277 192.803 80.1413 192.307C79.755 191.811 79.5618 191.248 79.5618 190.619C79.5618 190.134 79.6716 189.689 79.8913 189.284C80.1148 188.875 80.4179 188.536 80.8004 188.267C81.183 187.994 81.611 187.82 82.0845 187.744V187.665C81.4633 187.54 80.9595 187.239 80.5732 186.761C80.1868 186.28 79.9936 185.722 79.9936 185.085C79.9936 184.483 80.1697 183.947 80.522 183.477C80.8743 183.004 81.3572 182.633 81.9709 182.364C82.5883 182.091 83.2891 181.955 84.0732 181.955C84.8572 181.955 85.5561 182.091 86.1697 182.364C86.7872 182.636 87.272 183.009 87.6243 183.483C87.9766 183.953 88.1546 184.487 88.1584 185.085C88.1546 185.725 87.9576 186.284 87.5675 186.761C87.1773 187.239 86.6773 187.54 86.0675 187.665V187.744C86.5334 187.82 86.9557 187.994 87.3345 188.267C87.7171 188.536 88.0201 188.875 88.2436 189.284C88.4709 189.689 88.5864 190.134 88.5902 190.619C88.5864 191.248 88.3913 191.811 88.005 192.307C87.6186 192.803 87.0845 193.195 86.4027 193.483C85.7247 193.767 84.9482 193.909 84.0732 193.909ZM84.0732 192.102C84.4633 192.102 84.8042 192.032 85.0959 191.892C85.3875 191.748 85.6148 191.551 85.7777 191.301C85.9444 191.047 86.0277 190.756 86.0277 190.426C86.0277 190.089 85.9425 189.792 85.772 189.534C85.6016 189.273 85.3705 189.068 85.0788 188.92C84.7872 188.769 84.4519 188.693 84.0732 188.693C83.6982 188.693 83.3629 188.769 83.0675 188.92C82.772 189.068 82.5391 189.273 82.3686 189.534C82.2019 189.792 82.1186 190.089 82.1186 190.426C82.1186 190.756 82.2 191.047 82.3629 191.301C82.5258 191.551 82.755 191.748 83.0504 191.892C83.3459 192.032 83.6868 192.102 84.0732 192.102ZM84.0732 186.903C84.3989 186.903 84.6887 186.837 84.9425 186.705C85.1963 186.572 85.3951 186.388 85.5391 186.153C85.683 185.919 85.755 185.648 85.755 185.341C85.755 185.038 85.683 184.773 85.5391 184.545C85.3951 184.314 85.1982 184.134 84.9482 184.006C84.6982 183.873 84.4065 183.807 84.0732 183.807C83.7436 183.807 83.4519 183.873 83.1982 184.006C82.9444 184.134 82.7455 184.314 82.6016 184.545C82.4614 184.773 82.3913 185.038 82.3913 185.341C82.3913 185.648 82.4633 185.919 82.6072 186.153C82.7512 186.388 82.95 186.572 83.2038 186.705C83.4576 186.837 83.7474 186.903 84.0732 186.903Z" fill="white"/>
<path d="M123.847 193.75V182.114H131.688V184.142H126.308V186.915H131.285V188.943H126.308V191.722H131.711V193.75H123.847ZM135.746 182.114L138.559 190.955H138.667L141.485 182.114H144.212L140.201 193.75H137.031L133.013 182.114H135.746ZM145.613 193.75V182.114H153.454V184.142H148.073V186.915H153.05V188.943H148.073V191.722H153.477V193.75H145.613ZM165.143 182.114V193.75H163.018L157.955 186.426H157.87V193.75H155.41V182.114H157.569L162.592 189.432H162.694V182.114H165.143Z" fill="white"/>
<path d="M354.306 187.932C354.306 189.201 354.066 190.28 353.585 191.17C353.107 192.061 352.456 192.741 351.63 193.21C350.808 193.676 349.884 193.909 348.857 193.909C347.823 193.909 346.895 193.674 346.073 193.205C345.251 192.735 344.602 192.055 344.124 191.165C343.647 190.275 343.408 189.197 343.408 187.932C343.408 186.663 343.647 185.583 344.124 184.693C344.602 183.803 345.251 183.125 346.073 182.659C346.895 182.189 347.823 181.955 348.857 181.955C349.884 181.955 350.808 182.189 351.63 182.659C352.456 183.125 353.107 183.803 353.585 184.693C354.066 185.583 354.306 186.663 354.306 187.932ZM351.812 187.932C351.812 187.11 351.689 186.417 351.442 185.852C351.2 185.288 350.857 184.86 350.414 184.568C349.971 184.277 349.452 184.131 348.857 184.131C348.263 184.131 347.744 184.277 347.3 184.568C346.857 184.86 346.513 185.288 346.266 185.852C346.024 186.417 345.903 187.11 345.903 187.932C345.903 188.754 346.024 189.447 346.266 190.011C346.513 190.576 346.857 191.004 347.3 191.295C347.744 191.587 348.263 191.733 348.857 191.733C349.452 191.733 349.971 191.587 350.414 191.295C350.857 191.004 351.2 190.576 351.442 190.011C351.689 189.447 351.812 188.754 351.812 187.932ZM360.254 193.75H356.129V182.114H360.288C361.458 182.114 362.466 182.347 363.31 182.812C364.155 183.275 364.805 183.939 365.259 184.807C365.718 185.674 365.947 186.712 365.947 187.92C365.947 189.133 365.718 190.174 365.259 191.045C364.805 191.917 364.151 192.585 363.299 193.051C362.451 193.517 361.435 193.75 360.254 193.75ZM358.589 191.642H360.151C360.879 191.642 361.49 191.513 361.987 191.256C362.487 190.994 362.862 190.591 363.112 190.045C363.365 189.496 363.492 188.788 363.492 187.92C363.492 187.061 363.365 186.358 363.112 185.812C362.862 185.267 362.488 184.866 361.992 184.608C361.496 184.35 360.884 184.222 360.157 184.222H358.589V191.642ZM371.894 193.75H367.769V182.114H371.928C373.099 182.114 374.106 182.347 374.951 182.812C375.796 183.275 376.445 183.939 376.9 184.807C377.358 185.674 377.587 186.712 377.587 187.92C377.587 189.133 377.358 190.174 376.9 191.045C376.445 191.917 375.792 192.585 374.94 193.051C374.091 193.517 373.076 193.75 371.894 193.75ZM370.229 191.642H371.792C372.519 191.642 373.131 191.513 373.627 191.256C374.127 190.994 374.502 190.591 374.752 190.045C375.006 189.496 375.133 188.788 375.133 187.92C375.133 187.061 375.006 186.358 374.752 185.812C374.502 185.267 374.129 184.866 373.633 184.608C373.137 184.35 372.525 184.222 371.798 184.222H370.229V191.642Z" fill="white"/>
<path d="M415.045 182.114V193.75H412.585V184.449H412.516L409.852 186.119V183.938L412.732 182.114H415.045ZM422.021 181.955C422.619 181.955 423.195 182.055 423.748 182.256C424.305 182.456 424.801 182.777 425.237 183.216C425.676 183.655 426.022 184.239 426.276 184.966C426.534 185.689 426.665 186.578 426.668 187.631C426.668 188.619 426.557 189.502 426.333 190.278C426.113 191.051 425.797 191.708 425.384 192.25C424.971 192.792 424.473 193.205 423.89 193.489C423.307 193.769 422.655 193.909 421.935 193.909C421.159 193.909 420.473 193.759 419.879 193.46C419.284 193.157 418.805 192.746 418.441 192.227C418.081 191.705 417.863 191.117 417.788 190.466H420.214C420.308 190.89 420.507 191.22 420.81 191.455C421.113 191.686 421.488 191.801 421.935 191.801C422.693 191.801 423.269 191.472 423.663 190.812C424.057 190.15 424.255 189.242 424.259 188.091H424.18C424.005 188.432 423.771 188.725 423.475 188.972C423.18 189.214 422.841 189.402 422.458 189.534C422.079 189.667 421.676 189.733 421.248 189.733C420.562 189.733 419.951 189.572 419.413 189.25C418.875 188.928 418.451 188.485 418.14 187.92C417.829 187.356 417.674 186.712 417.674 185.989C417.67 185.208 417.85 184.513 418.214 183.903C418.577 183.294 419.085 182.816 419.737 182.472C420.392 182.123 421.153 181.951 422.021 181.955ZM422.038 183.886C421.655 183.886 421.314 183.977 421.015 184.159C420.719 184.341 420.485 184.585 420.31 184.892C420.14 185.199 420.057 185.542 420.06 185.92C420.06 186.303 420.144 186.648 420.31 186.955C420.481 187.258 420.712 187.5 421.004 187.682C421.299 187.86 421.636 187.949 422.015 187.949C422.299 187.949 422.562 187.896 422.805 187.79C423.047 187.684 423.257 187.538 423.435 187.352C423.617 187.163 423.759 186.945 423.862 186.699C423.964 186.453 424.015 186.191 424.015 185.915C424.011 185.547 423.924 185.21 423.754 184.903C423.583 184.597 423.348 184.35 423.049 184.165C422.75 183.979 422.413 183.886 422.038 183.886ZM433.833 186.972V188.892H428.526V186.972H433.833ZM440.096 193.909C439.247 193.909 438.492 193.763 437.829 193.472C437.17 193.176 436.649 192.771 436.266 192.256C435.888 191.737 435.692 191.138 435.681 190.46H438.158C438.174 190.744 438.266 190.994 438.437 191.21C438.611 191.422 438.842 191.587 439.13 191.705C439.418 191.822 439.742 191.881 440.102 191.881C440.477 191.881 440.808 191.814 441.096 191.682C441.384 191.549 441.609 191.366 441.772 191.131C441.935 190.896 442.016 190.625 442.016 190.318C442.016 190.008 441.929 189.733 441.755 189.494C441.585 189.252 441.338 189.062 441.016 188.926C440.698 188.79 440.319 188.722 439.88 188.722H438.795V186.915H439.88C440.251 186.915 440.579 186.85 440.863 186.722C441.151 186.593 441.374 186.415 441.533 186.188C441.692 185.956 441.772 185.688 441.772 185.381C441.772 185.089 441.702 184.833 441.562 184.614C441.425 184.39 441.232 184.216 440.982 184.091C440.736 183.966 440.448 183.903 440.119 183.903C439.785 183.903 439.48 183.964 439.204 184.085C438.927 184.203 438.706 184.371 438.539 184.591C438.372 184.811 438.283 185.068 438.272 185.364H435.914C435.925 184.693 436.117 184.102 436.488 183.591C436.859 183.08 437.359 182.68 437.988 182.392C438.621 182.1 439.335 181.955 440.13 181.955C440.933 181.955 441.636 182.1 442.238 182.392C442.84 182.684 443.308 183.078 443.641 183.574C443.978 184.066 444.145 184.619 444.141 185.233C444.145 185.884 443.942 186.428 443.533 186.864C443.128 187.299 442.6 187.576 441.948 187.693V187.784C442.804 187.894 443.456 188.191 443.903 188.676C444.353 189.157 444.577 189.759 444.573 190.483C444.577 191.146 444.386 191.735 443.999 192.25C443.617 192.765 443.088 193.17 442.414 193.466C441.74 193.761 440.967 193.909 440.096 193.909ZM450.808 193.909C450.209 193.905 449.631 193.805 449.075 193.608C448.522 193.411 448.025 193.091 447.586 192.648C447.147 192.205 446.798 191.617 446.54 190.886C446.287 190.155 446.16 189.258 446.16 188.193C446.164 187.216 446.275 186.343 446.495 185.574C446.719 184.801 447.037 184.146 447.45 183.608C447.866 183.07 448.364 182.661 448.944 182.381C449.523 182.097 450.173 181.955 450.893 181.955C451.669 181.955 452.355 182.106 452.95 182.409C453.544 182.708 454.022 183.116 454.381 183.631C454.745 184.146 454.965 184.723 455.04 185.364H452.614C452.52 184.958 452.321 184.64 452.018 184.409C451.715 184.178 451.34 184.062 450.893 184.062C450.135 184.062 449.559 184.392 449.165 185.051C448.775 185.71 448.576 186.606 448.569 187.739H448.648C448.823 187.394 449.058 187.1 449.353 186.858C449.652 186.612 449.991 186.424 450.37 186.295C450.753 186.163 451.156 186.097 451.58 186.097C452.27 186.097 452.883 186.259 453.421 186.585C453.959 186.907 454.383 187.35 454.694 187.915C455.004 188.479 455.16 189.125 455.16 189.852C455.16 190.64 454.976 191.341 454.609 191.955C454.245 192.568 453.736 193.049 453.08 193.398C452.429 193.742 451.671 193.913 450.808 193.909ZM450.796 191.977C451.175 191.977 451.514 191.886 451.813 191.705C452.112 191.523 452.347 191.277 452.518 190.966C452.688 190.655 452.773 190.307 452.773 189.92C452.773 189.534 452.688 189.187 452.518 188.881C452.351 188.574 452.12 188.33 451.825 188.148C451.529 187.966 451.192 187.875 450.813 187.875C450.529 187.875 450.266 187.928 450.023 188.034C449.785 188.14 449.575 188.288 449.393 188.477C449.215 188.667 449.075 188.886 448.972 189.136C448.87 189.383 448.819 189.646 448.819 189.926C448.819 190.301 448.904 190.644 449.075 190.955C449.249 191.265 449.484 191.513 449.779 191.699C450.078 191.884 450.417 191.977 450.796 191.977Z" fill="white"/>
<path d="M8 0.5H36.5V137.5H8C3.85786 137.5 0.5 134.142 0.5 130V8L0.509766 7.61426C0.710535 3.65139 3.98724 0.5 8 0.5Z" fill="#2B7934"/>
<path d="M8 0.5H36.5V137.5H8C3.85786 137.5 0.5 134.142 0.5 130V8L0.509766 7.61426C0.710535 3.65139 3.98724 0.5 8 0.5Z" stroke="#9E9E9E"/>
<rect x="36.5" y="0.5" width="36" height="45.6667" fill="#9B1912"/>
<rect x="36.5" y="0.5" width="36" height="45.6667" stroke="#9E9E9E"/>
<rect x="72.5" y="0.5" width="36" height="45.6667" fill="#13120E"/>
<rect x="72.5" y="0.5" width="36" height="45.6667" stroke="#9E9E9E"/>
<rect x="108.5" y="0.5" width="36" height="45.6667" fill="#9B1912"/>
<rect x="108.5" y="0.5" width="36" height="45.6667" stroke="#9E9E9E"/>
<rect x="144.5" y="0.5" width="36" height="45.6667" fill="#9B1912"/>
<rect x="144.5" y="0.5" width="36" height="45.6667" stroke="#9E9E9E"/>
<rect x="180.5" y="0.5" width="36" height="45.6667" fill="#13120E"/>
<rect x="180.5" y="0.5" width="36" height="45.6667" stroke="#9E9E9E"/>
<rect x="216.5" y="0.5" width="36" height="45.6667" fill="#9B1912"/>
<rect x="216.5" y="0.5" width="36" height="45.6667" stroke="#9E9E9E"/>
<rect x="252.5" y="0.5" width="36" height="45.6667" fill="#9B1912"/>
<rect x="252.5" y="0.5" width="36" height="45.6667" stroke="#9E9E9E"/>
<rect x="288.5" y="0.5" width="36" height="45.6667" fill="#13120E"/>
<rect x="288.5" y="0.5" width="36" height="45.6667" stroke="#9E9E9E"/>
<rect x="324.5" y="0.5" width="36" height="45.6667" fill="#9B1912"/>
<rect x="324.5" y="0.5" width="36" height="45.6667" stroke="#9E9E9E"/>
<rect x="360.5" y="0.5" width="36" height="45.6667" fill="#9B1912"/>
<rect x="360.5" y="0.5" width="36" height="45.6667" stroke="#9E9E9E"/>
<rect x="396.5" y="0.5" width="36" height="45.6667" fill="#13120E"/>
<rect x="396.5" y="0.5" width="36" height="45.6667" stroke="#9E9E9E"/>
<rect x="432.5" y="0.5" width="36" height="45.6667" fill="#9B1912"/>
<rect x="432.5" y="0.5" width="36" height="45.6667" stroke="#9E9E9E"/>
<rect x="36.5" y="46.1667" width="36" height="45.6667" fill="#13120E"/>
<rect x="36.5" y="46.1667" width="36" height="45.6667" stroke="#9E9E9E"/>
<rect x="72.5" y="46.1667" width="36" height="45.6667" fill="#9B1912"/>
<rect x="72.5" y="46.1667" width="36" height="45.6667" stroke="#9E9E9E"/>
<rect x="108.5" y="46.1667" width="36" height="45.6667" fill="#13120E"/>
<rect x="108.5" y="46.1667" width="36" height="45.6667" stroke="#9E9E9E"/>
<rect x="144.5" y="46.1667" width="36" height="45.6667" fill="#13120E"/>
<rect x="144.5" y="46.1667" width="36" height="45.6667" stroke="#9E9E9E"/>
<rect x="180.5" y="46.1667" width="36" height="45.6667" fill="#9B1912"/>
<rect x="180.5" y="46.1667" width="36" height="45.6667" stroke="#9E9E9E"/>
<rect x="216.5" y="46.1667" width="36" height="45.6667" fill="#13120E"/>
<rect x="216.5" y="46.1667" width="36" height="45.6667" stroke="#9E9E9E"/>
<rect x="252.5" y="46.1667" width="36" height="45.6667" fill="#13120E"/>
<rect x="252.5" y="46.1667" width="36" height="45.6667" stroke="#9E9E9E"/>
<rect x="288.5" y="46.1667" width="36" height="45.6667" fill="#9B1912"/>
<rect x="288.5" y="46.1667" width="36" height="45.6667" stroke="#9E9E9E"/>
<rect x="324.5" y="46.1667" width="36" height="45.6667" fill="#13120E"/>
<rect x="324.5" y="46.1667" width="36" height="45.6667" stroke="#9E9E9E"/>
<rect x="360.5" y="46.1667" width="36" height="45.6667" fill="#13120E"/>
<rect x="360.5" y="46.1667" width="36" height="45.6667" stroke="#9E9E9E"/>
<rect x="396.5" y="46.1667" width="36" height="45.6667" fill="#9B1912"/>
<rect x="396.5" y="46.1667" width="36" height="45.6667" stroke="#9E9E9E"/>
<rect x="432.5" y="46.1667" width="36" height="45.6667" fill="#13120E"/>
<rect x="432.5" y="46.1667" width="36" height="45.6667" stroke="#9E9E9E"/>
<rect x="36.5" y="91.8333" width="36" height="45.6667" fill="#9B1912"/>
<rect x="36.5" y="91.8333" width="36" height="45.6667" stroke="#9E9E9E"/>
<rect x="72.5" y="91.8333" width="36" height="45.6667" fill="#13120E"/>
<rect x="72.5" y="91.8333" width="36" height="45.6667" stroke="#9E9E9E"/>
<rect x="108.5" y="91.8333" width="36" height="45.6667" fill="#9B1912"/>
<rect x="108.5" y="91.8333" width="36" height="45.6667" stroke="#9E9E9E"/>
<rect x="144.5" y="91.8333" width="36" height="45.6667" fill="#13120E"/>
<rect x="144.5" y="91.8333" width="36" height="45.6667" stroke="#9E9E9E"/>
<rect x="180.5" y="91.8333" width="36" height="45.6667" fill="#13120E"/>
<rect x="180.5" y="91.8333" width="36" height="45.6667" stroke="#9E9E9E"/>
<rect x="216.5" y="91.8333" width="36" height="45.6667" fill="#9B1912"/>
<rect x="216.5" y="91.8333" width="36" height="45.6667" stroke="#9E9E9E"/>
<rect x="252.5" y="91.8333" width="36" height="45.6667" fill="#9B1912"/>
<rect x="252.5" y="91.8333" width="36" height="45.6667" stroke="#9E9E9E"/>
<rect x="288.5" y="91.8333" width="36" height="45.6667" fill="#13120E"/>
<rect x="288.5" y="91.8333" width="36" height="45.6667" stroke="#9E9E9E"/>
<rect x="324.5" y="91.8333" width="36" height="45.6667" fill="#9B1912"/>
<rect x="324.5" y="91.8333" width="36" height="45.6667" stroke="#9E9E9E"/>
<rect x="360.5" y="91.8333" width="36" height="45.6667" fill="#13120E"/>
<rect x="360.5" y="91.8333" width="36" height="45.6667" stroke="#9E9E9E"/>
<rect x="396.5" y="91.8333" width="36" height="45.6667" fill="#13120E"/>
<rect x="396.5" y="91.8333" width="36" height="45.6667" stroke="#9E9E9E"/>
<rect x="432.5" y="91.8333" width="36" height="45.6667" fill="#9B1912"/>
<rect x="432.5" y="91.8333" width="36" height="45.6667" stroke="#9E9E9E"/>
<path d="M444.368 121.345C443.413 121.345 442.563 121.181 441.817 120.853C441.076 120.521 440.49 120.065 440.059 119.485C439.633 118.902 439.414 118.228 439.401 117.466H442.188C442.205 117.785 442.309 118.066 442.501 118.309C442.697 118.548 442.957 118.733 443.281 118.865C443.605 118.997 443.969 119.064 444.374 119.064C444.796 119.064 445.169 118.989 445.493 118.84C445.816 118.691 446.07 118.484 446.253 118.22C446.437 117.956 446.528 117.651 446.528 117.306C446.528 116.956 446.43 116.647 446.234 116.379C446.042 116.106 445.765 115.893 445.403 115.74C445.045 115.586 444.619 115.51 444.125 115.51H442.904V113.477H444.125C444.542 113.477 444.911 113.404 445.231 113.26C445.554 113.115 445.806 112.914 445.985 112.659C446.164 112.399 446.253 112.096 446.253 111.751C446.253 111.423 446.174 111.135 446.017 110.888C445.863 110.637 445.646 110.441 445.365 110.3C445.088 110.159 444.764 110.089 444.393 110.089C444.018 110.089 443.675 110.157 443.364 110.294C443.053 110.426 442.804 110.615 442.616 110.863C442.429 111.11 442.329 111.399 442.316 111.732H439.663C439.676 110.978 439.891 110.313 440.309 109.738C440.726 109.162 441.289 108.713 441.996 108.389C442.708 108.061 443.511 107.897 444.406 107.897C445.309 107.897 446.1 108.061 446.777 108.389C447.455 108.717 447.981 109.16 448.356 109.718C448.736 110.272 448.923 110.894 448.919 111.585C448.923 112.318 448.695 112.929 448.235 113.419C447.779 113.909 447.184 114.22 446.451 114.353V114.455C447.415 114.578 448.147 114.913 448.65 115.458C449.157 116 449.409 116.677 449.405 117.491C449.409 118.237 449.194 118.899 448.759 119.479C448.329 120.059 447.734 120.515 446.976 120.847C446.217 121.179 445.348 121.345 444.368 121.345ZM451.196 118.865V116.686L456.661 108.076H458.54V111.093H457.428L453.983 116.545V116.647H461.749V118.865H451.196ZM457.479 121.167V118.201L457.53 117.235V108.076H460.126V121.167H457.479Z" fill="white"/>
<path d="M410.064 121.345C409.109 121.345 408.259 121.181 407.513 120.853C406.772 120.521 406.186 120.065 405.756 119.485C405.33 118.902 405.11 118.228 405.097 117.466H407.884C407.901 117.785 408.006 118.066 408.197 118.309C408.393 118.548 408.653 118.733 408.977 118.865C409.301 118.997 409.665 119.064 410.07 119.064C410.492 119.064 410.865 118.989 411.189 118.84C411.513 118.691 411.766 118.484 411.95 118.22C412.133 117.956 412.224 117.651 412.224 117.306C412.224 116.956 412.126 116.647 411.93 116.379C411.739 116.106 411.462 115.893 411.099 115.74C410.741 115.586 410.315 115.51 409.821 115.51H408.6V113.477H409.821C410.239 113.477 410.607 113.404 410.927 113.26C411.251 113.115 411.502 112.914 411.681 112.659C411.86 112.399 411.95 112.096 411.95 111.751C411.95 111.423 411.871 111.135 411.713 110.888C411.56 110.637 411.342 110.441 411.061 110.3C410.784 110.159 410.46 110.089 410.089 110.089C409.714 110.089 409.371 110.157 409.06 110.294C408.749 110.426 408.5 110.615 408.312 110.863C408.125 111.11 408.025 111.399 408.012 111.732H405.359C405.372 110.978 405.587 110.313 406.005 109.738C406.423 109.162 406.985 108.713 407.692 108.389C408.404 108.061 409.207 107.897 410.102 107.897C411.006 107.897 411.796 108.061 412.474 108.389C413.151 108.717 413.678 109.16 414.053 109.718C414.432 110.272 414.619 110.894 414.615 111.585C414.619 112.318 414.391 112.929 413.931 113.419C413.475 113.909 412.881 114.22 412.148 114.353V114.455C413.111 114.578 413.844 114.913 414.347 115.458C414.854 116 415.105 116.677 415.101 117.491C415.105 118.237 414.89 118.899 414.455 119.479C414.025 120.059 413.43 120.515 412.672 120.847C411.913 121.179 411.044 121.345 410.064 121.345ZM422.786 108.076V121.167H420.018V110.703H419.941L416.943 112.582V110.127L420.184 108.076H422.786Z" fill="white"/>
<path d="M367.942 121.167V119.172L372.602 114.858C372.998 114.474 373.33 114.129 373.599 113.822C373.872 113.515 374.078 113.215 374.219 112.921C374.36 112.622 374.43 112.301 374.43 111.956C374.43 111.572 374.343 111.242 374.168 110.965C373.993 110.684 373.754 110.468 373.452 110.319C373.149 110.166 372.806 110.089 372.423 110.089C372.022 110.089 371.673 110.17 371.374 110.332C371.076 110.494 370.846 110.726 370.684 111.029C370.522 111.331 370.441 111.691 370.441 112.109H367.814C367.814 111.252 368.008 110.509 368.396 109.878C368.784 109.247 369.327 108.76 370.026 108.414C370.725 108.069 371.53 107.897 372.442 107.897C373.379 107.897 374.195 108.063 374.89 108.395C375.589 108.723 376.132 109.179 376.52 109.763C376.908 110.347 377.102 111.016 377.102 111.77C377.102 112.265 377.004 112.752 376.808 113.234C376.616 113.716 376.273 114.25 375.779 114.838C375.284 115.422 374.588 116.123 373.688 116.941L371.777 118.814V118.904H377.274V121.167H367.942ZM384.163 121.345C383.179 121.345 382.303 121.186 381.536 120.866C380.773 120.542 380.175 120.101 379.74 119.543C379.305 118.985 379.088 118.352 379.088 117.644C379.088 117.099 379.212 116.598 379.459 116.142C379.71 115.682 380.051 115.301 380.482 114.998C380.912 114.691 381.393 114.495 381.926 114.41V114.321C381.227 114.18 380.661 113.841 380.226 113.304C379.791 112.763 379.574 112.135 379.574 111.419C379.574 110.741 379.772 110.138 380.168 109.61C380.565 109.077 381.108 108.659 381.798 108.357C382.493 108.05 383.281 107.897 384.163 107.897C385.045 107.897 385.832 108.05 386.522 108.357C387.217 108.664 387.762 109.083 388.158 109.616C388.555 110.144 388.755 110.745 388.759 111.419C388.755 112.139 388.533 112.767 388.094 113.304C387.656 113.841 387.093 114.18 386.407 114.321V114.41C386.931 114.495 387.406 114.691 387.832 114.998C388.263 115.301 388.604 115.682 388.855 116.142C389.111 116.598 389.241 117.099 389.245 117.644C389.241 118.352 389.021 118.985 388.587 119.543C388.152 120.101 387.551 120.542 386.784 120.866C386.021 121.186 385.148 121.345 384.163 121.345ZM384.163 119.313C384.602 119.313 384.986 119.234 385.314 119.076C385.642 118.914 385.898 118.693 386.081 118.412C386.268 118.126 386.362 117.798 386.362 117.427C386.362 117.048 386.266 116.713 386.075 116.424C385.883 116.13 385.623 115.899 385.295 115.733C384.967 115.563 384.589 115.478 384.163 115.478C383.741 115.478 383.364 115.563 383.032 115.733C382.7 115.899 382.438 116.13 382.246 116.424C382.058 116.713 381.964 117.048 381.964 117.427C381.964 117.798 382.056 118.126 382.239 118.412C382.423 118.693 382.68 118.914 383.013 119.076C383.345 119.234 383.729 119.313 384.163 119.313ZM384.163 113.464C384.53 113.464 384.856 113.39 385.141 113.24C385.427 113.091 385.651 112.885 385.812 112.62C385.974 112.356 386.055 112.051 386.055 111.706C386.055 111.365 385.974 111.067 385.812 110.811C385.651 110.551 385.429 110.349 385.148 110.204C384.866 110.055 384.538 109.98 384.163 109.98C383.793 109.98 383.464 110.055 383.179 110.204C382.893 110.349 382.67 110.551 382.508 110.811C382.35 111.067 382.271 111.365 382.271 111.706C382.271 112.051 382.352 112.356 382.514 112.62C382.676 112.885 382.9 113.091 383.185 113.24C383.471 113.39 383.797 113.464 384.163 113.464Z" fill="white"/>
<path d="M332.091 121.167V119.172L336.751 114.858C337.147 114.474 337.48 114.129 337.748 113.822C338.021 113.515 338.228 113.215 338.368 112.921C338.509 112.622 338.579 112.301 338.579 111.956C338.579 111.572 338.492 111.242 338.317 110.965C338.142 110.684 337.904 110.468 337.601 110.319C337.299 110.166 336.956 110.089 336.572 110.089C336.172 110.089 335.822 110.17 335.524 110.332C335.226 110.494 334.995 110.726 334.834 111.029C334.672 111.331 334.591 111.691 334.591 112.109H331.964C331.964 111.252 332.157 110.509 332.545 109.878C332.933 109.247 333.476 108.76 334.175 108.414C334.874 108.069 335.679 107.897 336.591 107.897C337.529 107.897 338.345 108.063 339.04 108.395C339.738 108.723 340.282 109.179 340.669 109.763C341.057 110.347 341.251 111.016 341.251 111.77C341.251 112.265 341.153 112.752 340.957 113.234C340.765 113.716 340.422 114.25 339.928 114.838C339.434 115.422 338.737 116.123 337.838 116.941L335.927 118.814V118.904H341.424V121.167H332.091ZM348.21 121.345C347.307 121.345 346.502 121.179 345.794 120.847C345.091 120.515 344.533 120.056 344.12 119.473C343.706 118.889 343.491 118.22 343.474 117.466H346.159C346.188 117.973 346.402 118.384 346.798 118.699C347.194 119.015 347.665 119.172 348.21 119.172C348.645 119.172 349.029 119.076 349.361 118.885C349.698 118.689 349.96 118.418 350.147 118.073C350.339 117.723 350.435 117.323 350.435 116.871C350.435 116.411 350.337 116.006 350.141 115.657C349.949 115.307 349.683 115.034 349.342 114.838C349.001 114.642 348.611 114.542 348.172 114.538C347.789 114.538 347.416 114.617 347.054 114.774C346.696 114.932 346.416 115.147 346.216 115.42L343.755 114.979L344.375 108.076H352.378V110.338H346.657L346.318 113.617H346.395C346.625 113.294 346.973 113.025 347.437 112.812C347.902 112.599 348.421 112.492 348.997 112.492C349.785 112.492 350.488 112.678 351.106 113.049C351.724 113.419 352.212 113.929 352.57 114.576C352.928 115.22 353.105 115.961 353.1 116.801C353.105 117.683 352.9 118.467 352.487 119.153C352.078 119.835 351.505 120.372 350.767 120.764C350.034 121.152 349.182 121.345 348.21 121.345Z" fill="white"/>
<path d="M296.223 121.167V119.172L300.883 114.858C301.279 114.474 301.612 114.129 301.88 113.822C302.153 113.515 302.36 113.215 302.5 112.921C302.641 112.622 302.711 112.301 302.711 111.956C302.711 111.572 302.624 111.242 302.449 110.965C302.274 110.684 302.036 110.468 301.733 110.319C301.431 110.166 301.088 110.089 300.704 110.089C300.303 110.089 299.954 110.17 299.656 110.332C299.357 110.494 299.127 110.726 298.965 111.029C298.803 111.331 298.722 111.691 298.722 112.109H296.095C296.095 111.252 296.289 110.509 296.677 109.878C297.065 109.247 297.608 108.76 298.307 108.414C299.006 108.069 299.811 107.897 300.723 107.897C301.661 107.897 302.477 108.063 303.171 108.395C303.87 108.723 304.414 109.179 304.801 109.763C305.189 110.347 305.383 111.016 305.383 111.77C305.383 112.265 305.285 112.752 305.089 113.234C304.897 113.716 304.554 114.25 304.06 114.838C303.566 115.422 302.869 116.123 301.97 116.941L300.058 118.814V118.904H305.556V121.167H296.223ZM307.561 121.167V119.172L312.221 114.858C312.617 114.474 312.95 114.129 313.218 113.822C313.491 113.515 313.697 113.215 313.838 112.921C313.979 112.622 314.049 112.301 314.049 111.956C314.049 111.572 313.962 111.242 313.787 110.965C313.612 110.684 313.374 110.468 313.071 110.319C312.768 110.166 312.425 110.089 312.042 110.089C311.641 110.089 311.292 110.17 310.994 110.332C310.695 110.494 310.465 110.726 310.303 111.029C310.141 111.331 310.06 111.691 310.06 112.109H307.433C307.433 111.252 307.627 110.509 308.015 109.878C308.403 109.247 308.946 108.76 309.645 108.414C310.344 108.069 311.149 107.897 312.061 107.897C312.999 107.897 313.815 108.063 314.509 108.395C315.208 108.723 315.751 109.179 316.139 109.763C316.527 110.347 316.721 111.016 316.721 111.77C316.721 112.265 316.623 112.752 316.427 113.234C316.235 113.716 315.892 114.25 315.398 114.838C314.903 115.422 314.207 116.123 313.308 116.941L311.396 118.814V118.904H316.893V121.167H307.561Z" fill="white"/>
<path d="M266.912 108.076V121.167H264.144V110.703H264.067L261.069 112.582V110.127L264.31 108.076H266.912ZM274.759 107.897C275.433 107.897 276.081 108.01 276.703 108.235C277.329 108.461 277.887 108.821 278.377 109.316C278.872 109.81 279.262 110.466 279.547 111.284C279.837 112.098 279.984 113.098 279.988 114.282C279.988 115.394 279.862 116.387 279.611 117.261C279.364 118.13 279.008 118.87 278.544 119.479C278.079 120.088 277.519 120.553 276.862 120.872C276.206 121.188 275.473 121.345 274.664 121.345C273.79 121.345 273.019 121.177 272.35 120.841C271.681 120.5 271.142 120.037 270.733 119.453C270.328 118.865 270.083 118.205 269.997 117.472H272.727C272.833 117.949 273.057 118.32 273.398 118.584C273.739 118.844 274.161 118.974 274.664 118.974C275.516 118.974 276.164 118.603 276.607 117.862C277.05 117.116 277.274 116.095 277.278 114.8H277.188C276.992 115.184 276.728 115.514 276.396 115.791C276.063 116.064 275.682 116.274 275.252 116.424C274.826 116.573 274.372 116.647 273.89 116.647C273.119 116.647 272.431 116.466 271.826 116.104C271.22 115.742 270.743 115.243 270.394 114.608C270.044 113.973 269.87 113.249 269.87 112.435C269.865 111.557 270.068 110.775 270.477 110.089C270.886 109.403 271.457 108.866 272.19 108.478C272.927 108.086 273.784 107.892 274.759 107.897ZM274.779 110.07C274.348 110.07 273.965 110.172 273.628 110.377C273.296 110.581 273.032 110.856 272.835 111.201C272.644 111.546 272.55 111.932 272.554 112.358C272.554 112.789 272.648 113.176 272.835 113.522C273.027 113.863 273.287 114.135 273.615 114.34C273.948 114.54 274.327 114.64 274.753 114.64C275.073 114.64 275.369 114.581 275.642 114.461C275.914 114.342 276.151 114.178 276.351 113.969C276.556 113.756 276.715 113.511 276.831 113.234C276.946 112.957 277.003 112.663 277.003 112.352C276.999 111.939 276.901 111.559 276.709 111.214C276.517 110.869 276.253 110.592 275.916 110.383C275.58 110.174 275.201 110.07 274.779 110.07Z" fill="white"/>
<path d="M230.912 108.076V121.167H228.144V110.703H228.067L225.069 112.582V110.127L228.31 108.076H230.912ZM239.047 121.345C238.374 121.341 237.724 121.228 237.098 121.007C236.475 120.785 235.917 120.425 235.423 119.926C234.929 119.428 234.536 118.767 234.247 117.945C233.961 117.122 233.818 116.113 233.818 114.915C233.823 113.816 233.948 112.833 234.196 111.968C234.447 111.099 234.805 110.362 235.269 109.757C235.738 109.152 236.299 108.691 236.951 108.376C237.603 108.056 238.333 107.897 239.143 107.897C240.017 107.897 240.788 108.067 241.457 108.408C242.126 108.745 242.663 109.203 243.068 109.782C243.477 110.362 243.724 111.012 243.809 111.732H241.08C240.973 111.276 240.75 110.918 240.409 110.658C240.068 110.398 239.646 110.268 239.143 110.268C238.291 110.268 237.643 110.639 237.2 111.38C236.761 112.122 236.537 113.13 236.529 114.404H236.618C236.814 114.016 237.078 113.686 237.411 113.413C237.747 113.136 238.129 112.925 238.555 112.78C238.985 112.631 239.439 112.556 239.916 112.556C240.692 112.556 241.382 112.74 241.987 113.106C242.593 113.468 243.07 113.967 243.419 114.602C243.769 115.237 243.943 115.963 243.943 116.782C243.943 117.668 243.737 118.456 243.323 119.147C242.914 119.837 242.341 120.378 241.604 120.77C240.871 121.158 240.019 121.35 239.047 121.345ZM239.034 119.172C239.46 119.172 239.842 119.07 240.179 118.865C240.515 118.661 240.779 118.384 240.971 118.034C241.163 117.685 241.259 117.293 241.259 116.858C241.259 116.424 241.163 116.034 240.971 115.689C240.784 115.343 240.524 115.068 240.191 114.864C239.859 114.659 239.48 114.557 239.054 114.557C238.734 114.557 238.438 114.617 238.165 114.736C237.897 114.855 237.66 115.022 237.456 115.235C237.255 115.448 237.098 115.695 236.983 115.976C236.867 116.253 236.81 116.549 236.81 116.865C236.81 117.287 236.906 117.672 237.098 118.022C237.294 118.371 237.558 118.65 237.89 118.859C238.227 119.068 238.608 119.172 239.034 119.172Z" fill="white"/>
<path d="M194.92 108.076V121.167H192.153V110.703H192.076L189.078 112.582V110.127L192.319 108.076H194.92ZM202.871 121.345C201.916 121.345 201.066 121.181 200.32 120.853C199.579 120.521 198.993 120.065 198.562 119.485C198.136 118.902 197.917 118.228 197.904 117.466H200.691C200.708 117.785 200.812 118.066 201.004 118.309C201.2 118.548 201.46 118.733 201.784 118.865C202.108 118.997 202.472 119.064 202.877 119.064C203.299 119.064 203.672 118.989 203.996 118.84C204.319 118.691 204.573 118.484 204.756 118.22C204.939 117.956 205.031 117.651 205.031 117.306C205.031 116.956 204.933 116.647 204.737 116.379C204.545 116.106 204.268 115.893 203.906 115.74C203.548 115.586 203.122 115.51 202.628 115.51H201.407V113.477H202.628C203.045 113.477 203.414 113.404 203.733 113.26C204.057 113.115 204.309 112.914 204.488 112.659C204.667 112.399 204.756 112.096 204.756 111.751C204.756 111.423 204.677 111.135 204.52 110.888C204.366 110.637 204.149 110.441 203.868 110.3C203.591 110.159 203.267 110.089 202.896 110.089C202.521 110.089 202.178 110.157 201.867 110.294C201.556 110.426 201.307 110.615 201.119 110.863C200.932 111.11 200.831 111.399 200.819 111.732H198.166C198.179 110.978 198.394 110.313 198.812 109.738C199.229 109.162 199.792 108.713 200.499 108.389C201.211 108.061 202.014 107.897 202.909 107.897C203.812 107.897 204.603 108.061 205.28 108.389C205.958 108.717 206.484 109.16 206.859 109.718C207.238 110.272 207.426 110.894 207.422 111.585C207.426 112.318 207.198 112.929 206.738 113.419C206.282 113.909 205.687 114.22 204.954 114.353V114.455C205.917 114.578 206.65 114.913 207.153 115.458C207.66 116 207.912 116.677 207.907 117.491C207.912 118.237 207.697 118.899 207.262 119.479C206.831 120.059 206.237 120.515 205.479 120.847C204.72 121.179 203.851 121.345 202.871 121.345Z" fill="white"/>
<path d="M158.657 108.076V121.167H155.889V110.703H155.812L152.814 112.582V110.127L156.055 108.076H158.657ZM166.901 121.454C165.801 121.45 164.855 121.179 164.063 120.642C163.275 120.105 162.667 119.328 162.241 118.309C161.819 117.291 161.61 116.066 161.615 114.634C161.615 113.206 161.826 111.99 162.248 110.984C162.674 109.978 163.281 109.213 164.069 108.689C164.862 108.161 165.806 107.897 166.901 107.897C167.996 107.897 168.938 108.161 169.726 108.689C170.519 109.218 171.128 109.985 171.554 110.99C171.98 111.992 172.191 113.206 172.187 114.634C172.187 116.07 171.974 117.297 171.548 118.316C171.126 119.334 170.521 120.112 169.733 120.649C168.944 121.186 168 121.454 166.901 121.454ZM166.901 119.159C167.651 119.159 168.25 118.782 168.697 118.028C169.145 117.274 169.366 116.142 169.362 114.634C169.362 113.641 169.26 112.814 169.055 112.154C168.855 111.493 168.569 110.997 168.199 110.664C167.832 110.332 167.4 110.166 166.901 110.166C166.155 110.166 165.559 110.539 165.111 111.284C164.664 112.03 164.438 113.147 164.434 114.634C164.434 115.64 164.534 116.479 164.734 117.152C164.939 117.821 165.226 118.324 165.597 118.661C165.968 118.993 166.402 119.159 166.901 119.159Z" fill="white"/>
<path d="M122.726 121.167L128.153 110.428V110.338H121.831V108.076H131.017V110.37L125.584 121.167H122.726Z" fill="white"/>
<path d="M85.2633 118.865V116.686L90.7285 108.076H92.6078V111.093H91.4956L88.0502 116.545V116.647H95.8166V118.865H85.2633ZM91.5467 121.167V118.201L91.5978 117.235V108.076H94.193V121.167H91.5467Z" fill="white"/>
<path d="M56.8531 108.076V121.167H54.0853V110.703H54.0086L51.0107 112.582V110.127L54.2515 108.076H56.8531Z" fill="white"/>
<path d="M444.666 75.679C443.712 75.679 442.862 75.5149 442.116 75.1868C441.375 74.8544 440.789 74.3984 440.358 73.8189C439.932 73.2351 439.713 72.5618 439.7 71.799H442.487C442.504 72.1186 442.608 72.3999 442.8 72.6428C442.996 72.8814 443.256 73.0668 443.58 73.1989C443.904 73.331 444.268 73.397 444.673 73.397C445.095 73.397 445.468 73.3224 445.791 73.1733C446.115 73.0241 446.369 72.8175 446.552 72.5533C446.735 72.2891 446.827 71.9844 446.827 71.6392C446.827 71.2898 446.729 70.9808 446.533 70.7124C446.341 70.4396 446.064 70.2266 445.702 70.0732C445.344 69.9197 444.918 69.843 444.424 69.843H443.203V67.8104H444.424C444.841 67.8104 445.21 67.7379 445.529 67.593C445.853 67.4482 446.105 67.2479 446.284 66.9922C446.463 66.7322 446.552 66.4297 446.552 66.0845C446.552 65.7564 446.473 65.4688 446.316 65.2216C446.162 64.9702 445.945 64.7741 445.664 64.6335C445.387 64.4929 445.063 64.4226 444.692 64.4226C444.317 64.4226 443.974 64.4908 443.663 64.6271C443.352 64.7592 443.103 64.9489 442.915 65.196C442.728 65.4432 442.627 65.733 442.615 66.0653H439.962C439.975 65.3111 440.19 64.6463 440.608 64.071C441.025 63.4957 441.588 63.0462 442.295 62.7223C443.007 62.3942 443.81 62.2301 444.705 62.2301C445.608 62.2301 446.399 62.3942 447.076 62.7223C447.754 63.0504 448.28 63.4936 448.655 64.0518C449.034 64.6058 449.222 65.228 449.218 65.9183C449.222 66.6513 448.994 67.2628 448.534 67.7528C448.078 68.2429 447.483 68.554 446.75 68.6861V68.7884C447.713 68.9119 448.446 69.2464 448.949 69.7919C449.456 70.3331 449.708 71.0107 449.703 71.8246C449.708 72.5703 449.492 73.233 449.058 73.8125C448.627 74.392 448.033 74.848 447.274 75.1804C446.516 75.5128 445.647 75.679 444.666 75.679ZM456.474 75.679C455.571 75.679 454.765 75.5128 454.058 75.1804C453.355 74.848 452.797 74.3899 452.383 73.8061C451.97 73.2223 451.755 72.5533 451.738 71.799H454.422C454.452 72.3061 454.665 72.7173 455.062 73.0327C455.458 73.348 455.929 73.5057 456.474 73.5057C456.909 73.5057 457.292 73.4098 457.625 73.218C457.961 73.022 458.223 72.7514 458.411 72.4062C458.603 72.0568 458.699 71.6562 458.699 71.2045C458.699 70.7443 458.601 70.3395 458.405 69.9901C458.213 69.6406 457.946 69.3679 457.606 69.1719C457.265 68.9759 456.875 68.8757 456.436 68.8714C456.052 68.8714 455.679 68.9503 455.317 69.108C454.959 69.2656 454.68 69.4808 454.48 69.7536L452.019 69.3125L452.639 62.4091H460.642V64.6719H454.921L454.582 67.951H454.659C454.889 67.6271 455.236 67.3587 455.701 67.1456C456.165 66.9325 456.685 66.826 457.26 66.826C458.049 66.826 458.752 67.0114 459.37 67.3821C459.988 67.7528 460.476 68.2621 460.834 68.9098C461.191 69.5533 461.368 70.2947 461.364 71.1342C461.368 72.0163 461.164 72.8004 460.75 73.4865C460.341 74.1683 459.768 74.7053 459.031 75.0973C458.298 75.4851 457.446 75.679 456.474 75.679Z" fill="white"/>
<path d="M408.798 75.679C407.844 75.679 406.994 75.5149 406.248 75.1868C405.506 74.8544 404.92 74.3984 404.49 73.8189C404.064 73.2351 403.844 72.5618 403.832 71.799H406.619C406.636 72.1186 406.74 72.3999 406.932 72.6428C407.128 72.8814 407.388 73.0668 407.712 73.1989C408.036 73.331 408.4 73.397 408.805 73.397C409.227 73.397 409.599 73.3224 409.923 73.1733C410.247 73.0241 410.501 72.8175 410.684 72.5533C410.867 72.2891 410.959 71.9844 410.959 71.6392C410.959 71.2898 410.861 70.9808 410.665 70.7124C410.473 70.4396 410.196 70.2266 409.834 70.0732C409.476 69.9197 409.05 69.843 408.555 69.843H407.335V67.8104H408.555C408.973 67.8104 409.342 67.7379 409.661 67.593C409.985 67.4482 410.237 67.2479 410.415 66.9922C410.594 66.7322 410.684 66.4297 410.684 66.0845C410.684 65.7564 410.605 65.4688 410.447 65.2216C410.294 64.9702 410.077 64.7741 409.795 64.6335C409.518 64.4929 409.195 64.4226 408.824 64.4226C408.449 64.4226 408.106 64.4908 407.795 64.6271C407.484 64.7592 407.234 64.9489 407.047 65.196C406.859 65.4432 406.759 65.733 406.746 66.0653H404.094C404.107 65.3111 404.322 64.6463 404.739 64.071C405.157 63.4957 405.719 63.0462 406.427 62.7223C407.138 62.3942 407.942 62.2301 408.837 62.2301C409.74 62.2301 410.531 62.3942 411.208 62.7223C411.886 63.0504 412.412 63.4936 412.787 64.0518C413.166 64.6058 413.354 65.228 413.349 65.9183C413.354 66.6513 413.126 67.2628 412.665 67.7528C412.21 68.2429 411.615 68.554 410.882 68.6861V68.7884C411.845 68.9119 412.578 69.2464 413.081 69.7919C413.588 70.3331 413.839 71.0107 413.835 71.8246C413.839 72.5703 413.624 73.233 413.19 73.8125C412.759 74.392 412.165 74.848 411.406 75.1804C410.648 75.5128 409.778 75.679 408.798 75.679ZM415.825 75.5V73.5057L420.485 69.1911C420.881 68.8075 421.213 68.4624 421.482 68.1555C421.754 67.8487 421.961 67.5483 422.102 67.2543C422.242 66.956 422.313 66.6342 422.313 66.2891C422.313 65.9055 422.225 65.5753 422.051 65.2983C421.876 65.017 421.637 64.8018 421.335 64.6527C421.032 64.4993 420.689 64.4226 420.306 64.4226C419.905 64.4226 419.556 64.5036 419.257 64.6655C418.959 64.8274 418.729 65.0597 418.567 65.3622C418.405 65.6648 418.324 66.0249 418.324 66.4425H415.697C415.697 65.5859 415.891 64.8423 416.279 64.2116C416.666 63.581 417.21 63.093 417.909 62.7479C418.607 62.4027 419.413 62.2301 420.325 62.2301C421.262 62.2301 422.078 62.3963 422.773 62.7287C423.472 63.0568 424.015 63.5128 424.403 64.0966C424.791 64.6804 424.985 65.3494 424.985 66.1037C424.985 66.598 424.887 67.0859 424.691 67.5675C424.499 68.049 424.156 68.5838 423.661 69.1719C423.167 69.7557 422.47 70.4567 421.571 71.2749L419.66 73.1477V73.2372H425.157V75.5H415.825Z" fill="white"/>
<path d="M367.951 75.5V73.5057L372.611 69.1911C373.007 68.8075 373.339 68.4624 373.608 68.1555C373.88 67.8487 374.087 67.5483 374.228 67.2543C374.368 66.956 374.439 66.6342 374.439 66.2891C374.439 65.9055 374.351 65.5753 374.177 65.2983C374.002 65.017 373.763 64.8018 373.461 64.6527C373.158 64.4993 372.815 64.4226 372.432 64.4226C372.031 64.4226 371.682 64.5036 371.383 64.6655C371.085 64.8274 370.855 65.0597 370.693 65.3622C370.531 65.6648 370.45 66.0249 370.45 66.4425H367.823C367.823 65.5859 368.017 64.8423 368.405 64.2116C368.792 63.581 369.336 63.093 370.035 62.7479C370.733 62.4027 371.539 62.2301 372.451 62.2301C373.388 62.2301 374.204 62.3963 374.899 62.7287C375.598 63.0568 376.141 63.5128 376.529 64.0966C376.917 64.6804 377.111 65.3494 377.111 66.1037C377.111 66.598 377.013 67.0859 376.816 67.5675C376.625 68.049 376.282 68.5838 375.787 69.1719C375.293 69.7557 374.596 70.4567 373.697 71.2749L371.786 73.1477V73.2372H377.283V75.5H367.951ZM384.025 62.2301C384.698 62.2301 385.346 62.343 385.968 62.5689C386.595 62.7947 387.153 63.1548 387.643 63.6491C388.137 64.1435 388.527 64.7997 388.813 65.6179C389.103 66.4318 389.25 67.4311 389.254 68.6158C389.254 69.728 389.128 70.7209 388.877 71.5945C388.63 72.4638 388.274 73.2031 387.809 73.8125C387.345 74.4219 386.784 74.8864 386.128 75.206C385.472 75.5213 384.739 75.679 383.929 75.679C383.056 75.679 382.284 75.5107 381.615 75.174C380.946 74.8331 380.407 74.3707 379.998 73.7869C379.593 73.1989 379.348 72.5384 379.263 71.8054H381.992C382.099 72.2827 382.323 72.6534 382.664 72.9176C383.005 73.1776 383.426 73.3075 383.929 73.3075C384.782 73.3075 385.429 72.9368 385.872 72.1953C386.316 71.4496 386.539 70.429 386.544 69.1335H386.454C386.258 69.517 385.994 69.8473 385.661 70.1243C385.329 70.397 384.948 70.608 384.517 70.7571C384.091 70.9062 383.637 70.9808 383.156 70.9808C382.384 70.9808 381.696 70.7997 381.091 70.4375C380.486 70.0753 380.009 69.5767 379.659 68.9418C379.31 68.3068 379.135 67.5824 379.135 66.7685C379.131 65.8906 379.333 65.1087 379.742 64.4226C380.152 63.7365 380.723 63.1996 381.456 62.8118C382.193 62.4197 383.049 62.2259 384.025 62.2301ZM384.044 64.4034C383.614 64.4034 383.23 64.5057 382.894 64.7102C382.561 64.9148 382.297 65.1896 382.101 65.5348C381.909 65.88 381.816 66.2656 381.82 66.6918C381.82 67.1222 381.914 67.5099 382.101 67.8551C382.293 68.196 382.553 68.4687 382.881 68.6733C383.213 68.8736 383.593 68.9737 384.019 68.9737C384.338 68.9737 384.634 68.9141 384.907 68.7947C385.18 68.6754 385.416 68.5114 385.617 68.3026C385.821 68.0895 385.981 67.8445 386.096 67.5675C386.211 67.2905 386.269 66.9964 386.269 66.6854C386.264 66.272 386.166 65.8928 385.975 65.5476C385.783 65.2024 385.519 64.9254 385.182 64.7166C384.845 64.5078 384.466 64.4034 384.044 64.4034Z" fill="white"/>
<path d="M331.951 75.5V73.5057L336.611 69.1911C337.007 68.8075 337.339 68.4624 337.608 68.1555C337.88 67.8487 338.087 67.5483 338.228 67.2543C338.368 66.956 338.439 66.6342 338.439 66.2891C338.439 65.9055 338.351 65.5753 338.177 65.2983C338.002 65.017 337.763 64.8018 337.461 64.6527C337.158 64.4993 336.815 64.4226 336.432 64.4226C336.031 64.4226 335.682 64.5036 335.383 64.6655C335.085 64.8274 334.855 65.0597 334.693 65.3622C334.531 65.6648 334.45 66.0249 334.45 66.4425H331.823C331.823 65.5859 332.017 64.8423 332.405 64.2116C332.792 63.581 333.336 63.093 334.035 62.7479C334.733 62.4027 335.539 62.2301 336.451 62.2301C337.388 62.2301 338.204 62.3963 338.899 62.7287C339.598 63.0568 340.141 63.5128 340.529 64.0966C340.917 64.6804 341.111 65.3494 341.111 66.1037C341.111 66.598 341.013 67.0859 340.816 67.5675C340.625 68.049 340.282 68.5838 339.787 69.1719C339.293 69.7557 338.596 70.4567 337.697 71.2749L335.786 73.1477V73.2372H341.283V75.5H331.951ZM348.313 75.679C347.639 75.6747 346.99 75.5618 346.363 75.3402C345.741 75.1186 345.183 74.7585 344.688 74.2599C344.194 73.7614 343.802 73.1009 343.512 72.2784C343.227 71.456 343.084 70.446 343.084 69.2486C343.088 68.1491 343.214 67.1669 343.461 66.3018C343.713 65.4325 344.071 64.6953 344.535 64.0902C345.004 63.4851 345.564 63.0249 346.216 62.7095C346.868 62.3899 347.599 62.2301 348.409 62.2301C349.282 62.2301 350.054 62.4006 350.723 62.7415C351.392 63.0781 351.929 63.5362 352.333 64.1158C352.742 64.6953 352.99 65.3452 353.075 66.0653H350.345C350.239 65.6094 350.015 65.2514 349.674 64.9915C349.333 64.7315 348.911 64.6016 348.409 64.6016C347.556 64.6016 346.909 64.9723 346.465 65.7138C346.027 66.4553 345.803 67.4631 345.794 68.7372H345.884C346.08 68.3494 346.344 68.0192 346.676 67.7464C347.013 67.4695 347.394 67.2585 347.821 67.1136C348.251 66.9645 348.705 66.8899 349.182 66.8899C349.958 66.8899 350.648 67.0732 351.253 67.4396C351.858 67.8018 352.335 68.3004 352.685 68.9354C353.034 69.5703 353.209 70.2969 353.209 71.1151C353.209 72.0014 353.002 72.7898 352.589 73.4801C352.18 74.1705 351.607 74.7116 350.87 75.1037C350.137 75.4915 349.284 75.6832 348.313 75.679ZM348.3 73.5057C348.726 73.5057 349.108 73.4034 349.444 73.1989C349.781 72.9943 350.045 72.7173 350.237 72.3679C350.429 72.0185 350.524 71.6264 350.524 71.1918C350.524 70.7571 350.429 70.3672 350.237 70.022C350.049 69.6768 349.789 69.402 349.457 69.1974C349.125 68.9929 348.745 68.8906 348.319 68.8906C348 68.8906 347.703 68.9503 347.431 69.0696C347.162 69.1889 346.926 69.3551 346.721 69.5682C346.521 69.7812 346.363 70.0284 346.248 70.3097C346.133 70.5866 346.076 70.8828 346.076 71.1982C346.076 71.62 346.171 72.0057 346.363 72.3551C346.559 72.7045 346.823 72.9837 347.156 73.1925C347.492 73.4013 347.874 73.5057 348.3 73.5057Z" fill="white"/>
<path d="M295.96 75.5V73.5057L300.619 69.1911C301.016 68.8075 301.348 68.4624 301.616 68.1555C301.889 67.8487 302.096 67.5483 302.237 67.2543C302.377 66.956 302.447 66.6342 302.447 66.2891C302.447 65.9055 302.36 65.5753 302.185 65.2983C302.011 65.017 301.772 64.8018 301.469 64.6527C301.167 64.4993 300.824 64.4226 300.44 64.4226C300.04 64.4226 299.69 64.5036 299.392 64.6655C299.094 64.8274 298.864 65.0597 298.702 65.3622C298.54 65.6648 298.459 66.0249 298.459 66.4425H295.832C295.832 65.5859 296.026 64.8423 296.413 64.2116C296.801 63.581 297.344 63.093 298.043 62.7479C298.742 62.4027 299.548 62.2301 300.46 62.2301C301.397 62.2301 302.213 62.3963 302.908 62.7287C303.607 63.0568 304.15 63.5128 304.538 64.0966C304.925 64.6804 305.119 65.3494 305.119 66.1037C305.119 66.598 305.021 67.0859 304.825 67.5675C304.634 68.049 304.29 68.5838 303.796 69.1719C303.302 69.7557 302.605 70.4567 301.706 71.2749L299.795 73.1477V73.2372H305.292V75.5H295.96ZM312.136 75.679C311.182 75.679 310.331 75.5149 309.586 75.1868C308.844 74.8544 308.258 74.3984 307.828 73.8189C307.402 73.2351 307.182 72.5618 307.17 71.799H309.956C309.974 72.1186 310.078 72.3999 310.27 72.6428C310.466 72.8814 310.726 73.0668 311.05 73.1989C311.373 73.331 311.738 73.397 312.143 73.397C312.564 73.397 312.937 73.3224 313.261 73.1733C313.585 73.0241 313.839 72.8175 314.022 72.5533C314.205 72.2891 314.297 71.9844 314.297 71.6392C314.297 71.2898 314.199 70.9808 314.003 70.7124C313.811 70.4396 313.534 70.2266 313.172 70.0732C312.814 69.9197 312.388 69.843 311.893 69.843H310.672V67.8104H311.893C312.311 67.8104 312.68 67.7379 312.999 67.593C313.323 67.4482 313.574 67.2479 313.753 66.9922C313.932 66.7322 314.022 66.4297 314.022 66.0845C314.022 65.7564 313.943 65.4688 313.785 65.2216C313.632 64.9702 313.415 64.7741 313.133 64.6335C312.856 64.4929 312.532 64.4226 312.162 64.4226C311.787 64.4226 311.444 64.4908 311.133 64.6271C310.822 64.7592 310.572 64.9489 310.385 65.196C310.197 65.4432 310.097 65.733 310.084 66.0653H307.432C307.444 65.3111 307.66 64.6463 308.077 64.071C308.495 63.4957 309.057 63.0462 309.765 62.7223C310.476 62.3942 311.28 62.2301 312.175 62.2301C313.078 62.2301 313.868 62.3942 314.546 62.7223C315.224 63.0504 315.75 63.4936 316.125 64.0518C316.504 64.6058 316.692 65.228 316.687 65.9183C316.692 66.6513 316.464 67.2628 316.003 67.7528C315.547 68.2429 314.953 68.554 314.22 68.6861V68.7884C315.183 68.9119 315.916 69.2464 316.419 69.7919C316.926 70.3331 317.177 71.0107 317.173 71.8246C317.177 72.5703 316.962 73.233 316.528 73.8125C316.097 74.392 315.503 74.848 314.744 75.1804C313.986 75.5128 313.116 75.679 312.136 75.679Z" fill="white"/>
<path d="M259.696 75.5V73.5057L264.356 69.1911C264.752 68.8075 265.084 68.4624 265.353 68.1555C265.626 67.8487 265.832 67.5483 265.973 67.2543C266.113 66.956 266.184 66.6342 266.184 66.2891C266.184 65.9055 266.096 65.5753 265.922 65.2983C265.747 65.017 265.508 64.8018 265.206 64.6527C264.903 64.4993 264.56 64.4226 264.177 64.4226C263.776 64.4226 263.427 64.5036 263.128 64.6655C262.83 64.8274 262.6 65.0597 262.438 65.3622C262.276 65.6648 262.195 66.0249 262.195 66.4425H259.568C259.568 65.5859 259.762 64.8423 260.15 64.2116C260.537 63.581 261.081 63.093 261.78 62.7479C262.479 62.4027 263.284 62.2301 264.196 62.2301C265.133 62.2301 265.949 62.3963 266.644 62.7287C267.343 63.0568 267.886 63.5128 268.274 64.0966C268.662 64.6804 268.856 65.3494 268.856 66.1037C268.856 66.598 268.758 67.0859 268.562 67.5675C268.37 68.049 268.027 68.5838 267.532 69.1719C267.038 69.7557 266.341 70.4567 265.442 71.2749L263.531 73.1477V73.2372H269.028V75.5H259.696ZM276.167 75.7876C275.067 75.7834 274.121 75.5128 273.328 74.9759C272.54 74.4389 271.933 73.6612 271.507 72.6428C271.085 71.6243 270.876 70.3991 270.88 68.9673C270.88 67.5398 271.091 66.3232 271.513 65.3175C271.939 64.3118 272.547 63.5469 273.335 63.0227C274.127 62.4943 275.071 62.2301 276.167 62.2301C277.262 62.2301 278.203 62.4943 278.992 63.0227C279.784 63.5511 280.394 64.3182 280.82 65.3239C281.246 66.3253 281.457 67.5398 281.453 68.9673C281.453 70.4034 281.24 71.6307 280.814 72.6491C280.392 73.6676 279.787 74.4453 278.998 74.9822C278.21 75.5192 277.266 75.7876 276.167 75.7876ZM276.167 73.4929C276.917 73.4929 277.515 73.1158 277.963 72.3615C278.41 71.6072 278.632 70.4759 278.627 68.9673C278.627 67.9744 278.525 67.1477 278.321 66.4872C278.12 65.8267 277.835 65.3303 277.464 64.9979C277.098 64.6655 276.665 64.4993 276.167 64.4993C275.421 64.4993 274.824 64.8722 274.377 65.6179C273.929 66.3636 273.703 67.4801 273.699 68.9673C273.699 69.973 273.799 70.8125 274 71.4858C274.204 72.1548 274.492 72.6577 274.863 72.9943C275.233 73.3267 275.668 73.4929 276.167 73.4929Z" fill="white"/>
<path d="M231.501 62.4091V75.5H228.733V65.0362H228.656L225.658 66.9155V64.4609L228.899 62.4091H231.501ZM235.13 75.5L240.556 64.7614V64.6719H234.235V62.4091H243.42V64.7038L237.987 75.5H235.13Z" fill="white"/>
<path d="M194.753 62.4091V75.5H191.986V65.0362H191.909L188.911 66.9155V64.4609L192.152 62.4091H194.753ZM197.667 73.1989V71.0192L203.132 62.4091H205.011V65.4261H203.899L200.454 70.8786V70.9808H208.22V73.1989H197.667ZM203.95 75.5V72.5341L204.001 71.5689V62.4091H206.596V75.5H203.95Z" fill="white"/>
<path d="M160.45 62.4091V75.5H157.682V65.0362H157.605L154.607 66.9155V64.4609L157.848 62.4091H160.45ZM169.256 62.4091V75.5H166.489V65.0362H166.412L163.414 66.9155V64.4609L166.655 62.4091H169.256Z" fill="white"/>
<path d="M126.494 75.679C125.51 75.679 124.634 75.5192 123.867 75.1996C123.104 74.8757 122.506 74.4347 122.071 73.8764C121.636 73.3182 121.419 72.6854 121.419 71.978C121.419 71.4325 121.543 70.9318 121.79 70.4759C122.041 70.0156 122.382 69.6342 122.813 69.3317C123.243 69.0249 123.725 68.8288 124.257 68.7436V68.6541C123.558 68.5135 122.992 68.1747 122.557 67.6378C122.122 67.0966 121.905 66.468 121.905 65.7521C121.905 65.0746 122.103 64.4716 122.499 63.9432C122.896 63.4105 123.439 62.9929 124.129 62.6903C124.824 62.3835 125.612 62.2301 126.494 62.2301C127.377 62.2301 128.163 62.3835 128.853 62.6903C129.548 62.9972 130.093 63.4169 130.489 63.9496C130.886 64.478 131.086 65.0788 131.09 65.7521C131.086 66.4723 130.864 67.1009 130.426 67.6378C129.987 68.1747 129.424 68.5135 128.738 68.6541V68.7436C129.262 68.8288 129.737 69.0249 130.163 69.3317C130.594 69.6342 130.935 70.0156 131.186 70.4759C131.442 70.9318 131.572 71.4325 131.576 71.978C131.572 72.6854 131.352 73.3182 130.918 73.8764C130.483 74.4347 129.882 74.8757 129.115 75.1996C128.352 75.5192 127.479 75.679 126.494 75.679ZM126.494 73.6463C126.933 73.6463 127.317 73.5675 127.645 73.4098C127.973 73.2479 128.229 73.0263 128.412 72.745C128.6 72.4595 128.693 72.1314 128.693 71.7607C128.693 71.3814 128.597 71.0469 128.406 70.7571C128.214 70.4631 127.954 70.233 127.626 70.0668C127.298 69.8963 126.921 69.8111 126.494 69.8111C126.073 69.8111 125.695 69.8963 125.363 70.0668C125.031 70.233 124.769 70.4631 124.577 70.7571C124.389 71.0469 124.296 71.3814 124.296 71.7607C124.296 72.1314 124.387 72.4595 124.57 72.745C124.754 73.0263 125.011 73.2479 125.344 73.4098C125.676 73.5675 126.06 73.6463 126.494 73.6463ZM126.494 67.7976C126.861 67.7976 127.187 67.723 127.472 67.5739C127.758 67.4247 127.982 67.218 128.144 66.9538C128.305 66.6896 128.386 66.3849 128.386 66.0398C128.386 65.6989 128.305 65.4006 128.144 65.1449C127.982 64.8849 127.76 64.6825 127.479 64.5376C127.198 64.3885 126.869 64.3139 126.494 64.3139C126.124 64.3139 125.796 64.3885 125.51 64.5376C125.225 64.6825 125.001 64.8849 124.839 65.1449C124.681 65.4006 124.602 65.6989 124.602 66.0398C124.602 66.3849 124.683 66.6896 124.845 66.9538C125.007 67.218 125.231 67.4247 125.516 67.5739C125.802 67.723 126.128 67.7976 126.494 67.7976Z" fill="white"/>
<path d="M90.5415 75.679C89.6381 75.679 88.8327 75.5128 88.1254 75.1804C87.4222 74.848 86.864 74.3899 86.4506 73.8061C86.0373 73.2223 85.8221 72.5533 85.805 71.799H88.4897C88.5195 72.3061 88.7326 72.7173 89.1289 73.0327C89.5252 73.348 89.9961 73.5057 90.5415 73.5057C90.9762 73.5057 91.3597 73.4098 91.6921 73.218C92.0288 73.022 92.2908 72.7514 92.4783 72.4062C92.6701 72.0568 92.766 71.6562 92.766 71.2045C92.766 70.7443 92.668 70.3395 92.4719 69.9901C92.2802 69.6406 92.0138 69.3679 91.6729 69.1719C91.332 68.9759 90.9421 68.8757 90.5032 68.8714C90.1197 68.8714 89.7468 68.9503 89.3846 69.108C89.0266 69.2656 88.7475 69.4808 88.5472 69.7536L86.0863 69.3125L86.7063 62.4091H94.7092V64.6719H88.9883L88.6495 67.951H88.7262C88.9563 67.6271 89.3036 67.3587 89.7681 67.1456C90.2326 66.9325 90.7525 66.826 91.3278 66.826C92.1161 66.826 92.8192 67.0114 93.4371 67.3821C94.055 67.7528 94.543 68.2621 94.9009 68.9098C95.2589 69.5533 95.4357 70.2947 95.4315 71.1342C95.4357 72.0163 95.2312 72.8004 94.8178 73.4865C94.4087 74.1683 93.8356 74.7053 93.0984 75.0973C92.3654 75.4851 91.5131 75.679 90.5415 75.679Z" fill="white"/>
<path d="M49.8921 75.5V73.5057L54.5519 69.1911C54.9482 68.8075 55.2806 68.4624 55.5491 68.1555C55.8218 67.8487 56.0285 67.5483 56.1691 67.2543C56.3097 66.956 56.3801 66.6342 56.3801 66.2891C56.3801 65.9055 56.2927 65.5753 56.118 65.2983C55.9433 65.017 55.7046 64.8018 55.4021 64.6527C55.0995 64.4993 54.7565 64.4226 54.373 64.4226C53.9724 64.4226 53.623 64.5036 53.3247 64.6655C53.0264 64.8274 52.7963 65.0597 52.6343 65.3622C52.4724 65.6648 52.3914 66.0249 52.3914 66.4425H49.7643C49.7643 65.5859 49.9582 64.8423 50.346 64.2116C50.7338 63.581 51.2771 63.093 51.9759 62.7479C52.6748 62.4027 53.4802 62.2301 54.3921 62.2301C55.3296 62.2301 56.1457 62.3963 56.8403 62.7287C57.5392 63.0568 58.0825 63.5128 58.4703 64.0966C58.858 64.6804 59.0519 65.3494 59.0519 66.1037C59.0519 66.598 58.9539 67.0859 58.7579 67.5675C58.5661 68.049 58.2231 68.5838 57.7288 69.1719C57.2345 69.7557 56.5377 70.4567 55.6386 71.2749L53.7274 73.1477V73.2372H59.2245V75.5H49.8921Z" fill="white"/>
<path d="M444.526 30.0122C443.571 30.0122 442.721 29.8482 441.975 29.52C441.234 29.1877 440.648 28.7317 440.218 28.1521C439.791 27.5683 439.572 26.895 439.559 26.1323H442.346C442.363 26.4519 442.468 26.7331 442.659 26.976C442.855 27.2146 443.115 27.4 443.439 27.5321C443.763 27.6642 444.127 27.7303 444.532 27.7303C444.954 27.7303 445.327 27.6557 445.651 27.5065C445.975 27.3574 446.228 27.1507 446.411 26.8865C446.595 26.6223 446.686 26.3176 446.686 25.9725C446.686 25.623 446.588 25.3141 446.392 25.0456C446.201 24.7729 445.924 24.5598 445.561 24.4064C445.203 24.253 444.777 24.1763 444.283 24.1763H443.062V22.1436H444.283C444.701 22.1436 445.069 22.0712 445.389 21.9263C445.713 21.7814 445.964 21.5811 446.143 21.3254C446.322 21.0655 446.411 20.7629 446.411 20.4178C446.411 20.0896 446.333 19.802 446.175 19.5548C446.022 19.3034 445.804 19.1074 445.523 18.9668C445.246 18.8261 444.922 18.7558 444.551 18.7558C444.176 18.7558 443.833 18.824 443.522 18.9604C443.211 19.0925 442.962 19.2821 442.774 19.5293C442.587 19.7764 442.487 20.0662 442.474 20.3986H439.821C439.834 19.6443 440.049 18.9796 440.467 18.4043C440.884 17.829 441.447 17.3794 442.154 17.0556C442.866 16.7274 443.669 16.5634 444.564 16.5634C445.468 16.5634 446.258 16.7274 446.936 17.0556C447.613 17.3837 448.139 17.8269 448.514 18.3851C448.894 18.9391 449.081 19.5612 449.077 20.2516C449.081 20.9845 448.853 21.596 448.393 22.0861C447.937 22.5761 447.343 22.8872 446.61 23.0193V23.1216C447.573 23.2452 448.306 23.5797 448.809 24.1252C449.316 24.6663 449.567 25.3439 449.563 26.1578C449.567 26.9036 449.352 27.5662 448.917 28.1458C448.487 28.7253 447.892 29.1813 447.134 29.5136C446.375 29.846 445.506 30.0122 444.526 30.0122ZM456.576 30.0122C455.903 30.008 455.253 29.895 454.627 29.6735C454.005 29.4519 453.446 29.0918 452.952 28.5932C452.458 28.0946 452.066 27.4341 451.776 26.6117C451.491 25.7892 451.348 24.7793 451.348 23.5818C451.352 22.4824 451.478 21.5002 451.725 20.6351C451.976 19.7658 452.334 19.0286 452.799 18.4235C453.267 17.8183 453.828 17.3581 454.48 17.0428C455.132 16.7232 455.863 16.5634 456.672 16.5634C457.546 16.5634 458.317 16.7338 458.986 17.0747C459.655 17.4114 460.192 17.8695 460.597 18.449C461.006 19.0286 461.253 19.6784 461.339 20.3986H458.609C458.503 19.9426 458.279 19.5847 457.938 19.3247C457.597 19.0648 457.175 18.9348 456.672 18.9348C455.82 18.9348 455.172 19.3056 454.729 20.047C454.29 20.7885 454.066 21.7963 454.058 23.0705H454.147C454.343 22.6827 454.608 22.3524 454.94 22.0797C455.277 21.8027 455.658 21.5918 456.084 21.4469C456.515 21.2977 456.968 21.2232 457.446 21.2232C458.221 21.2232 458.912 21.4064 459.517 21.7729C460.122 22.1351 460.599 22.6337 460.949 23.2686C461.298 23.9036 461.473 24.6301 461.473 25.4483C461.473 26.3347 461.266 27.123 460.853 27.8134C460.444 28.5037 459.87 29.0449 459.133 29.4369C458.4 29.8247 457.548 30.0165 456.576 30.0122ZM456.564 27.8389C456.99 27.8389 457.371 27.7367 457.708 27.5321C458.044 27.3276 458.309 27.0506 458.5 26.7011C458.692 26.3517 458.788 25.9597 458.788 25.525C458.788 25.0904 458.692 24.7004 458.5 24.3553C458.313 24.0101 458.053 23.7352 457.721 23.5307C457.388 23.3261 457.009 23.2239 456.583 23.2239C456.263 23.2239 455.967 23.2835 455.694 23.4029C455.426 23.5222 455.189 23.6884 454.985 23.9014C454.785 24.1145 454.627 24.3617 454.512 24.6429C454.397 24.9199 454.339 25.2161 454.339 25.5314C454.339 25.9533 454.435 26.3389 454.627 26.6884C454.823 27.0378 455.087 27.3169 455.419 27.5257C455.756 27.7345 456.138 27.8389 456.564 27.8389Z" fill="white"/>
<path d="M408.535 30.0122C407.58 30.0122 406.73 29.8482 405.984 29.52C405.243 29.1877 404.657 28.7317 404.226 28.1521C403.8 27.5683 403.581 26.895 403.568 26.1323H406.355C406.372 26.4519 406.476 26.7331 406.668 26.976C406.864 27.2146 407.124 27.4 407.448 27.5321C407.772 27.6642 408.136 27.7303 408.541 27.7303C408.963 27.7303 409.336 27.6557 409.66 27.5065C409.983 27.3574 410.237 27.1507 410.42 26.8865C410.604 26.6223 410.695 26.3176 410.695 25.9725C410.695 25.623 410.597 25.3141 410.401 25.0456C410.209 24.7729 409.932 24.5598 409.57 24.4064C409.212 24.253 408.786 24.1763 408.292 24.1763H407.071V22.1436H408.292C408.709 22.1436 409.078 22.0712 409.398 21.9263C409.721 21.7814 409.973 21.5811 410.152 21.3254C410.331 21.0655 410.42 20.7629 410.42 20.4178C410.42 20.0896 410.341 19.802 410.184 19.5548C410.03 19.3034 409.813 19.1074 409.532 18.9668C409.255 18.8261 408.931 18.7558 408.56 18.7558C408.185 18.7558 407.842 18.824 407.531 18.9604C407.22 19.0925 406.971 19.2821 406.783 19.5293C406.596 19.7764 406.496 20.0662 406.483 20.3986H403.83C403.843 19.6443 404.058 18.9796 404.476 18.4043C404.893 17.829 405.456 17.3794 406.163 17.0556C406.875 16.7274 407.678 16.5634 408.573 16.5634C409.476 16.5634 410.267 16.7274 410.944 17.0556C411.622 17.3837 412.148 17.8269 412.523 18.3851C412.903 18.9391 413.09 19.5612 413.086 20.2516C413.09 20.9845 412.862 21.596 412.402 22.0861C411.946 22.5761 411.351 22.8872 410.618 23.0193V23.1216C411.581 23.2452 412.314 23.5797 412.817 24.1252C413.324 24.6663 413.576 25.3439 413.572 26.1578C413.576 26.9036 413.361 27.5662 412.926 28.1458C412.496 28.7253 411.901 29.1813 411.143 29.5136C410.384 29.846 409.515 30.0122 408.535 30.0122ZM420.4 30.0122C419.445 30.0122 418.595 29.8482 417.849 29.52C417.108 29.1877 416.522 28.7317 416.092 28.1521C415.665 27.5683 415.446 26.895 415.433 26.1323H418.22C418.237 26.4519 418.342 26.7331 418.533 26.976C418.729 27.2146 418.989 27.4 419.313 27.5321C419.637 27.6642 420.001 27.7303 420.406 27.7303C420.828 27.7303 421.201 27.6557 421.525 27.5065C421.849 27.3574 422.102 27.1507 422.286 26.8865C422.469 26.6223 422.56 26.3176 422.56 25.9725C422.56 25.623 422.462 25.3141 422.266 25.0456C422.075 24.7729 421.798 24.5598 421.435 24.4064C421.077 24.253 420.651 24.1763 420.157 24.1763H418.936V22.1436H420.157C420.575 22.1436 420.943 22.0712 421.263 21.9263C421.587 21.7814 421.838 21.5811 422.017 21.3254C422.196 21.0655 422.286 20.7629 422.286 20.4178C422.286 20.0896 422.207 19.802 422.049 19.5548C421.896 19.3034 421.678 19.1074 421.397 18.9668C421.12 18.8261 420.796 18.7558 420.425 18.7558C420.05 18.7558 419.707 18.824 419.396 18.9604C419.085 19.0925 418.836 19.2821 418.648 19.5293C418.461 19.7764 418.361 20.0662 418.348 20.3986H415.695C415.708 19.6443 415.923 18.9796 416.341 18.4043C416.759 17.829 417.321 17.3794 418.028 17.0556C418.74 16.7274 419.543 16.5634 420.438 16.5634C421.342 16.5634 422.132 16.7274 422.81 17.0556C423.487 17.3837 424.013 17.8269 424.388 18.3851C424.768 18.9391 424.955 19.5612 424.951 20.2516C424.955 20.9845 424.727 21.596 424.267 22.0861C423.811 22.5761 423.217 22.8872 422.484 23.0193V23.1216C423.447 23.2452 424.18 23.5797 424.683 24.1252C425.19 24.6663 425.441 25.3439 425.437 26.1578C425.441 26.9036 425.226 27.5662 424.791 28.1458C424.361 28.7253 423.766 29.1813 423.008 29.5136C422.249 29.846 421.38 30.0122 420.4 30.0122Z" fill="white"/>
<path d="M372.271 30.0122C371.316 30.0122 370.466 29.8482 369.721 29.52C368.979 29.1877 368.393 28.7317 367.963 28.1521C367.537 27.5683 367.317 26.895 367.304 26.1323H370.091C370.108 26.4519 370.213 26.7331 370.404 26.976C370.6 27.2146 370.86 27.4 371.184 27.5321C371.508 27.6642 371.873 27.7303 372.277 27.7303C372.699 27.7303 373.072 27.6557 373.396 27.5065C373.72 27.3574 373.973 27.1507 374.157 26.8865C374.34 26.6223 374.431 26.3176 374.431 25.9725C374.431 25.623 374.333 25.3141 374.137 25.0456C373.946 24.7729 373.669 24.5598 373.306 24.4064C372.949 24.253 372.522 24.1763 372.028 24.1763H370.807V22.1436H372.028C372.446 22.1436 372.814 22.0712 373.134 21.9263C373.458 21.7814 373.709 21.5811 373.888 21.3254C374.067 21.0655 374.157 20.7629 374.157 20.4178C374.157 20.0896 374.078 19.802 373.92 19.5548C373.767 19.3034 373.549 19.1074 373.268 18.9668C372.991 18.8261 372.667 18.7558 372.297 18.7558C371.922 18.7558 371.578 18.824 371.267 18.9604C370.956 19.0925 370.707 19.2821 370.52 19.5293C370.332 19.7764 370.232 20.0662 370.219 20.3986H367.566C367.579 19.6443 367.794 18.9796 368.212 18.4043C368.63 17.829 369.192 17.3794 369.9 17.0556C370.611 16.7274 371.414 16.5634 372.309 16.5634C373.213 16.5634 374.003 16.7274 374.681 17.0556C375.358 17.3837 375.885 17.8269 376.26 18.3851C376.639 18.9391 376.826 19.5612 376.822 20.2516C376.826 20.9845 376.598 21.596 376.138 22.0861C375.682 22.5761 375.088 22.8872 374.355 23.0193V23.1216C375.318 23.2452 376.051 23.5797 376.554 24.1252C377.061 24.6663 377.312 25.3439 377.308 26.1578C377.312 26.9036 377.097 27.5662 376.662 28.1458C376.232 28.7253 375.637 29.1813 374.879 29.5136C374.12 29.846 373.251 30.0122 372.271 30.0122ZM384.43 30.1209C383.331 30.1166 382.385 29.846 381.592 29.3091C380.804 28.7722 380.197 27.9945 379.77 26.976C379.349 25.9575 379.14 24.7324 379.144 23.3006C379.144 21.873 379.355 20.6564 379.777 19.6507C380.203 18.645 380.81 17.8801 381.599 17.356C382.391 16.8276 383.335 16.5634 384.43 16.5634C385.525 16.5634 386.467 16.8276 387.256 17.356C388.048 17.8844 388.657 18.6514 389.084 19.6571C389.51 20.6585 389.721 21.873 389.716 23.3006C389.716 24.7367 389.503 25.9639 389.077 26.9824C388.655 28.0009 388.05 28.7786 387.262 29.3155C386.474 29.8524 385.53 30.1209 384.43 30.1209ZM384.43 27.8261C385.18 27.8261 385.779 27.449 386.226 26.6948C386.674 25.9405 386.895 24.8091 386.891 23.3006C386.891 22.3077 386.789 21.481 386.584 20.8205C386.384 20.16 386.099 19.6635 385.728 19.3311C385.361 18.9987 384.929 18.8325 384.43 18.8325C383.684 18.8325 383.088 19.2054 382.64 19.9511C382.193 20.6969 381.967 21.8134 381.963 23.3006C381.963 24.3063 382.063 25.1458 382.263 25.819C382.468 26.4881 382.756 26.9909 383.126 27.3276C383.497 27.66 383.932 27.8261 384.43 27.8261Z" fill="white"/>
<path d="M332.54 29.8333V27.8389L337.199 23.5243C337.596 23.1408 337.928 22.7956 338.197 22.4888C338.469 22.182 338.676 21.8815 338.817 21.5875C338.957 21.2892 339.028 20.9675 339.028 20.6223C339.028 20.2388 338.94 19.9085 338.765 19.6315C338.591 19.3503 338.352 19.1351 338.05 18.986C337.747 18.8325 337.404 18.7558 337.02 18.7558C336.62 18.7558 336.27 18.8368 335.972 18.9987C335.674 19.1607 335.444 19.3929 335.282 19.6955C335.12 19.998 335.039 20.3581 335.039 20.7757H332.412C332.412 19.9192 332.606 19.1756 332.993 18.5449C333.381 17.9142 333.925 17.4263 334.623 17.0811C335.322 16.736 336.128 16.5634 337.04 16.5634C337.977 16.5634 338.793 16.7296 339.488 17.0619C340.187 17.3901 340.73 17.846 341.118 18.4298C341.506 19.0136 341.699 19.6827 341.699 20.4369C341.699 20.9313 341.601 21.4192 341.405 21.9007C341.214 22.3823 340.871 22.9171 340.376 23.5051C339.882 24.0889 339.185 24.7899 338.286 25.6081L336.375 27.481V27.5705H341.872V29.8333H332.54ZM344.395 29.8333L349.822 19.0946V19.0051H343.5V16.7423H352.686V19.0371L347.252 29.8333H344.395Z" fill="white"/>
<path d="M295.933 29.8333V27.8389L300.593 23.5243C300.989 23.1408 301.322 22.7956 301.59 22.4888C301.863 22.182 302.07 21.8815 302.21 21.5875C302.351 21.2892 302.421 20.9675 302.421 20.6223C302.421 20.2388 302.334 19.9085 302.159 19.6315C301.984 19.3503 301.746 19.1351 301.443 18.986C301.141 18.8325 300.797 18.7558 300.414 18.7558C300.013 18.7558 299.664 18.8368 299.366 18.9987C299.067 19.1607 298.837 19.3929 298.675 19.6955C298.513 19.998 298.432 20.3581 298.432 20.7757H295.805C295.805 19.9192 295.999 19.1756 296.387 18.5449C296.775 17.9142 297.318 17.4263 298.017 17.0811C298.716 16.736 299.521 16.5634 300.433 16.5634C301.371 16.5634 302.187 16.7296 302.881 17.0619C303.58 17.3901 304.123 17.846 304.511 18.4298C304.899 19.0136 305.093 19.6827 305.093 20.4369C305.093 20.9313 304.995 21.4192 304.799 21.9007C304.607 22.3823 304.264 22.9171 303.77 23.5051C303.275 24.0889 302.579 24.7899 301.68 25.6081L299.768 27.481V27.5705H305.266V29.8333H295.933ZM306.792 27.5321V25.3524L312.257 16.7423H314.136V19.7594H313.024L309.579 25.2118V25.3141H317.345V27.5321H306.792ZM313.075 29.8333V26.8673L313.126 25.9021V16.7423H315.721V29.8333H313.075Z" fill="white"/>
<path d="M261.489 29.8333V27.8389L266.149 23.5243C266.545 23.1408 266.877 22.7956 267.146 22.4888C267.419 22.182 267.625 21.8815 267.766 21.5875C267.906 21.2892 267.977 20.9675 267.977 20.6223C267.977 20.2388 267.889 19.9085 267.715 19.6315C267.54 19.3503 267.301 19.1351 266.999 18.986C266.696 18.8325 266.353 18.7558 265.97 18.7558C265.569 18.7558 265.22 18.8368 264.921 18.9987C264.623 19.1607 264.393 19.3929 264.231 19.6955C264.069 19.998 263.988 20.3581 263.988 20.7757H261.361C261.361 19.9192 261.555 19.1756 261.943 18.5449C262.33 17.9142 262.874 17.4263 263.573 17.0811C264.271 16.736 265.077 16.5634 265.989 16.5634C266.926 16.5634 267.742 16.7296 268.437 17.0619C269.136 17.3901 269.679 17.846 270.067 18.4298C270.455 19.0136 270.649 19.6827 270.649 20.4369C270.649 20.9313 270.551 21.4192 270.355 21.9007C270.163 22.3823 269.82 22.9171 269.325 23.5051C268.831 24.0889 268.134 24.7899 267.235 25.6081L265.324 27.481V27.5705H270.821V29.8333H261.489ZM278.522 16.7423V29.8333H275.754V19.3695H275.678L272.68 21.2487V18.7942L275.92 16.7423H278.522Z" fill="white"/>
<path d="M230.903 16.7423V29.8333H228.135V19.3695H228.058L225.061 21.2487V18.7942L228.301 16.7423H230.903ZM238.898 30.0122C237.913 30.0122 237.038 29.8524 236.271 29.5328C235.508 29.209 234.909 28.7679 234.474 28.2097C234.04 27.6514 233.822 27.0186 233.822 26.3112C233.822 25.7658 233.946 25.2651 234.193 24.8091C234.445 24.3489 234.786 23.9675 235.216 23.6649C235.646 23.3581 236.128 23.1621 236.661 23.0769V22.9874C235.962 22.8467 235.395 22.508 234.96 21.971C234.526 21.4298 234.308 20.8013 234.308 20.0854C234.308 19.4078 234.506 18.8048 234.903 18.2764C235.299 17.7438 235.842 17.3261 236.533 17.0236C237.227 16.7168 238.016 16.5634 238.898 16.5634C239.78 16.5634 240.566 16.7168 241.256 17.0236C241.951 17.3304 242.496 17.7502 242.893 18.2828C243.289 18.8112 243.489 19.4121 243.494 20.0854C243.489 20.8056 243.268 21.4341 242.829 21.971C242.39 22.508 241.827 22.8467 241.141 22.9874V23.0769C241.665 23.1621 242.141 23.3581 242.567 23.6649C242.997 23.9675 243.338 24.3489 243.589 24.8091C243.845 25.2651 243.975 25.7658 243.979 26.3112C243.975 27.0186 243.756 27.6514 243.321 28.2097C242.886 28.7679 242.286 29.209 241.518 29.5328C240.756 29.8524 239.882 30.0122 238.898 30.0122ZM238.898 27.9796C239.337 27.9796 239.72 27.9007 240.048 27.7431C240.376 27.5811 240.632 27.3595 240.815 27.0783C241.003 26.7928 241.097 26.4646 241.097 26.0939C241.097 25.7146 241.001 25.3801 240.809 25.0904C240.617 24.7963 240.357 24.5662 240.029 24.4C239.701 24.2296 239.324 24.1443 238.898 24.1443C238.476 24.1443 238.099 24.2296 237.766 24.4C237.434 24.5662 237.172 24.7963 236.98 25.0904C236.793 25.3801 236.699 25.7146 236.699 26.0939C236.699 26.4646 236.79 26.7928 236.974 27.0783C237.157 27.3595 237.415 27.5811 237.747 27.7431C238.08 27.9007 238.463 27.9796 238.898 27.9796ZM238.898 22.1308C239.264 22.1308 239.59 22.0563 239.876 21.9071C240.161 21.758 240.385 21.5513 240.547 21.2871C240.709 21.0229 240.79 20.7182 240.79 20.373C240.79 20.0321 240.709 19.7338 240.547 19.4781C240.385 19.2182 240.163 19.0158 239.882 18.8709C239.601 18.7217 239.273 18.6472 238.898 18.6472C238.527 18.6472 238.199 18.7217 237.913 18.8709C237.628 19.0158 237.404 19.2182 237.242 19.4781C237.085 19.7338 237.006 20.0321 237.006 20.373C237.006 20.7182 237.087 21.0229 237.249 21.2871C237.411 21.5513 237.634 21.758 237.92 21.9071C238.205 22.0563 238.531 22.1308 238.898 22.1308Z" fill="white"/>
<path d="M195.052 16.7423V29.8333H192.285V19.3695H192.208L189.21 21.2487V18.7942L192.451 16.7423H195.052ZM202.945 30.0122C202.041 30.0122 201.236 29.846 200.529 29.5136C199.826 29.1813 199.267 28.7232 198.854 28.1394C198.441 27.5556 198.225 26.8865 198.208 26.1323H200.893C200.923 26.6394 201.136 27.0506 201.532 27.3659C201.929 27.6813 202.399 27.8389 202.945 27.8389C203.38 27.8389 203.763 27.7431 204.095 27.5513C204.432 27.3553 204.694 27.0847 204.882 26.7395C205.073 26.3901 205.169 25.9895 205.169 25.5378C205.169 25.0776 205.071 24.6727 204.875 24.3233C204.684 23.9739 204.417 23.7011 204.076 23.5051C203.735 23.3091 203.345 23.209 202.907 23.2047C202.523 23.2047 202.15 23.2835 201.788 23.4412C201.43 23.5989 201.151 23.8141 200.951 24.0868L198.49 23.6458L199.11 16.7423H207.112V19.0051H201.392L201.053 22.2842H201.13C201.36 21.9604 201.707 21.6919 202.171 21.4788C202.636 21.2658 203.156 21.1592 203.731 21.1592C204.519 21.1592 205.223 21.3446 205.84 21.7154C206.458 22.0861 206.946 22.5953 207.304 23.2431C207.662 23.8865 207.839 24.628 207.835 25.4675C207.839 26.3496 207.634 27.1337 207.221 27.8198C206.812 28.5016 206.239 29.0385 205.502 29.4306C204.769 29.8183 203.916 30.0122 202.945 30.0122Z" fill="white"/>
<path d="M159.184 16.7423V29.8333H156.416V19.3695H156.34L153.342 21.2487V18.7942L156.583 16.7423H159.184ZM162.295 29.8333V27.8389L166.955 23.5243C167.352 23.1408 167.684 22.7956 167.952 22.4888C168.225 22.182 168.432 21.8815 168.572 21.5875C168.713 21.2892 168.783 20.9675 168.783 20.6223C168.783 20.2388 168.696 19.9085 168.521 19.6315C168.347 19.3503 168.108 19.1351 167.805 18.986C167.503 18.8325 167.16 18.7558 166.776 18.7558C166.376 18.7558 166.026 18.8368 165.728 18.9987C165.43 19.1607 165.2 19.3929 165.038 19.6955C164.876 19.998 164.795 20.3581 164.795 20.7757H162.168C162.168 19.9192 162.362 19.1756 162.749 18.5449C163.137 17.9142 163.68 17.4263 164.379 17.0811C165.078 16.736 165.884 16.5634 166.795 16.5634C167.733 16.5634 168.549 16.7296 169.244 17.0619C169.942 17.3901 170.486 17.846 170.874 18.4298C171.261 19.0136 171.455 19.6827 171.455 20.4369C171.455 20.9313 171.357 21.4192 171.161 21.9007C170.969 22.3823 170.626 22.9171 170.132 23.5051C169.638 24.0889 168.941 24.7899 168.042 25.6081L166.131 27.481V27.5705H171.628V29.8333H162.295Z" fill="white"/>
<path d="M126.356 16.5634C127.029 16.5634 127.677 16.6763 128.299 16.9021C128.926 17.128 129.484 17.4881 129.974 17.9824C130.468 18.4767 130.858 19.133 131.144 19.9511C131.434 20.7651 131.581 21.7644 131.585 22.949C131.585 24.0612 131.459 25.0541 131.208 25.9277C130.961 26.797 130.605 27.5364 130.14 28.1458C129.676 28.7551 129.115 29.2196 128.459 29.5392C127.803 29.8546 127.07 30.0122 126.26 30.0122C125.387 30.0122 124.615 29.8439 123.946 29.5073C123.277 29.1663 122.738 28.704 122.329 28.1202C121.924 27.5321 121.679 26.8716 121.594 26.1386H124.324C124.43 26.6159 124.654 26.9867 124.995 27.2509C125.336 27.5108 125.757 27.6408 126.26 27.6408C127.113 27.6408 127.76 27.27 128.203 26.5286C128.647 25.7828 128.87 24.7622 128.875 23.4668H128.785C128.589 23.8503 128.325 24.1806 127.993 24.4575C127.66 24.7303 127.279 24.9412 126.848 25.0904C126.422 25.2395 125.968 25.3141 125.487 25.3141C124.716 25.3141 124.027 25.133 123.422 24.7708C122.817 24.4085 122.34 23.91 121.99 23.275C121.641 22.6401 121.466 21.9156 121.466 21.1017C121.462 20.2239 121.664 19.4419 122.074 18.7558C122.483 18.0698 123.054 17.5328 123.787 17.145C124.524 16.753 125.38 16.5591 126.356 16.5634ZM126.375 18.7367C125.945 18.7367 125.561 18.8389 125.225 19.0435C124.892 19.248 124.628 19.5229 124.432 19.8681C124.24 20.2132 124.147 20.5989 124.151 21.025C124.151 21.4554 124.245 21.8432 124.432 22.1884C124.624 22.5293 124.884 22.802 125.212 23.0065C125.544 23.2068 125.924 23.307 126.35 23.307C126.669 23.307 126.966 23.2473 127.238 23.128C127.511 23.0087 127.748 22.8446 127.948 22.6358C128.152 22.4227 128.312 22.1777 128.427 21.9007C128.542 21.6237 128.6 21.3297 128.6 21.0186C128.596 20.6053 128.498 20.226 128.306 19.8808C128.114 19.5357 127.85 19.2587 127.513 19.0499C127.176 18.8411 126.797 18.7367 126.375 18.7367Z" fill="white"/>
<path d="M90.6438 30.0122C89.9705 30.008 89.3207 29.895 88.6942 29.6735C88.0721 29.4519 87.5138 29.0918 87.0195 28.5932C86.5252 28.0946 86.1332 27.4341 85.8434 26.6117C85.5579 25.7892 85.4151 24.7793 85.4151 23.5818C85.4194 22.4824 85.5451 21.5002 85.7923 20.6351C86.0437 19.7658 86.4016 19.0286 86.8661 18.4235C87.3349 17.8183 87.8952 17.3581 88.5472 17.0428C89.1992 16.7232 89.93 16.5634 90.7397 16.5634C91.6133 16.5634 92.3846 16.7338 93.0536 17.0747C93.7227 17.4114 94.2596 17.8695 94.6644 18.449C95.0735 19.0286 95.3207 19.6784 95.4059 20.3986H92.6765C92.57 19.9426 92.3462 19.5847 92.0053 19.3247C91.6644 19.0648 91.2425 18.9348 90.7397 18.9348C89.8874 18.9348 89.2397 19.3056 88.7965 20.047C88.3576 20.7885 88.1339 21.7963 88.1254 23.0705H88.2148C88.4109 22.6827 88.6751 22.3524 89.0075 22.0797C89.3441 21.8027 89.7255 21.5918 90.1516 21.4469C90.582 21.2977 91.0359 21.2232 91.5131 21.2232C92.2887 21.2232 92.979 21.4064 93.5842 21.7729C94.1893 22.1351 94.6665 22.6337 95.016 23.2686C95.3654 23.9036 95.5401 24.6301 95.5401 25.4483C95.5401 26.3347 95.3335 27.123 94.9201 27.8134C94.511 28.5037 93.9379 29.0449 93.2006 29.4369C92.4677 29.8247 91.6154 30.0165 90.6438 30.0122ZM90.631 27.8389C91.0572 27.8389 91.4386 27.7367 91.7752 27.5321C92.1119 27.3276 92.3761 27.0506 92.5678 26.7011C92.7596 26.3517 92.8555 25.9597 92.8555 25.525C92.8555 25.0904 92.7596 24.7004 92.5678 24.3553C92.3803 24.0101 92.1204 23.7352 91.788 23.5307C91.4556 23.3261 91.0763 23.2239 90.6502 23.2239C90.3306 23.2239 90.0344 23.2835 89.7617 23.4029C89.4933 23.5222 89.2567 23.6884 89.0522 23.9014C88.8519 24.1145 88.6942 24.3617 88.5792 24.6429C88.4641 24.9199 88.4066 25.2161 88.4066 25.5314C88.4066 25.9533 88.5025 26.3389 88.6942 26.6884C88.8903 27.0378 89.1545 27.3169 89.4869 27.5257C89.8235 27.7345 90.2049 27.8389 90.631 27.8389Z" fill="white"/>
<path d="M54.4672 30.0122C53.5127 30.0122 52.6626 29.8482 51.9168 29.52C51.1753 29.1877 50.5894 28.7317 50.159 28.1521C49.7329 27.5683 49.5134 26.895 49.5006 26.1323H52.2876C52.3046 26.4519 52.409 26.7331 52.6008 26.976C52.7968 27.2146 53.0567 27.4 53.3806 27.5321C53.7045 27.6642 54.0688 27.7303 54.4736 27.7303C54.8955 27.7303 55.2684 27.6557 55.5922 27.5065C55.9161 27.3574 56.1697 27.1507 56.3529 26.8865C56.5361 26.6223 56.6278 26.3176 56.6278 25.9725C56.6278 25.623 56.5297 25.3141 56.3337 25.0456C56.142 24.7729 55.865 24.5598 55.5028 24.4064C55.1448 24.253 54.7187 24.1763 54.2243 24.1763H53.0035V22.1436H54.2243C54.642 22.1436 55.0106 22.0712 55.3302 21.9263C55.654 21.7814 55.9055 21.5811 56.0844 21.3254C56.2634 21.0655 56.3529 20.7629 56.3529 20.4178C56.3529 20.0896 56.2741 19.802 56.1164 19.5548C55.963 19.3034 55.7457 19.1074 55.4644 18.9668C55.1874 18.8261 54.8635 18.7558 54.4928 18.7558C54.1178 18.7558 53.7748 18.824 53.4637 18.9604C53.1526 19.0925 52.9033 19.2821 52.7158 19.5293C52.5283 19.7764 52.4282 20.0662 52.4154 20.3986H49.7627C49.7755 19.6443 49.9907 18.9796 50.4083 18.4043C50.8259 17.829 51.3884 17.3794 52.0958 17.0556C52.8074 16.7274 53.6107 16.5634 54.5056 16.5634C55.409 16.5634 56.1995 16.7274 56.877 17.0556C57.5546 17.3837 58.0809 17.8269 58.4559 18.3851C58.8351 18.9391 59.0226 19.5612 59.0184 20.2516C59.0226 20.9845 58.7947 21.596 58.3344 22.0861C57.8785 22.5761 57.284 22.8872 56.551 23.0193V23.1216C57.5141 23.2452 58.2471 23.5797 58.7499 24.1252C59.257 24.6663 59.5084 25.3439 59.5042 26.1578C59.5084 26.9036 59.2932 27.5662 58.8586 28.1458C58.4282 28.7253 57.8337 29.1813 57.0752 29.5136C56.3167 29.846 55.4474 30.0122 54.4672 30.0122Z" fill="white"/>
<path d="M18.4976 75.7876C17.3982 75.7834 16.4521 75.5128 15.6595 74.9759C14.8712 74.4389 14.2639 73.6612 13.8378 72.6428C13.4159 71.6243 13.2071 70.3991 13.2114 68.9673C13.2114 67.5398 13.4223 66.3232 13.8442 65.3175C14.2703 64.3118 14.8776 63.5469 15.6659 63.0227C16.4585 62.4943 17.4024 62.2301 18.4976 62.2301C19.5928 62.2301 20.5345 62.4943 21.3229 63.0227C22.1155 63.5511 22.7249 64.3182 23.151 65.3239C23.5771 66.3253 23.7881 67.5398 23.7838 68.9673C23.7838 70.4034 23.5708 71.6307 23.1446 72.6491C22.7227 73.6676 22.1176 74.4453 21.3293 74.9822C20.5409 75.5192 19.597 75.7876 18.4976 75.7876ZM18.4976 73.4929C19.2476 73.4929 19.8463 73.1158 20.2938 72.3615C20.7412 71.6072 20.9628 70.4759 20.9585 68.9673C20.9585 67.9744 20.8563 67.1477 20.6517 66.4872C20.4514 65.8267 20.1659 65.3303 19.7952 64.9979C19.4287 64.6655 18.9962 64.4993 18.4976 64.4993C17.7519 64.4993 17.1553 64.8722 16.7078 65.6179C16.2604 66.3636 16.0345 67.4801 16.0303 68.9673C16.0303 69.973 16.1304 70.8125 16.3307 71.4858C16.5352 72.1548 16.8229 72.6577 17.1936 72.9943C17.5644 73.3267 17.999 73.4929 18.4976 73.4929Z" fill="white"/>
</svg>
