<svg width="277" height="520" viewBox="0 0 277 520" fill="none" xmlns="http://www.w3.org/2000/svg">
<path d="M78.5 481.5V512C78.5 516.142 81.8579 519.5 86 519.5H144.5V481.5H78.5Z" fill="#1E1E1E" fill-opacity="0.64"/>
<path d="M78.5 481.5V512C78.5 516.142 81.8579 519.5 86 519.5H144.5V481.5H78.5Z" stroke="#9E9E9E"/>
<rect x="144.5" y="481.5" width="66" height="38" fill="#1E1E1E" fill-opacity="0.64"/>
<rect x="144.5" y="481.5" width="66" height="38" stroke="#9E9E9E"/>
<path d="M276.5 481.5V512C276.5 516.142 273.142 519.5 269 519.5H210.5V481.5H276.5Z" fill="#1E1E1E" fill-opacity="0.64"/>
<path d="M276.5 481.5V512C276.5 516.142 273.142 519.5 269 519.5H210.5V481.5H276.5Z" stroke="#9E9E9E"/>
<path d="M94.2232 507.5V505.506L98.883 501.191C99.2793 500.808 99.6117 500.462 99.8801 500.156C100.153 499.849 100.36 499.548 100.5 499.254C100.641 498.956 100.711 498.634 100.711 498.289C100.711 497.906 100.624 497.575 100.449 497.298C100.274 497.017 100.036 496.802 99.7331 496.653C99.4306 496.499 99.0875 496.423 98.704 496.423C98.3034 496.423 97.954 496.504 97.6557 496.665C97.3574 496.827 97.1273 497.06 96.9654 497.362C96.8034 497.665 96.7225 498.025 96.7225 498.442H94.0953C94.0953 497.586 94.2892 496.842 94.677 496.212C95.0648 495.581 95.6081 495.093 96.307 494.748C97.0059 494.403 97.8113 494.23 98.7232 494.23C99.6607 494.23 100.477 494.396 101.171 494.729C101.87 495.057 102.414 495.513 102.801 496.097C103.189 496.68 103.383 497.349 103.383 498.104C103.383 498.598 103.285 499.086 103.089 499.567C102.897 500.049 102.554 500.584 102.06 501.172C101.566 501.756 100.869 502.457 99.9696 503.275L98.0584 505.148V505.237H103.556V507.5H94.2232Z" fill="white"/>
<path d="M106.27 497.995V496.727H112.243V497.995H110.017V504H108.497V497.995H106.27ZM119.578 500.364C119.578 501.157 119.428 501.831 119.127 502.388C118.829 502.944 118.422 503.369 117.905 503.663C117.392 503.954 116.814 504.099 116.172 504.099C115.526 504.099 114.946 503.953 114.432 503.659C113.919 503.366 113.513 502.941 113.214 502.384C112.916 501.828 112.767 501.154 112.767 500.364C112.767 499.571 112.916 498.896 113.214 498.339C113.513 497.783 113.919 497.359 114.432 497.068C114.946 496.775 115.526 496.628 116.172 496.628C116.814 496.628 117.392 496.775 117.905 497.068C118.422 497.359 118.829 497.783 119.127 498.339C119.428 498.896 119.578 499.571 119.578 500.364ZM118.019 500.364C118.019 499.85 117.942 499.417 117.788 499.064C117.637 498.711 117.422 498.444 117.146 498.261C116.869 498.079 116.544 497.988 116.172 497.988C115.801 497.988 115.476 498.079 115.199 498.261C114.922 498.444 114.707 498.711 114.553 499.064C114.402 499.417 114.326 499.85 114.326 500.364C114.326 500.877 114.402 501.311 114.553 501.663C114.707 502.016 114.922 502.284 115.199 502.466C115.476 502.648 115.801 502.739 116.172 502.739C116.544 502.739 116.869 502.648 117.146 502.466C117.422 502.284 117.637 502.016 117.788 501.663C117.942 501.311 118.019 500.877 118.019 500.364Z" fill="white"/>
<path d="M128.256 493.909V507H125.489V496.536H125.412L122.414 498.415V495.961L125.655 493.909H128.256Z" fill="white"/>
<path d="M160.223 507.5V505.506L164.883 501.191C165.279 500.808 165.612 500.462 165.88 500.156C166.153 499.849 166.36 499.548 166.5 499.254C166.641 498.956 166.711 498.634 166.711 498.289C166.711 497.906 166.624 497.575 166.449 497.298C166.274 497.017 166.036 496.802 165.733 496.653C165.431 496.499 165.088 496.423 164.704 496.423C164.303 496.423 163.954 496.504 163.656 496.665C163.357 496.827 163.127 497.06 162.965 497.362C162.803 497.665 162.722 498.025 162.722 498.442H160.095C160.095 497.586 160.289 496.842 160.677 496.212C161.065 495.581 161.608 495.093 162.307 494.748C163.006 494.403 163.811 494.23 164.723 494.23C165.661 494.23 166.477 494.396 167.171 494.729C167.87 495.057 168.414 495.513 168.801 496.097C169.189 496.68 169.383 497.349 169.383 498.104C169.383 498.598 169.285 499.086 169.089 499.567C168.897 500.049 168.554 500.584 168.06 501.172C167.566 501.756 166.869 502.457 165.97 503.275L164.058 505.148V505.237H169.556V507.5H160.223Z" fill="white"/>
<path d="M172.27 497.995V496.727H178.243V497.995H176.017V504H174.497V497.995H172.27ZM185.578 500.364C185.578 501.157 185.428 501.831 185.127 502.388C184.829 502.944 184.422 503.369 183.905 503.663C183.392 503.954 182.814 504.099 182.172 504.099C181.526 504.099 180.946 503.953 180.432 503.659C179.919 503.366 179.513 502.941 179.214 502.384C178.916 501.828 178.767 501.154 178.767 500.364C178.767 499.571 178.916 498.896 179.214 498.339C179.513 497.783 179.919 497.359 180.432 497.068C180.946 496.775 181.526 496.628 182.172 496.628C182.814 496.628 183.392 496.775 183.905 497.068C184.422 497.359 184.829 497.783 185.127 498.339C185.428 498.896 185.578 499.571 185.578 500.364ZM184.019 500.364C184.019 499.85 183.942 499.417 183.788 499.064C183.637 498.711 183.422 498.444 183.146 498.261C182.869 498.079 182.544 497.988 182.172 497.988C181.801 497.988 181.476 498.079 181.199 498.261C180.922 498.444 180.707 498.711 180.553 499.064C180.402 499.417 180.326 499.85 180.326 500.364C180.326 500.877 180.402 501.311 180.553 501.663C180.707 502.016 180.922 502.284 181.199 502.466C181.476 502.648 181.801 502.739 182.172 502.739C182.544 502.739 182.869 502.648 183.146 502.466C183.422 502.284 183.637 502.016 183.788 501.663C183.942 501.311 184.019 500.877 184.019 500.364Z" fill="white"/>
<path d="M194.256 493.909V507H191.489V496.536H191.412L188.414 498.415V495.961L191.655 493.909H194.256Z" fill="white"/>
<path d="M226.223 507.5V505.506L230.883 501.191C231.279 500.808 231.612 500.462 231.88 500.156C232.153 499.849 232.36 499.548 232.5 499.254C232.641 498.956 232.711 498.634 232.711 498.289C232.711 497.906 232.624 497.575 232.449 497.298C232.274 497.017 232.036 496.802 231.733 496.653C231.431 496.499 231.088 496.423 230.704 496.423C230.303 496.423 229.954 496.504 229.656 496.665C229.357 496.827 229.127 497.06 228.965 497.362C228.803 497.665 228.722 498.025 228.722 498.442H226.095C226.095 497.586 226.289 496.842 226.677 496.212C227.065 495.581 227.608 495.093 228.307 494.748C229.006 494.403 229.811 494.23 230.723 494.23C231.661 494.23 232.477 494.396 233.171 494.729C233.87 495.057 234.414 495.513 234.801 496.097C235.189 496.68 235.383 497.349 235.383 498.104C235.383 498.598 235.285 499.086 235.089 499.567C234.897 500.049 234.554 500.584 234.06 501.172C233.566 501.756 232.869 502.457 231.97 503.275L230.058 505.148V505.237H235.556V507.5H226.223Z" fill="white"/>
<path d="M238.27 497.995V496.727H244.243V497.995H242.017V504H240.497V497.995H238.27ZM251.578 500.364C251.578 501.157 251.428 501.831 251.127 502.388C250.829 502.944 250.422 503.369 249.905 503.663C249.392 503.954 248.814 504.099 248.172 504.099C247.526 504.099 246.946 503.953 246.432 503.659C245.919 503.366 245.513 502.941 245.214 502.384C244.916 501.828 244.767 501.154 244.767 500.364C244.767 499.571 244.916 498.896 245.214 498.339C245.513 497.783 245.919 497.359 246.432 497.068C246.946 496.775 247.526 496.628 248.172 496.628C248.814 496.628 249.392 496.775 249.905 497.068C250.422 497.359 250.829 497.783 251.127 498.339C251.428 498.896 251.578 499.571 251.578 500.364ZM250.019 500.364C250.019 499.85 249.942 499.417 249.788 499.064C249.637 498.711 249.422 498.444 249.146 498.261C248.869 498.079 248.544 497.988 248.172 497.988C247.801 497.988 247.476 498.079 247.199 498.261C246.922 498.444 246.707 498.711 246.553 499.064C246.402 499.417 246.326 499.85 246.326 500.364C246.326 500.877 246.402 501.311 246.553 501.663C246.707 502.016 246.922 502.284 247.199 502.466C247.476 502.648 247.801 502.739 248.172 502.739C248.544 502.739 248.869 502.648 249.146 502.466C249.422 502.284 249.637 502.016 249.788 501.663C249.942 501.311 250.019 500.877 250.019 500.364Z" fill="white"/>
<path d="M260.256 493.909V507H257.489V496.536H257.412L254.414 498.415V495.961L257.655 493.909H260.256Z" fill="white"/>
<path d="M0.5 111.5V45C0.500001 40.8579 3.85787 37.5 8 37.5H39.5V111.5H0.5Z" fill="#1E1E1E" fill-opacity="0.64"/>
<path d="M0.5 111.5V45C0.500001 40.8579 3.85787 37.5 8 37.5H39.5V111.5H0.5Z" stroke="#9E9E9E"/>
<rect x="0.5" y="111.5" width="39" height="74" fill="#1E1E1E" fill-opacity="0.64"/>
<rect x="0.5" y="111.5" width="39" height="74" stroke="#9E9E9E"/>
<rect x="0.5" y="185.5" width="39" height="74" fill="#9B1912"/>
<rect x="0.5" y="185.5" width="39" height="74" stroke="#9E9E9E"/>
<rect x="0.5" y="259.5" width="39" height="74" fill="#13120E"/>
<rect x="0.5" y="259.5" width="39" height="74" stroke="#9E9E9E"/>
<rect x="0.5" y="333.5" width="39" height="74" fill="#1E1E1E" fill-opacity="0.64"/>
<rect x="0.5" y="333.5" width="39" height="74" stroke="#9E9E9E"/>
<path d="M0.5 407.5V474C0.500001 478.142 3.85787 481.5 8 481.5H39.5V407.5H0.5Z" fill="#1E1E1E" fill-opacity="0.64"/>
<path d="M0.5 407.5V474C0.500001 478.142 3.85787 481.5 8 481.5H39.5V407.5H0.5Z" stroke="#9E9E9E"/>
<rect x="39.5" y="37.5" width="39" height="148" fill="#1E1E1E" fill-opacity="0.64"/>
<rect x="39.5" y="37.5" width="39" height="148" stroke="#9E9E9E"/>
<rect x="39.5" y="185.5" width="39" height="148" fill="#1E1E1E" fill-opacity="0.64"/>
<rect x="39.5" y="185.5" width="39" height="148" stroke="#9E9E9E"/>
<rect x="39.5" y="333.5" width="39" height="148" fill="#1E1E1E" fill-opacity="0.64"/>
<rect x="39.5" y="333.5" width="39" height="148" stroke="#9E9E9E"/>
<path d="M26.5909 62.2808H13.5V59.5131H23.9638V59.4363L22.0845 56.4385H24.5391L26.5909 59.6792V62.2808ZM21.1257 71.5349H18.9652V65.5647H21.1257V71.5349ZM26.5909 79.5249H13.5V76.7572H23.9638V76.6805L22.0845 73.6826H24.5391L26.5909 76.9234V79.5249ZM13.321 87.5198C13.321 86.5354 13.4808 85.6597 13.8004 84.8927C14.1243 84.1299 14.5653 83.5312 15.1236 83.0965C15.6818 82.6618 16.3146 82.4445 17.022 82.4445C17.5675 82.4445 18.0682 82.5681 18.5241 82.8153C18.9844 83.0667 19.3658 83.4076 19.6683 83.838C19.9751 84.2684 20.1712 84.7499 20.2564 85.2826H20.3459C20.4865 84.5837 20.8253 84.017 21.3622 83.5823C21.9034 83.1476 22.532 82.9303 23.2479 82.9303C23.9254 82.9303 24.5284 83.1285 25.0568 83.5248C25.5895 83.9211 26.0071 84.4644 26.3097 85.1547C26.6165 85.8493 26.7699 86.6377 26.7699 87.5198C26.7699 88.4019 26.6165 89.1881 26.3097 89.8785C26.0028 90.5731 25.5831 91.1185 25.0504 91.5148C24.522 91.9111 23.9212 92.1114 23.2479 92.1157C22.5277 92.1114 21.8991 91.8898 21.3622 91.4509C20.8253 91.012 20.4865 90.4495 20.3459 89.7634H20.2564C20.1712 90.2876 19.9751 90.7627 19.6683 91.1888C19.3658 91.6192 18.9844 91.9601 18.5241 92.2116C18.0682 92.4672 17.5675 92.5972 17.022 92.6015C16.3146 92.5972 15.6818 92.3778 15.1236 91.9431C14.5653 91.5084 14.1243 90.9076 13.8004 90.1405C13.4808 89.3778 13.321 88.5042 13.321 87.5198ZM15.3537 87.5198C15.3537 87.9587 15.4325 88.3422 15.5902 88.6704C15.7521 88.9985 15.9737 89.2542 16.255 89.4374C16.5405 89.6249 16.8686 89.7187 17.2393 89.7187C17.6186 89.7187 17.9531 89.6228 18.2429 89.431C18.5369 89.2393 18.767 88.9793 18.9332 88.6512C19.1037 88.3231 19.1889 87.9459 19.1889 87.5198C19.1889 87.0979 19.1037 86.7208 18.9332 86.3884C18.767 86.056 18.5369 85.7939 18.2429 85.6022C17.9531 85.4147 17.6186 85.3209 17.2393 85.3209C16.8686 85.3209 16.5405 85.4126 16.255 85.5958C15.9737 85.779 15.7521 86.0368 15.5902 86.3692C15.4325 86.7016 15.3537 87.0851 15.3537 87.5198ZM21.2024 87.5198C21.2024 87.8863 21.277 88.2123 21.4261 88.4978C21.5753 88.7833 21.782 89.007 22.0462 89.1689C22.3104 89.3309 22.6151 89.4118 22.9602 89.4118C23.3011 89.4118 23.5994 89.3309 23.8551 89.1689C24.1151 89.007 24.3175 88.7854 24.4624 88.5042C24.6115 88.2229 24.6861 87.8948 24.6861 87.5198C24.6861 87.1491 24.6115 86.8209 24.4624 86.5354C24.3175 86.2499 24.1151 86.0262 23.8551 85.8643C23.5994 85.7066 23.3011 85.6278 22.9602 85.6278C22.6151 85.6278 22.3104 85.7087 22.0462 85.8707C21.782 86.0326 21.5753 86.2563 21.4261 86.5418C21.277 86.8273 21.2024 87.1533 21.2024 87.5198Z" fill="white"/>
<path d="M13.5 125.266H26.5909V134.087H24.3089V128.033H21.1896V133.633H18.9077V128.033H15.782V134.112H13.5V125.266ZM26.5909 138.652L16.6449 141.816V141.938L26.5909 145.108V148.176L13.5 143.664V140.097L26.5909 135.578V138.652ZM13.5 149.752H26.5909L26.5909 158.573H24.3089L24.3089 152.52H21.1896V158.119H18.9077V152.52H15.782V158.599H13.5V149.752ZM26.5909 171.723H13.5V169.332L21.7393 163.637V163.541H13.5V160.774H26.5909V163.203L18.358 168.853V168.968H26.5909V171.723Z" fill="white"/>
<path d="M20.0455 363.532C18.6179 363.532 17.4034 363.261 16.402 362.72C15.4006 362.183 14.6357 361.45 14.1072 360.521C13.5831 359.597 13.321 358.557 13.321 357.402C13.321 356.239 13.5852 355.195 14.1136 354.27C14.642 353.345 15.407 352.614 16.4084 352.077C17.4098 351.54 18.6222 351.272 20.0455 351.272C21.473 351.272 22.6875 351.54 23.6889 352.077C24.6903 352.614 25.4531 353.345 25.9773 354.27C26.5057 355.195 26.7699 356.239 26.7699 357.402C26.7699 358.557 26.5057 359.597 25.9773 360.521C25.4531 361.45 24.6903 362.183 23.6889 362.72C22.6875 363.261 21.473 363.532 20.0455 363.532ZM20.0455 360.726C20.9702 360.726 21.75 360.587 22.3849 360.31C23.0199 360.038 23.5014 359.652 23.8295 359.153C24.1577 358.655 24.3217 358.071 24.3217 357.402C24.3217 356.733 24.1577 356.149 23.8295 355.65C23.5014 355.152 23.0199 354.764 22.3849 354.487C21.75 354.214 20.9702 354.078 20.0455 354.078C19.1207 354.078 18.3409 354.214 17.706 354.487C17.071 354.764 16.5895 355.152 16.2614 355.65C15.9332 356.149 15.7692 356.733 15.7692 357.402C15.7692 358.071 15.9332 358.655 16.2614 359.153C16.5895 359.652 17.071 360.038 17.706 360.31C18.3409 360.587 19.1207 360.726 20.0455 360.726ZM13.5 370.223V365.582H26.5909V370.261C26.5909 371.578 26.3288 372.711 25.8047 373.662C25.2848 374.612 24.5369 375.343 23.5611 375.854C22.5852 376.37 21.4176 376.628 20.0582 376.628C18.6946 376.628 17.5227 376.37 16.5426 375.854C15.5625 375.343 14.8104 374.608 14.2862 373.649C13.7621 372.694 13.5 371.552 13.5 370.223ZM15.8714 368.35V370.108C15.8714 370.926 16.0163 371.614 16.3061 372.172C16.6001 372.735 17.054 373.157 17.6676 373.438C18.2855 373.723 19.0824 373.866 20.0582 373.866C21.0256 373.866 21.8161 373.723 22.4297 373.438C23.0433 373.157 23.495 372.737 23.7848 372.179C24.0746 371.62 24.2195 370.932 24.2195 370.114V368.35H15.8714ZM13.5 383.318V378.678H26.5909L26.5909 383.357C26.5909 384.674 26.3288 385.807 25.8047 386.757C25.2848 387.708 24.5369 388.438 23.5611 388.95C22.5852 389.465 21.4176 389.723 20.0582 389.723C18.6946 389.723 17.5227 389.465 16.5426 388.95C15.5625 388.438 14.8104 387.703 14.2862 386.745C13.7621 385.79 13.5 384.648 13.5 383.318ZM15.8714 381.446V383.203C15.8714 384.022 16.0163 384.71 16.3061 385.268C16.6001 385.831 17.054 386.252 17.6676 386.534C18.2855 386.819 19.0824 386.962 20.0582 386.962C21.0256 386.962 21.8161 386.819 22.4297 386.534C23.0433 386.252 23.495 385.833 23.7848 385.274C24.0746 384.716 24.2195 384.028 24.2195 383.21L24.2195 381.446H15.8714Z" fill="white"/>
<path d="M26.5909 424.863H13.5V422.095H23.9638V422.018L22.0845 419.021H24.5391L26.5909 422.261V424.863ZM26.7699 432.711C26.7699 433.384 26.657 434.032 26.4311 434.654C26.2053 435.28 25.8452 435.839 25.3509 436.329C24.8565 436.823 24.2003 437.213 23.3821 437.498C22.5682 437.788 21.5689 437.935 20.3842 437.939C19.272 437.939 18.2791 437.814 17.4055 437.562C16.5362 437.315 15.7969 436.959 15.1875 436.495C14.5781 436.03 14.1136 435.47 13.794 434.814C13.4787 434.157 13.321 433.424 13.321 432.615C13.321 431.741 13.4893 430.97 13.826 430.301C14.1669 429.632 14.6293 429.093 15.2131 428.684C15.8011 428.279 16.4616 428.034 17.1946 427.949V430.678C16.7173 430.785 16.3466 431.008 16.0824 431.349C15.8224 431.69 15.6925 432.112 15.6925 432.615C15.6925 433.467 16.0632 434.115 16.8047 434.558C17.5504 435.001 18.571 435.225 19.8665 435.229V435.14C19.483 434.944 19.1527 434.679 18.8757 434.347C18.603 434.015 18.392 433.633 18.2429 433.203C18.0938 432.777 18.0192 432.323 18.0192 431.841C18.0192 431.07 18.2003 430.382 18.5625 429.777C18.9247 429.172 19.4233 428.694 20.0582 428.345C20.6932 427.995 21.4176 427.821 22.2315 427.821C23.1094 427.816 23.8913 428.019 24.5774 428.428C25.2635 428.837 25.8004 429.408 26.1882 430.141C26.5803 430.878 26.7741 431.735 26.7699 432.711ZM24.5966 432.73C24.5966 432.299 24.4943 431.916 24.2898 431.579C24.0852 431.247 23.8104 430.983 23.4652 430.787C23.12 430.595 22.7344 430.501 22.3082 430.505C21.8778 430.505 21.4901 430.599 21.1449 430.787C20.804 430.978 20.5313 431.238 20.3267 431.566C20.1264 431.899 20.0263 432.278 20.0263 432.704C20.0263 433.024 20.0859 433.32 20.2053 433.593C20.3246 433.866 20.4886 434.102 20.6974 434.302C20.9105 434.507 21.1555 434.667 21.4325 434.782C21.7095 434.897 22.0036 434.954 22.3146 434.954C22.728 434.95 23.1072 434.852 23.4524 434.66C23.7976 434.468 24.0746 434.204 24.2834 433.868C24.4922 433.531 24.5966 433.152 24.5966 432.73ZM21.1257 446H18.9652V440.03H21.1257V446ZM13.321 453.045C13.321 452.091 13.4851 451.241 13.8132 450.495C14.1456 449.753 14.6016 449.168 15.1811 448.737C15.7649 448.311 16.4382 448.092 17.201 448.079V450.866C16.8814 450.883 16.6001 450.987 16.3572 451.179C16.1186 451.375 15.9332 451.635 15.8011 451.959C15.669 452.283 15.603 452.647 15.603 453.052C15.603 453.474 15.6776 453.847 15.8267 454.17C15.9759 454.494 16.1825 454.748 16.4467 454.931C16.7109 455.114 17.0156 455.206 17.3608 455.206C17.7102 455.206 18.0192 455.108 18.2876 454.912C18.5604 454.72 18.7734 454.443 18.9268 454.081C19.0803 453.723 19.157 453.297 19.157 452.802V451.582H21.1896V452.802C21.1896 453.22 21.2621 453.589 21.407 453.908C21.5518 454.232 21.7521 454.484 22.0078 454.663C22.2678 454.842 22.5703 454.931 22.9155 454.931C23.2436 454.931 23.5312 454.852 23.7784 454.695C24.0298 454.541 24.2259 454.324 24.3665 454.043C24.5071 453.766 24.5774 453.442 24.5774 453.071C24.5774 452.696 24.5092 452.353 24.3729 452.042C24.2408 451.731 24.0511 451.481 23.804 451.294C23.5568 451.106 23.267 451.006 22.9347 450.994L22.9347 448.341C23.6889 448.354 24.3537 448.569 24.929 448.986C25.5043 449.404 25.9538 449.967 26.2777 450.674C26.6058 451.386 26.7699 452.189 26.7699 453.084C26.7699 453.987 26.6058 454.778 26.2777 455.455C25.9496 456.133 25.5064 456.659 24.9482 457.034C24.3942 457.413 23.772 457.601 23.0817 457.597C22.3487 457.601 21.7372 457.373 21.2472 456.913C20.7571 456.457 20.446 455.862 20.3139 455.129H20.2116C20.0881 456.092 19.7536 456.825 19.2081 457.328C18.6669 457.835 17.9893 458.087 17.1754 458.082C16.4297 458.087 15.767 457.871 15.1875 457.437C14.608 457.006 14.152 456.412 13.8196 455.653C13.4872 454.895 13.321 454.025 13.321 453.045ZM13.321 465.096C13.3253 464.423 13.4382 463.773 13.6598 463.146C13.8814 462.524 14.2415 461.966 14.7401 461.472C15.2386 460.977 15.8991 460.585 16.7216 460.296C17.544 460.01 18.554 459.867 19.7514 459.867C20.8509 459.872 21.8331 459.997 22.6982 460.244C23.5675 460.496 24.3047 460.854 24.9098 461.318C25.5149 461.787 25.9751 462.347 26.2905 462.999C26.6101 463.651 26.7699 464.382 26.7699 465.192C26.7699 466.065 26.5994 466.837 26.2585 467.506C25.9219 468.175 25.4638 468.712 24.8842 469.117C24.3047 469.526 23.6548 469.773 22.9347 469.858V467.129C23.3906 467.022 23.7486 466.798 24.0085 466.457C24.2685 466.117 24.3984 465.695 24.3984 465.192C24.3984 464.34 24.0277 463.692 23.2862 463.249C22.5447 462.81 21.5369 462.586 20.2628 462.578V462.667C20.6506 462.863 20.9808 463.127 21.2536 463.46C21.5305 463.796 21.7415 464.178 21.8864 464.604C22.0355 465.034 22.1101 465.488 22.1101 465.965C22.1101 466.741 21.9268 467.431 21.5604 468.036C21.1982 468.641 20.6996 469.119 20.0646 469.468C19.4297 469.818 18.7031 469.992 17.8849 469.992C16.9986 469.992 16.2102 469.786 15.5199 469.372C14.8295 468.963 14.2884 468.39 13.8963 467.653C13.5085 466.92 13.3168 466.068 13.321 465.096ZM15.4943 465.083C15.4943 465.509 15.5966 465.891 15.8011 466.227C16.0057 466.564 16.2827 466.828 16.6321 467.02C16.9815 467.212 17.3736 467.308 17.8082 467.308C18.2429 467.308 18.6328 467.212 18.978 467.02C19.3232 466.832 19.598 466.573 19.8026 466.24C20.0071 465.908 20.1094 465.528 20.1094 465.102C20.1094 464.783 20.0497 464.487 19.9304 464.214C19.8111 463.945 19.6449 463.709 19.4318 463.504C19.2188 463.304 18.9716 463.146 18.6903 463.031C18.4134 462.916 18.1172 462.859 17.8018 462.859C17.38 462.859 16.9943 462.955 16.6449 463.146C16.2955 463.342 16.0163 463.607 15.8075 463.939C15.5987 464.276 15.4943 464.657 15.4943 465.083Z" fill="white"/>
<path d="M65.5909 94.3531H52.5V91.5853H62.9638V91.5086L61.0845 88.5107H63.5391L65.5909 91.7515V94.3531Z" fill="white"/>
<path d="M63.6811 101.461C63.9676 101.433 64.1901 101.311 64.3487 101.095C64.5073 100.88 64.5866 100.588 64.5866 100.218C64.5866 99.9674 64.5511 99.7555 64.4801 99.5827C64.4115 99.4098 64.3156 99.2773 64.1925 99.1849C64.0694 99.095 63.9297 99.05 63.7734 99.05C63.6432 99.0452 63.5296 99.0725 63.4325 99.1317C63.3355 99.1932 63.2514 99.2773 63.1804 99.3838C63.1117 99.4903 63.0514 99.6134 62.9993 99.7531C62.9496 99.8928 62.907 100.042 62.8714 100.201L62.7152 100.854C62.6442 101.171 62.5495 101.462 62.4311 101.728C62.3127 101.993 62.1671 102.222 61.9943 102.416C61.8215 102.611 61.6179 102.761 61.3835 102.867C61.1491 102.976 60.8804 103.032 60.5774 103.034C60.1323 103.032 59.7464 102.918 59.4197 102.693C59.0954 102.471 58.8433 102.149 58.6634 101.728C58.4858 101.309 58.397 100.803 58.397 100.211C58.397 99.6241 58.487 99.1127 58.6669 98.6771C58.8468 98.2439 59.1132 97.9053 59.4659 97.6615C59.821 97.42 60.2602 97.2934 60.7834 97.2815V98.7694C60.5395 98.786 60.3359 98.8559 60.1726 98.979C60.0116 99.1044 59.8897 99.2713 59.8068 99.4797C59.7263 99.6904 59.6861 99.9283 59.6861 100.193C59.6861 100.454 59.724 100.68 59.7997 100.872C59.8755 101.066 59.9808 101.216 60.1158 101.323C60.2507 101.429 60.4058 101.483 60.581 101.483C60.7443 101.483 60.8816 101.434 60.9929 101.337C61.1042 101.242 61.1989 101.103 61.277 100.918C61.3551 100.736 61.4261 100.512 61.4901 100.247L61.6889 99.4548C61.8381 98.8416 62.0713 98.3575 62.3885 98.0024C62.7057 97.6473 63.133 97.4709 63.6705 97.4733C64.1108 97.4709 64.4955 97.5881 64.8246 97.8248C65.1536 98.064 65.4105 98.3918 65.5952 98.8085C65.7798 99.2252 65.8722 99.6987 65.8722 100.229C65.8722 100.769 65.7798 101.24 65.5952 101.642C65.4105 102.047 65.1536 102.362 64.8246 102.587C64.4955 102.812 64.1143 102.928 63.6811 102.935V101.461ZM64.505 103.792H65.7727V109.765H64.505V107.538H58.5V106.018H64.505V103.792Z" fill="white"/>
<path d="M65.5909 121.767H52.5V118.999H62.9638V118.923L61.0845 115.925H63.5391L65.5909 119.166V121.767ZM52.5 124.878H54.4943L58.8089 129.538C59.1925 129.935 59.5376 130.267 59.8445 130.535C60.1513 130.808 60.4517 131.015 60.7457 131.155C61.044 131.296 61.3658 131.366 61.7109 131.366C62.0945 131.366 62.4247 131.279 62.7017 131.104C62.983 130.93 63.1982 130.691 63.3473 130.388C63.5007 130.086 63.5774 129.743 63.5774 129.359C63.5774 128.959 63.4964 128.609 63.3345 128.311C63.1726 128.013 62.9403 127.783 62.6378 127.621C62.3352 127.459 61.9751 127.378 61.5575 127.378V124.751C62.4141 124.751 63.1577 124.945 63.7884 125.332C64.419 125.72 64.907 126.263 65.2521 126.962C65.5973 127.661 65.7699 128.467 65.7699 129.378C65.7699 130.316 65.6037 131.132 65.2713 131.827C64.9432 132.525 64.4872 133.069 63.9034 133.457C63.3196 133.844 62.6506 134.038 61.8963 134.038C61.402 134.038 60.9141 133.94 60.4325 133.744C59.951 133.552 59.4162 133.209 58.8281 132.715C58.2443 132.221 57.5433 131.524 56.7251 130.625L54.8523 128.714H54.7628V134.211H52.5V124.878Z" fill="white"/>
<path d="M52.5 234.892H54.4943L58.8089 239.552C59.1925 239.948 59.5376 240.281 59.8445 240.549C60.1513 240.822 60.4517 241.028 60.7457 241.169C61.044 241.31 61.3658 241.38 61.7109 241.38C62.0945 241.38 62.4247 241.293 62.7017 241.118C62.983 240.943 63.1982 240.705 63.3473 240.402C63.5007 240.1 63.5774 239.756 63.5774 239.373C63.5774 238.972 63.4964 238.623 63.3345 238.325C63.1726 238.026 62.9403 237.796 62.6378 237.634C62.3352 237.472 61.9751 237.391 61.5575 237.391V234.764C62.4141 234.764 63.1577 234.958 63.7884 235.346C64.419 235.734 64.907 236.277 65.2521 236.976C65.5973 237.675 65.7699 238.48 65.7699 239.392C65.7699 240.33 65.6037 241.146 65.2713 241.84C64.9432 242.539 64.4872 243.082 63.9034 243.47C63.3196 243.858 62.6506 244.052 61.8963 244.052C61.402 244.052 60.9141 243.954 60.4325 243.758C59.951 243.566 59.4162 243.223 58.8281 242.729C58.2443 242.234 57.5433 241.538 56.7251 240.639L54.8523 238.727H54.7628V244.225H52.5V234.892Z" fill="white"/>
<path d="M65.7727 252.401H58.5V251.073L63.0774 247.909V247.855H58.5V246.318H65.7727V247.667L61.1989 250.806V250.87H65.7727V252.401ZM58.5 256.249V253.671H65.7727V256.271C65.7727 257.002 65.6271 257.632 65.3359 258.16C65.0471 258.688 64.6316 259.094 64.0895 259.378C63.5473 259.664 62.8987 259.808 62.1435 259.808C61.3859 259.808 60.7348 259.664 60.1903 259.378C59.6458 259.094 59.228 258.685 58.9368 258.153C58.6456 257.622 58.5 256.988 58.5 256.249ZM59.8175 255.209V256.185C59.8175 256.64 59.898 257.022 60.0589 257.332C60.2223 257.645 60.4744 257.879 60.8153 258.036C61.1586 258.194 61.6013 258.273 62.1435 258.273C62.6809 258.273 63.12 258.194 63.4609 258.036C63.8018 257.879 64.0528 257.646 64.2138 257.336C64.3748 257.026 64.4553 256.643 64.4553 256.189V255.209H59.8175Z" fill="white"/>
<path d="M65.5909 271.767H52.5V268.999H62.9638V268.923L61.0845 265.925H63.5391L65.5909 269.166V271.767ZM52.5 274.878H54.4943L58.8089 279.538C59.1925 279.935 59.5376 280.267 59.8445 280.535C60.1513 280.808 60.4517 281.015 60.7457 281.155C61.044 281.296 61.3658 281.366 61.7109 281.366C62.0945 281.366 62.4247 281.279 62.7017 281.104C62.983 280.93 63.1982 280.691 63.3473 280.388C63.5007 280.086 63.5774 279.743 63.5774 279.359C63.5774 278.959 63.4964 278.609 63.3345 278.311C63.1726 278.013 62.9403 277.783 62.6378 277.621C62.3352 277.459 61.9751 277.378 61.5575 277.378V274.751C62.4141 274.751 63.1577 274.945 63.7884 275.332C64.419 275.72 64.907 276.263 65.2521 276.962C65.5973 277.661 65.7699 278.467 65.7699 279.378C65.7699 280.316 65.6037 281.132 65.2713 281.827C64.9432 282.525 64.4872 283.069 63.9034 283.457C63.3196 283.844 62.6506 284.038 61.8963 284.038C61.402 284.038 60.9141 283.94 60.4325 283.744C59.951 283.552 59.4162 283.209 58.8281 282.715C58.2443 282.221 57.5433 281.524 56.7251 280.625L54.8523 278.714H54.7628V284.211H52.5V274.878Z" fill="white"/>
<path d="M52.321 387.967C52.321 387.013 52.4851 386.163 52.8132 385.417C53.1456 384.675 53.6016 384.089 54.1811 383.659C54.7649 383.233 55.4382 383.013 56.201 383.001V385.788C55.8814 385.805 55.6001 385.909 55.3572 386.101C55.1186 386.297 54.9332 386.557 54.8011 386.881C54.669 387.204 54.603 387.569 54.603 387.974C54.603 388.396 54.6776 388.768 54.8267 389.092C54.9759 389.416 55.1825 389.67 55.4467 389.853C55.7109 390.036 56.0156 390.128 56.3608 390.128C56.7102 390.128 57.0192 390.03 57.2876 389.834C57.5604 389.642 57.7734 389.365 57.9268 389.003C58.0803 388.645 58.157 388.219 58.157 387.724V386.503H60.1896V387.724C60.1896 388.142 60.2621 388.511 60.407 388.83C60.5518 389.154 60.7521 389.405 61.0078 389.584C61.2678 389.763 61.5703 389.853 61.9155 389.853C62.2436 389.853 62.5312 389.774 62.7784 389.616C63.0298 389.463 63.2259 389.246 63.3665 388.964C63.5071 388.687 63.5774 388.364 63.5774 387.993C63.5774 387.618 63.5092 387.275 63.3729 386.964C63.2408 386.653 63.0511 386.403 62.804 386.216C62.5568 386.028 62.267 385.928 61.9347 385.915V383.263C62.6889 383.275 63.3537 383.491 63.929 383.908C64.5043 384.326 64.9538 384.888 65.2777 385.596C65.6058 386.307 65.7699 387.111 65.7699 388.006C65.7699 388.909 65.6058 389.699 65.2777 390.377C64.9496 391.055 64.5064 391.581 63.9482 391.956C63.3942 392.335 62.772 392.523 62.0817 392.518C61.3487 392.523 60.7372 392.295 60.2472 391.834C59.7571 391.378 59.446 390.784 59.3139 390.051H59.2116C59.0881 391.014 58.7536 391.747 58.2081 392.25C57.6669 392.757 56.9893 393.008 56.1754 393.004C55.4297 393.008 54.767 392.793 54.1875 392.359C53.608 391.928 53.152 391.334 52.8196 390.575C52.4872 389.817 52.321 388.947 52.321 387.967Z" fill="white"/>
<path d="M58.5 394.713H65.7727V397.582C65.7727 398.132 65.6745 398.6 65.478 398.989C65.2839 399.379 65.008 399.676 64.6506 399.88C64.2955 400.086 63.8776 400.189 63.397 400.189C62.9141 400.189 62.4986 400.085 62.1506 399.877C61.8049 399.668 61.5398 399.366 61.3551 398.971C61.1705 398.578 61.0781 398.102 61.0781 397.543V395.622H62.3139V397.295C62.3139 397.588 62.3542 397.832 62.4347 398.026C62.5152 398.22 62.6359 398.365 62.7969 398.46C62.9579 398.557 63.1579 398.605 63.397 398.605C63.6385 398.605 63.8421 398.557 64.0078 398.46C64.1735 398.365 64.299 398.219 64.3842 398.023C64.4718 397.829 64.5156 397.584 64.5156 397.288V396.251H58.5V394.713ZM61.8097 398.641L58.5 400.448V398.751L61.8097 396.982V398.641ZM58.5 403.854V401.276H65.7727V403.875C65.7727 404.607 65.6271 405.236 65.3359 405.764C65.0471 406.292 64.6316 406.698 64.0895 406.982C63.5473 407.269 62.8987 407.412 62.1435 407.412C61.3859 407.412 60.7348 407.269 60.1903 406.982C59.6458 406.698 59.228 406.29 58.9368 405.757C58.6456 405.227 58.5 404.592 58.5 403.854ZM59.8175 402.813V403.79C59.8175 404.244 59.898 404.627 60.0589 404.937C60.2223 405.249 60.4744 405.484 60.8153 405.64C61.1586 405.799 61.6013 405.878 62.1435 405.878C62.6809 405.878 63.12 405.799 63.4609 405.64C63.8018 405.484 64.0528 405.251 64.2138 404.94C64.3748 404.63 64.4553 404.248 64.4553 403.793V402.813H59.8175Z" fill="white"/>
<path d="M65.5909 419.267H52.5V416.499H62.9638V416.423L61.0845 413.425H63.5391L65.5909 416.666V419.267ZM52.5 422.378H54.4943L58.8089 427.038C59.1925 427.435 59.5376 427.767 59.8445 428.035C60.1513 428.308 60.4517 428.515 60.7457 428.655C61.044 428.796 61.3658 428.866 61.7109 428.866C62.0945 428.866 62.4247 428.779 62.7017 428.604C62.983 428.43 63.1982 428.191 63.3473 427.888C63.5007 427.586 63.5774 427.243 63.5774 426.859C63.5774 426.459 63.4964 426.109 63.3345 425.811C63.1726 425.513 62.9403 425.283 62.6378 425.121C62.3352 424.959 61.9751 424.878 61.5575 424.878V422.251C62.4141 422.251 63.1577 422.445 63.7884 422.832C64.419 423.22 64.907 423.763 65.2521 424.462C65.5973 425.161 65.7699 425.967 65.7699 426.878C65.7699 427.816 65.6037 428.632 65.2713 429.327C64.9432 430.025 64.4872 430.569 63.9034 430.957C63.3196 431.344 62.6506 431.538 61.8963 431.538C61.402 431.538 60.9141 431.44 60.4325 431.244C59.951 431.052 59.4162 430.709 58.8281 430.215C58.2443 429.721 57.5433 429.024 56.7251 428.125L54.8523 426.214H54.7628V431.711H52.5V422.378Z" fill="white"/>
<path d="M86 0.5H269C273.142 0.5 276.5 3.85786 276.5 8V37.5H78.5V8L78.5098 7.61426C78.7105 3.65139 81.9872 0.5 86 0.5Z" fill="#2B7934"/>
<path d="M86 0.5H269C273.142 0.5 276.5 3.85786 276.5 8V37.5H78.5V8L78.5098 7.61426C78.7105 3.65139 81.9872 0.5 86 0.5Z" stroke="#9E9E9E"/>
<rect x="78.5" y="37.5" width="66" height="37" fill="#9B1912"/>
<rect x="78.5" y="37.5" width="66" height="37" stroke="#9E9E9E"/>
<rect x="144.5" y="37.5" width="66" height="37" fill="#13120E"/>
<rect x="144.5" y="37.5" width="66" height="37" stroke="#9E9E9E"/>
<rect x="210.5" y="37.5" width="66" height="37" fill="#9B1912"/>
<rect x="210.5" y="37.5" width="66" height="37" stroke="#9E9E9E"/>
<rect x="78.5" y="74.5" width="66" height="37" fill="#13120E"/>
<rect x="78.5" y="74.5" width="66" height="37" stroke="#9E9E9E"/>
<rect x="144.5" y="74.5" width="66" height="37" fill="#9B1912"/>
<rect x="144.5" y="74.5" width="66" height="37" stroke="#9E9E9E"/>
<rect x="210.5" y="74.5" width="66" height="37" fill="#13120E"/>
<rect x="210.5" y="74.5" width="66" height="37" stroke="#9E9E9E"/>
<rect x="78.5" y="111.5" width="66" height="37" fill="#9B1912"/>
<rect x="78.5" y="111.5" width="66" height="37" stroke="#9E9E9E"/>
<rect x="144.5" y="111.5" width="66" height="37" fill="#13120E"/>
<rect x="144.5" y="111.5" width="66" height="37" stroke="#9E9E9E"/>
<rect x="210.5" y="111.5" width="66" height="37" fill="#9B1912"/>
<rect x="210.5" y="111.5" width="66" height="37" stroke="#9E9E9E"/>
<rect x="78.5" y="148.5" width="66" height="37" fill="#13120E"/>
<rect x="78.5" y="148.5" width="66" height="37" stroke="#9E9E9E"/>
<rect x="144.5" y="148.5" width="66" height="37" fill="#13120E"/>
<rect x="144.5" y="148.5" width="66" height="37" stroke="#9E9E9E"/>
<rect x="210.5" y="148.5" width="66" height="37" fill="#9B1912"/>
<rect x="210.5" y="148.5" width="66" height="37" stroke="#9E9E9E"/>
<rect x="78.5" y="185.5" width="66" height="37" fill="#13120E"/>
<rect x="78.5" y="185.5" width="66" height="37" stroke="#9E9E9E"/>
<rect x="144.5" y="185.5" width="66" height="37" fill="#9B1912"/>
<rect x="144.5" y="185.5" width="66" height="37" stroke="#9E9E9E"/>
<rect x="210.5" y="185.5" width="66" height="37" fill="#13120E"/>
<rect x="210.5" y="185.5" width="66" height="37" stroke="#9E9E9E"/>
<rect x="78.5" y="222.5" width="66" height="37" fill="#9B1912"/>
<rect x="78.5" y="222.5" width="66" height="37" stroke="#9E9E9E"/>
<rect x="144.5" y="222.5" width="66" height="37" fill="#13120E"/>
<rect x="144.5" y="222.5" width="66" height="37" stroke="#9E9E9E"/>
<rect x="210.5" y="222.5" width="66" height="37" fill="#9B1912"/>
<rect x="210.5" y="222.5" width="66" height="37" stroke="#9E9E9E"/>
<rect x="78.5" y="259.5" width="66" height="37" fill="#9B1912"/>
<rect x="78.5" y="259.5" width="66" height="37" stroke="#9E9E9E"/>
<rect x="144.5" y="259.5" width="66" height="37" fill="#13120E"/>
<rect x="144.5" y="259.5" width="66" height="37" stroke="#9E9E9E"/>
<rect x="210.5" y="259.5" width="66" height="37" fill="#9B1912"/>
<rect x="210.5" y="259.5" width="66" height="37" stroke="#9E9E9E"/>
<rect x="78.5" y="296.5" width="66" height="37" fill="#13120E"/>
<rect x="78.5" y="296.5" width="66" height="37" stroke="#9E9E9E"/>
<rect x="144.5" y="296.5" width="66" height="37" fill="#9B1912"/>
<rect x="144.5" y="296.5" width="66" height="37" stroke="#9E9E9E"/>
<rect x="210.5" y="296.5" width="66" height="37" fill="#13120E"/>
<rect x="210.5" y="296.5" width="66" height="37" stroke="#9E9E9E"/>
<rect x="78.5" y="333.5" width="66" height="37" fill="#9B1912"/>
<rect x="78.5" y="333.5" width="66" height="37" stroke="#9E9E9E"/>
<rect x="144.5" y="333.5" width="66" height="37" fill="#13120E"/>
<rect x="144.5" y="333.5" width="66" height="37" stroke="#9E9E9E"/>
<rect x="210.5" y="333.5" width="66" height="37" fill="#9B1912"/>
<rect x="210.5" y="333.5" width="66" height="37" stroke="#9E9E9E"/>
<rect x="78.5" y="370.5" width="66" height="37" fill="#13120E"/>
<rect x="78.5" y="370.5" width="66" height="37" stroke="#9E9E9E"/>
<rect x="144.5" y="370.5" width="66" height="37" fill="#13120E"/>
<rect x="144.5" y="370.5" width="66" height="37" stroke="#9E9E9E"/>
<rect x="210.5" y="370.5" width="66" height="37" fill="#9B1912"/>
<rect x="210.5" y="370.5" width="66" height="37" stroke="#9E9E9E"/>
<rect x="78.5" y="407.5" width="66" height="37" fill="#13120E"/>
<rect x="78.5" y="407.5" width="66" height="37" stroke="#9E9E9E"/>
<rect x="144.5" y="407.5" width="66" height="37" fill="#9B1912"/>
<rect x="144.5" y="407.5" width="66" height="37" stroke="#9E9E9E"/>
<rect x="210.5" y="407.5" width="66" height="37" fill="#13120E"/>
<rect x="210.5" y="407.5" width="66" height="37" stroke="#9E9E9E"/>
<rect x="78.5" y="444.5" width="66" height="37" fill="#9B1912"/>
<rect x="78.5" y="444.5" width="66" height="37" stroke="#9E9E9E"/>
<rect x="144.5" y="444.5" width="66" height="37" fill="#13120E"/>
<rect x="144.5" y="444.5" width="66" height="37" stroke="#9E9E9E"/>
<rect x="210.5" y="444.5" width="66" height="37" fill="#9B1912"/>
<rect x="210.5" y="444.5" width="66" height="37" stroke="#9E9E9E"/>
<path d="M177.497 27.3516C176.153 27.3464 174.997 27.0156 174.028 26.3594C173.065 25.7031 172.323 24.7526 171.802 23.5078C171.286 22.263 171.031 20.7656 171.036 19.0156C171.036 17.2708 171.294 15.7839 171.81 14.5547C172.33 13.3255 173.073 12.3906 174.036 11.75C175.005 11.1042 176.159 10.7812 177.497 10.7812C178.836 10.7812 179.987 11.1042 180.95 11.75C181.919 12.3958 182.664 13.3333 183.185 14.5625C183.705 15.7865 183.963 17.2708 183.958 19.0156C183.958 20.7708 183.698 22.2708 183.177 23.5156C182.661 24.7604 181.922 25.7109 180.958 26.3672C179.994 27.0234 178.841 27.3516 177.497 27.3516ZM177.497 24.5469C178.414 24.5469 179.146 24.0859 179.692 23.1641C180.239 22.2422 180.51 20.8594 180.505 19.0156C180.505 17.8021 180.38 16.7917 180.13 15.9844C179.885 15.1771 179.536 14.5703 179.083 14.1641C178.635 13.7578 178.106 13.5547 177.497 13.5547C176.586 13.5547 175.856 14.0104 175.31 14.9219C174.763 15.8333 174.487 17.1979 174.481 19.0156C174.481 20.2448 174.604 21.2708 174.849 22.0937C175.099 22.9115 175.45 23.526 175.903 23.9375C176.356 24.3437 176.888 24.5469 177.497 24.5469Z" fill="white"/>
<path d="M236.198 471.219C235.032 471.219 233.993 471.018 233.081 470.617C232.175 470.211 231.459 469.654 230.933 468.945C230.412 468.232 230.144 467.409 230.128 466.477H233.534C233.555 466.867 233.683 467.211 233.917 467.508C234.157 467.799 234.474 468.026 234.87 468.188C235.266 468.349 235.711 468.43 236.206 468.43C236.722 468.43 237.177 468.339 237.573 468.156C237.969 467.974 238.279 467.721 238.503 467.398C238.727 467.076 238.839 466.703 238.839 466.281C238.839 465.854 238.719 465.477 238.479 465.148C238.245 464.815 237.907 464.555 237.464 464.367C237.026 464.18 236.506 464.086 235.901 464.086H234.409V461.602H235.901C236.412 461.602 236.862 461.513 237.253 461.336C237.649 461.159 237.956 460.914 238.175 460.602C238.394 460.284 238.503 459.914 238.503 459.492C238.503 459.091 238.407 458.74 238.214 458.437C238.026 458.13 237.761 457.891 237.417 457.719C237.078 457.547 236.683 457.461 236.229 457.461C235.771 457.461 235.352 457.544 234.972 457.711C234.591 457.872 234.287 458.104 234.058 458.406C233.828 458.708 233.706 459.062 233.69 459.469H230.448C230.464 458.547 230.727 457.734 231.237 457.031C231.748 456.328 232.435 455.779 233.3 455.383C234.17 454.982 235.151 454.781 236.245 454.781C237.349 454.781 238.315 454.982 239.144 455.383C239.972 455.784 240.615 456.326 241.073 457.008C241.537 457.685 241.766 458.445 241.761 459.289C241.766 460.185 241.487 460.932 240.925 461.531C240.368 462.13 239.641 462.51 238.745 462.672V462.797C239.922 462.948 240.818 463.357 241.433 464.023C242.052 464.685 242.36 465.513 242.354 466.508C242.36 467.419 242.097 468.229 241.565 468.938C241.039 469.646 240.313 470.203 239.386 470.609C238.459 471.016 237.396 471.219 236.198 471.219ZM250.927 471.219C250.104 471.214 249.31 471.076 248.544 470.805C247.784 470.534 247.101 470.094 246.497 469.484C245.893 468.875 245.414 468.068 245.06 467.062C244.711 466.057 244.536 464.823 244.536 463.359C244.541 462.016 244.695 460.815 244.997 459.758C245.304 458.695 245.742 457.794 246.31 457.055C246.882 456.315 247.567 455.753 248.364 455.367C249.161 454.977 250.054 454.781 251.044 454.781C252.112 454.781 253.054 454.99 253.872 455.406C254.69 455.818 255.346 456.378 255.841 457.086C256.341 457.794 256.643 458.589 256.747 459.469H253.411C253.281 458.911 253.007 458.474 252.591 458.156C252.174 457.839 251.659 457.68 251.044 457.68C250.002 457.68 249.211 458.133 248.669 459.039C248.132 459.945 247.859 461.177 247.849 462.734H247.958C248.198 462.26 248.521 461.857 248.927 461.523C249.338 461.185 249.804 460.927 250.325 460.75C250.851 460.568 251.406 460.477 251.989 460.477C252.937 460.477 253.781 460.701 254.521 461.148C255.26 461.591 255.843 462.201 256.271 462.977C256.698 463.753 256.911 464.641 256.911 465.641C256.911 466.724 256.659 467.687 256.153 468.531C255.653 469.375 254.953 470.036 254.052 470.516C253.156 470.99 252.114 471.224 250.927 471.219ZM250.911 468.562C251.432 468.562 251.898 468.437 252.31 468.188C252.721 467.937 253.044 467.599 253.278 467.172C253.513 466.745 253.63 466.266 253.63 465.734C253.63 465.203 253.513 464.727 253.278 464.305C253.049 463.883 252.731 463.547 252.325 463.297C251.919 463.047 251.455 462.922 250.935 462.922C250.544 462.922 250.182 462.995 249.849 463.141C249.521 463.286 249.231 463.49 248.981 463.75C248.737 464.01 248.544 464.312 248.403 464.656C248.263 464.995 248.192 465.357 248.192 465.742C248.192 466.258 248.31 466.729 248.544 467.156C248.784 467.583 249.106 467.924 249.513 468.18C249.924 468.435 250.39 468.562 250.911 468.562Z" fill="white"/>
<path d="M170.37 471.219C169.203 471.219 168.164 471.018 167.253 470.617C166.347 470.211 165.631 469.654 165.104 468.945C164.584 468.232 164.315 467.409 164.3 466.477H167.706C167.727 466.867 167.854 467.211 168.089 467.508C168.328 467.799 168.646 468.026 169.042 468.188C169.438 468.349 169.883 468.43 170.378 468.43C170.894 468.43 171.349 468.339 171.745 468.156C172.141 467.974 172.451 467.721 172.675 467.398C172.899 467.076 173.011 466.703 173.011 466.281C173.011 465.854 172.891 465.477 172.651 465.148C172.417 464.815 172.078 464.555 171.636 464.367C171.198 464.18 170.677 464.086 170.073 464.086H168.581V461.602H170.073C170.584 461.602 171.034 461.513 171.425 461.336C171.821 461.159 172.128 460.914 172.347 460.602C172.565 460.284 172.675 459.914 172.675 459.492C172.675 459.091 172.578 458.74 172.386 458.437C172.198 458.13 171.933 457.891 171.589 457.719C171.25 457.547 170.854 457.461 170.401 457.461C169.943 457.461 169.524 457.544 169.144 457.711C168.763 457.872 168.459 458.104 168.229 458.406C168 458.708 167.878 459.062 167.862 459.469H164.62C164.636 458.547 164.899 457.734 165.409 457.031C165.92 456.328 166.607 455.779 167.472 455.383C168.341 454.982 169.323 454.781 170.417 454.781C171.521 454.781 172.487 454.982 173.315 455.383C174.144 455.784 174.787 456.326 175.245 457.008C175.709 457.685 175.938 458.445 175.933 459.289C175.938 460.185 175.659 460.932 175.097 461.531C174.539 462.13 173.813 462.51 172.917 462.672V462.797C174.094 462.948 174.99 463.357 175.604 464.023C176.224 464.685 176.532 465.513 176.526 466.508C176.532 467.419 176.269 468.229 175.737 468.938C175.211 469.646 174.485 470.203 173.558 470.609C172.631 471.016 171.568 471.219 170.37 471.219ZM184.802 471.219C183.698 471.219 182.713 471.016 181.849 470.609C180.989 470.203 180.307 469.643 179.802 468.93C179.297 468.216 179.034 467.398 179.013 466.477H182.294C182.33 467.096 182.591 467.599 183.075 467.984C183.56 468.37 184.135 468.562 184.802 468.562C185.333 468.562 185.802 468.445 186.208 468.211C186.619 467.971 186.94 467.641 187.169 467.219C187.403 466.792 187.521 466.302 187.521 465.75C187.521 465.187 187.401 464.693 187.161 464.266C186.927 463.839 186.601 463.505 186.185 463.266C185.768 463.026 185.291 462.904 184.755 462.898C184.286 462.898 183.83 462.995 183.388 463.187C182.95 463.38 182.609 463.643 182.364 463.977L179.356 463.438L180.114 455H189.896V457.766H182.903L182.489 461.773H182.583C182.864 461.378 183.289 461.049 183.856 460.789C184.424 460.529 185.06 460.398 185.763 460.398C186.726 460.398 187.586 460.625 188.341 461.078C189.096 461.531 189.692 462.154 190.13 462.945C190.567 463.732 190.784 464.638 190.778 465.664C190.784 466.742 190.534 467.701 190.028 468.539C189.528 469.372 188.828 470.029 187.927 470.508C187.031 470.982 185.989 471.219 184.802 471.219Z" fill="white"/>
<path d="M104.005 471.219C102.838 471.219 101.799 471.018 100.888 470.617C99.9814 470.211 99.2653 469.654 98.7393 468.945C98.2184 468.232 97.9502 467.409 97.9346 466.477H101.341C101.362 466.867 101.489 467.211 101.724 467.508C101.963 467.799 102.281 468.026 102.677 468.188C103.073 468.349 103.518 468.43 104.013 468.43C104.528 468.43 104.984 468.339 105.38 468.156C105.776 467.974 106.086 467.721 106.31 467.398C106.534 467.076 106.646 466.703 106.646 466.281C106.646 465.854 106.526 465.477 106.286 465.148C106.052 464.815 105.713 464.555 105.271 464.367C104.833 464.18 104.312 464.086 103.708 464.086H102.216V461.602H103.708C104.218 461.602 104.669 461.513 105.06 461.336C105.455 461.159 105.763 460.914 105.981 460.602C106.2 460.284 106.31 459.914 106.31 459.492C106.31 459.091 106.213 458.74 106.021 458.437C105.833 458.13 105.567 457.891 105.224 457.719C104.885 457.547 104.489 457.461 104.036 457.461C103.578 457.461 103.159 457.544 102.778 457.711C102.398 457.872 102.093 458.104 101.864 458.406C101.635 458.708 101.513 459.062 101.497 459.469H98.2549C98.2705 458.547 98.5335 457.734 99.0439 457.031C99.5544 456.328 100.242 455.779 101.106 455.383C101.976 454.982 102.958 454.781 104.052 454.781C105.156 454.781 106.122 454.982 106.95 455.383C107.778 455.784 108.422 456.326 108.88 457.008C109.343 457.685 109.573 458.445 109.567 459.289C109.573 460.185 109.294 460.932 108.731 461.531C108.174 462.13 107.448 462.51 106.552 462.672V462.797C107.729 462.948 108.625 463.357 109.239 464.023C109.859 464.685 110.166 465.513 110.161 466.508C110.166 467.419 109.903 468.229 109.372 468.938C108.846 469.646 108.119 470.203 107.192 470.609C106.265 471.016 105.203 471.219 104.005 471.219ZM112.351 468.188V465.523L119.03 455H121.327V458.687H119.968L115.757 465.352V465.477H125.249V468.188H112.351ZM120.03 471V467.375L120.093 466.195V455H123.265V471H120.03Z" fill="white"/>
<path d="M236.209 434.219C235.042 434.219 234.003 434.018 233.092 433.617C232.186 433.211 231.469 432.654 230.943 431.945C230.423 431.232 230.154 430.409 230.139 429.477H233.545C233.566 429.867 233.693 430.211 233.928 430.508C234.167 430.799 234.485 431.026 234.881 431.188C235.277 431.349 235.722 431.43 236.217 431.43C236.732 431.43 237.188 431.339 237.584 431.156C237.98 430.974 238.29 430.721 238.514 430.398C238.738 430.076 238.85 429.703 238.85 429.281C238.85 428.854 238.73 428.477 238.49 428.148C238.256 427.815 237.917 427.555 237.475 427.367C237.037 427.18 236.516 427.086 235.912 427.086H234.42V424.602H235.912C236.423 424.602 236.873 424.513 237.264 424.336C237.66 424.159 237.967 423.914 238.186 423.602C238.404 423.284 238.514 422.914 238.514 422.492C238.514 422.091 238.417 421.74 238.225 421.437C238.037 421.13 237.771 420.891 237.428 420.719C237.089 420.547 236.693 420.461 236.24 420.461C235.782 420.461 235.363 420.544 234.982 420.711C234.602 420.872 234.298 421.104 234.068 421.406C233.839 421.708 233.717 422.062 233.701 422.469H230.459C230.475 421.547 230.738 420.734 231.248 420.031C231.758 419.328 232.446 418.779 233.311 418.383C234.18 417.982 235.162 417.781 236.256 417.781C237.36 417.781 238.326 417.982 239.154 418.383C239.982 418.784 240.626 419.326 241.084 420.008C241.548 420.685 241.777 421.445 241.771 422.289C241.777 423.185 241.498 423.932 240.936 424.531C240.378 425.13 239.652 425.51 238.756 425.672V425.797C239.933 425.948 240.829 426.357 241.443 427.023C242.063 427.685 242.37 428.513 242.365 429.508C242.37 430.419 242.107 431.229 241.576 431.938C241.05 432.646 240.324 433.203 239.396 433.609C238.469 434.016 237.407 434.219 236.209 434.219ZM250.711 434.219C249.544 434.219 248.505 434.018 247.594 433.617C246.688 433.211 245.971 432.654 245.445 431.945C244.924 431.232 244.656 430.409 244.641 429.477H248.047C248.068 429.867 248.195 430.211 248.43 430.508C248.669 430.799 248.987 431.026 249.383 431.188C249.779 431.349 250.224 431.43 250.719 431.43C251.234 431.43 251.69 431.339 252.086 431.156C252.482 430.974 252.792 430.721 253.016 430.398C253.24 430.076 253.352 429.703 253.352 429.281C253.352 428.854 253.232 428.477 252.992 428.148C252.758 427.815 252.419 427.555 251.977 427.367C251.539 427.18 251.018 427.086 250.414 427.086H248.922V424.602H250.414C250.924 424.602 251.375 424.513 251.766 424.336C252.161 424.159 252.469 423.914 252.688 423.602C252.906 423.284 253.016 422.914 253.016 422.492C253.016 422.091 252.919 421.74 252.727 421.437C252.539 421.13 252.273 420.891 251.93 420.719C251.591 420.547 251.195 420.461 250.742 420.461C250.284 420.461 249.865 420.544 249.484 420.711C249.104 420.872 248.799 421.104 248.57 421.406C248.341 421.708 248.219 422.062 248.203 422.469H244.961C244.977 421.547 245.24 420.734 245.75 420.031C246.26 419.328 246.948 418.779 247.813 418.383C248.682 417.982 249.664 417.781 250.758 417.781C251.862 417.781 252.828 417.982 253.656 418.383C254.484 418.784 255.128 419.326 255.586 420.008C256.049 420.685 256.279 421.445 256.273 422.289C256.279 423.185 256 423.932 255.437 424.531C254.88 425.13 254.154 425.51 253.258 425.672V425.797C254.435 425.948 255.331 426.357 255.945 427.023C256.565 427.685 256.872 428.513 256.867 429.508C256.872 430.419 256.609 431.229 256.078 431.938C255.552 432.646 254.826 433.203 253.898 433.609C252.971 434.016 251.909 434.219 250.711 434.219Z" fill="white"/>
<path d="M170.531 434.219C169.365 434.219 168.326 434.018 167.414 433.617C166.508 433.211 165.792 432.654 165.266 431.945C164.745 431.232 164.477 430.409 164.461 429.477H167.867C167.888 429.867 168.016 430.211 168.25 430.508C168.49 430.799 168.807 431.026 169.203 431.188C169.599 431.349 170.044 431.43 170.539 431.43C171.055 431.43 171.51 431.339 171.906 431.156C172.302 430.974 172.612 430.721 172.836 430.398C173.06 430.076 173.172 429.703 173.172 429.281C173.172 428.854 173.052 428.477 172.813 428.148C172.578 427.815 172.24 427.555 171.797 427.367C171.359 427.18 170.839 427.086 170.234 427.086H168.742V424.602H170.234C170.745 424.602 171.195 424.513 171.586 424.336C171.982 424.159 172.289 423.914 172.508 423.602C172.727 423.284 172.836 422.914 172.836 422.492C172.836 422.091 172.74 421.74 172.547 421.437C172.359 421.13 172.094 420.891 171.75 420.719C171.411 420.547 171.016 420.461 170.563 420.461C170.104 420.461 169.685 420.544 169.305 420.711C168.924 420.872 168.62 421.104 168.391 421.406C168.161 421.708 168.039 422.062 168.023 422.469H164.781C164.797 421.547 165.06 420.734 165.57 420.031C166.081 419.328 166.768 418.779 167.633 418.383C168.503 417.982 169.484 417.781 170.578 417.781C171.682 417.781 172.648 417.982 173.477 418.383C174.305 418.784 174.948 419.326 175.406 420.008C175.87 420.685 176.099 421.445 176.094 422.289C176.099 423.185 175.82 423.932 175.258 424.531C174.701 425.13 173.974 425.51 173.078 425.672V425.797C174.255 425.948 175.151 426.357 175.766 427.023C176.385 427.685 176.693 428.513 176.688 429.508C176.693 430.419 176.43 431.229 175.898 431.938C175.372 432.646 174.646 433.203 173.719 433.609C172.792 434.016 171.729 434.219 170.531 434.219ZM179.119 434V431.562L184.814 426.289C185.299 425.82 185.705 425.398 186.033 425.023C186.367 424.648 186.619 424.281 186.791 423.922C186.963 423.557 187.049 423.164 187.049 422.742C187.049 422.273 186.942 421.87 186.729 421.531C186.515 421.187 186.223 420.924 185.854 420.742C185.484 420.555 185.064 420.461 184.596 420.461C184.106 420.461 183.679 420.56 183.314 420.758C182.95 420.956 182.669 421.24 182.471 421.609C182.273 421.979 182.174 422.419 182.174 422.93H178.963C178.963 421.883 179.2 420.974 179.674 420.203C180.148 419.432 180.812 418.836 181.666 418.414C182.52 417.992 183.505 417.781 184.619 417.781C185.765 417.781 186.762 417.984 187.611 418.391C188.465 418.792 189.13 419.349 189.604 420.062C190.077 420.776 190.314 421.594 190.314 422.516C190.314 423.12 190.195 423.716 189.955 424.305C189.721 424.893 189.301 425.547 188.697 426.266C188.093 426.979 187.242 427.836 186.143 428.836L183.807 431.125V431.234H190.525V434H179.119Z" fill="white"/>
<path d="M106.078 434.219C104.911 434.219 103.872 434.018 102.961 433.617C102.055 433.211 101.339 432.654 100.813 431.945C100.292 431.232 100.023 430.409 100.008 429.477H103.414C103.435 429.867 103.563 430.211 103.797 430.508C104.036 430.799 104.354 431.026 104.75 431.188C105.146 431.349 105.591 431.43 106.086 431.43C106.602 431.43 107.057 431.339 107.453 431.156C107.849 430.974 108.159 430.721 108.383 430.398C108.607 430.076 108.719 429.703 108.719 429.281C108.719 428.854 108.599 428.477 108.359 428.148C108.125 427.815 107.786 427.555 107.344 427.367C106.906 427.18 106.385 427.086 105.781 427.086H104.289V424.602H105.781C106.292 424.602 106.742 424.513 107.133 424.336C107.529 424.159 107.836 423.914 108.055 423.602C108.273 423.284 108.383 422.914 108.383 422.492C108.383 422.091 108.286 421.74 108.094 421.437C107.906 421.13 107.641 420.891 107.297 420.719C106.958 420.547 106.563 420.461 106.109 420.461C105.651 420.461 105.232 420.544 104.852 420.711C104.471 420.872 104.167 421.104 103.938 421.406C103.708 421.708 103.586 422.062 103.57 422.469H100.328C100.344 421.547 100.607 420.734 101.117 420.031C101.628 419.328 102.315 418.779 103.18 418.383C104.049 417.982 105.031 417.781 106.125 417.781C107.229 417.781 108.195 417.982 109.023 418.383C109.852 418.784 110.495 419.326 110.953 420.008C111.417 420.685 111.646 421.445 111.641 422.289C111.646 423.185 111.367 423.932 110.805 424.531C110.247 425.13 109.521 425.51 108.625 425.672V425.797C109.802 425.948 110.698 426.357 111.313 427.023C111.932 427.685 112.24 428.513 112.234 429.508C112.24 430.419 111.977 431.229 111.445 431.938C110.919 432.646 110.193 433.203 109.266 433.609C108.339 434.016 107.276 434.219 106.078 434.219ZM121.627 418V434H118.244V421.211H118.15L114.486 423.508V420.508L118.447 418H121.627Z" fill="white"/>
<path d="M235.887 397.219C234.72 397.219 233.681 397.018 232.77 396.617C231.863 396.211 231.147 395.654 230.621 394.945C230.1 394.232 229.832 393.409 229.816 392.477H233.223C233.243 392.867 233.371 393.211 233.605 393.508C233.845 393.799 234.163 394.026 234.559 394.188C234.954 394.349 235.4 394.43 235.895 394.43C236.41 394.43 236.866 394.339 237.262 394.156C237.658 393.974 237.967 393.721 238.191 393.398C238.415 393.076 238.527 392.703 238.527 392.281C238.527 391.854 238.408 391.477 238.168 391.148C237.934 390.815 237.595 390.555 237.152 390.367C236.715 390.18 236.194 390.086 235.59 390.086H234.098V387.602H235.59C236.1 387.602 236.551 387.513 236.941 387.336C237.337 387.159 237.645 386.914 237.863 386.602C238.082 386.284 238.191 385.914 238.191 385.492C238.191 385.091 238.095 384.74 237.902 384.437C237.715 384.13 237.449 383.891 237.105 383.719C236.767 383.547 236.371 383.461 235.918 383.461C235.46 383.461 235.04 383.544 234.66 383.711C234.28 383.872 233.975 384.104 233.746 384.406C233.517 384.708 233.395 385.062 233.379 385.469H230.137C230.152 384.547 230.415 383.734 230.926 383.031C231.436 382.328 232.124 381.779 232.988 381.383C233.858 380.982 234.84 380.781 235.934 380.781C237.038 380.781 238.004 380.982 238.832 381.383C239.66 381.784 240.303 382.326 240.762 383.008C241.225 383.685 241.454 384.445 241.449 385.289C241.454 386.185 241.176 386.932 240.613 387.531C240.056 388.13 239.329 388.51 238.434 388.672V388.797C239.611 388.948 240.507 389.357 241.121 390.023C241.741 390.685 242.048 391.513 242.043 392.508C242.048 393.419 241.785 394.229 241.254 394.938C240.728 395.646 240.001 396.203 239.074 396.609C238.147 397.016 237.085 397.219 235.887 397.219ZM250.748 397.352C249.404 397.346 248.248 397.016 247.279 396.359C246.316 395.703 245.574 394.753 245.053 393.508C244.537 392.263 244.282 390.766 244.287 389.016C244.287 387.271 244.545 385.784 245.061 384.555C245.581 383.326 246.324 382.391 247.287 381.75C248.256 381.104 249.41 380.781 250.748 380.781C252.087 380.781 253.238 381.104 254.201 381.75C255.17 382.396 255.915 383.333 256.436 384.562C256.956 385.786 257.214 387.271 257.209 389.016C257.209 390.771 256.949 392.271 256.428 393.516C255.912 394.76 255.173 395.711 254.209 396.367C253.245 397.023 252.092 397.352 250.748 397.352ZM250.748 394.547C251.665 394.547 252.396 394.086 252.943 393.164C253.49 392.242 253.761 390.859 253.756 389.016C253.756 387.802 253.631 386.792 253.381 385.984C253.136 385.177 252.787 384.57 252.334 384.164C251.886 383.758 251.357 383.555 250.748 383.555C249.837 383.555 249.107 384.01 248.561 384.922C248.014 385.833 247.738 387.198 247.732 389.016C247.732 390.245 247.855 391.271 248.1 392.094C248.35 392.911 248.701 393.526 249.154 393.937C249.607 394.344 250.139 394.547 250.748 394.547Z" fill="white"/>
<path d="M164.606 397V394.562L170.302 389.289C170.786 388.82 171.192 388.398 171.521 388.023C171.854 387.648 172.106 387.281 172.278 386.922C172.45 386.557 172.536 386.164 172.536 385.742C172.536 385.273 172.429 384.87 172.216 384.531C172.002 384.187 171.711 383.924 171.341 383.742C170.971 383.555 170.552 383.461 170.083 383.461C169.593 383.461 169.166 383.56 168.802 383.758C168.437 383.956 168.156 384.24 167.958 384.609C167.76 384.979 167.661 385.419 167.661 385.93H164.45C164.45 384.883 164.687 383.974 165.161 383.203C165.635 382.432 166.299 381.836 167.153 381.414C168.007 380.992 168.992 380.781 170.106 380.781C171.252 380.781 172.25 380.984 173.099 381.391C173.953 381.792 174.617 382.349 175.091 383.062C175.565 383.776 175.802 384.594 175.802 385.516C175.802 386.12 175.682 386.716 175.442 387.305C175.208 387.893 174.789 388.547 174.185 389.266C173.58 389.979 172.729 390.836 171.63 391.836L169.294 394.125V394.234H176.013V397H164.606ZM184.253 380.781C185.076 380.781 185.868 380.919 186.628 381.195C187.394 381.471 188.076 381.911 188.675 382.516C189.279 383.12 189.756 383.922 190.104 384.922C190.459 385.917 190.638 387.138 190.644 388.586C190.644 389.945 190.49 391.159 190.183 392.227C189.881 393.289 189.446 394.193 188.878 394.938C188.31 395.682 187.625 396.25 186.823 396.641C186.021 397.026 185.125 397.219 184.136 397.219C183.068 397.219 182.125 397.013 181.308 396.602C180.49 396.185 179.831 395.62 179.331 394.906C178.836 394.187 178.537 393.38 178.433 392.484H181.769C181.899 393.068 182.172 393.521 182.589 393.844C183.006 394.161 183.521 394.32 184.136 394.32C185.177 394.32 185.969 393.867 186.511 392.961C187.052 392.049 187.326 390.802 187.331 389.219H187.222C186.982 389.687 186.659 390.091 186.253 390.43C185.847 390.763 185.381 391.021 184.854 391.203C184.334 391.385 183.779 391.477 183.19 391.477C182.248 391.477 181.407 391.255 180.667 390.812C179.927 390.37 179.344 389.76 178.917 388.984C178.49 388.208 178.276 387.323 178.276 386.328C178.271 385.255 178.519 384.299 179.019 383.461C179.519 382.622 180.216 381.966 181.112 381.492C182.013 381.013 183.06 380.776 184.253 380.781ZM184.276 383.437C183.75 383.437 183.282 383.562 182.87 383.813C182.464 384.062 182.141 384.398 181.901 384.82C181.667 385.242 181.552 385.714 181.558 386.234C181.558 386.76 181.672 387.234 181.901 387.656C182.136 388.073 182.453 388.406 182.854 388.656C183.261 388.901 183.724 389.023 184.245 389.023C184.636 389.023 184.998 388.951 185.331 388.805C185.664 388.659 185.953 388.458 186.198 388.203C186.448 387.943 186.644 387.643 186.784 387.305C186.925 386.966 186.995 386.607 186.995 386.227C186.99 385.721 186.87 385.258 186.636 384.836C186.401 384.414 186.078 384.076 185.667 383.82C185.256 383.565 184.792 383.437 184.276 383.437Z" fill="white"/>
<path d="M98.5957 397V394.562L104.291 389.289C104.775 388.82 105.182 388.398 105.51 388.023C105.843 387.648 106.096 387.281 106.268 386.922C106.439 386.557 106.525 386.164 106.525 385.742C106.525 385.273 106.419 384.87 106.205 384.531C105.992 384.187 105.7 383.924 105.33 383.742C104.96 383.555 104.541 383.461 104.072 383.461C103.583 383.461 103.156 383.56 102.791 383.758C102.426 383.956 102.145 384.24 101.947 384.609C101.749 384.979 101.65 385.419 101.65 385.93H98.4395C98.4395 384.883 98.6764 383.974 99.1504 383.203C99.6243 382.432 100.288 381.836 101.143 381.414C101.997 380.992 102.981 380.781 104.096 380.781C105.242 380.781 106.239 380.984 107.088 381.391C107.942 381.792 108.606 382.349 109.08 383.062C109.554 383.776 109.791 384.594 109.791 385.516C109.791 386.12 109.671 386.716 109.432 387.305C109.197 387.893 108.778 388.547 108.174 389.266C107.57 389.979 106.718 390.836 105.619 391.836L103.283 394.125V394.234H110.002V397H98.5957ZM118.422 397.219C117.219 397.219 116.148 397.023 115.211 396.633C114.279 396.237 113.547 395.698 113.016 395.016C112.484 394.333 112.219 393.56 112.219 392.695C112.219 392.029 112.37 391.417 112.672 390.859C112.979 390.297 113.396 389.831 113.922 389.461C114.448 389.086 115.036 388.846 115.688 388.742V388.633C114.833 388.461 114.141 388.047 113.609 387.391C113.078 386.729 112.813 385.961 112.813 385.086C112.813 384.258 113.055 383.521 113.539 382.875C114.023 382.224 114.688 381.714 115.531 381.344C116.38 380.969 117.344 380.781 118.422 380.781C119.5 380.781 120.461 380.969 121.305 381.344C122.154 381.719 122.82 382.232 123.305 382.883C123.789 383.529 124.034 384.263 124.039 385.086C124.034 385.966 123.763 386.734 123.227 387.391C122.69 388.047 122.003 388.461 121.164 388.633V388.742C121.805 388.846 122.385 389.086 122.906 389.461C123.432 389.831 123.849 390.297 124.156 390.859C124.469 391.417 124.628 392.029 124.633 392.695C124.628 393.56 124.359 394.333 123.828 395.016C123.297 395.698 122.563 396.237 121.625 396.633C120.693 397.023 119.625 397.219 118.422 397.219ZM118.422 394.734C118.958 394.734 119.427 394.638 119.828 394.445C120.229 394.247 120.542 393.977 120.766 393.633C120.995 393.284 121.109 392.883 121.109 392.43C121.109 391.966 120.992 391.557 120.758 391.203C120.523 390.844 120.206 390.563 119.805 390.359C119.404 390.151 118.943 390.047 118.422 390.047C117.906 390.047 117.445 390.151 117.039 390.359C116.633 390.563 116.313 390.844 116.078 391.203C115.849 391.557 115.734 391.966 115.734 392.43C115.734 392.883 115.846 393.284 116.07 393.633C116.294 393.977 116.609 394.247 117.016 394.445C117.422 394.638 117.891 394.734 118.422 394.734ZM118.422 387.586C118.87 387.586 119.268 387.495 119.617 387.312C119.966 387.13 120.24 386.878 120.438 386.555C120.635 386.232 120.734 385.859 120.734 385.437C120.734 385.021 120.635 384.656 120.438 384.344C120.24 384.026 119.969 383.779 119.625 383.602C119.281 383.419 118.88 383.328 118.422 383.328C117.969 383.328 117.568 383.419 117.219 383.602C116.87 383.779 116.596 384.026 116.398 384.344C116.206 384.656 116.109 385.021 116.109 385.437C116.109 385.859 116.208 386.232 116.406 386.555C116.604 386.878 116.878 387.13 117.227 387.312C117.576 387.495 117.974 387.586 118.422 387.586Z" fill="white"/>
<path d="M231.326 360V357.562L237.021 352.289C237.506 351.82 237.912 351.398 238.24 351.023C238.574 350.648 238.826 350.281 238.998 349.922C239.17 349.557 239.256 349.164 239.256 348.742C239.256 348.273 239.149 347.87 238.936 347.531C238.722 347.187 238.43 346.924 238.061 346.742C237.691 346.555 237.271 346.461 236.803 346.461C236.313 346.461 235.886 346.56 235.521 346.758C235.157 346.956 234.876 347.24 234.678 347.609C234.48 347.979 234.381 348.419 234.381 348.93H231.17C231.17 347.883 231.407 346.974 231.881 346.203C232.355 345.432 233.019 344.836 233.873 344.414C234.727 343.992 235.712 343.781 236.826 343.781C237.972 343.781 238.969 343.984 239.818 344.391C240.673 344.792 241.337 345.349 241.811 346.062C242.285 346.776 242.521 347.594 242.521 348.516C242.521 349.12 242.402 349.716 242.162 350.305C241.928 350.893 241.508 351.547 240.904 352.266C240.3 352.979 239.449 353.836 238.35 354.836L236.014 357.125V357.234H242.732V360H231.326ZM245.816 360L252.449 346.875V346.766H244.723V344H255.949V346.805L249.309 360H245.816Z" fill="white"/>
<path d="M164.606 360V357.562L170.302 352.289C170.786 351.82 171.192 351.398 171.521 351.023C171.854 350.648 172.106 350.281 172.278 349.922C172.45 349.557 172.536 349.164 172.536 348.742C172.536 348.273 172.429 347.87 172.216 347.531C172.002 347.187 171.711 346.924 171.341 346.742C170.971 346.555 170.552 346.461 170.083 346.461C169.593 346.461 169.166 346.56 168.802 346.758C168.437 346.956 168.156 347.24 167.958 347.609C167.76 347.979 167.661 348.419 167.661 348.93H164.45C164.45 347.883 164.687 346.974 165.161 346.203C165.635 345.432 166.299 344.836 167.153 344.414C168.007 343.992 168.992 343.781 170.106 343.781C171.252 343.781 172.25 343.984 173.099 344.391C173.953 344.792 174.617 345.349 175.091 346.062C175.565 346.776 175.802 347.594 175.802 348.516C175.802 349.12 175.682 349.716 175.442 350.305C175.208 350.893 174.789 351.547 174.185 352.266C173.58 352.979 172.729 353.836 171.63 354.836L169.294 357.125V357.234H176.013V360H164.606ZM184.604 360.219C183.782 360.214 182.987 360.076 182.222 359.805C181.461 359.534 180.779 359.094 180.175 358.484C179.571 357.875 179.091 357.068 178.737 356.062C178.388 355.057 178.214 353.823 178.214 352.359C178.219 351.016 178.373 349.815 178.675 348.758C178.982 347.695 179.42 346.794 179.987 346.055C180.56 345.315 181.245 344.753 182.042 344.367C182.839 343.977 183.732 343.781 184.722 343.781C185.789 343.781 186.732 343.99 187.55 344.406C188.368 344.818 189.024 345.378 189.519 346.086C190.019 346.794 190.321 347.589 190.425 348.469H187.089C186.959 347.911 186.685 347.474 186.269 347.156C185.852 346.839 185.336 346.68 184.722 346.68C183.68 346.68 182.888 347.133 182.347 348.039C181.81 348.945 181.537 350.177 181.526 351.734H181.636C181.875 351.26 182.198 350.857 182.604 350.523C183.016 350.185 183.482 349.927 184.003 349.75C184.529 349.568 185.084 349.477 185.667 349.477C186.615 349.477 187.459 349.701 188.198 350.148C188.938 350.591 189.521 351.201 189.948 351.977C190.375 352.753 190.589 353.641 190.589 354.641C190.589 355.724 190.336 356.687 189.831 357.531C189.331 358.375 188.631 359.036 187.729 359.516C186.834 359.99 185.792 360.224 184.604 360.219ZM184.589 357.562C185.11 357.562 185.576 357.437 185.987 357.188C186.399 356.937 186.722 356.599 186.956 356.172C187.19 355.745 187.308 355.266 187.308 354.734C187.308 354.203 187.19 353.727 186.956 353.305C186.727 352.883 186.409 352.547 186.003 352.297C185.597 352.047 185.133 351.922 184.612 351.922C184.222 351.922 183.86 351.995 183.526 352.141C183.198 352.286 182.909 352.49 182.659 352.75C182.414 353.01 182.222 353.312 182.081 353.656C181.94 353.995 181.87 354.357 181.87 354.742C181.87 355.258 181.987 355.729 182.222 356.156C182.461 356.583 182.784 356.924 183.19 357.18C183.602 357.435 184.068 357.562 184.589 357.562Z" fill="white"/>
<path d="M98.7783 360V357.562L104.474 352.289C104.958 351.82 105.364 351.398 105.692 351.023C106.026 350.648 106.278 350.281 106.45 349.922C106.622 349.557 106.708 349.164 106.708 348.742C106.708 348.273 106.601 347.87 106.388 347.531C106.174 347.187 105.882 346.924 105.513 346.742C105.143 346.555 104.724 346.461 104.255 346.461C103.765 346.461 103.338 346.56 102.974 346.758C102.609 346.956 102.328 347.24 102.13 347.609C101.932 347.979 101.833 348.419 101.833 348.93H98.6221C98.6221 347.883 98.859 346.974 99.333 346.203C99.807 345.432 100.471 344.836 101.325 344.414C102.179 343.992 103.164 343.781 104.278 343.781C105.424 343.781 106.422 343.984 107.271 344.391C108.125 344.792 108.789 345.349 109.263 346.062C109.737 346.776 109.974 347.594 109.974 348.516C109.974 349.12 109.854 349.716 109.614 350.305C109.38 350.893 108.961 351.547 108.356 352.266C107.752 352.979 106.901 353.836 105.802 354.836L103.466 357.125V357.234H110.185V360H98.7783ZM118.479 360.219C117.375 360.219 116.391 360.016 115.526 359.609C114.667 359.203 113.985 358.643 113.479 357.93C112.974 357.216 112.711 356.398 112.69 355.477H115.972C116.008 356.096 116.269 356.599 116.753 356.984C117.237 357.37 117.813 357.562 118.479 357.562C119.011 357.562 119.479 357.445 119.886 357.211C120.297 356.971 120.618 356.641 120.847 356.219C121.081 355.792 121.198 355.302 121.198 354.75C121.198 354.187 121.078 353.693 120.839 353.266C120.604 352.839 120.279 352.505 119.862 352.266C119.446 352.026 118.969 351.904 118.433 351.898C117.964 351.898 117.508 351.995 117.065 352.187C116.628 352.38 116.287 352.643 116.042 352.977L113.034 352.438L113.792 344H123.573V346.766H116.581L116.167 350.773H116.261C116.542 350.378 116.966 350.049 117.534 349.789C118.102 349.529 118.737 349.398 119.44 349.398C120.404 349.398 121.263 349.625 122.019 350.078C122.774 350.531 123.37 351.154 123.808 351.945C124.245 352.732 124.461 353.638 124.456 354.664C124.461 355.742 124.211 356.701 123.706 357.539C123.206 358.372 122.506 359.029 121.604 359.508C120.709 359.982 119.667 360.219 118.479 360.219Z" fill="white"/>
<path d="M230.585 323V320.562L236.28 315.289C236.765 314.82 237.171 314.398 237.499 314.023C237.832 313.648 238.085 313.281 238.257 312.922C238.429 312.557 238.515 312.164 238.515 311.742C238.515 311.273 238.408 310.87 238.194 310.531C237.981 310.187 237.689 309.924 237.319 309.742C236.95 309.555 236.53 309.461 236.062 309.461C235.572 309.461 235.145 309.56 234.78 309.758C234.416 309.956 234.134 310.24 233.937 310.609C233.739 310.979 233.64 311.419 233.64 311.93H230.429C230.429 310.883 230.666 309.974 231.14 309.203C231.614 308.432 232.278 307.836 233.132 307.414C233.986 306.992 234.97 306.781 236.085 306.781C237.231 306.781 238.228 306.984 239.077 307.391C239.931 307.792 240.595 308.349 241.069 309.062C241.543 309.776 241.78 310.594 241.78 311.516C241.78 312.12 241.66 312.716 241.421 313.305C241.187 313.893 240.767 314.547 240.163 315.266C239.559 315.979 238.707 316.836 237.608 317.836L235.272 320.125V320.234H241.991V323H230.585ZM243.856 320.188V317.523L250.536 307H252.833V310.687H251.474L247.263 317.352V317.477H256.755V320.188H243.856ZM251.536 323V319.375L251.599 318.195V307H254.771V323H251.536Z" fill="white"/>
<path d="M164.617 323V320.562L170.313 315.289C170.797 314.82 171.203 314.398 171.531 314.023C171.865 313.648 172.117 313.281 172.289 312.922C172.461 312.557 172.547 312.164 172.547 311.742C172.547 311.273 172.44 310.87 172.227 310.531C172.013 310.187 171.721 309.924 171.352 309.742C170.982 309.555 170.563 309.461 170.094 309.461C169.604 309.461 169.177 309.56 168.813 309.758C168.448 309.956 168.167 310.24 167.969 310.609C167.771 310.979 167.672 311.419 167.672 311.93H164.461C164.461 310.883 164.698 309.974 165.172 309.203C165.646 308.432 166.31 307.836 167.164 307.414C168.018 306.992 169.003 306.781 170.117 306.781C171.263 306.781 172.26 306.984 173.109 307.391C173.964 307.792 174.628 308.349 175.102 309.062C175.576 309.776 175.813 310.594 175.813 311.516C175.813 312.12 175.693 312.716 175.453 313.305C175.219 313.893 174.799 314.547 174.195 315.266C173.591 315.979 172.74 316.836 171.641 317.836L169.305 320.125V320.234H176.023V323H164.617ZM184.389 323.219C183.222 323.219 182.183 323.018 181.271 322.617C180.365 322.211 179.649 321.654 179.123 320.945C178.602 320.232 178.334 319.409 178.318 318.477H181.725C181.745 318.867 181.873 319.211 182.107 319.508C182.347 319.799 182.665 320.026 183.061 320.188C183.456 320.349 183.902 320.43 184.396 320.43C184.912 320.43 185.368 320.339 185.764 320.156C186.16 319.974 186.469 319.721 186.693 319.398C186.917 319.076 187.029 318.703 187.029 318.281C187.029 317.854 186.91 317.477 186.67 317.148C186.436 316.815 186.097 316.555 185.654 316.367C185.217 316.18 184.696 316.086 184.092 316.086H182.6V313.602H184.092C184.602 313.602 185.053 313.513 185.443 313.336C185.839 313.159 186.146 312.914 186.365 312.602C186.584 312.284 186.693 311.914 186.693 311.492C186.693 311.091 186.597 310.74 186.404 310.437C186.217 310.13 185.951 309.891 185.607 309.719C185.269 309.547 184.873 309.461 184.42 309.461C183.962 309.461 183.542 309.544 183.162 309.711C182.782 309.872 182.477 310.104 182.248 310.406C182.019 310.708 181.896 311.062 181.881 311.469H178.639C178.654 310.547 178.917 309.734 179.428 309.031C179.938 308.328 180.626 307.779 181.49 307.383C182.36 306.982 183.342 306.781 184.436 306.781C185.54 306.781 186.506 306.982 187.334 307.383C188.162 307.784 188.805 308.326 189.264 309.008C189.727 309.685 189.956 310.445 189.951 311.289C189.956 312.185 189.678 312.932 189.115 313.531C188.558 314.13 187.831 314.51 186.936 314.672V314.797C188.113 314.948 189.008 315.357 189.623 316.023C190.243 316.685 190.55 317.513 190.545 318.508C190.55 319.419 190.287 320.229 189.756 320.938C189.23 321.646 188.503 322.203 187.576 322.609C186.649 323.016 185.587 323.219 184.389 323.219Z" fill="white"/>
<path d="M98.9395 323V320.562L104.635 315.289C105.119 314.82 105.525 314.398 105.854 314.023C106.187 313.648 106.439 313.281 106.611 312.922C106.783 312.557 106.869 312.164 106.869 311.742C106.869 311.273 106.762 310.87 106.549 310.531C106.335 310.187 106.044 309.924 105.674 309.742C105.304 309.555 104.885 309.461 104.416 309.461C103.926 309.461 103.499 309.56 103.135 309.758C102.77 309.956 102.489 310.24 102.291 310.609C102.093 310.979 101.994 311.419 101.994 311.93H98.7832C98.7832 310.883 99.0202 309.974 99.4941 309.203C99.9681 308.432 100.632 307.836 101.486 307.414C102.34 306.992 103.325 306.781 104.439 306.781C105.585 306.781 106.583 306.984 107.432 307.391C108.286 307.792 108.95 308.349 109.424 309.062C109.898 309.776 110.135 310.594 110.135 311.516C110.135 312.12 110.015 312.716 109.775 313.305C109.541 313.893 109.122 314.547 108.518 315.266C107.913 315.979 107.062 316.836 105.963 317.836L103.627 320.125V320.234H110.346V323H98.9395ZM112.797 323V320.562L118.492 315.289C118.977 314.82 119.383 314.398 119.711 314.023C120.044 313.648 120.297 313.281 120.469 312.922C120.641 312.557 120.727 312.164 120.727 311.742C120.727 311.273 120.62 310.87 120.406 310.531C120.193 310.187 119.901 309.924 119.531 309.742C119.161 309.555 118.742 309.461 118.273 309.461C117.784 309.461 117.357 309.56 116.992 309.758C116.628 309.956 116.346 310.24 116.148 310.609C115.951 310.979 115.852 311.419 115.852 311.93H112.641C112.641 310.883 112.878 309.974 113.352 309.203C113.826 308.432 114.49 307.836 115.344 307.414C116.198 306.992 117.182 306.781 118.297 306.781C119.443 306.781 120.44 306.984 121.289 307.391C122.143 307.792 122.807 308.349 123.281 309.062C123.755 309.776 123.992 310.594 123.992 311.516C123.992 312.12 123.872 312.716 123.633 313.305C123.398 313.893 122.979 314.547 122.375 315.266C121.771 315.979 120.919 316.836 119.82 317.836L117.484 320.125V320.234H124.203V323H112.797Z" fill="white"/>
<path d="M232.486 286V283.562L238.182 278.289C238.666 277.82 239.072 277.398 239.4 277.023C239.734 276.648 239.986 276.281 240.158 275.922C240.33 275.557 240.416 275.164 240.416 274.742C240.416 274.273 240.309 273.87 240.096 273.531C239.882 273.187 239.59 272.924 239.221 272.742C238.851 272.555 238.432 272.461 237.963 272.461C237.473 272.461 237.046 272.56 236.682 272.758C236.317 272.956 236.036 273.24 235.838 273.609C235.64 273.979 235.541 274.419 235.541 274.93H232.33C232.33 273.883 232.567 272.974 233.041 272.203C233.515 271.432 234.179 270.836 235.033 270.414C235.887 269.992 236.872 269.781 237.986 269.781C239.132 269.781 240.13 269.984 240.979 270.391C241.833 270.792 242.497 271.349 242.971 272.062C243.445 272.776 243.682 273.594 243.682 274.516C243.682 275.12 243.562 275.716 243.322 276.305C243.088 276.893 242.669 277.547 242.064 278.266C241.46 278.979 240.609 279.836 239.51 280.836L237.174 283.125V283.234H243.893V286H232.486ZM253.305 270V286H249.922V273.211H249.828L246.164 275.508V272.508L250.125 270H253.305Z" fill="white"/>
<path d="M164.295 286V283.562L169.99 278.289C170.475 277.82 170.881 277.398 171.209 277.023C171.542 276.648 171.795 276.281 171.967 275.922C172.139 275.557 172.225 275.164 172.225 274.742C172.225 274.273 172.118 273.87 171.904 273.531C171.691 273.187 171.399 272.924 171.029 272.742C170.66 272.555 170.24 272.461 169.771 272.461C169.282 272.461 168.855 272.56 168.49 272.758C168.126 272.956 167.844 273.24 167.646 273.609C167.449 273.979 167.35 274.419 167.35 274.93H164.139C164.139 273.883 164.376 272.974 164.85 272.203C165.324 271.432 165.988 270.836 166.842 270.414C167.696 269.992 168.68 269.781 169.795 269.781C170.941 269.781 171.938 269.984 172.787 270.391C173.641 270.792 174.305 271.349 174.779 272.062C175.253 272.776 175.49 273.594 175.49 274.516C175.49 275.12 175.37 275.716 175.131 276.305C174.896 276.893 174.477 277.547 173.873 278.266C173.269 278.979 172.417 279.836 171.318 280.836L168.982 283.125V283.234H175.701V286H164.295ZM184.426 286.352C183.082 286.346 181.926 286.016 180.957 285.359C179.993 284.703 179.251 283.753 178.73 282.508C178.215 281.263 177.96 279.766 177.965 278.016C177.965 276.271 178.223 274.784 178.738 273.555C179.259 272.326 180.001 271.391 180.965 270.75C181.934 270.104 183.087 269.781 184.426 269.781C185.764 269.781 186.915 270.104 187.879 270.75C188.848 271.396 189.592 272.333 190.113 273.562C190.634 274.786 190.892 276.271 190.887 278.016C190.887 279.771 190.626 281.271 190.105 282.516C189.59 283.76 188.85 284.711 187.887 285.367C186.923 286.023 185.77 286.352 184.426 286.352ZM184.426 283.547C185.342 283.547 186.074 283.086 186.621 282.164C187.168 281.242 187.439 279.859 187.434 278.016C187.434 276.802 187.309 275.792 187.059 274.984C186.814 274.177 186.465 273.57 186.012 273.164C185.564 272.758 185.035 272.555 184.426 272.555C183.514 272.555 182.785 273.01 182.238 273.922C181.691 274.833 181.415 276.198 181.41 278.016C181.41 279.245 181.533 280.271 181.777 281.094C182.027 281.911 182.379 282.526 182.832 282.937C183.285 283.344 183.816 283.547 184.426 283.547Z" fill="white"/>
<path d="M107.114 270V286H103.731V273.211H103.638L99.9736 275.508V272.508L103.935 270H107.114ZM116.706 269.781C117.529 269.781 118.321 269.919 119.081 270.195C119.847 270.471 120.529 270.911 121.128 271.516C121.732 272.12 122.209 272.922 122.558 273.922C122.912 274.917 123.091 276.138 123.097 277.586C123.097 278.945 122.943 280.159 122.636 281.227C122.334 282.289 121.899 283.193 121.331 283.938C120.763 284.682 120.078 285.25 119.276 285.641C118.474 286.026 117.578 286.219 116.589 286.219C115.521 286.219 114.578 286.013 113.761 285.602C112.943 285.185 112.284 284.62 111.784 283.906C111.289 283.187 110.99 282.38 110.886 281.484H114.222C114.352 282.068 114.625 282.521 115.042 282.844C115.459 283.161 115.974 283.32 116.589 283.32C117.631 283.32 118.422 282.867 118.964 281.961C119.506 281.049 119.779 279.802 119.784 278.219H119.675C119.435 278.687 119.112 279.091 118.706 279.43C118.3 279.763 117.834 280.021 117.308 280.203C116.787 280.385 116.232 280.477 115.644 280.477C114.701 280.477 113.86 280.255 113.12 279.812C112.381 279.37 111.797 278.76 111.37 277.984C110.943 277.208 110.729 276.323 110.729 275.328C110.724 274.255 110.972 273.299 111.472 272.461C111.972 271.622 112.67 270.966 113.565 270.492C114.466 270.013 115.513 269.776 116.706 269.781ZM116.729 272.437C116.203 272.437 115.735 272.562 115.323 272.813C114.917 273.062 114.594 273.398 114.354 273.82C114.12 274.242 114.006 274.714 114.011 275.234C114.011 275.76 114.125 276.234 114.354 276.656C114.589 277.073 114.907 277.406 115.308 277.656C115.714 277.901 116.177 278.023 116.698 278.023C117.089 278.023 117.451 277.951 117.784 277.805C118.118 277.659 118.407 277.458 118.651 277.203C118.901 276.943 119.097 276.643 119.237 276.305C119.378 275.966 119.448 275.607 119.448 275.227C119.443 274.721 119.323 274.258 119.089 273.836C118.854 273.414 118.532 273.076 118.12 272.82C117.709 272.565 117.245 272.437 116.729 272.437Z" fill="white"/>
<path d="M239.104 233V249H235.721V236.211H235.627L231.963 238.508V235.508L235.924 233H239.104ZM248.875 249.219C247.672 249.219 246.602 249.023 245.664 248.633C244.732 248.237 244 247.698 243.469 247.016C242.938 246.333 242.672 245.56 242.672 244.695C242.672 244.029 242.823 243.417 243.125 242.859C243.432 242.297 243.849 241.831 244.375 241.461C244.901 241.086 245.49 240.846 246.141 240.742V240.633C245.286 240.461 244.594 240.047 244.063 239.391C243.531 238.729 243.266 237.961 243.266 237.086C243.266 236.258 243.508 235.521 243.992 234.875C244.477 234.224 245.141 233.714 245.984 233.344C246.833 232.969 247.797 232.781 248.875 232.781C249.953 232.781 250.914 232.969 251.758 233.344C252.607 233.719 253.273 234.232 253.758 234.883C254.242 235.529 254.487 236.263 254.492 237.086C254.487 237.966 254.216 238.734 253.68 239.391C253.143 240.047 252.456 240.461 251.617 240.633V240.742C252.258 240.846 252.839 241.086 253.359 241.461C253.885 241.831 254.302 242.297 254.609 242.859C254.922 243.417 255.081 244.029 255.086 244.695C255.081 245.56 254.813 246.333 254.281 247.016C253.75 247.698 253.016 248.237 252.078 248.633C251.146 249.023 250.078 249.219 248.875 249.219ZM248.875 246.734C249.411 246.734 249.88 246.638 250.281 246.445C250.682 246.247 250.995 245.977 251.219 245.633C251.448 245.284 251.563 244.883 251.563 244.43C251.563 243.966 251.445 243.557 251.211 243.203C250.977 242.844 250.659 242.563 250.258 242.359C249.857 242.151 249.396 242.047 248.875 242.047C248.359 242.047 247.898 242.151 247.492 242.359C247.086 242.563 246.766 242.844 246.531 243.203C246.302 243.557 246.188 243.966 246.188 244.43C246.188 244.883 246.299 245.284 246.523 245.633C246.747 245.977 247.063 246.247 247.469 246.445C247.875 246.638 248.344 246.734 248.875 246.734ZM248.875 239.586C249.323 239.586 249.721 239.495 250.07 239.312C250.419 239.13 250.693 238.878 250.891 238.555C251.089 238.232 251.188 237.859 251.188 237.437C251.188 237.021 251.089 236.656 250.891 236.344C250.693 236.026 250.422 235.779 250.078 235.602C249.734 235.419 249.333 235.328 248.875 235.328C248.422 235.328 248.021 235.419 247.672 235.602C247.323 235.779 247.049 236.026 246.852 236.344C246.659 236.656 246.563 237.021 246.563 237.437C246.563 237.859 246.661 238.232 246.859 238.555C247.057 238.878 247.331 239.13 247.68 239.312C248.029 239.495 248.427 239.586 248.875 239.586Z" fill="white"/>
<path d="M173.834 233V249H170.451V236.211H170.357L166.693 238.508V235.508L170.654 233H173.834ZM178.27 249L184.902 235.875V235.766H177.176V233H188.402V235.805L181.762 249H178.27Z" fill="white"/>
<path d="M107.114 233V249H103.731V236.211H103.638L99.9736 238.508V235.508L103.935 233H107.114ZM117.058 249.219C116.235 249.214 115.44 249.076 114.675 248.805C113.914 248.534 113.232 248.094 112.628 247.484C112.024 246.875 111.545 246.068 111.19 245.062C110.841 244.057 110.667 242.823 110.667 241.359C110.672 240.016 110.826 238.815 111.128 237.758C111.435 236.695 111.873 235.794 112.44 235.055C113.013 234.315 113.698 233.753 114.495 233.367C115.292 232.977 116.185 232.781 117.175 232.781C118.243 232.781 119.185 232.99 120.003 233.406C120.821 233.818 121.477 234.378 121.972 235.086C122.472 235.794 122.774 236.589 122.878 237.469H119.542C119.412 236.911 119.138 236.474 118.722 236.156C118.305 235.839 117.789 235.68 117.175 235.68C116.133 235.68 115.341 236.133 114.8 237.039C114.263 237.945 113.99 239.177 113.979 240.734H114.089C114.328 240.26 114.651 239.857 115.058 239.523C115.469 239.185 115.935 238.927 116.456 238.75C116.982 238.568 117.537 238.477 118.12 238.477C119.068 238.477 119.912 238.701 120.651 239.148C121.391 239.591 121.974 240.201 122.401 240.977C122.828 241.753 123.042 242.641 123.042 243.641C123.042 244.724 122.789 245.687 122.284 246.531C121.784 247.375 121.084 248.036 120.183 248.516C119.287 248.99 118.245 249.224 117.058 249.219ZM117.042 246.562C117.563 246.562 118.029 246.437 118.44 246.188C118.852 245.937 119.175 245.599 119.409 245.172C119.644 244.745 119.761 244.266 119.761 243.734C119.761 243.203 119.644 242.727 119.409 242.305C119.18 241.883 118.862 241.547 118.456 241.297C118.05 241.047 117.586 240.922 117.065 240.922C116.675 240.922 116.313 240.995 115.979 241.141C115.651 241.286 115.362 241.49 115.112 241.75C114.868 242.01 114.675 242.312 114.534 242.656C114.394 242.995 114.323 243.357 114.323 243.742C114.323 244.258 114.44 244.729 114.675 245.156C114.914 245.583 115.237 245.924 115.644 246.18C116.055 246.435 116.521 246.562 117.042 246.562Z" fill="white"/>
<path d="M239.286 196V212H235.903V199.211H235.81L232.146 201.508V198.508L236.106 196H239.286ZM248.933 212.219C247.828 212.219 246.844 212.016 245.979 211.609C245.12 211.203 244.438 210.643 243.933 209.93C243.427 209.216 243.164 208.398 243.144 207.477H246.425C246.461 208.096 246.722 208.599 247.206 208.984C247.69 209.37 248.266 209.562 248.933 209.562C249.464 209.562 249.933 209.445 250.339 209.211C250.75 208.971 251.071 208.641 251.3 208.219C251.534 207.792 251.651 207.302 251.651 206.75C251.651 206.187 251.532 205.693 251.292 205.266C251.058 204.839 250.732 204.505 250.315 204.266C249.899 204.026 249.422 203.904 248.886 203.898C248.417 203.898 247.961 203.995 247.519 204.187C247.081 204.38 246.74 204.643 246.495 204.977L243.487 204.438L244.245 196H254.026V198.766H247.034L246.62 202.773H246.714C246.995 202.378 247.42 202.049 247.987 201.789C248.555 201.529 249.19 201.398 249.894 201.398C250.857 201.398 251.716 201.625 252.472 202.078C253.227 202.531 253.823 203.154 254.261 203.945C254.698 204.732 254.914 205.638 254.909 206.664C254.914 207.742 254.664 208.701 254.159 209.539C253.659 210.372 252.959 211.029 252.058 211.508C251.162 211.982 250.12 212.219 248.933 212.219Z" fill="white"/>
<path d="M172.921 196V212H169.538V199.211H169.444L165.78 201.508V198.508L169.741 196H172.921ZM176.481 209.188V206.523L183.161 196H185.458V199.687H184.099L179.888 206.352V206.477H189.38V209.188H176.481ZM184.161 212V208.375L184.224 207.195V196H187.396V212H184.161Z" fill="white"/>
<path d="M107.125 196V212H103.742V199.211H103.648L99.9844 201.508V198.508L103.945 196H107.125ZM116.842 212.219C115.675 212.219 114.636 212.018 113.725 211.617C112.818 211.211 112.102 210.654 111.576 209.945C111.055 209.232 110.787 208.409 110.771 207.477H114.178C114.199 207.867 114.326 208.211 114.561 208.508C114.8 208.799 115.118 209.026 115.514 209.188C115.91 209.349 116.355 209.43 116.85 209.43C117.365 209.43 117.821 209.339 118.217 209.156C118.613 208.974 118.923 208.721 119.146 208.398C119.37 208.076 119.482 207.703 119.482 207.281C119.482 206.854 119.363 206.477 119.123 206.148C118.889 205.815 118.55 205.555 118.107 205.367C117.67 205.18 117.149 205.086 116.545 205.086H115.053V202.602H116.545C117.055 202.602 117.506 202.513 117.896 202.336C118.292 202.159 118.6 201.914 118.818 201.602C119.037 201.284 119.146 200.914 119.146 200.492C119.146 200.091 119.05 199.74 118.857 199.437C118.67 199.13 118.404 198.891 118.061 198.719C117.722 198.547 117.326 198.461 116.873 198.461C116.415 198.461 115.995 198.544 115.615 198.711C115.235 198.872 114.93 199.104 114.701 199.406C114.472 199.708 114.35 200.062 114.334 200.469H111.092C111.107 199.547 111.37 198.734 111.881 198.031C112.391 197.328 113.079 196.779 113.943 196.383C114.813 195.982 115.795 195.781 116.889 195.781C117.993 195.781 118.959 195.982 119.787 196.383C120.615 196.784 121.258 197.326 121.717 198.008C122.18 198.685 122.41 199.445 122.404 200.289C122.41 201.185 122.131 201.932 121.568 202.531C121.011 203.13 120.285 203.51 119.389 203.672V203.797C120.566 203.948 121.462 204.357 122.076 205.023C122.696 205.685 123.003 206.513 122.998 207.508C123.003 208.419 122.74 209.229 122.209 209.938C121.683 210.646 120.956 211.203 120.029 211.609C119.102 212.016 118.04 212.219 116.842 212.219Z" fill="white"/>
<path d="M239.447 159V175H236.064V162.211H235.971L232.307 164.508V161.508L236.268 159H239.447ZM243.25 175V172.562L248.945 167.289C249.43 166.82 249.836 166.398 250.164 166.023C250.497 165.648 250.75 165.281 250.922 164.922C251.094 164.557 251.18 164.164 251.18 163.742C251.18 163.273 251.073 162.87 250.859 162.531C250.646 162.187 250.354 161.924 249.984 161.742C249.615 161.555 249.195 161.461 248.727 161.461C248.237 161.461 247.81 161.56 247.445 161.758C247.081 161.956 246.799 162.24 246.602 162.609C246.404 162.979 246.305 163.419 246.305 163.93H243.094C243.094 162.883 243.331 161.974 243.805 161.203C244.279 160.432 244.943 159.836 245.797 159.414C246.651 158.992 247.635 158.781 248.75 158.781C249.896 158.781 250.893 158.984 251.742 159.391C252.596 159.792 253.26 160.349 253.734 161.062C254.208 161.776 254.445 162.594 254.445 163.516C254.445 164.12 254.326 164.716 254.086 165.305C253.852 165.893 253.432 166.547 252.828 167.266C252.224 167.979 251.372 168.836 250.273 169.836L247.938 172.125V172.234H254.656V175H243.25Z" fill="white"/>
<path d="M174.994 159V175H171.611V162.211H171.518L167.854 164.508V161.508L171.814 159H174.994ZM185.758 159V175H182.375V162.211H182.281L178.617 164.508V161.508L182.578 159H185.758Z" fill="white"/>
<path d="M106.803 159V175H103.42V162.211H103.326L99.6621 164.508V161.508L103.623 159H106.803ZM116.879 175.352C115.535 175.346 114.379 175.016 113.41 174.359C112.447 173.703 111.704 172.753 111.184 171.508C110.668 170.263 110.413 168.766 110.418 167.016C110.418 165.271 110.676 163.784 111.191 162.555C111.712 161.326 112.454 160.391 113.418 159.75C114.387 159.104 115.54 158.781 116.879 158.781C118.217 158.781 119.368 159.104 120.332 159.75C121.301 160.396 122.046 161.333 122.566 162.562C123.087 163.786 123.345 165.271 123.34 167.016C123.34 168.771 123.079 170.271 122.559 171.516C122.043 172.76 121.303 173.711 120.34 174.367C119.376 175.023 118.223 175.352 116.879 175.352ZM116.879 172.547C117.796 172.547 118.527 172.086 119.074 171.164C119.621 170.242 119.892 168.859 119.887 167.016C119.887 165.802 119.762 164.792 119.512 163.984C119.267 163.177 118.918 162.57 118.465 162.164C118.017 161.758 117.488 161.555 116.879 161.555C115.967 161.555 115.238 162.01 114.691 162.922C114.145 163.833 113.868 165.198 113.863 167.016C113.863 168.245 113.986 169.271 114.23 170.094C114.48 170.911 114.832 171.526 115.285 171.937C115.738 172.344 116.27 172.547 116.879 172.547Z" fill="white"/>
<path d="M243.324 121.781C244.147 121.781 244.939 121.919 245.699 122.195C246.465 122.471 247.147 122.911 247.746 123.516C248.35 124.12 248.827 124.922 249.176 125.922C249.53 126.917 249.71 128.138 249.715 129.586C249.715 130.945 249.561 132.159 249.254 133.227C248.952 134.289 248.517 135.193 247.949 135.938C247.382 136.682 246.697 137.25 245.895 137.641C245.092 138.026 244.197 138.219 243.207 138.219C242.139 138.219 241.197 138.013 240.379 137.602C239.561 137.185 238.902 136.62 238.402 135.906C237.908 135.187 237.608 134.38 237.504 133.484H240.84C240.97 134.068 241.243 134.521 241.66 134.844C242.077 135.161 242.592 135.32 243.207 135.32C244.249 135.32 245.04 134.867 245.582 133.961C246.124 133.049 246.397 131.802 246.402 130.219H246.293C246.053 130.687 245.73 131.091 245.324 131.43C244.918 131.763 244.452 132.021 243.926 132.203C243.405 132.385 242.85 132.477 242.262 132.477C241.319 132.477 240.478 132.255 239.738 131.812C238.999 131.37 238.415 130.76 237.988 129.984C237.561 129.208 237.348 128.323 237.348 127.328C237.342 126.255 237.59 125.299 238.09 124.461C238.59 123.622 239.288 122.966 240.184 122.492C241.085 122.013 242.132 121.776 243.324 121.781ZM243.348 124.437C242.822 124.437 242.353 124.562 241.941 124.813C241.535 125.062 241.212 125.398 240.973 125.82C240.738 126.242 240.624 126.714 240.629 127.234C240.629 127.76 240.743 128.234 240.973 128.656C241.207 129.073 241.525 129.406 241.926 129.656C242.332 129.901 242.796 130.023 243.316 130.023C243.707 130.023 244.069 129.951 244.402 129.805C244.736 129.659 245.025 129.458 245.27 129.203C245.52 128.943 245.715 128.643 245.855 128.305C245.996 127.966 246.066 127.607 246.066 127.227C246.061 126.721 245.941 126.258 245.707 125.836C245.473 125.414 245.15 125.076 244.738 124.82C244.327 124.565 243.863 124.437 243.348 124.437Z" fill="white"/>
<path d="M177.493 138.219C176.29 138.219 175.22 138.023 174.282 137.633C173.35 137.237 172.618 136.698 172.087 136.016C171.556 135.333 171.29 134.56 171.29 133.695C171.29 133.029 171.441 132.417 171.743 131.859C172.05 131.297 172.467 130.831 172.993 130.461C173.519 130.086 174.108 129.846 174.759 129.742V129.633C173.905 129.461 173.212 129.047 172.681 128.391C172.149 127.729 171.884 126.961 171.884 126.086C171.884 125.258 172.126 124.521 172.61 123.875C173.095 123.224 173.759 122.714 174.603 122.344C175.451 121.969 176.415 121.781 177.493 121.781C178.571 121.781 179.532 121.969 180.376 122.344C181.225 122.719 181.892 123.232 182.376 123.883C182.86 124.529 183.105 125.263 183.11 126.086C183.105 126.966 182.834 127.734 182.298 128.391C181.761 129.047 181.074 129.461 180.235 129.633V129.742C180.876 129.846 181.457 130.086 181.978 130.461C182.504 130.831 182.92 131.297 183.228 131.859C183.54 132.417 183.699 133.029 183.704 133.695C183.699 134.56 183.431 135.333 182.899 136.016C182.368 136.698 181.634 137.237 180.696 137.633C179.764 138.023 178.696 138.219 177.493 138.219ZM177.493 135.734C178.03 135.734 178.498 135.638 178.899 135.445C179.3 135.247 179.613 134.977 179.837 134.633C180.066 134.284 180.181 133.883 180.181 133.43C180.181 132.966 180.063 132.557 179.829 132.203C179.595 131.844 179.277 131.563 178.876 131.359C178.475 131.151 178.014 131.047 177.493 131.047C176.978 131.047 176.517 131.151 176.11 131.359C175.704 131.563 175.384 131.844 175.149 132.203C174.92 132.557 174.806 132.966 174.806 133.43C174.806 133.883 174.918 134.284 175.142 134.633C175.366 134.977 175.681 135.247 176.087 135.445C176.493 135.638 176.962 135.734 177.493 135.734ZM177.493 128.586C177.941 128.586 178.34 128.495 178.688 128.312C179.037 128.13 179.311 127.878 179.509 127.555C179.707 127.232 179.806 126.859 179.806 126.437C179.806 126.021 179.707 125.656 179.509 125.344C179.311 125.026 179.04 124.779 178.696 124.602C178.353 124.419 177.951 124.328 177.493 124.328C177.04 124.328 176.639 124.419 176.29 124.602C175.941 124.779 175.668 125.026 175.47 125.344C175.277 125.656 175.181 126.021 175.181 126.437C175.181 126.859 175.28 127.232 175.478 127.555C175.675 127.878 175.949 128.13 176.298 128.312C176.647 128.495 177.045 128.586 177.493 128.586Z" fill="white"/>
<path d="M106.888 138L113.521 124.875V124.766H105.794V122H117.021V124.805L110.38 138H106.888Z" fill="white"/>
<path d="M243.676 101.219C242.853 101.214 242.059 101.076 241.293 100.805C240.533 100.534 239.85 100.094 239.246 99.4844C238.642 98.875 238.163 98.0677 237.809 97.0625C237.46 96.0573 237.285 94.8229 237.285 93.3594C237.29 92.0156 237.444 90.8151 237.746 89.7578C238.053 88.6953 238.491 87.7943 239.059 87.0547C239.632 86.3151 240.316 85.7526 241.113 85.3672C241.91 84.9766 242.803 84.7812 243.793 84.7812C244.861 84.7812 245.803 84.9896 246.621 85.4063C247.439 85.8177 248.095 86.3776 248.59 87.0859C249.09 87.7943 249.392 88.5885 249.496 89.4687H246.16C246.03 88.9115 245.757 88.474 245.34 88.1563C244.923 87.8385 244.408 87.6797 243.793 87.6797C242.751 87.6797 241.96 88.1328 241.418 89.0391C240.882 89.9453 240.608 91.1771 240.598 92.7344H240.707C240.947 92.2604 241.27 91.8568 241.676 91.5234C242.087 91.1849 242.553 90.9271 243.074 90.75C243.6 90.5677 244.155 90.4766 244.738 90.4766C245.686 90.4766 246.53 90.7005 247.27 91.1484C248.009 91.5911 248.592 92.2005 249.02 92.9766C249.447 93.7526 249.66 94.6406 249.66 95.6406C249.66 96.724 249.408 97.6875 248.902 98.5312C248.402 99.375 247.702 100.036 246.801 100.516C245.905 100.99 244.863 101.224 243.676 101.219ZM243.66 98.5625C244.181 98.5625 244.647 98.4375 245.059 98.1875C245.47 97.9375 245.793 97.599 246.027 97.1719C246.262 96.7448 246.379 96.2656 246.379 95.7344C246.379 95.2031 246.262 94.7266 246.027 94.3047C245.798 93.8828 245.48 93.5469 245.074 93.2969C244.668 93.0469 244.204 92.9219 243.684 92.9219C243.293 92.9219 242.931 92.9948 242.598 93.1406C242.27 93.2865 241.98 93.4896 241.73 93.75C241.486 94.0104 241.293 94.3125 241.152 94.6562C241.012 94.9948 240.941 95.3568 240.941 95.7422C240.941 96.2578 241.059 96.7292 241.293 97.1562C241.533 97.5833 241.855 97.9245 242.262 98.1797C242.673 98.4349 243.139 98.5625 243.66 98.5625Z" fill="white"/>
<path d="M177.551 101.219C176.447 101.219 175.462 101.016 174.598 100.609C173.738 100.203 173.056 99.6432 172.551 98.9297C172.046 98.2161 171.783 97.3984 171.762 96.4766H175.043C175.079 97.0964 175.34 97.599 175.824 97.9844C176.309 98.3698 176.884 98.5625 177.551 98.5625C178.082 98.5625 178.551 98.4453 178.957 98.2109C179.368 97.9714 179.689 97.6406 179.918 97.2188C180.152 96.7917 180.27 96.3021 180.27 95.75C180.27 95.1875 180.15 94.6927 179.91 94.2656C179.676 93.8385 179.35 93.5052 178.934 93.2656C178.517 93.026 178.04 92.9036 177.504 92.8984C177.035 92.8984 176.579 92.9948 176.137 93.1875C175.699 93.3802 175.358 93.6432 175.113 93.9766L172.105 93.4375L172.863 85H182.645V87.7656H175.652L175.238 91.7734H175.332C175.613 91.3776 176.038 91.0495 176.605 90.7891C177.173 90.5286 177.809 90.3984 178.512 90.3984C179.475 90.3984 180.335 90.625 181.09 91.0781C181.845 91.5312 182.441 92.1536 182.879 92.9453C183.316 93.7318 183.533 94.638 183.527 95.6641C183.533 96.7422 183.283 97.7005 182.777 98.5391C182.277 99.3724 181.577 100.029 180.676 100.508C179.78 100.982 178.738 101.219 177.551 101.219Z" fill="white"/>
<path d="M105.1 98.1875V95.5234L111.779 85H114.076V88.6875H112.717L108.506 95.3516V95.4766H117.998V98.1875H105.1ZM112.779 101V97.375L112.842 96.1953V85H116.014V101H112.779Z" fill="white"/>
<path d="M243.46 64.2187C242.293 64.2187 241.254 64.0182 240.343 63.6172C239.437 63.2109 238.72 62.6536 238.194 61.9453C237.674 61.2318 237.405 60.4089 237.39 59.4766H240.796C240.817 59.8672 240.944 60.2109 241.179 60.5078C241.418 60.7995 241.736 61.026 242.132 61.1875C242.528 61.349 242.973 61.4297 243.468 61.4297C243.983 61.4297 244.439 61.3385 244.835 61.1562C245.231 60.974 245.541 60.7214 245.765 60.3984C245.989 60.0755 246.101 59.7031 246.101 59.2812C246.101 58.8542 245.981 58.4766 245.741 58.1484C245.507 57.8151 245.168 57.5547 244.726 57.3672C244.288 57.1797 243.767 57.0859 243.163 57.0859H241.671V54.6016H243.163C243.674 54.6016 244.124 54.513 244.515 54.3359C244.91 54.1589 245.218 53.9141 245.437 53.6016C245.655 53.2839 245.765 52.9141 245.765 52.4922C245.765 52.0911 245.668 51.7396 245.476 51.4375C245.288 51.1302 245.022 50.8906 244.679 50.7187C244.34 50.5469 243.944 50.4609 243.491 50.4609C243.033 50.4609 242.614 50.5443 242.233 50.7109C241.853 50.8724 241.549 51.1042 241.319 51.4062C241.09 51.7083 240.968 52.0625 240.952 52.4687H237.71C237.726 51.5469 237.989 50.7344 238.499 50.0312C239.009 49.3281 239.697 48.7786 240.562 48.3828C241.431 47.9818 242.413 47.7812 243.507 47.7812C244.611 47.7812 245.577 47.9818 246.405 48.3828C247.233 48.7839 247.877 49.3255 248.335 50.0078C248.799 50.6849 249.028 51.4453 249.022 52.2891C249.028 53.1849 248.749 53.9323 248.187 54.5312C247.629 55.1302 246.903 55.5104 246.007 55.6719V55.7969C247.184 55.9479 248.08 56.3568 248.694 57.0234C249.314 57.6849 249.621 58.513 249.616 59.5078C249.621 60.4193 249.358 61.2292 248.827 61.9375C248.301 62.6458 247.575 63.2031 246.647 63.6094C245.72 64.0156 244.658 64.2187 243.46 64.2187Z" fill="white"/>
<path d="M171.868 64V61.5625L177.563 56.2891C178.048 55.8203 178.454 55.3984 178.782 55.0234C179.116 54.6484 179.368 54.2812 179.54 53.9219C179.712 53.5573 179.798 53.1641 179.798 52.7422C179.798 52.2734 179.691 51.8698 179.478 51.5312C179.264 51.1875 178.972 50.9245 178.603 50.7422C178.233 50.5547 177.813 50.4609 177.345 50.4609C176.855 50.4609 176.428 50.5599 176.063 50.7578C175.699 50.9557 175.418 51.2396 175.22 51.6094C175.022 51.9792 174.923 52.4193 174.923 52.9297H171.712C171.712 51.8828 171.949 50.974 172.423 50.2031C172.897 49.4323 173.561 48.8359 174.415 48.4141C175.269 47.9922 176.254 47.7812 177.368 47.7812C178.514 47.7812 179.511 47.9844 180.36 48.3906C181.215 48.7917 181.879 49.349 182.353 50.0625C182.826 50.776 183.063 51.5937 183.063 52.5156C183.063 53.1198 182.944 53.7161 182.704 54.3047C182.47 54.8932 182.05 55.5469 181.446 56.2656C180.842 56.9792 179.991 57.8359 178.892 58.8359L176.556 61.125V61.2344H183.274V64H171.868Z" fill="white"/>
<path d="M114.376 48V64H110.993V51.2109H110.899L107.235 53.5078V50.5078L111.196 48H114.376Z" fill="white"/>
</svg>
