<svg width="49" height="50" viewBox="0 0 49 50" fill="none" xmlns="http://www.w3.org/2000/svg">
<path d="M49 0.5V49.5H0V0.5H49ZM2 47.5H47V2.5H2V47.5Z" fill="#1ECDD8"/>
<path d="M11.7783 33V30.5625L17.4736 25.2891C17.958 24.8203 18.3643 24.3984 18.6924 24.0234C19.0257 23.6484 19.2783 23.2813 19.4502 22.9219C19.6221 22.5573 19.708 22.1641 19.708 21.7422C19.708 21.2734 19.6012 20.8698 19.3877 20.5312C19.1742 20.1875 18.8825 19.9245 18.5127 19.7422C18.1429 19.5547 17.7236 19.4609 17.2549 19.4609C16.7653 19.4609 16.3382 19.5599 15.9736 19.7578C15.609 19.9557 15.3278 20.2396 15.1299 20.6094C14.932 20.9792 14.833 21.4193 14.833 21.9297H11.6221C11.6221 20.8828 11.859 19.974 12.333 19.2031C12.807 18.4323 13.471 17.8359 14.3252 17.4141C15.1794 16.9922 16.1637 16.7812 17.2783 16.7812C18.4242 16.7812 19.4215 16.9844 20.2705 17.3906C21.1247 17.7917 21.7887 18.349 22.2627 19.0625C22.7367 19.776 22.9736 20.5937 22.9736 21.5156C22.9736 22.1198 22.8538 22.7161 22.6143 23.3047C22.3799 23.8932 21.9606 24.5469 21.3564 25.2656C20.7523 25.9792 19.9007 26.8359 18.8018 27.8359L16.4658 30.125V30.2344H23.1846V33H11.7783Z" fill="#1ECDD8"/>
<path d="M31.4795 33.2188C30.3753 33.2188 29.391 33.0156 28.5264 32.6094C27.667 32.2031 26.9847 31.6432 26.4795 30.9297C25.9743 30.2161 25.7113 29.3984 25.6904 28.4766H28.9717C29.0081 29.0964 29.2686 29.599 29.7529 29.9844C30.2373 30.3698 30.8128 30.5625 31.4795 30.5625C32.0107 30.5625 32.4795 30.4453 32.8857 30.2109C33.2972 29.9714 33.6175 29.6406 33.8467 29.2188C34.0811 28.7917 34.1982 28.3021 34.1982 27.75C34.1982 27.1875 34.0785 26.6927 33.8389 26.2656C33.6045 25.8385 33.279 25.5052 32.8623 25.2656C32.4456 25.026 31.9691 24.9036 31.4326 24.8984C30.9639 24.8984 30.5081 24.9948 30.0654 25.1875C29.6279 25.3802 29.2868 25.6432 29.042 25.9766L26.0342 25.4375L26.792 17H36.5732V19.7656H29.5811L29.167 23.7734H29.2607C29.542 23.3776 29.9665 23.0495 30.5342 22.7891C31.1019 22.5286 31.7373 22.3984 32.4404 22.3984C33.404 22.3984 34.2633 22.625 35.0186 23.0781C35.7738 23.5313 36.3701 24.1536 36.8076 24.9453C37.2451 25.7318 37.4613 26.638 37.4561 27.6641C37.4613 28.7422 37.2113 29.7005 36.7061 30.5391C36.2061 31.3724 35.5055 32.0286 34.6045 32.5078C33.7087 32.9818 32.667 33.2188 31.4795 33.2188Z" fill="#1ECDD8"/>
</svg>
