<svg width="672" height="223" viewBox="0 0 672 223" fill="none" xmlns="http://www.w3.org/2000/svg">
<path d="M671.5 48.5V8C671.5 3.85786 668.142 0.5 664 0.5H624.5V48.5H671.5Z" fill="#1E1E1E" fill-opacity="0.64"/>
<path d="M671.5 48.5V8C671.5 3.85786 668.142 0.5 664 0.5H624.5V48.5H671.5Z" stroke="#9E9E9E"/>
<rect x="624.5" y="48.5" width="47" height="48" fill="#1E1E1E" fill-opacity="0.64"/>
<rect x="624.5" y="48.5" width="47" height="48" stroke="#9E9E9E"/>
<path d="M671.5 96.5V137C671.5 141.142 668.142 144.5 664 144.5H624.5V96.5H671.5Z" fill="#1E1E1E" fill-opacity="0.64"/>
<path d="M671.5 96.5V137C671.5 141.142 668.142 144.5 664 144.5H624.5V96.5H671.5Z" stroke="#9E9E9E"/>
<path d="M630.723 31V29.0057L635.383 24.6911C635.779 24.3075 636.112 23.9624 636.38 23.6555C636.653 23.3487 636.86 23.0483 637 22.7543C637.141 22.456 637.211 22.1342 637.211 21.7891C637.211 21.4055 637.124 21.0753 636.949 20.7983C636.774 20.517 636.536 20.3018 636.233 20.1527C635.931 19.9993 635.588 19.9226 635.204 19.9226C634.803 19.9226 634.454 20.0036 634.156 20.1655C633.857 20.3274 633.627 20.5597 633.465 20.8622C633.303 21.1648 633.222 21.5249 633.222 21.9425H630.595C630.595 21.0859 630.789 20.3423 631.177 19.7116C631.565 19.081 632.108 18.593 632.807 18.2479C633.506 17.9027 634.311 17.7301 635.223 17.7301C636.161 17.7301 636.977 17.8963 637.671 18.2287C638.37 18.5568 638.914 19.0128 639.301 19.5966C639.689 20.1804 639.883 20.8494 639.883 21.6037C639.883 22.098 639.785 22.5859 639.589 23.0675C639.397 23.549 639.054 24.0838 638.56 24.6719C638.066 25.2557 637.369 25.9567 636.47 26.7749L634.558 28.6477V28.7372H640.056V31H630.723Z" fill="white"/>
<path d="M642.77 21.995V20.7273H648.743V21.995H646.517V28H644.997V21.995H642.77ZM656.078 24.3636C656.078 25.1567 655.928 25.8314 655.627 26.3878C655.329 26.9441 654.922 27.3691 654.405 27.6626C653.892 27.9538 653.314 28.0994 652.672 28.0994C652.026 28.0994 651.446 27.9527 650.932 27.6591C650.419 27.3655 650.013 26.9406 649.714 26.3842C649.416 25.8279 649.267 25.1544 649.267 24.3636C649.267 23.5705 649.416 22.8958 649.714 22.3395C650.013 21.7831 650.419 21.3594 650.932 21.0682C651.446 20.7746 652.026 20.6278 652.672 20.6278C653.314 20.6278 653.892 20.7746 654.405 21.0682C654.922 21.3594 655.329 21.7831 655.627 22.3395C655.928 22.8958 656.078 23.5705 656.078 24.3636ZM654.519 24.3636C654.519 23.8499 654.442 23.4167 654.288 23.0639C654.137 22.7112 653.922 22.4437 653.646 22.2614C653.369 22.0791 653.044 21.9879 652.672 21.9879C652.301 21.9879 651.976 22.0791 651.699 22.2614C651.422 22.4437 651.207 22.7112 651.053 23.0639C650.902 23.4167 650.826 23.8499 650.826 24.3636C650.826 24.8774 650.902 25.3106 651.053 25.6634C651.207 26.0161 651.422 26.2836 651.699 26.4659C651.976 26.6482 652.301 26.7393 652.672 26.7393C653.044 26.7393 653.369 26.6482 653.646 26.4659C653.922 26.2836 654.137 26.0161 654.288 25.6634C654.442 25.3106 654.519 24.8774 654.519 24.3636Z" fill="white"/>
<path d="M664.756 17.9091V31H661.989V20.5362H661.912L658.914 22.4155V19.9609L662.155 17.9091H664.756Z" fill="white"/>
<path d="M630.723 79V77.0057L635.383 72.6911C635.779 72.3075 636.112 71.9624 636.38 71.6555C636.653 71.3487 636.86 71.0483 637 70.7543C637.141 70.456 637.211 70.1342 637.211 69.7891C637.211 69.4055 637.124 69.0753 636.949 68.7983C636.774 68.517 636.536 68.3018 636.233 68.1527C635.931 67.9993 635.588 67.9226 635.204 67.9226C634.803 67.9226 634.454 68.0036 634.156 68.1655C633.857 68.3274 633.627 68.5597 633.465 68.8622C633.303 69.1648 633.222 69.5249 633.222 69.9425H630.595C630.595 69.0859 630.789 68.3423 631.177 67.7116C631.565 67.081 632.108 66.593 632.807 66.2479C633.506 65.9027 634.311 65.7301 635.223 65.7301C636.161 65.7301 636.977 65.8963 637.671 66.2287C638.37 66.5568 638.914 67.0128 639.301 67.5966C639.689 68.1804 639.883 68.8494 639.883 69.6037C639.883 70.098 639.785 70.5859 639.589 71.0675C639.397 71.549 639.054 72.0838 638.56 72.6719C638.066 73.2557 637.369 73.9567 636.47 74.7749L634.558 76.6477V76.7372H640.056V79H630.723Z" fill="white"/>
<path d="M642.77 69.995V68.7273H648.743V69.995H646.517V76H644.997V69.995H642.77ZM656.078 72.3636C656.078 73.1567 655.928 73.8314 655.627 74.3878C655.329 74.9441 654.922 75.3691 654.405 75.6626C653.892 75.9538 653.314 76.0994 652.672 76.0994C652.026 76.0994 651.446 75.9527 650.932 75.6591C650.419 75.3655 650.013 74.9406 649.714 74.3842C649.416 73.8279 649.267 73.1544 649.267 72.3636C649.267 71.5705 649.416 70.8958 649.714 70.3395C650.013 69.7831 650.419 69.3594 650.932 69.0682C651.446 68.7746 652.026 68.6278 652.672 68.6278C653.314 68.6278 653.892 68.7746 654.405 69.0682C654.922 69.3594 655.329 69.7831 655.627 70.3395C655.928 70.8958 656.078 71.5705 656.078 72.3636ZM654.519 72.3636C654.519 71.8499 654.442 71.4167 654.288 71.0639C654.137 70.7112 653.922 70.4437 653.646 70.2614C653.369 70.0791 653.044 69.9879 652.672 69.9879C652.301 69.9879 651.976 70.0791 651.699 70.2614C651.422 70.4437 651.207 70.7112 651.053 71.0639C650.902 71.4167 650.826 71.8499 650.826 72.3636C650.826 72.8774 650.902 73.3106 651.053 73.6634C651.207 74.0161 651.422 74.2836 651.699 74.4659C651.976 74.6482 652.301 74.7393 652.672 74.7393C653.044 74.7393 653.369 74.6482 653.646 74.4659C653.922 74.2836 654.137 74.0161 654.288 73.6634C654.442 73.3106 654.519 72.8774 654.519 72.3636Z" fill="white"/>
<path d="M664.756 65.9091V79H661.989V68.5362H661.912L658.914 70.4155V67.9609L662.155 65.9091H664.756Z" fill="white"/>
<path d="M630.723 127V125.006L635.383 120.691C635.779 120.308 636.112 119.962 636.38 119.656C636.653 119.349 636.86 119.048 637 118.754C637.141 118.456 637.211 118.134 637.211 117.789C637.211 117.406 637.124 117.075 636.949 116.798C636.774 116.517 636.536 116.302 636.233 116.153C635.931 115.999 635.588 115.923 635.204 115.923C634.803 115.923 634.454 116.004 634.156 116.165C633.857 116.327 633.627 116.56 633.465 116.862C633.303 117.165 633.222 117.525 633.222 117.942H630.595C630.595 117.086 630.789 116.342 631.177 115.712C631.565 115.081 632.108 114.593 632.807 114.248C633.506 113.903 634.311 113.73 635.223 113.73C636.161 113.73 636.977 113.896 637.671 114.229C638.37 114.557 638.914 115.013 639.301 115.597C639.689 116.18 639.883 116.849 639.883 117.604C639.883 118.098 639.785 118.586 639.589 119.067C639.397 119.549 639.054 120.084 638.56 120.672C638.066 121.256 637.369 121.957 636.47 122.775L634.558 124.648V124.737H640.056V127H630.723Z" fill="white"/>
<path d="M642.77 117.995V116.727H648.743V117.995H646.517V124H644.997V117.995H642.77ZM656.078 120.364C656.078 121.157 655.928 121.831 655.627 122.388C655.329 122.944 654.922 123.369 654.405 123.663C653.892 123.954 653.314 124.099 652.672 124.099C652.026 124.099 651.446 123.953 650.932 123.659C650.419 123.366 650.013 122.941 649.714 122.384C649.416 121.828 649.267 121.154 649.267 120.364C649.267 119.571 649.416 118.896 649.714 118.339C650.013 117.783 650.419 117.359 650.932 117.068C651.446 116.775 652.026 116.628 652.672 116.628C653.314 116.628 653.892 116.775 654.405 117.068C654.922 117.359 655.329 117.783 655.627 118.339C655.928 118.896 656.078 119.571 656.078 120.364ZM654.519 120.364C654.519 119.85 654.442 119.417 654.288 119.064C654.137 118.711 653.922 118.444 653.646 118.261C653.369 118.079 653.044 117.988 652.672 117.988C652.301 117.988 651.976 118.079 651.699 118.261C651.422 118.444 651.207 118.711 651.053 119.064C650.902 119.417 650.826 119.85 650.826 120.364C650.826 120.877 650.902 121.311 651.053 121.663C651.207 122.016 651.422 122.284 651.699 122.466C651.976 122.648 652.301 122.739 652.672 122.739C653.044 122.739 653.369 122.648 653.646 122.466C653.922 122.284 654.137 122.016 654.288 121.663C654.442 121.311 654.519 120.877 654.519 120.364Z" fill="white"/>
<path d="M664.756 113.909V127H661.989V116.536H661.912L658.914 118.415V115.961L662.155 113.909H664.756Z" fill="white"/>
<rect x="48.5" y="144.5" width="192" height="39" fill="#1E1E1E" fill-opacity="0.64"/>
<rect x="48.5" y="144.5" width="192" height="39" stroke="#9E9E9E"/>
<rect x="240.5" y="144.5" width="192" height="39" fill="#1E1E1E" fill-opacity="0.64"/>
<rect x="240.5" y="144.5" width="192" height="39" stroke="#9E9E9E"/>
<rect x="432.5" y="144.5" width="192" height="39" fill="#1E1E1E" fill-opacity="0.64"/>
<rect x="432.5" y="144.5" width="192" height="39" stroke="#9E9E9E"/>
<path d="M48.5 183.5V215C48.5 219.142 51.8579 222.5 56 222.5H144.5V183.5H48.5Z" fill="#1E1E1E" fill-opacity="0.64"/>
<path d="M48.5 183.5V215C48.5 219.142 51.8579 222.5 56 222.5H144.5V183.5H48.5Z" stroke="#9E9E9E"/>
<rect x="144.5" y="183.5" width="96" height="39" fill="#1E1E1E" fill-opacity="0.64"/>
<rect x="144.5" y="183.5" width="96" height="39" stroke="#9E9E9E"/>
<rect x="240.5" y="183.5" width="96" height="39" fill="#9B1912"/>
<rect x="240.5" y="183.5" width="96" height="39" stroke="#9E9E9E"/>
<rect x="336.5" y="183.5" width="96" height="39" fill="#13120E"/>
<rect x="336.5" y="183.5" width="96" height="39" stroke="#9E9E9E"/>
<rect x="432.5" y="183.5" width="96" height="39" fill="#1E1E1E" fill-opacity="0.64"/>
<rect x="432.5" y="183.5" width="96" height="39" stroke="#9E9E9E"/>
<path d="M624.5 183.5V215C624.5 219.142 621.142 222.5 617 222.5H528.5V183.5H624.5Z" fill="#1E1E1E" fill-opacity="0.64"/>
<path d="M624.5 183.5V215C624.5 219.142 621.142 222.5 617 222.5H528.5V183.5H624.5Z" stroke="#9E9E9E"/>
<path d="M127.353 157.409V170.5H124.585V160.036H124.509L121.511 161.915V159.461L124.752 157.409H127.353Z" fill="white"/>
<path d="M134.461 159.319C134.433 159.032 134.311 158.81 134.095 158.651C133.88 158.493 133.588 158.413 133.218 158.413C132.967 158.413 132.755 158.449 132.583 158.52C132.41 158.589 132.277 158.684 132.185 158.808C132.095 158.931 132.05 159.07 132.05 159.227C132.045 159.357 132.072 159.47 132.132 159.567C132.193 159.665 132.277 159.749 132.384 159.82C132.49 159.888 132.613 159.949 132.753 160.001C132.893 160.05 133.042 160.093 133.201 160.129L133.854 160.285C134.171 160.356 134.462 160.451 134.728 160.569C134.993 160.687 135.222 160.833 135.416 161.006C135.611 161.179 135.761 161.382 135.867 161.616C135.976 161.851 136.032 162.12 136.034 162.423C136.032 162.868 135.918 163.254 135.693 163.58C135.471 163.905 135.149 164.157 134.728 164.337C134.309 164.514 133.803 164.603 133.211 164.603C132.624 164.603 132.113 164.513 131.677 164.333C131.244 164.153 130.905 163.887 130.661 163.534C130.42 163.179 130.293 162.74 130.282 162.217H131.769C131.786 162.46 131.856 162.664 131.979 162.827C132.104 162.988 132.271 163.11 132.48 163.193C132.69 163.274 132.928 163.314 133.193 163.314C133.454 163.314 133.68 163.276 133.872 163.2C134.066 163.125 134.216 163.019 134.323 162.884C134.429 162.749 134.483 162.594 134.483 162.419C134.483 162.256 134.434 162.118 134.337 162.007C134.242 161.896 134.103 161.801 133.918 161.723C133.736 161.645 133.512 161.574 133.247 161.51L132.455 161.311C131.842 161.162 131.358 160.929 131.002 160.612C130.647 160.294 130.471 159.867 130.473 159.33C130.471 158.889 130.588 158.504 130.825 158.175C131.064 157.846 131.392 157.589 131.809 157.405C132.225 157.22 132.699 157.128 133.229 157.128C133.769 157.128 134.24 157.22 134.642 157.405C135.047 157.589 135.362 157.846 135.587 158.175C135.812 158.504 135.928 158.886 135.935 159.319H134.461ZM136.792 158.495V157.227H142.765V158.495H140.538V164.5H139.018V158.495H136.792Z" fill="white"/>
<path d="M154.767 157.409V170.5H151.999V160.036H151.923L148.925 161.915V159.461L152.166 157.409H154.767ZM157.878 170.5V168.506L162.538 164.191C162.935 163.808 163.267 163.462 163.535 163.156C163.808 162.849 164.015 162.548 164.155 162.254C164.296 161.956 164.366 161.634 164.366 161.289C164.366 160.906 164.279 160.575 164.104 160.298C163.93 160.017 163.691 159.802 163.388 159.653C163.086 159.499 162.743 159.423 162.359 159.423C161.959 159.423 161.609 159.504 161.311 159.665C161.013 159.827 160.783 160.06 160.621 160.362C160.459 160.665 160.378 161.025 160.378 161.442H157.751C157.751 160.586 157.945 159.842 158.332 159.212C158.72 158.581 159.263 158.093 159.962 157.748C160.661 157.403 161.467 157.23 162.378 157.23C163.316 157.23 164.132 157.396 164.827 157.729C165.525 158.057 166.069 158.513 166.457 159.097C166.844 159.68 167.038 160.349 167.038 161.104C167.038 161.598 166.94 162.086 166.744 162.567C166.552 163.049 166.209 163.584 165.715 164.172C165.221 164.756 164.524 165.457 163.625 166.275L161.714 168.148V168.237H167.211V170.5H157.878Z" fill="white"/>
<path d="M311.892 170.5V168.506L316.552 164.191C316.948 163.808 317.281 163.462 317.549 163.156C317.822 162.849 318.028 162.548 318.169 162.254C318.31 161.956 318.38 161.634 318.38 161.289C318.38 160.906 318.293 160.575 318.118 160.298C317.943 160.017 317.705 159.802 317.402 159.653C317.1 159.499 316.756 159.423 316.373 159.423C315.972 159.423 315.623 159.504 315.325 159.665C315.026 159.827 314.796 160.06 314.634 160.362C314.472 160.665 314.391 161.025 314.391 161.442H311.764C311.764 160.586 311.958 159.842 312.346 159.212C312.734 158.581 313.277 158.093 313.976 157.748C314.675 157.403 315.48 157.23 316.392 157.23C317.33 157.23 318.146 157.396 318.84 157.729C319.539 158.057 320.082 158.513 320.47 159.097C320.858 159.68 321.052 160.349 321.052 161.104C321.052 161.598 320.954 162.086 320.758 162.567C320.566 163.049 320.223 163.584 319.729 164.172C319.234 164.756 318.538 165.457 317.639 166.275L315.727 168.148V168.237H321.225V170.5H311.892Z" fill="white"/>
<path d="M329.401 157.227V164.5H328.073L324.909 159.923H324.855V164.5H323.318V157.227H324.667L327.806 161.801H327.87V157.227H329.401ZM333.249 164.5H330.671V157.227H333.271C334.002 157.227 334.632 157.373 335.16 157.664C335.688 157.953 336.094 158.368 336.378 158.911C336.664 159.453 336.808 160.101 336.808 160.857C336.808 161.614 336.664 162.265 336.378 162.81C336.094 163.354 335.685 163.772 335.153 164.063C334.622 164.354 333.988 164.5 333.249 164.5ZM332.209 163.183H333.185C333.64 163.183 334.022 163.102 334.332 162.941C334.645 162.778 334.879 162.526 335.036 162.185C335.194 161.841 335.273 161.399 335.273 160.857C335.273 160.319 335.194 159.88 335.036 159.539C334.879 159.198 334.646 158.947 334.336 158.786C334.026 158.625 333.643 158.545 333.189 158.545H332.209V163.183Z" fill="white"/>
<path d="M348.767 157.409V170.5H345.999V160.036H345.923L342.925 161.915V159.461L346.166 157.409H348.767ZM351.878 170.5V168.506L356.538 164.191C356.935 163.808 357.267 163.462 357.535 163.156C357.808 162.849 358.015 162.548 358.155 162.254C358.296 161.956 358.366 161.634 358.366 161.289C358.366 160.906 358.279 160.575 358.104 160.298C357.93 160.017 357.691 159.802 357.388 159.653C357.086 159.499 356.743 159.423 356.359 159.423C355.959 159.423 355.609 159.504 355.311 159.665C355.013 159.827 354.783 160.06 354.621 160.362C354.459 160.665 354.378 161.025 354.378 161.442H351.751C351.751 160.586 351.945 159.842 352.332 159.212C352.72 158.581 353.263 158.093 353.962 157.748C354.661 157.403 355.467 157.23 356.378 157.23C357.316 157.23 358.132 157.396 358.827 157.729C359.525 158.057 360.069 158.513 360.457 159.097C360.844 159.68 361.038 160.349 361.038 161.104C361.038 161.598 360.94 162.086 360.744 162.567C360.552 163.049 360.209 163.584 359.715 164.172C359.221 164.756 358.524 165.457 357.625 166.275L355.714 168.148V168.237H361.211V170.5H351.878Z" fill="white"/>
<path d="M508.967 170.679C508.013 170.679 507.163 170.515 506.417 170.187C505.675 169.854 505.089 169.398 504.659 168.819C504.233 168.235 504.013 167.562 504.001 166.799H506.788C506.805 167.119 506.909 167.4 507.101 167.643C507.297 167.881 507.557 168.067 507.881 168.199C508.204 168.331 508.569 168.397 508.974 168.397C509.396 168.397 509.768 168.322 510.092 168.173C510.416 168.024 510.67 167.817 510.853 167.553C511.036 167.289 511.128 166.984 511.128 166.639C511.128 166.29 511.03 165.981 510.834 165.712C510.642 165.44 510.365 165.227 510.003 165.073C509.645 164.92 509.219 164.843 508.724 164.843H507.503V162.81H508.724C509.142 162.81 509.511 162.738 509.83 162.593C510.154 162.448 510.405 162.248 510.584 161.992C510.763 161.732 510.853 161.43 510.853 161.085C510.853 160.756 510.774 160.469 510.616 160.222C510.463 159.97 510.246 159.774 509.964 159.634C509.687 159.493 509.364 159.423 508.993 159.423C508.618 159.423 508.275 159.491 507.964 159.627C507.653 159.759 507.403 159.949 507.216 160.196C507.028 160.443 506.928 160.733 506.915 161.065H504.263C504.275 160.311 504.491 159.646 504.908 159.071C505.326 158.496 505.888 158.046 506.596 157.722C507.307 157.394 508.111 157.23 509.006 157.23C509.909 157.23 510.699 157.394 511.377 157.722C512.055 158.05 512.581 158.494 512.956 159.052C513.335 159.606 513.523 160.228 513.518 160.918C513.523 161.651 513.295 162.263 512.834 162.753C512.378 163.243 511.784 163.554 511.051 163.686V163.788C512.014 163.912 512.747 164.246 513.25 164.792C513.757 165.333 514.008 166.011 514.004 166.825C514.008 167.57 513.793 168.233 513.359 168.812C512.928 169.392 512.334 169.848 511.575 170.18C510.817 170.513 509.947 170.679 508.967 170.679Z" fill="white"/>
<path d="M515.713 164.5V157.227H518.582C519.132 157.227 519.6 157.326 519.989 157.522C520.379 157.716 520.676 157.992 520.88 158.349C521.086 158.705 521.189 159.122 521.189 159.603C521.189 160.086 521.085 160.501 520.877 160.849C520.668 161.195 520.366 161.46 519.971 161.645C519.578 161.83 519.102 161.922 518.543 161.922H516.622V160.686H518.295C518.588 160.686 518.832 160.646 519.026 160.565C519.22 160.485 519.365 160.364 519.46 160.203C519.557 160.042 519.605 159.842 519.605 159.603C519.605 159.362 519.557 159.158 519.46 158.992C519.365 158.826 519.219 158.701 519.023 158.616C518.829 158.528 518.584 158.484 518.288 158.484H517.251V164.5H515.713ZM519.641 161.19L521.448 164.5H519.751L517.982 161.19H519.641ZM524.854 164.5H522.276V157.227H524.875C525.607 157.227 526.236 157.373 526.764 157.664C527.292 157.953 527.698 158.368 527.982 158.911C528.269 159.453 528.412 160.101 528.412 160.857C528.412 161.614 528.269 162.265 527.982 162.81C527.698 163.354 527.29 163.772 526.757 164.063C526.227 164.354 525.592 164.5 524.854 164.5ZM523.813 163.183H524.79C525.244 163.183 525.627 163.102 525.937 162.941C526.249 162.778 526.484 162.526 526.64 162.185C526.799 161.841 526.878 161.399 526.878 160.857C526.878 160.319 526.799 159.88 526.64 159.539C526.484 159.198 526.251 158.947 525.94 158.786C525.63 158.625 525.248 158.545 524.793 158.545H523.813V163.183Z" fill="white"/>
<path d="M540.267 157.409V170.5H537.499V160.036H537.423L534.425 161.915V159.461L537.666 157.409H540.267ZM543.378 170.5V168.506L548.038 164.191C548.435 163.808 548.767 163.462 549.035 163.156C549.308 162.849 549.515 162.548 549.655 162.254C549.796 161.956 549.866 161.634 549.866 161.289C549.866 160.906 549.779 160.575 549.604 160.298C549.43 160.017 549.191 159.802 548.888 159.653C548.586 159.499 548.243 159.423 547.859 159.423C547.459 159.423 547.109 159.504 546.811 159.665C546.513 159.827 546.283 160.06 546.121 160.362C545.959 160.665 545.878 161.025 545.878 161.442H543.251C543.251 160.586 543.445 159.842 543.832 159.212C544.22 158.581 544.763 158.093 545.462 157.748C546.161 157.403 546.967 157.23 547.878 157.23C548.816 157.23 549.632 157.396 550.327 157.729C551.025 158.057 551.569 158.513 551.957 159.097C552.344 159.68 552.538 160.349 552.538 161.104C552.538 161.598 552.44 162.086 552.244 162.567C552.052 163.049 551.709 163.584 551.215 164.172C550.721 164.756 550.024 165.457 549.125 166.275L547.214 168.148V168.237H552.711V170.5H543.378Z" fill="white"/>
<path d="M84.2808 196.409V209.5H81.5131V199.036H81.4363L78.4385 200.915V198.461L81.6792 196.409H84.2808ZM93.5349 201.874V204.035H87.5647V201.874H93.5349ZM101.525 196.409V209.5H98.7572V199.036H98.6805L95.6826 200.915V198.461L98.9234 196.409H101.525ZM109.52 209.679C108.535 209.679 107.66 209.519 106.893 209.2C106.13 208.876 105.531 208.435 105.097 207.876C104.662 207.318 104.445 206.685 104.445 205.978C104.445 205.433 104.568 204.932 104.815 204.476C105.067 204.016 105.408 203.634 105.838 203.332C106.268 203.025 106.75 202.829 107.283 202.744V202.654C106.584 202.513 106.017 202.175 105.582 201.638C105.148 201.097 104.93 200.468 104.93 199.752C104.93 199.075 105.128 198.472 105.525 197.943C105.921 197.411 106.464 196.993 107.155 196.69C107.849 196.384 108.638 196.23 109.52 196.23C110.402 196.23 111.188 196.384 111.878 196.69C112.573 196.997 113.119 197.417 113.515 197.95C113.911 198.478 114.111 199.079 114.116 199.752C114.111 200.472 113.89 201.101 113.451 201.638C113.012 202.175 112.449 202.513 111.763 202.654V202.744C112.288 202.829 112.763 203.025 113.189 203.332C113.619 203.634 113.96 204.016 114.212 204.476C114.467 204.932 114.597 205.433 114.601 205.978C114.597 206.685 114.378 207.318 113.943 207.876C113.508 208.435 112.908 208.876 112.141 209.2C111.378 209.519 110.504 209.679 109.52 209.679ZM109.52 207.646C109.959 207.646 110.342 207.567 110.67 207.41C110.998 207.248 111.254 207.026 111.437 206.745C111.625 206.46 111.719 206.131 111.719 205.761C111.719 205.381 111.623 205.047 111.431 204.757C111.239 204.463 110.979 204.233 110.651 204.067C110.323 203.896 109.946 203.811 109.52 203.811C109.098 203.811 108.721 203.896 108.388 204.067C108.056 204.233 107.794 204.463 107.602 204.757C107.415 205.047 107.321 205.381 107.321 205.761C107.321 206.131 107.413 206.46 107.596 206.745C107.779 207.026 108.037 207.248 108.369 207.41C108.702 207.567 109.085 207.646 109.52 207.646ZM109.52 201.798C109.886 201.798 110.212 201.723 110.498 201.574C110.783 201.425 111.007 201.218 111.169 200.954C111.331 200.69 111.412 200.385 111.412 200.04C111.412 199.699 111.331 199.401 111.169 199.145C111.007 198.885 110.785 198.683 110.504 198.538C110.223 198.388 109.895 198.314 109.52 198.314C109.149 198.314 108.821 198.388 108.535 198.538C108.25 198.683 108.026 198.885 107.864 199.145C107.707 199.401 107.628 199.699 107.628 200.04C107.628 200.385 107.709 200.69 107.871 200.954C108.033 201.218 108.256 201.425 108.542 201.574C108.827 201.723 109.153 201.798 109.52 201.798Z" fill="white"/>
<path d="M169.266 209.5V196.409H178.087V198.691H172.033V201.81H177.633V204.092H172.033V207.218H178.112V209.5H169.266ZM182.652 196.409L185.816 206.355H185.938L189.108 196.409H192.176L187.664 209.5H184.097L179.578 196.409H182.652ZM193.752 209.5V196.409H202.573V198.691H196.52V201.81H202.119V204.092H196.52V207.218H202.599V209.5H193.752ZM215.723 196.409V209.5H213.332L207.637 201.261H207.541V209.5H204.774V196.409H207.203L212.853 204.642H212.968V196.409H215.723Z" fill="white"/>
<path d="M473.532 202.955C473.532 204.382 473.261 205.597 472.72 206.598C472.183 207.599 471.45 208.364 470.521 208.893C469.597 209.417 468.557 209.679 467.402 209.679C466.239 209.679 465.195 209.415 464.27 208.886C463.345 208.358 462.614 207.593 462.077 206.592C461.54 205.59 461.272 204.378 461.272 202.955C461.272 201.527 461.54 200.312 462.077 199.311C462.614 198.31 463.345 197.547 464.27 197.023C465.195 196.494 466.239 196.23 467.402 196.23C468.557 196.23 469.597 196.494 470.521 197.023C471.45 197.547 472.183 198.31 472.72 199.311C473.261 200.312 473.532 201.527 473.532 202.955ZM470.726 202.955C470.726 202.03 470.587 201.25 470.31 200.615C470.038 199.98 469.652 199.499 469.153 199.17C468.655 198.842 468.071 198.678 467.402 198.678C466.733 198.678 466.149 198.842 465.65 199.17C465.152 199.499 464.764 199.98 464.487 200.615C464.214 201.25 464.078 202.03 464.078 202.955C464.078 203.879 464.214 204.659 464.487 205.294C464.764 205.929 465.152 206.411 465.65 206.739C466.149 207.067 466.733 207.231 467.402 207.231C468.071 207.231 468.655 207.067 469.153 206.739C469.652 206.411 470.038 205.929 470.31 205.294C470.587 204.659 470.726 203.879 470.726 202.955ZM480.223 209.5H475.582V196.409H480.261C481.578 196.409 482.711 196.671 483.662 197.195C484.612 197.715 485.343 198.463 485.854 199.439C486.37 200.415 486.628 201.582 486.628 202.942C486.628 204.305 486.37 205.477 485.854 206.457C485.343 207.437 484.608 208.19 483.649 208.714C482.694 209.238 481.552 209.5 480.223 209.5ZM478.35 207.129H480.108C480.926 207.129 481.614 206.984 482.172 206.694C482.735 206.4 483.157 205.946 483.438 205.332C483.723 204.714 483.866 203.918 483.866 202.942C483.866 201.974 483.723 201.184 483.438 200.57C483.157 199.957 482.737 199.505 482.179 199.215C481.62 198.925 480.932 198.781 480.114 198.781H478.35V207.129ZM493.318 209.5H488.678V196.409H493.357C494.674 196.409 495.807 196.671 496.757 197.195C497.708 197.715 498.438 198.463 498.95 199.439C499.465 200.415 499.723 201.582 499.723 202.942C499.723 204.305 499.465 205.477 498.95 206.457C498.438 207.437 497.703 208.19 496.745 208.714C495.79 209.238 494.648 209.5 493.318 209.5ZM491.446 207.129H493.203C494.022 207.129 494.71 206.984 495.268 206.694C495.831 206.4 496.252 205.946 496.534 205.332C496.819 204.714 496.962 203.918 496.962 202.942C496.962 201.974 496.819 201.184 496.534 200.57C496.252 199.957 495.833 199.505 495.274 199.215C494.716 198.925 494.028 198.781 493.21 198.781H491.446V207.129Z" fill="white"/>
<path d="M556.863 196.409V209.5H554.095V199.036H554.018L551.021 200.915V198.461L554.261 196.409H556.863ZM564.711 196.23C565.384 196.23 566.032 196.343 566.654 196.569C567.28 196.795 567.839 197.155 568.329 197.649C568.823 198.143 569.213 198.8 569.498 199.618C569.788 200.432 569.935 201.431 569.939 202.616C569.939 203.728 569.814 204.721 569.562 205.594C569.315 206.464 568.959 207.203 568.495 207.812C568.03 208.422 567.47 208.886 566.814 209.206C566.157 209.521 565.424 209.679 564.615 209.679C563.741 209.679 562.97 209.511 562.301 209.174C561.632 208.833 561.093 208.371 560.684 207.787C560.279 207.199 560.034 206.538 559.949 205.805H562.678C562.785 206.283 563.008 206.653 563.349 206.918C563.69 207.178 564.112 207.308 564.615 207.308C565.467 207.308 566.115 206.937 566.558 206.195C567.001 205.45 567.225 204.429 567.229 203.134H567.14C566.944 203.517 566.679 203.847 566.347 204.124C566.015 204.397 565.633 204.608 565.203 204.757C564.777 204.906 564.323 204.981 563.841 204.981C563.07 204.981 562.382 204.8 561.777 204.438C561.172 204.075 560.694 203.577 560.345 202.942C559.995 202.307 559.821 201.582 559.821 200.768C559.816 199.891 560.019 199.109 560.428 198.423C560.837 197.737 561.408 197.2 562.141 196.812C562.878 196.42 563.735 196.226 564.711 196.23ZM564.73 198.403C564.299 198.403 563.916 198.506 563.579 198.71C563.247 198.915 562.983 199.19 562.787 199.535C562.595 199.88 562.501 200.266 562.505 200.692C562.505 201.122 562.599 201.51 562.787 201.855C562.978 202.196 563.238 202.469 563.566 202.673C563.899 202.874 564.278 202.974 564.704 202.974C565.024 202.974 565.32 202.914 565.593 202.795C565.866 202.675 566.102 202.511 566.302 202.303C566.507 202.089 566.667 201.844 566.782 201.567C566.897 201.29 566.954 200.996 566.954 200.685C566.95 200.272 566.852 199.893 566.66 199.548C566.468 199.202 566.204 198.925 565.868 198.717C565.531 198.508 565.152 198.403 564.73 198.403ZM578 201.874V204.035H572.03V201.874H578ZM585.045 209.679C584.091 209.679 583.241 209.515 582.495 209.187C581.753 208.854 581.168 208.398 580.737 207.819C580.311 207.235 580.092 206.562 580.079 205.799H582.866C582.883 206.119 582.987 206.4 583.179 206.643C583.375 206.881 583.635 207.067 583.959 207.199C584.283 207.331 584.647 207.397 585.052 207.397C585.474 207.397 585.847 207.322 586.17 207.173C586.494 207.024 586.748 206.817 586.931 206.553C587.114 206.289 587.206 205.984 587.206 205.639C587.206 205.29 587.108 204.981 586.912 204.712C586.72 204.44 586.443 204.227 586.081 204.073C585.723 203.92 585.297 203.843 584.802 203.843H583.582V201.81H584.802C585.22 201.81 585.589 201.738 585.908 201.593C586.232 201.448 586.484 201.248 586.663 200.992C586.842 200.732 586.931 200.43 586.931 200.085C586.931 199.756 586.852 199.469 586.695 199.222C586.541 198.97 586.324 198.774 586.043 198.634C585.766 198.493 585.442 198.423 585.071 198.423C584.696 198.423 584.353 198.491 584.042 198.627C583.731 198.759 583.481 198.949 583.294 199.196C583.106 199.443 583.006 199.733 582.994 200.065H580.341C580.354 199.311 580.569 198.646 580.986 198.071C581.404 197.496 581.967 197.046 582.674 196.722C583.386 196.394 584.189 196.23 585.084 196.23C585.987 196.23 586.778 196.394 587.455 196.722C588.133 197.05 588.659 197.494 589.034 198.052C589.413 198.606 589.601 199.228 589.597 199.918C589.601 200.651 589.373 201.263 588.913 201.753C588.457 202.243 587.862 202.554 587.129 202.686V202.788C588.092 202.912 588.825 203.246 589.328 203.792C589.835 204.333 590.087 205.011 590.082 205.825C590.087 206.57 589.871 207.233 589.437 207.812C589.006 208.392 588.412 208.848 587.653 209.18C586.895 209.513 586.025 209.679 585.045 209.679ZM597.096 209.679C596.423 209.675 595.773 209.562 595.146 209.34C594.524 209.119 593.966 208.759 593.472 208.26C592.977 207.761 592.585 207.101 592.296 206.278C592.01 205.456 591.867 204.446 591.867 203.249C591.872 202.149 591.997 201.167 592.244 200.302C592.496 199.433 592.854 198.695 593.318 198.09C593.787 197.485 594.347 197.025 594.999 196.71C595.651 196.39 596.382 196.23 597.192 196.23C598.065 196.23 598.837 196.401 599.506 196.741C600.175 197.078 600.712 197.536 601.117 198.116C601.526 198.695 601.773 199.345 601.858 200.065H599.129C599.022 199.609 598.798 199.251 598.457 198.991C598.117 198.732 597.695 198.602 597.192 198.602C596.34 198.602 595.692 198.972 595.249 199.714C594.81 200.455 594.586 201.463 594.578 202.737H594.667C594.863 202.349 595.127 202.019 595.46 201.746C595.796 201.469 596.178 201.259 596.604 201.114C597.034 200.964 597.488 200.89 597.965 200.89C598.741 200.89 599.431 201.073 600.036 201.44C600.641 201.802 601.119 202.3 601.468 202.935C601.818 203.57 601.992 204.297 601.992 205.115C601.992 206.001 601.786 206.79 601.372 207.48C600.963 208.17 600.39 208.712 599.653 209.104C598.92 209.491 598.068 209.683 597.096 209.679ZM597.083 207.506C597.509 207.506 597.891 207.403 598.227 207.199C598.564 206.994 598.828 206.717 599.02 206.368C599.212 206.018 599.308 205.626 599.308 205.192C599.308 204.757 599.212 204.367 599.02 204.022C598.832 203.677 598.573 203.402 598.24 203.197C597.908 202.993 597.528 202.891 597.102 202.891C596.783 202.891 596.487 202.95 596.214 203.07C595.945 203.189 595.709 203.355 595.504 203.568C595.304 203.781 595.146 204.028 595.031 204.31C594.916 204.587 594.859 204.883 594.859 205.198C594.859 205.62 594.955 206.006 595.146 206.355C595.342 206.705 595.607 206.984 595.939 207.192C596.276 207.401 596.657 207.506 597.083 207.506Z" fill="white"/>
<path d="M8 0.5H48.5V144.5H8C3.85786 144.5 0.5 141.142 0.5 137V8C0.500002 3.85787 3.85787 0.5 8 0.5Z" fill="#2B7934"/>
<path d="M8 0.5H48.5V144.5H8C3.85786 144.5 0.5 141.142 0.5 137V8C0.500002 3.85787 3.85787 0.5 8 0.5Z" stroke="#9E9E9E"/>
<rect x="48.5" y="0.5" width="48" height="48" fill="#9B1912"/>
<rect x="48.5" y="0.5" width="48" height="48" stroke="#9E9E9E"/>
<rect x="96.5" y="0.5" width="48" height="48" fill="#13120E"/>
<rect x="96.5" y="0.5" width="48" height="48" stroke="#9E9E9E"/>
<rect x="144.5" y="0.5" width="48" height="48" fill="#9B1912"/>
<rect x="144.5" y="0.5" width="48" height="48" stroke="#9E9E9E"/>
<rect x="192.5" y="0.5" width="48" height="48" fill="#9B1912"/>
<rect x="192.5" y="0.5" width="48" height="48" stroke="#9E9E9E"/>
<rect x="240.5" y="0.5" width="48" height="48" fill="#13120E"/>
<rect x="240.5" y="0.5" width="48" height="48" stroke="#9E9E9E"/>
<rect x="288.5" y="0.5" width="48" height="48" fill="#9B1912"/>
<rect x="288.5" y="0.5" width="48" height="48" stroke="#9E9E9E"/>
<rect x="336.5" y="0.5" width="48" height="48" fill="#9B1912"/>
<rect x="336.5" y="0.5" width="48" height="48" stroke="#9E9E9E"/>
<rect x="384.5" y="0.5" width="48" height="48" fill="#13120E"/>
<rect x="384.5" y="0.5" width="48" height="48" stroke="#9E9E9E"/>
<rect x="432.5" y="0.5" width="48" height="48" fill="#9B1912"/>
<rect x="432.5" y="0.5" width="48" height="48" stroke="#9E9E9E"/>
<rect x="480.5" y="0.5" width="48" height="48" fill="#9B1912"/>
<rect x="480.5" y="0.5" width="48" height="48" stroke="#9E9E9E"/>
<rect x="528.5" y="0.5" width="48" height="48" fill="#13120E"/>
<rect x="528.5" y="0.5" width="48" height="48" stroke="#9E9E9E"/>
<rect x="576.5" y="0.5" width="48" height="48" fill="#9B1912"/>
<rect x="576.5" y="0.5" width="48" height="48" stroke="#9E9E9E"/>
<rect x="48.5" y="48.5" width="48" height="48" fill="#13120E"/>
<rect x="48.5" y="48.5" width="48" height="48" stroke="#9E9E9E"/>
<rect x="96.5" y="48.5" width="48" height="48" fill="#9B1912"/>
<rect x="96.5" y="48.5" width="48" height="48" stroke="#9E9E9E"/>
<rect x="144.5" y="48.5" width="48" height="48" fill="#13120E"/>
<rect x="144.5" y="48.5" width="48" height="48" stroke="#9E9E9E"/>
<rect x="192.5" y="48.5" width="48" height="48" fill="#13120E"/>
<rect x="192.5" y="48.5" width="48" height="48" stroke="#9E9E9E"/>
<rect x="240.5" y="48.5" width="48" height="48" fill="#9B1912"/>
<rect x="240.5" y="48.5" width="48" height="48" stroke="#9E9E9E"/>
<rect x="288.5" y="48.5" width="48" height="48" fill="#13120E"/>
<rect x="288.5" y="48.5" width="48" height="48" stroke="#9E9E9E"/>
<rect x="336.5" y="48.5" width="48" height="48" fill="#13120E"/>
<rect x="336.5" y="48.5" width="48" height="48" stroke="#9E9E9E"/>
<rect x="384.5" y="48.5" width="48" height="48" fill="#9B1912"/>
<rect x="384.5" y="48.5" width="48" height="48" stroke="#9E9E9E"/>
<rect x="432.5" y="48.5" width="48" height="48" fill="#13120E"/>
<rect x="432.5" y="48.5" width="48" height="48" stroke="#9E9E9E"/>
<rect x="480.5" y="48.5" width="48" height="48" fill="#13120E"/>
<rect x="480.5" y="48.5" width="48" height="48" stroke="#9E9E9E"/>
<rect x="528.5" y="48.5" width="48" height="48" fill="#9B1912"/>
<rect x="528.5" y="48.5" width="48" height="48" stroke="#9E9E9E"/>
<rect x="576.5" y="48.5" width="48" height="48" fill="#13120E"/>
<rect x="576.5" y="48.5" width="48" height="48" stroke="#9E9E9E"/>
<rect x="48.5" y="96.5" width="48" height="48" fill="#9B1912"/>
<rect x="48.5" y="96.5" width="48" height="48" stroke="#9E9E9E"/>
<rect x="96.5" y="96.5" width="48" height="48" fill="#13120E"/>
<rect x="96.5" y="96.5" width="48" height="48" stroke="#9E9E9E"/>
<rect x="144.5" y="96.5" width="48" height="48" fill="#9B1912"/>
<rect x="144.5" y="96.5" width="48" height="48" stroke="#9E9E9E"/>
<rect x="192.5" y="96.5" width="48" height="48" fill="#13120E"/>
<rect x="192.5" y="96.5" width="48" height="48" stroke="#9E9E9E"/>
<rect x="240.5" y="96.5" width="48" height="48" fill="#13120E"/>
<rect x="240.5" y="96.5" width="48" height="48" stroke="#9E9E9E"/>
<rect x="288.5" y="96.5" width="48" height="48" fill="#9B1912"/>
<rect x="288.5" y="96.5" width="48" height="48" stroke="#9E9E9E"/>
<rect x="336.5" y="96.5" width="48" height="48" fill="#9B1912"/>
<rect x="336.5" y="96.5" width="48" height="48" stroke="#9E9E9E"/>
<rect x="384.5" y="96.5" width="48" height="48" fill="#13120E"/>
<rect x="384.5" y="96.5" width="48" height="48" stroke="#9E9E9E"/>
<rect x="432.5" y="96.5" width="48" height="48" fill="#9B1912"/>
<rect x="432.5" y="96.5" width="48" height="48" stroke="#9E9E9E"/>
<rect x="480.5" y="96.5" width="48" height="48" fill="#13120E"/>
<rect x="480.5" y="96.5" width="48" height="48" stroke="#9E9E9E"/>
<rect x="528.5" y="96.5" width="48" height="48" fill="#13120E"/>
<rect x="528.5" y="96.5" width="48" height="48" stroke="#9E9E9E"/>
<rect x="576.5" y="96.5" width="48" height="48" fill="#9B1912"/>
<rect x="576.5" y="96.5" width="48" height="48" stroke="#9E9E9E"/>
<path d="M593.005 128.719C591.838 128.719 590.799 128.518 589.888 128.117C588.981 127.711 588.265 127.154 587.739 126.445C587.218 125.732 586.95 124.909 586.935 123.977H590.341C590.362 124.367 590.489 124.711 590.724 125.008C590.963 125.299 591.281 125.526 591.677 125.688C592.073 125.849 592.518 125.93 593.013 125.93C593.528 125.93 593.984 125.839 594.38 125.656C594.776 125.474 595.086 125.221 595.31 124.898C595.534 124.576 595.646 124.203 595.646 123.781C595.646 123.354 595.526 122.977 595.286 122.648C595.052 122.315 594.713 122.055 594.271 121.867C593.833 121.68 593.312 121.586 592.708 121.586H591.216V119.102H592.708C593.218 119.102 593.669 119.013 594.06 118.836C594.455 118.659 594.763 118.414 594.981 118.102C595.2 117.784 595.31 117.414 595.31 116.992C595.31 116.591 595.213 116.24 595.021 115.937C594.833 115.63 594.567 115.391 594.224 115.219C593.885 115.047 593.489 114.961 593.036 114.961C592.578 114.961 592.159 115.044 591.778 115.211C591.398 115.372 591.093 115.604 590.864 115.906C590.635 116.208 590.513 116.562 590.497 116.969H587.255C587.271 116.047 587.534 115.234 588.044 114.531C588.554 113.828 589.242 113.279 590.106 112.883C590.976 112.482 591.958 112.281 593.052 112.281C594.156 112.281 595.122 112.482 595.95 112.883C596.778 113.284 597.422 113.826 597.88 114.508C598.343 115.185 598.573 115.945 598.567 116.789C598.573 117.685 598.294 118.432 597.731 119.031C597.174 119.63 596.448 120.01 595.552 120.172V120.297C596.729 120.448 597.625 120.857 598.239 121.523C598.859 122.185 599.166 123.013 599.161 124.008C599.166 124.919 598.903 125.729 598.372 126.438C597.846 127.146 597.119 127.703 596.192 128.109C595.265 128.516 594.203 128.719 593.005 128.719ZM601.351 125.688V123.023L608.03 112.5H610.327V116.187H608.968L604.757 122.852V122.977H614.249V125.688H601.351ZM609.03 128.5V124.875L609.093 123.695V112.5H612.265V128.5H609.03Z" fill="white"/>
<path d="M547.078 128.719C545.911 128.719 544.872 128.518 543.961 128.117C543.055 127.711 542.339 127.154 541.813 126.445C541.292 125.732 541.023 124.909 541.008 123.977H544.414C544.435 124.367 544.563 124.711 544.797 125.008C545.036 125.299 545.354 125.526 545.75 125.688C546.146 125.849 546.591 125.93 547.086 125.93C547.602 125.93 548.057 125.839 548.453 125.656C548.849 125.474 549.159 125.221 549.383 124.898C549.607 124.576 549.719 124.203 549.719 123.781C549.719 123.354 549.599 122.977 549.359 122.648C549.125 122.315 548.786 122.055 548.344 121.867C547.906 121.68 547.385 121.586 546.781 121.586H545.289V119.102H546.781C547.292 119.102 547.742 119.013 548.133 118.836C548.529 118.659 548.836 118.414 549.055 118.102C549.273 117.784 549.383 117.414 549.383 116.992C549.383 116.591 549.286 116.24 549.094 115.937C548.906 115.63 548.641 115.391 548.297 115.219C547.958 115.047 547.563 114.961 547.109 114.961C546.651 114.961 546.232 115.044 545.852 115.211C545.471 115.372 545.167 115.604 544.938 115.906C544.708 116.208 544.586 116.562 544.57 116.969H541.328C541.344 116.047 541.607 115.234 542.117 114.531C542.628 113.828 543.315 113.279 544.18 112.883C545.049 112.482 546.031 112.281 547.125 112.281C548.229 112.281 549.195 112.482 550.023 112.883C550.852 113.284 551.495 113.826 551.953 114.508C552.417 115.185 552.646 115.945 552.641 116.789C552.646 117.685 552.367 118.432 551.805 119.031C551.247 119.63 550.521 120.01 549.625 120.172V120.297C550.802 120.448 551.698 120.857 552.313 121.523C552.932 122.185 553.24 123.013 553.234 124.008C553.24 124.919 552.977 125.729 552.445 126.438C551.919 127.146 551.193 127.703 550.266 128.109C549.339 128.516 548.276 128.719 547.078 128.719ZM562.627 112.5V128.5H559.244V115.711H559.15L555.486 118.008V115.008L559.447 112.5H562.627Z" fill="white"/>
<path d="M491.596 128.5V126.062L497.291 120.789C497.775 120.32 498.182 119.898 498.51 119.523C498.843 119.148 499.096 118.781 499.268 118.422C499.439 118.057 499.525 117.664 499.525 117.242C499.525 116.773 499.419 116.37 499.205 116.031C498.992 115.687 498.7 115.424 498.33 115.242C497.96 115.055 497.541 114.961 497.072 114.961C496.583 114.961 496.156 115.06 495.791 115.258C495.426 115.456 495.145 115.74 494.947 116.109C494.749 116.479 494.65 116.919 494.65 117.43H491.439C491.439 116.383 491.676 115.474 492.15 114.703C492.624 113.932 493.288 113.336 494.143 112.914C494.997 112.492 495.981 112.281 497.096 112.281C498.242 112.281 499.239 112.484 500.088 112.891C500.942 113.292 501.606 113.849 502.08 114.562C502.554 115.276 502.791 116.094 502.791 117.016C502.791 117.62 502.671 118.216 502.432 118.805C502.197 119.393 501.778 120.047 501.174 120.766C500.57 121.479 499.718 122.336 498.619 123.336L496.283 125.625V125.734H503.002V128.5H491.596ZM511.422 128.719C510.219 128.719 509.148 128.523 508.211 128.133C507.279 127.737 506.547 127.198 506.016 126.516C505.484 125.833 505.219 125.06 505.219 124.195C505.219 123.529 505.37 122.917 505.672 122.359C505.979 121.797 506.396 121.331 506.922 120.961C507.448 120.586 508.036 120.346 508.688 120.242V120.133C507.833 119.961 507.141 119.547 506.609 118.891C506.078 118.229 505.813 117.461 505.813 116.586C505.813 115.758 506.055 115.021 506.539 114.375C507.023 113.724 507.688 113.214 508.531 112.844C509.38 112.469 510.344 112.281 511.422 112.281C512.5 112.281 513.461 112.469 514.305 112.844C515.154 113.219 515.82 113.732 516.305 114.383C516.789 115.029 517.034 115.763 517.039 116.586C517.034 117.466 516.763 118.234 516.227 118.891C515.69 119.547 515.003 119.961 514.164 120.133V120.242C514.805 120.346 515.385 120.586 515.906 120.961C516.432 121.331 516.849 121.797 517.156 122.359C517.469 122.917 517.628 123.529 517.633 124.195C517.628 125.06 517.359 125.833 516.828 126.516C516.297 127.198 515.563 127.737 514.625 128.133C513.693 128.523 512.625 128.719 511.422 128.719ZM511.422 126.234C511.958 126.234 512.427 126.138 512.828 125.945C513.229 125.747 513.542 125.477 513.766 125.133C513.995 124.784 514.109 124.383 514.109 123.93C514.109 123.466 513.992 123.057 513.758 122.703C513.523 122.344 513.206 122.063 512.805 121.859C512.404 121.651 511.943 121.547 511.422 121.547C510.906 121.547 510.445 121.651 510.039 121.859C509.633 122.063 509.313 122.344 509.078 122.703C508.849 123.057 508.734 123.466 508.734 123.93C508.734 124.383 508.846 124.784 509.07 125.133C509.294 125.477 509.609 125.747 510.016 125.945C510.422 126.138 510.891 126.234 511.422 126.234ZM511.422 119.086C511.87 119.086 512.268 118.995 512.617 118.812C512.966 118.63 513.24 118.378 513.438 118.055C513.635 117.732 513.734 117.359 513.734 116.937C513.734 116.521 513.635 116.156 513.438 115.844C513.24 115.526 512.969 115.279 512.625 115.102C512.281 114.919 511.88 114.828 511.422 114.828C510.969 114.828 510.568 114.919 510.219 115.102C509.87 115.279 509.596 115.526 509.398 115.844C509.206 116.156 509.109 116.521 509.109 116.937C509.109 117.359 509.208 117.732 509.406 118.055C509.604 118.378 509.878 118.63 510.227 118.812C510.576 118.995 510.974 119.086 511.422 119.086Z" fill="white"/>
<path d="M443.778 128.5V126.062L449.474 120.789C449.958 120.32 450.364 119.898 450.692 119.523C451.026 119.148 451.278 118.781 451.45 118.422C451.622 118.057 451.708 117.664 451.708 117.242C451.708 116.773 451.601 116.37 451.388 116.031C451.174 115.687 450.882 115.424 450.513 115.242C450.143 115.055 449.724 114.961 449.255 114.961C448.765 114.961 448.338 115.06 447.974 115.258C447.609 115.456 447.328 115.74 447.13 116.109C446.932 116.479 446.833 116.919 446.833 117.43H443.622C443.622 116.383 443.859 115.474 444.333 114.703C444.807 113.932 445.471 113.336 446.325 112.914C447.179 112.492 448.164 112.281 449.278 112.281C450.424 112.281 451.422 112.484 452.271 112.891C453.125 113.292 453.789 113.849 454.263 114.562C454.737 115.276 454.974 116.094 454.974 117.016C454.974 117.62 454.854 118.216 454.614 118.805C454.38 119.393 453.961 120.047 453.356 120.766C452.752 121.479 451.901 122.336 450.802 123.336L448.466 125.625V125.734H455.185V128.5H443.778ZM463.479 128.719C462.375 128.719 461.391 128.516 460.526 128.109C459.667 127.703 458.985 127.143 458.479 126.43C457.974 125.716 457.711 124.898 457.69 123.977H460.972C461.008 124.596 461.269 125.099 461.753 125.484C462.237 125.87 462.813 126.062 463.479 126.062C464.011 126.062 464.479 125.945 464.886 125.711C465.297 125.471 465.618 125.141 465.847 124.719C466.081 124.292 466.198 123.802 466.198 123.25C466.198 122.687 466.078 122.193 465.839 121.766C465.604 121.339 465.279 121.005 464.862 120.766C464.446 120.526 463.969 120.404 463.433 120.398C462.964 120.398 462.508 120.495 462.065 120.687C461.628 120.88 461.287 121.143 461.042 121.477L458.034 120.938L458.792 112.5H468.573V115.266H461.581L461.167 119.273H461.261C461.542 118.878 461.966 118.549 462.534 118.289C463.102 118.029 463.737 117.898 464.44 117.898C465.404 117.898 466.263 118.125 467.019 118.578C467.774 119.031 468.37 119.654 468.808 120.445C469.245 121.232 469.461 122.138 469.456 123.164C469.461 124.242 469.211 125.201 468.706 126.039C468.206 126.872 467.506 127.529 466.604 128.008C465.709 128.482 464.667 128.719 463.479 128.719Z" fill="white"/>
<path d="M395.939 128.5V126.062L401.635 120.789C402.119 120.32 402.525 119.898 402.854 119.523C403.187 119.148 403.439 118.781 403.611 118.422C403.783 118.057 403.869 117.664 403.869 117.242C403.869 116.773 403.762 116.37 403.549 116.031C403.335 115.687 403.044 115.424 402.674 115.242C402.304 115.055 401.885 114.961 401.416 114.961C400.926 114.961 400.499 115.06 400.135 115.258C399.77 115.456 399.489 115.74 399.291 116.109C399.093 116.479 398.994 116.919 398.994 117.43H395.783C395.783 116.383 396.02 115.474 396.494 114.703C396.968 113.932 397.632 113.336 398.486 112.914C399.34 112.492 400.325 112.281 401.439 112.281C402.585 112.281 403.583 112.484 404.432 112.891C405.286 113.292 405.95 113.849 406.424 114.562C406.898 115.276 407.135 116.094 407.135 117.016C407.135 117.62 407.015 118.216 406.775 118.805C406.541 119.393 406.122 120.047 405.518 120.766C404.913 121.479 404.062 122.336 402.963 123.336L400.627 125.625V125.734H407.346V128.5H395.939ZM409.797 128.5V126.062L415.492 120.789C415.977 120.32 416.383 119.898 416.711 119.523C417.044 119.148 417.297 118.781 417.469 118.422C417.641 118.057 417.727 117.664 417.727 117.242C417.727 116.773 417.62 116.37 417.406 116.031C417.193 115.687 416.901 115.424 416.531 115.242C416.161 115.055 415.742 114.961 415.273 114.961C414.784 114.961 414.357 115.06 413.992 115.258C413.628 115.456 413.346 115.74 413.148 116.109C412.951 116.479 412.852 116.919 412.852 117.43H409.641C409.641 116.383 409.878 115.474 410.352 114.703C410.826 113.932 411.49 113.336 412.344 112.914C413.198 112.492 414.182 112.281 415.297 112.281C416.443 112.281 417.44 112.484 418.289 112.891C419.143 113.292 419.807 113.849 420.281 114.562C420.755 115.276 420.992 116.094 420.992 117.016C420.992 117.62 420.872 118.216 420.633 118.805C420.398 119.393 419.979 120.047 419.375 120.766C418.771 121.479 417.919 122.336 416.82 123.336L414.484 125.625V125.734H421.203V128.5H409.797Z" fill="white"/>
<path d="M356.114 112.5V128.5H352.731V115.711H352.638L348.974 118.008V115.008L352.935 112.5H356.114ZM365.706 112.281C366.529 112.281 367.321 112.419 368.081 112.695C368.847 112.971 369.529 113.411 370.128 114.016C370.732 114.62 371.209 115.422 371.558 116.422C371.912 117.417 372.091 118.638 372.097 120.086C372.097 121.445 371.943 122.659 371.636 123.727C371.334 124.789 370.899 125.693 370.331 126.438C369.763 127.182 369.078 127.75 368.276 128.141C367.474 128.526 366.578 128.719 365.589 128.719C364.521 128.719 363.578 128.513 362.761 128.102C361.943 127.685 361.284 127.12 360.784 126.406C360.289 125.687 359.99 124.88 359.886 123.984H363.222C363.352 124.568 363.625 125.021 364.042 125.344C364.459 125.661 364.974 125.82 365.589 125.82C366.631 125.82 367.422 125.367 367.964 124.461C368.506 123.549 368.779 122.302 368.784 120.719H368.675C368.435 121.187 368.112 121.591 367.706 121.93C367.3 122.263 366.834 122.521 366.308 122.703C365.787 122.885 365.232 122.977 364.644 122.977C363.701 122.977 362.86 122.755 362.12 122.312C361.381 121.87 360.797 121.26 360.37 120.484C359.943 119.708 359.729 118.823 359.729 117.828C359.724 116.755 359.972 115.799 360.472 114.961C360.972 114.122 361.67 113.466 362.565 112.992C363.466 112.513 364.513 112.276 365.706 112.281ZM365.729 114.937C365.203 114.937 364.735 115.062 364.323 115.313C363.917 115.562 363.594 115.898 363.354 116.32C363.12 116.742 363.006 117.214 363.011 117.734C363.011 118.26 363.125 118.734 363.354 119.156C363.589 119.573 363.907 119.906 364.308 120.156C364.714 120.401 365.177 120.523 365.698 120.523C366.089 120.523 366.451 120.451 366.784 120.305C367.118 120.159 367.407 119.958 367.651 119.703C367.901 119.443 368.097 119.143 368.237 118.805C368.378 118.466 368.448 118.107 368.448 117.727C368.443 117.221 368.323 116.758 368.089 116.336C367.854 115.914 367.532 115.576 367.12 115.32C366.709 115.065 366.245 114.937 365.729 114.937Z" fill="white"/>
<path d="M308.114 112.5V128.5H304.731V115.711H304.638L300.974 118.008V115.008L304.935 112.5H308.114ZM318.058 128.719C317.235 128.714 316.44 128.576 315.675 128.305C314.914 128.034 314.232 127.594 313.628 126.984C313.024 126.375 312.545 125.568 312.19 124.562C311.841 123.557 311.667 122.323 311.667 120.859C311.672 119.516 311.826 118.315 312.128 117.258C312.435 116.195 312.873 115.294 313.44 114.555C314.013 113.815 314.698 113.253 315.495 112.867C316.292 112.477 317.185 112.281 318.175 112.281C319.243 112.281 320.185 112.49 321.003 112.906C321.821 113.318 322.477 113.878 322.972 114.586C323.472 115.294 323.774 116.089 323.878 116.969H320.542C320.412 116.411 320.138 115.974 319.722 115.656C319.305 115.339 318.789 115.18 318.175 115.18C317.133 115.18 316.341 115.633 315.8 116.539C315.263 117.445 314.99 118.677 314.979 120.234H315.089C315.328 119.76 315.651 119.357 316.058 119.023C316.469 118.685 316.935 118.427 317.456 118.25C317.982 118.068 318.537 117.977 319.12 117.977C320.068 117.977 320.912 118.201 321.651 118.648C322.391 119.091 322.974 119.701 323.401 120.477C323.828 121.253 324.042 122.141 324.042 123.141C324.042 124.224 323.789 125.187 323.284 126.031C322.784 126.875 322.084 127.536 321.183 128.016C320.287 128.49 319.245 128.724 318.058 128.719ZM318.042 126.062C318.563 126.062 319.029 125.937 319.44 125.688C319.852 125.437 320.175 125.099 320.409 124.672C320.644 124.245 320.761 123.766 320.761 123.234C320.761 122.703 320.644 122.227 320.409 121.805C320.18 121.383 319.862 121.047 319.456 120.797C319.05 120.547 318.586 120.422 318.065 120.422C317.675 120.422 317.313 120.495 316.979 120.641C316.651 120.786 316.362 120.99 316.112 121.25C315.868 121.51 315.675 121.812 315.534 122.156C315.394 122.495 315.323 122.857 315.323 123.242C315.323 123.758 315.44 124.229 315.675 124.656C315.914 125.083 316.237 125.424 316.644 125.68C317.055 125.935 317.521 126.062 318.042 126.062Z" fill="white"/>
<path d="M260.125 112.5V128.5H256.742V115.711H256.648L252.984 118.008V115.008L256.945 112.5H260.125ZM269.842 128.719C268.675 128.719 267.636 128.518 266.725 128.117C265.818 127.711 265.102 127.154 264.576 126.445C264.055 125.732 263.787 124.909 263.771 123.977H267.178C267.199 124.367 267.326 124.711 267.561 125.008C267.8 125.299 268.118 125.526 268.514 125.688C268.91 125.849 269.355 125.93 269.85 125.93C270.365 125.93 270.821 125.839 271.217 125.656C271.613 125.474 271.923 125.221 272.146 124.898C272.37 124.576 272.482 124.203 272.482 123.781C272.482 123.354 272.363 122.977 272.123 122.648C271.889 122.315 271.55 122.055 271.107 121.867C270.67 121.68 270.149 121.586 269.545 121.586H268.053V119.102H269.545C270.055 119.102 270.506 119.013 270.896 118.836C271.292 118.659 271.6 118.414 271.818 118.102C272.037 117.784 272.146 117.414 272.146 116.992C272.146 116.591 272.05 116.24 271.857 115.937C271.67 115.63 271.404 115.391 271.061 115.219C270.722 115.047 270.326 114.961 269.873 114.961C269.415 114.961 268.995 115.044 268.615 115.211C268.235 115.372 267.93 115.604 267.701 115.906C267.472 116.208 267.35 116.562 267.334 116.969H264.092C264.107 116.047 264.37 115.234 264.881 114.531C265.391 113.828 266.079 113.279 266.943 112.883C267.813 112.482 268.795 112.281 269.889 112.281C270.993 112.281 271.959 112.482 272.787 112.883C273.615 113.284 274.258 113.826 274.717 114.508C275.18 115.185 275.41 115.945 275.404 116.789C275.41 117.685 275.131 118.432 274.568 119.031C274.011 119.63 273.285 120.01 272.389 120.172V120.297C273.566 120.448 274.462 120.857 275.076 121.523C275.696 122.185 276.003 123.013 275.998 124.008C276.003 124.919 275.74 125.729 275.209 126.438C274.683 127.146 273.956 127.703 273.029 128.109C272.102 128.516 271.04 128.719 269.842 128.719Z" fill="white"/>
<path d="M211.803 112.5V128.5H208.42V115.711H208.326L204.662 118.008V115.008L208.623 112.5H211.803ZM221.879 128.852C220.535 128.846 219.379 128.516 218.41 127.859C217.447 127.203 216.704 126.253 216.184 125.008C215.668 123.763 215.413 122.266 215.418 120.516C215.418 118.771 215.676 117.284 216.191 116.055C216.712 114.826 217.454 113.891 218.418 113.25C219.387 112.604 220.54 112.281 221.879 112.281C223.217 112.281 224.368 112.604 225.332 113.25C226.301 113.896 227.046 114.833 227.566 116.062C228.087 117.286 228.345 118.771 228.34 120.516C228.34 122.271 228.079 123.771 227.559 125.016C227.043 126.26 226.303 127.211 225.34 127.867C224.376 128.523 223.223 128.852 221.879 128.852ZM221.879 126.047C222.796 126.047 223.527 125.586 224.074 124.664C224.621 123.742 224.892 122.359 224.887 120.516C224.887 119.302 224.762 118.292 224.512 117.484C224.267 116.677 223.918 116.07 223.465 115.664C223.017 115.258 222.488 115.055 221.879 115.055C220.967 115.055 220.238 115.51 219.691 116.422C219.145 117.333 218.868 118.698 218.863 120.516C218.863 121.745 218.986 122.771 219.23 123.594C219.48 124.411 219.832 125.026 220.285 125.437C220.738 125.844 221.27 126.047 221.879 126.047Z" fill="white"/>
<path d="M163.888 128.5L170.521 115.375V115.266H162.794V112.5H174.021V115.305L167.38 128.5H163.888Z" fill="white"/>
<path d="M114.1 125.688V123.023L120.779 112.5H123.076V116.187H121.717L117.506 122.852V122.977H126.998V125.688H114.1ZM121.779 128.5V124.875L121.842 123.695V112.5H125.014V128.5H121.779Z" fill="white"/>
<path d="M75.376 112.5V128.5H71.9932V115.711H71.8994L68.2354 118.008V115.008L72.1963 112.5H75.376Z" fill="white"/>
<path d="M593.37 80.7187C592.203 80.7187 591.164 80.5182 590.253 80.1172C589.347 79.7109 588.631 79.1536 588.104 78.4453C587.584 77.7318 587.315 76.9089 587.3 75.9766H590.706C590.727 76.3672 590.854 76.7109 591.089 77.0078C591.328 77.2995 591.646 77.526 592.042 77.6875C592.438 77.849 592.883 77.9297 593.378 77.9297C593.894 77.9297 594.349 77.8385 594.745 77.6562C595.141 77.474 595.451 77.2214 595.675 76.8984C595.899 76.5755 596.011 76.2031 596.011 75.7812C596.011 75.3542 595.891 74.9766 595.651 74.6484C595.417 74.3151 595.078 74.0547 594.636 73.8672C594.198 73.6797 593.677 73.5859 593.073 73.5859H591.581V71.1016H593.073C593.584 71.1016 594.034 71.013 594.425 70.8359C594.821 70.6589 595.128 70.4141 595.347 70.1016C595.565 69.7839 595.675 69.4141 595.675 68.9922C595.675 68.5911 595.578 68.2396 595.386 67.9375C595.198 67.6302 594.933 67.3906 594.589 67.2187C594.25 67.0469 593.854 66.9609 593.401 66.9609C592.943 66.9609 592.524 67.0443 592.144 67.2109C591.763 67.3724 591.459 67.6042 591.229 67.9062C591 68.2083 590.878 68.5625 590.862 68.9687H587.62C587.636 68.0469 587.899 67.2344 588.409 66.5312C588.92 65.8281 589.607 65.2786 590.472 64.8828C591.341 64.4818 592.323 64.2812 593.417 64.2812C594.521 64.2812 595.487 64.4818 596.315 64.8828C597.144 65.2839 597.787 65.8255 598.245 66.5078C598.709 67.1849 598.938 67.9453 598.933 68.7891C598.938 69.6849 598.659 70.4323 598.097 71.0312C597.539 71.6302 596.813 72.0104 595.917 72.1719V72.2969C597.094 72.4479 597.99 72.8568 598.604 73.5234C599.224 74.1849 599.532 75.013 599.526 76.0078C599.532 76.9193 599.269 77.7292 598.737 78.4375C598.211 79.1458 597.485 79.7031 596.558 80.1094C595.631 80.5156 594.568 80.7187 593.37 80.7187ZM607.802 80.7187C606.698 80.7187 605.713 80.5156 604.849 80.1094C603.989 79.7031 603.307 79.1432 602.802 78.4297C602.297 77.7161 602.034 76.8984 602.013 75.9766H605.294C605.33 76.5964 605.591 77.099 606.075 77.4844C606.56 77.8698 607.135 78.0625 607.802 78.0625C608.333 78.0625 608.802 77.9453 609.208 77.7109C609.619 77.4714 609.94 77.1406 610.169 76.7188C610.403 76.2917 610.521 75.8021 610.521 75.25C610.521 74.6875 610.401 74.1927 610.161 73.7656C609.927 73.3385 609.601 73.0052 609.185 72.7656C608.768 72.526 608.291 72.4036 607.755 72.3984C607.286 72.3984 606.83 72.4948 606.388 72.6875C605.95 72.8802 605.609 73.1432 605.364 73.4766L602.356 72.9375L603.114 64.5H612.896V67.2656H605.903L605.489 71.2734H605.583C605.864 70.8776 606.289 70.5495 606.856 70.2891C607.424 70.0286 608.06 69.8984 608.763 69.8984C609.726 69.8984 610.586 70.125 611.341 70.5781C612.096 71.0312 612.692 71.6536 613.13 72.4453C613.567 73.2318 613.784 74.138 613.778 75.1641C613.784 76.2422 613.534 77.2005 613.028 78.0391C612.528 78.8724 611.828 79.5286 610.927 80.0078C610.031 80.4818 608.989 80.7187 607.802 80.7187Z" fill="white"/>
<path d="M545.531 80.7187C544.365 80.7187 543.326 80.5182 542.414 80.1172C541.508 79.7109 540.792 79.1536 540.266 78.4453C539.745 77.7318 539.477 76.9089 539.461 75.9766H542.867C542.888 76.3672 543.016 76.7109 543.25 77.0078C543.49 77.2995 543.807 77.526 544.203 77.6875C544.599 77.849 545.044 77.9297 545.539 77.9297C546.055 77.9297 546.51 77.8385 546.906 77.6562C547.302 77.474 547.612 77.2214 547.836 76.8984C548.06 76.5755 548.172 76.2031 548.172 75.7812C548.172 75.3542 548.052 74.9766 547.813 74.6484C547.578 74.3151 547.24 74.0547 546.797 73.8672C546.359 73.6797 545.839 73.5859 545.234 73.5859H543.742V71.1016H545.234C545.745 71.1016 546.195 71.013 546.586 70.8359C546.982 70.6589 547.289 70.4141 547.508 70.1016C547.727 69.7839 547.836 69.4141 547.836 68.9922C547.836 68.5911 547.74 68.2396 547.547 67.9375C547.359 67.6302 547.094 67.3906 546.75 67.2187C546.411 67.0469 546.016 66.9609 545.563 66.9609C545.104 66.9609 544.685 67.0443 544.305 67.2109C543.924 67.3724 543.62 67.6042 543.391 67.9062C543.161 68.2083 543.039 68.5625 543.023 68.9687H539.781C539.797 68.0469 540.06 67.2344 540.57 66.5312C541.081 65.8281 541.768 65.2786 542.633 64.8828C543.503 64.4818 544.484 64.2812 545.578 64.2812C546.682 64.2812 547.648 64.4818 548.477 64.8828C549.305 65.2839 549.948 65.8255 550.406 66.5078C550.87 67.1849 551.099 67.9453 551.094 68.7891C551.099 69.6849 550.82 70.4323 550.258 71.0312C549.701 71.6302 548.974 72.0104 548.078 72.1719V72.2969C549.255 72.4479 550.151 72.8568 550.766 73.5234C551.385 74.1849 551.693 75.013 551.688 76.0078C551.693 76.9193 551.43 77.7292 550.898 78.4375C550.372 79.1458 549.646 79.7031 548.719 80.1094C547.792 80.5156 546.729 80.7187 545.531 80.7187ZM554.119 80.5V78.0625L559.814 72.7891C560.299 72.3203 560.705 71.8984 561.033 71.5234C561.367 71.1484 561.619 70.7812 561.791 70.4219C561.963 70.0573 562.049 69.6641 562.049 69.2422C562.049 68.7734 561.942 68.3698 561.729 68.0312C561.515 67.6875 561.223 67.4245 560.854 67.2422C560.484 67.0547 560.064 66.9609 559.596 66.9609C559.106 66.9609 558.679 67.0599 558.314 67.2578C557.95 67.4557 557.669 67.7396 557.471 68.1094C557.273 68.4792 557.174 68.9193 557.174 69.4297H553.963C553.963 68.3828 554.2 67.474 554.674 66.7031C555.148 65.9323 555.812 65.3359 556.666 64.9141C557.52 64.4922 558.505 64.2812 559.619 64.2812C560.765 64.2812 561.762 64.4844 562.611 64.8906C563.465 65.2917 564.13 65.849 564.604 66.5625C565.077 67.276 565.314 68.0937 565.314 69.0156C565.314 69.6198 565.195 70.2161 564.955 70.8047C564.721 71.3932 564.301 72.0469 563.697 72.7656C563.093 73.4792 562.242 74.3359 561.143 75.3359L558.807 77.625V77.7344H565.525V80.5H554.119Z" fill="white"/>
<path d="M491.606 80.5V78.0625L497.302 72.7891C497.786 72.3203 498.192 71.8984 498.521 71.5234C498.854 71.1484 499.106 70.7812 499.278 70.4219C499.45 70.0573 499.536 69.6641 499.536 69.2422C499.536 68.7734 499.429 68.3698 499.216 68.0312C499.002 67.6875 498.711 67.4245 498.341 67.2422C497.971 67.0547 497.552 66.9609 497.083 66.9609C496.593 66.9609 496.166 67.0599 495.802 67.2578C495.437 67.4557 495.156 67.7396 494.958 68.1094C494.76 68.4792 494.661 68.9193 494.661 69.4297H491.45C491.45 68.3828 491.687 67.474 492.161 66.7031C492.635 65.9323 493.299 65.3359 494.153 64.9141C495.007 64.4922 495.992 64.2812 497.106 64.2812C498.252 64.2812 499.25 64.4844 500.099 64.8906C500.953 65.2917 501.617 65.849 502.091 66.5625C502.565 67.276 502.802 68.0937 502.802 69.0156C502.802 69.6198 502.682 70.2161 502.442 70.8047C502.208 71.3932 501.789 72.0469 501.185 72.7656C500.58 73.4792 499.729 74.3359 498.63 75.3359L496.294 77.625V77.7344H503.013V80.5H491.606ZM511.253 64.2812C512.076 64.2812 512.868 64.4193 513.628 64.6953C514.394 64.9714 515.076 65.4115 515.675 66.0156C516.279 66.6198 516.756 67.4219 517.104 68.4219C517.459 69.4167 517.638 70.638 517.644 72.0859C517.644 73.4453 517.49 74.6589 517.183 75.7266C516.881 76.7891 516.446 77.6927 515.878 78.4375C515.31 79.1823 514.625 79.75 513.823 80.1406C513.021 80.526 512.125 80.7187 511.136 80.7187C510.068 80.7187 509.125 80.513 508.308 80.1016C507.49 79.6849 506.831 79.1198 506.331 78.4062C505.836 77.6875 505.537 76.8802 505.433 75.9844H508.769C508.899 76.5677 509.172 77.0208 509.589 77.3438C510.006 77.6615 510.521 77.8203 511.136 77.8203C512.177 77.8203 512.969 77.3672 513.511 76.4609C514.052 75.5495 514.326 74.3021 514.331 72.7187H514.222C513.982 73.1875 513.659 73.5911 513.253 73.9297C512.847 74.263 512.381 74.5208 511.854 74.7031C511.334 74.8854 510.779 74.9766 510.19 74.9766C509.248 74.9766 508.407 74.7552 507.667 74.3125C506.927 73.8698 506.344 73.2604 505.917 72.4844C505.49 71.7083 505.276 70.8229 505.276 69.8281C505.271 68.7552 505.519 67.7995 506.019 66.9609C506.519 66.1224 507.216 65.4661 508.112 64.9922C509.013 64.513 510.06 64.276 511.253 64.2812ZM511.276 66.9375C510.75 66.9375 510.282 67.0625 509.87 67.3125C509.464 67.5625 509.141 67.8984 508.901 68.3203C508.667 68.7422 508.552 69.2135 508.558 69.7344C508.558 70.2604 508.672 70.7344 508.901 71.1562C509.136 71.5729 509.453 71.9062 509.854 72.1562C510.261 72.401 510.724 72.5234 511.245 72.5234C511.636 72.5234 511.998 72.4505 512.331 72.3047C512.664 72.1589 512.953 71.9583 513.198 71.7031C513.448 71.4427 513.644 71.1432 513.784 70.8047C513.925 70.4661 513.995 70.1068 513.995 69.7266C513.99 69.2214 513.87 68.7578 513.636 68.3359C513.401 67.9141 513.078 67.5755 512.667 67.3203C512.256 67.0651 511.792 66.9375 511.276 66.9375Z" fill="white"/>
<path d="M443.606 80.5V78.0625L449.302 72.7891C449.786 72.3203 450.192 71.8984 450.521 71.5234C450.854 71.1484 451.106 70.7812 451.278 70.4219C451.45 70.0573 451.536 69.6641 451.536 69.2422C451.536 68.7734 451.429 68.3698 451.216 68.0312C451.002 67.6875 450.711 67.4245 450.341 67.2422C449.971 67.0547 449.552 66.9609 449.083 66.9609C448.593 66.9609 448.166 67.0599 447.802 67.2578C447.437 67.4557 447.156 67.7396 446.958 68.1094C446.76 68.4792 446.661 68.9193 446.661 69.4297H443.45C443.45 68.3828 443.687 67.474 444.161 66.7031C444.635 65.9323 445.299 65.3359 446.153 64.9141C447.007 64.4922 447.992 64.2812 449.106 64.2812C450.252 64.2812 451.25 64.4844 452.099 64.8906C452.953 65.2917 453.617 65.849 454.091 66.5625C454.565 67.276 454.802 68.0937 454.802 69.0156C454.802 69.6198 454.682 70.2161 454.442 70.8047C454.208 71.3932 453.789 72.0469 453.185 72.7656C452.58 73.4792 451.729 74.3359 450.63 75.3359L448.294 77.625V77.7344H455.013V80.5H443.606ZM463.604 80.7187C462.782 80.7135 461.987 80.5755 461.222 80.3047C460.461 80.0339 459.779 79.5937 459.175 78.9844C458.571 78.375 458.091 77.5677 457.737 76.5625C457.388 75.5573 457.214 74.3229 457.214 72.8594C457.219 71.5156 457.373 70.3151 457.675 69.2578C457.982 68.1953 458.42 67.2943 458.987 66.5547C459.56 65.8151 460.245 65.2526 461.042 64.8672C461.839 64.4766 462.732 64.2812 463.722 64.2812C464.789 64.2812 465.732 64.4896 466.55 64.9063C467.368 65.3177 468.024 65.8776 468.519 66.5859C469.019 67.2943 469.321 68.0885 469.425 68.9687H466.089C465.959 68.4115 465.685 67.974 465.269 67.6563C464.852 67.3385 464.336 67.1797 463.722 67.1797C462.68 67.1797 461.888 67.6328 461.347 68.5391C460.81 69.4453 460.537 70.6771 460.526 72.2344H460.636C460.875 71.7604 461.198 71.3568 461.604 71.0234C462.016 70.6849 462.482 70.4271 463.003 70.25C463.529 70.0677 464.084 69.9766 464.667 69.9766C465.615 69.9766 466.459 70.2005 467.198 70.6484C467.938 71.0911 468.521 71.7005 468.948 72.4766C469.375 73.2526 469.589 74.1406 469.589 75.1406C469.589 76.224 469.336 77.1875 468.831 78.0312C468.331 78.875 467.631 79.5365 466.729 80.0156C465.834 80.4896 464.792 80.724 463.604 80.7187ZM463.589 78.0625C464.11 78.0625 464.576 77.9375 464.987 77.6875C465.399 77.4375 465.722 77.099 465.956 76.6719C466.19 76.2448 466.308 75.7656 466.308 75.2344C466.308 74.7031 466.19 74.2266 465.956 73.8047C465.727 73.3828 465.409 73.0469 465.003 72.7969C464.597 72.5469 464.133 72.4219 463.612 72.4219C463.222 72.4219 462.86 72.4948 462.526 72.6406C462.198 72.7865 461.909 72.9896 461.659 73.25C461.414 73.5104 461.222 73.8125 461.081 74.1562C460.94 74.4948 460.87 74.8568 460.87 75.2422C460.87 75.7578 460.987 76.2292 461.222 76.6562C461.461 77.0833 461.784 77.4245 462.19 77.6797C462.602 77.9349 463.068 78.0625 463.589 78.0625Z" fill="white"/>
<path d="M395.617 80.5V78.0625L401.313 72.7891C401.797 72.3203 402.203 71.8984 402.531 71.5234C402.865 71.1484 403.117 70.7812 403.289 70.4219C403.461 70.0573 403.547 69.6641 403.547 69.2422C403.547 68.7734 403.44 68.3698 403.227 68.0312C403.013 67.6875 402.721 67.4245 402.352 67.2422C401.982 67.0547 401.563 66.9609 401.094 66.9609C400.604 66.9609 400.177 67.0599 399.813 67.2578C399.448 67.4557 399.167 67.7396 398.969 68.1094C398.771 68.4792 398.672 68.9193 398.672 69.4297H395.461C395.461 68.3828 395.698 67.474 396.172 66.7031C396.646 65.9323 397.31 65.3359 398.164 64.9141C399.018 64.4922 400.003 64.2812 401.117 64.2812C402.263 64.2812 403.26 64.4844 404.109 64.8906C404.964 65.2917 405.628 65.849 406.102 66.5625C406.576 67.276 406.813 68.0937 406.813 69.0156C406.813 69.6198 406.693 70.2161 406.453 70.8047C406.219 71.3932 405.799 72.0469 405.195 72.7656C404.591 73.4792 403.74 74.3359 402.641 75.3359L400.305 77.625V77.7344H407.023V80.5H395.617ZM415.389 80.7187C414.222 80.7187 413.183 80.5182 412.271 80.1172C411.365 79.7109 410.649 79.1536 410.123 78.4453C409.602 77.7318 409.334 76.9089 409.318 75.9766H412.725C412.745 76.3672 412.873 76.7109 413.107 77.0078C413.347 77.2995 413.665 77.526 414.061 77.6875C414.456 77.849 414.902 77.9297 415.396 77.9297C415.912 77.9297 416.368 77.8385 416.764 77.6562C417.16 77.474 417.469 77.2214 417.693 76.8984C417.917 76.5755 418.029 76.2031 418.029 75.7812C418.029 75.3542 417.91 74.9766 417.67 74.6484C417.436 74.3151 417.097 74.0547 416.654 73.8672C416.217 73.6797 415.696 73.5859 415.092 73.5859H413.6V71.1016H415.092C415.602 71.1016 416.053 71.013 416.443 70.8359C416.839 70.6589 417.146 70.4141 417.365 70.1016C417.584 69.7839 417.693 69.4141 417.693 68.9922C417.693 68.5911 417.597 68.2396 417.404 67.9375C417.217 67.6302 416.951 67.3906 416.607 67.2187C416.269 67.0469 415.873 66.9609 415.42 66.9609C414.962 66.9609 414.542 67.0443 414.162 67.2109C413.782 67.3724 413.477 67.6042 413.248 67.9062C413.019 68.2083 412.896 68.5625 412.881 68.9687H409.639C409.654 68.0469 409.917 67.2344 410.428 66.5312C410.938 65.8281 411.626 65.2786 412.49 64.8828C413.36 64.4818 414.342 64.2812 415.436 64.2812C416.54 64.2812 417.506 64.4818 418.334 64.8828C419.162 65.2839 419.805 65.8255 420.264 66.5078C420.727 67.1849 420.956 67.9453 420.951 68.7891C420.956 69.6849 420.678 70.4323 420.115 71.0312C419.558 71.6302 418.831 72.0104 417.936 72.1719V72.2969C419.113 72.4479 420.008 72.8568 420.623 73.5234C421.243 74.1849 421.55 75.013 421.545 76.0078C421.55 76.9193 421.287 77.7292 420.756 78.4375C420.23 79.1458 419.503 79.7031 418.576 80.1094C417.649 80.5156 416.587 80.7187 415.389 80.7187Z" fill="white"/>
<path d="M347.295 80.5V78.0625L352.99 72.7891C353.475 72.3203 353.881 71.8984 354.209 71.5234C354.542 71.1484 354.795 70.7812 354.967 70.4219C355.139 70.0573 355.225 69.6641 355.225 69.2422C355.225 68.7734 355.118 68.3698 354.904 68.0312C354.691 67.6875 354.399 67.4245 354.029 67.2422C353.66 67.0547 353.24 66.9609 352.771 66.9609C352.282 66.9609 351.855 67.0599 351.49 67.2578C351.126 67.4557 350.844 67.7396 350.646 68.1094C350.449 68.4792 350.35 68.9193 350.35 69.4297H347.139C347.139 68.3828 347.376 67.474 347.85 66.7031C348.324 65.9323 348.988 65.3359 349.842 64.9141C350.696 64.4922 351.68 64.2812 352.795 64.2812C353.941 64.2812 354.938 64.4844 355.787 64.8906C356.641 65.2917 357.305 65.849 357.779 66.5625C358.253 67.276 358.49 68.0937 358.49 69.0156C358.49 69.6198 358.37 70.2161 358.131 70.8047C357.896 71.3932 357.477 72.0469 356.873 72.7656C356.269 73.4792 355.417 74.3359 354.318 75.3359L351.982 77.625V77.7344H358.701V80.5H347.295ZM367.426 80.8516C366.082 80.8464 364.926 80.5156 363.957 79.8594C362.993 79.2031 362.251 78.2526 361.73 77.0078C361.215 75.763 360.96 74.2656 360.965 72.5156C360.965 70.7708 361.223 69.2839 361.738 68.0547C362.259 66.8255 363.001 65.8906 363.965 65.25C364.934 64.6042 366.087 64.2812 367.426 64.2812C368.764 64.2812 369.915 64.6042 370.879 65.25C371.848 65.8958 372.592 66.8333 373.113 68.0625C373.634 69.2865 373.892 70.7708 373.887 72.5156C373.887 74.2708 373.626 75.7708 373.105 77.0156C372.59 78.2604 371.85 79.2109 370.887 79.8672C369.923 80.5234 368.77 80.8516 367.426 80.8516ZM367.426 78.0469C368.342 78.0469 369.074 77.5859 369.621 76.6641C370.168 75.7422 370.439 74.3594 370.434 72.5156C370.434 71.3021 370.309 70.2917 370.059 69.4844C369.814 68.6771 369.465 68.0703 369.012 67.6641C368.564 67.2578 368.035 67.0547 367.426 67.0547C366.514 67.0547 365.785 67.5104 365.238 68.4219C364.691 69.3333 364.415 70.6979 364.41 72.5156C364.41 73.7448 364.533 74.7708 364.777 75.5937C365.027 76.4115 365.379 77.026 365.832 77.4375C366.285 77.8437 366.816 78.0469 367.426 78.0469Z" fill="white"/>
<path d="M308.834 64.5V80.5H305.451V67.7109H305.357L301.693 70.0078V67.0078L305.654 64.5H308.834ZM313.27 80.5L319.902 67.375V67.2656H312.176V64.5H323.402V67.3047L316.762 80.5H313.27Z" fill="white"/>
<path d="M259.921 64.5V80.5H256.538V67.7109H256.444L252.78 70.0078V67.0078L256.741 64.5H259.921ZM263.481 77.6875V75.0234L270.161 64.5H272.458V68.1875H271.099L266.888 74.8516V74.9766H276.38V77.6875H263.481ZM271.161 80.5V76.875L271.224 75.6953V64.5H274.396V80.5H271.161Z" fill="white"/>
<path d="M213.994 64.5V80.5H210.611V67.7109H210.518L206.854 70.0078V67.0078L210.814 64.5H213.994ZM224.758 64.5V80.5H221.375V67.7109H221.281L217.617 70.0078V67.0078L221.578 64.5H224.758Z" fill="white"/>
<path d="M168.493 80.7187C167.29 80.7187 166.22 80.5234 165.282 80.1328C164.35 79.737 163.618 79.1979 163.087 78.5156C162.556 77.8333 162.29 77.0599 162.29 76.1953C162.29 75.5286 162.441 74.9167 162.743 74.3594C163.05 73.7969 163.467 73.3307 163.993 72.9609C164.519 72.5859 165.108 72.3464 165.759 72.2422V72.1328C164.905 71.9609 164.212 71.5469 163.681 70.8906C163.149 70.2292 162.884 69.4609 162.884 68.5859C162.884 67.7578 163.126 67.0208 163.61 66.375C164.095 65.724 164.759 65.2135 165.603 64.8437C166.451 64.4687 167.415 64.2812 168.493 64.2812C169.571 64.2812 170.532 64.4687 171.376 64.8437C172.225 65.2187 172.892 65.7318 173.376 66.3828C173.86 67.0286 174.105 67.763 174.11 68.5859C174.105 69.4661 173.834 70.2344 173.298 70.8906C172.761 71.5469 172.074 71.9609 171.235 72.1328V72.2422C171.876 72.3464 172.457 72.5859 172.978 72.9609C173.504 73.3307 173.92 73.7969 174.228 74.3594C174.54 74.9167 174.699 75.5286 174.704 76.1953C174.699 77.0599 174.431 77.8333 173.899 78.5156C173.368 79.1979 172.634 79.737 171.696 80.1328C170.764 80.5234 169.696 80.7187 168.493 80.7187ZM168.493 78.2344C169.03 78.2344 169.498 78.138 169.899 77.9453C170.3 77.7474 170.613 77.4766 170.837 77.1328C171.066 76.7839 171.181 76.3828 171.181 75.9297C171.181 75.4661 171.063 75.0573 170.829 74.7031C170.595 74.3438 170.277 74.0625 169.876 73.8594C169.475 73.651 169.014 73.5469 168.493 73.5469C167.978 73.5469 167.517 73.651 167.11 73.8594C166.704 74.0625 166.384 74.3438 166.149 74.7031C165.92 75.0573 165.806 75.4661 165.806 75.9297C165.806 76.3828 165.918 76.7839 166.142 77.1328C166.366 77.4766 166.681 77.7474 167.087 77.9453C167.493 78.138 167.962 78.2344 168.493 78.2344ZM168.493 71.0859C168.941 71.0859 169.34 70.9948 169.688 70.8125C170.037 70.6302 170.311 70.3776 170.509 70.0547C170.707 69.7318 170.806 69.3594 170.806 68.9375C170.806 68.5208 170.707 68.1562 170.509 67.8437C170.311 67.526 170.04 67.2786 169.696 67.1016C169.353 66.9193 168.951 66.8281 168.493 66.8281C168.04 66.8281 167.639 66.9193 167.29 67.1016C166.941 67.2786 166.668 67.526 166.47 67.8437C166.277 68.1562 166.181 68.5208 166.181 68.9375C166.181 69.3594 166.28 69.7318 166.478 70.0547C166.675 70.3776 166.949 70.6302 167.298 70.8125C167.647 70.9948 168.045 71.0859 168.493 71.0859Z" fill="white"/>
<path d="M120.551 80.7187C119.447 80.7187 118.462 80.5156 117.598 80.1094C116.738 79.7031 116.056 79.1432 115.551 78.4297C115.046 77.7161 114.783 76.8984 114.762 75.9766H118.043C118.079 76.5964 118.34 77.099 118.824 77.4844C119.309 77.8698 119.884 78.0625 120.551 78.0625C121.082 78.0625 121.551 77.9453 121.957 77.7109C122.368 77.4714 122.689 77.1406 122.918 76.7188C123.152 76.2917 123.27 75.8021 123.27 75.25C123.27 74.6875 123.15 74.1927 122.91 73.7656C122.676 73.3385 122.35 73.0052 121.934 72.7656C121.517 72.526 121.04 72.4036 120.504 72.3984C120.035 72.3984 119.579 72.4948 119.137 72.6875C118.699 72.8802 118.358 73.1432 118.113 73.4766L115.105 72.9375L115.863 64.5H125.645V67.2656H118.652L118.238 71.2734H118.332C118.613 70.8776 119.038 70.5495 119.605 70.2891C120.173 70.0286 120.809 69.8984 121.512 69.8984C122.475 69.8984 123.335 70.125 124.09 70.5781C124.845 71.0312 125.441 71.6536 125.879 72.4453C126.316 73.2318 126.533 74.138 126.527 75.1641C126.533 76.2422 126.283 77.2005 125.777 78.0391C125.277 78.8724 124.577 79.5286 123.676 80.0078C122.78 80.4818 121.738 80.7187 120.551 80.7187Z" fill="white"/>
<path d="M66.8682 80.5V78.0625L72.5635 72.7891C73.0479 72.3203 73.4541 71.8984 73.7822 71.5234C74.1156 71.1484 74.3682 70.7812 74.54 70.4219C74.7119 70.0573 74.7979 69.6641 74.7979 69.2422C74.7979 68.7734 74.6911 68.3698 74.4775 68.0312C74.264 67.6875 73.9723 67.4245 73.6025 67.2422C73.2327 67.0547 72.8135 66.9609 72.3447 66.9609C71.8551 66.9609 71.4281 67.0599 71.0635 67.2578C70.6989 67.4557 70.4176 67.7396 70.2197 68.1094C70.0218 68.4792 69.9229 68.9193 69.9229 69.4297H66.7119C66.7119 68.3828 66.9489 67.474 67.4229 66.7031C67.8968 65.9323 68.5609 65.3359 69.415 64.9141C70.2692 64.4922 71.2536 64.2812 72.3682 64.2812C73.514 64.2812 74.5114 64.4844 75.3604 64.8906C76.2145 65.2917 76.8786 65.849 77.3525 66.5625C77.8265 67.276 78.0635 68.0937 78.0635 69.0156C78.0635 69.6198 77.9437 70.2161 77.7041 70.8047C77.4697 71.3932 77.0505 72.0469 76.4463 72.7656C75.8421 73.4792 74.9906 74.3359 73.8916 75.3359L71.5557 77.625V77.7344H78.2744V80.5H66.8682Z" fill="white"/>
<path d="M593.198 32.7187C592.032 32.7187 590.993 32.5182 590.081 32.1172C589.175 31.7109 588.459 31.1536 587.933 30.4453C587.412 29.7318 587.144 28.9089 587.128 27.9766H590.534C590.555 28.3672 590.683 28.7109 590.917 29.0078C591.157 29.2995 591.474 29.526 591.87 29.6875C592.266 29.849 592.711 29.9297 593.206 29.9297C593.722 29.9297 594.177 29.8385 594.573 29.6562C594.969 29.474 595.279 29.2214 595.503 28.8984C595.727 28.5755 595.839 28.2031 595.839 27.7812C595.839 27.3542 595.719 26.9766 595.479 26.6484C595.245 26.3151 594.907 26.0547 594.464 25.8672C594.026 25.6797 593.506 25.5859 592.901 25.5859H591.409V23.1016H592.901C593.412 23.1016 593.862 23.013 594.253 22.8359C594.649 22.6589 594.956 22.4141 595.175 22.1016C595.394 21.7839 595.503 21.4141 595.503 20.9922C595.503 20.5911 595.407 20.2396 595.214 19.9375C595.026 19.6302 594.761 19.3906 594.417 19.2187C594.078 19.0469 593.683 18.9609 593.229 18.9609C592.771 18.9609 592.352 19.0443 591.972 19.2109C591.591 19.3724 591.287 19.6042 591.058 19.9062C590.828 20.2083 590.706 20.5625 590.69 20.9687H587.448C587.464 20.0469 587.727 19.2344 588.237 18.5312C588.748 17.8281 589.435 17.2786 590.3 16.8828C591.17 16.4818 592.151 16.2812 593.245 16.2812C594.349 16.2812 595.315 16.4818 596.144 16.8828C596.972 17.2839 597.615 17.8255 598.073 18.5078C598.537 19.1849 598.766 19.9453 598.761 20.7891C598.766 21.6849 598.487 22.4323 597.925 23.0312C597.368 23.6302 596.641 24.0104 595.745 24.1719V24.2969C596.922 24.4479 597.818 24.8568 598.433 25.5234C599.052 26.1849 599.36 27.013 599.354 28.0078C599.36 28.9193 599.097 29.7292 598.565 30.4375C598.039 31.1458 597.313 31.7031 596.386 32.1094C595.459 32.5156 594.396 32.7187 593.198 32.7187ZM607.927 32.7187C607.104 32.7135 606.31 32.5755 605.544 32.3047C604.784 32.0339 604.101 31.5937 603.497 30.9844C602.893 30.375 602.414 29.5677 602.06 28.5625C601.711 27.5573 601.536 26.3229 601.536 24.8594C601.541 23.5156 601.695 22.3151 601.997 21.2578C602.304 20.1953 602.742 19.2943 603.31 18.5547C603.882 17.8151 604.567 17.2526 605.364 16.8672C606.161 16.4766 607.054 16.2812 608.044 16.2812C609.112 16.2812 610.054 16.4896 610.872 16.9063C611.69 17.3177 612.346 17.8776 612.841 18.5859C613.341 19.2943 613.643 20.0885 613.747 20.9687H610.411C610.281 20.4115 610.007 19.974 609.591 19.6563C609.174 19.3385 608.659 19.1797 608.044 19.1797C607.002 19.1797 606.211 19.6328 605.669 20.5391C605.132 21.4453 604.859 22.6771 604.849 24.2344H604.958C605.198 23.7604 605.521 23.3568 605.927 23.0234C606.338 22.6849 606.804 22.4271 607.325 22.25C607.851 22.0677 608.406 21.9766 608.989 21.9766C609.937 21.9766 610.781 22.2005 611.521 22.6484C612.26 23.0911 612.843 23.7005 613.271 24.4766C613.698 25.2526 613.911 26.1406 613.911 27.1406C613.911 28.224 613.659 29.1875 613.153 30.0312C612.653 30.875 611.953 31.5365 611.052 32.0156C610.156 32.4896 609.114 32.724 607.927 32.7187ZM607.911 30.0625C608.432 30.0625 608.898 29.9375 609.31 29.6875C609.721 29.4375 610.044 29.099 610.278 28.6719C610.513 28.2448 610.63 27.7656 610.63 27.2344C610.63 26.7031 610.513 26.2266 610.278 25.8047C610.049 25.3828 609.731 25.0469 609.325 24.7969C608.919 24.5469 608.455 24.4219 607.935 24.4219C607.544 24.4219 607.182 24.4948 606.849 24.6406C606.521 24.7865 606.231 24.9896 605.981 25.25C605.737 25.5104 605.544 25.8125 605.403 26.1562C605.263 26.4948 605.192 26.8568 605.192 27.2422C605.192 27.7578 605.31 28.2292 605.544 28.6562C605.784 29.0833 606.106 29.4245 606.513 29.6797C606.924 29.9349 607.39 30.0625 607.911 30.0625Z" fill="white"/>
<path d="M545.209 32.7187C544.042 32.7187 543.003 32.5182 542.092 32.1172C541.186 31.7109 540.469 31.1536 539.943 30.4453C539.423 29.7318 539.154 28.9089 539.139 27.9766H542.545C542.566 28.3672 542.693 28.7109 542.928 29.0078C543.167 29.2995 543.485 29.526 543.881 29.6875C544.277 29.849 544.722 29.9297 545.217 29.9297C545.732 29.9297 546.188 29.8385 546.584 29.6562C546.98 29.474 547.29 29.2214 547.514 28.8984C547.738 28.5755 547.85 28.2031 547.85 27.7812C547.85 27.3542 547.73 26.9766 547.49 26.6484C547.256 26.3151 546.917 26.0547 546.475 25.8672C546.037 25.6797 545.516 25.5859 544.912 25.5859H543.42V23.1016H544.912C545.423 23.1016 545.873 23.013 546.264 22.8359C546.66 22.6589 546.967 22.4141 547.186 22.1016C547.404 21.7839 547.514 21.4141 547.514 20.9922C547.514 20.5911 547.417 20.2396 547.225 19.9375C547.037 19.6302 546.771 19.3906 546.428 19.2187C546.089 19.0469 545.693 18.9609 545.24 18.9609C544.782 18.9609 544.363 19.0443 543.982 19.2109C543.602 19.3724 543.298 19.6042 543.068 19.9062C542.839 20.2083 542.717 20.5625 542.701 20.9687H539.459C539.475 20.0469 539.738 19.2344 540.248 18.5312C540.758 17.8281 541.446 17.2786 542.311 16.8828C543.18 16.4818 544.162 16.2812 545.256 16.2812C546.36 16.2812 547.326 16.4818 548.154 16.8828C548.982 17.2839 549.626 17.8255 550.084 18.5078C550.548 19.1849 550.777 19.9453 550.771 20.7891C550.777 21.6849 550.498 22.4323 549.936 23.0312C549.378 23.6302 548.652 24.0104 547.756 24.1719V24.2969C548.933 24.4479 549.829 24.8568 550.443 25.5234C551.063 26.1849 551.37 27.013 551.365 28.0078C551.37 28.9193 551.107 29.7292 550.576 30.4375C550.05 31.1458 549.324 31.7031 548.396 32.1094C547.469 32.5156 546.407 32.7187 545.209 32.7187ZM559.711 32.7187C558.544 32.7187 557.505 32.5182 556.594 32.1172C555.688 31.7109 554.971 31.1536 554.445 30.4453C553.924 29.7318 553.656 28.9089 553.641 27.9766H557.047C557.068 28.3672 557.195 28.7109 557.43 29.0078C557.669 29.2995 557.987 29.526 558.383 29.6875C558.779 29.849 559.224 29.9297 559.719 29.9297C560.234 29.9297 560.69 29.8385 561.086 29.6562C561.482 29.474 561.792 29.2214 562.016 28.8984C562.24 28.5755 562.352 28.2031 562.352 27.7812C562.352 27.3542 562.232 26.9766 561.992 26.6484C561.758 26.3151 561.419 26.0547 560.977 25.8672C560.539 25.6797 560.018 25.5859 559.414 25.5859H557.922V23.1016H559.414C559.924 23.1016 560.375 23.013 560.766 22.8359C561.161 22.6589 561.469 22.4141 561.688 22.1016C561.906 21.7839 562.016 21.4141 562.016 20.9922C562.016 20.5911 561.919 20.2396 561.727 19.9375C561.539 19.6302 561.273 19.3906 560.93 19.2187C560.591 19.0469 560.195 18.9609 559.742 18.9609C559.284 18.9609 558.865 19.0443 558.484 19.2109C558.104 19.3724 557.799 19.6042 557.57 19.9062C557.341 20.2083 557.219 20.5625 557.203 20.9687H553.961C553.977 20.0469 554.24 19.2344 554.75 18.5312C555.26 17.8281 555.948 17.2786 556.813 16.8828C557.682 16.4818 558.664 16.2812 559.758 16.2812C560.862 16.2812 561.828 16.4818 562.656 16.8828C563.484 17.2839 564.128 17.8255 564.586 18.5078C565.049 19.1849 565.279 19.9453 565.273 20.7891C565.279 21.6849 565 22.4323 564.437 23.0312C563.88 23.6302 563.154 24.0104 562.258 24.1719V24.2969C563.435 24.4479 564.331 24.8568 564.945 25.5234C565.565 26.1849 565.872 27.013 565.867 28.0078C565.872 28.9193 565.609 29.7292 565.078 30.4375C564.552 31.1458 563.826 31.7031 562.898 32.1094C561.971 32.5156 560.909 32.7187 559.711 32.7187Z" fill="white"/>
<path d="M496.887 32.7187C495.72 32.7187 494.681 32.5182 493.77 32.1172C492.863 31.7109 492.147 31.1536 491.621 30.4453C491.1 29.7318 490.832 28.9089 490.816 27.9766H494.223C494.243 28.3672 494.371 28.7109 494.605 29.0078C494.845 29.2995 495.163 29.526 495.559 29.6875C495.954 29.849 496.4 29.9297 496.895 29.9297C497.41 29.9297 497.866 29.8385 498.262 29.6562C498.658 29.474 498.967 29.2214 499.191 28.8984C499.415 28.5755 499.527 28.2031 499.527 27.7812C499.527 27.3542 499.408 26.9766 499.168 26.6484C498.934 26.3151 498.595 26.0547 498.152 25.8672C497.715 25.6797 497.194 25.5859 496.59 25.5859H495.098V23.1016H496.59C497.1 23.1016 497.551 23.013 497.941 22.8359C498.337 22.6589 498.645 22.4141 498.863 22.1016C499.082 21.7839 499.191 21.4141 499.191 20.9922C499.191 20.5911 499.095 20.2396 498.902 19.9375C498.715 19.6302 498.449 19.3906 498.105 19.2187C497.767 19.0469 497.371 18.9609 496.918 18.9609C496.46 18.9609 496.04 19.0443 495.66 19.2109C495.28 19.3724 494.975 19.6042 494.746 19.9062C494.517 20.2083 494.395 20.5625 494.379 20.9687H491.137C491.152 20.0469 491.415 19.2344 491.926 18.5312C492.436 17.8281 493.124 17.2786 493.988 16.8828C494.858 16.4818 495.84 16.2812 496.934 16.2812C498.038 16.2812 499.004 16.4818 499.832 16.8828C500.66 17.2839 501.303 17.8255 501.762 18.5078C502.225 19.1849 502.454 19.9453 502.449 20.7891C502.454 21.6849 502.176 22.4323 501.613 23.0312C501.056 23.6302 500.329 24.0104 499.434 24.1719V24.2969C500.611 24.4479 501.507 24.8568 502.121 25.5234C502.741 26.1849 503.048 27.013 503.043 28.0078C503.048 28.9193 502.785 29.7292 502.254 30.4375C501.728 31.1458 501.001 31.7031 500.074 32.1094C499.147 32.5156 498.085 32.7187 496.887 32.7187ZM511.748 32.8516C510.404 32.8464 509.248 32.5156 508.279 31.8594C507.316 31.2031 506.574 30.2526 506.053 29.0078C505.537 27.763 505.282 26.2656 505.287 24.5156C505.287 22.7708 505.545 21.2839 506.061 20.0547C506.581 18.8255 507.324 17.8906 508.287 17.25C509.256 16.6042 510.41 16.2812 511.748 16.2812C513.087 16.2812 514.238 16.6042 515.201 17.25C516.17 17.8958 516.915 18.8333 517.436 20.0625C517.956 21.2865 518.214 22.7708 518.209 24.5156C518.209 26.2708 517.949 27.7708 517.428 29.0156C516.912 30.2604 516.173 31.2109 515.209 31.8672C514.245 32.5234 513.092 32.8516 511.748 32.8516ZM511.748 30.0469C512.665 30.0469 513.396 29.5859 513.943 28.6641C514.49 27.7422 514.761 26.3594 514.756 24.5156C514.756 23.3021 514.631 22.2917 514.381 21.4844C514.136 20.6771 513.787 20.0703 513.334 19.6641C512.886 19.2578 512.357 19.0547 511.748 19.0547C510.837 19.0547 510.107 19.5104 509.561 20.4219C509.014 21.3333 508.738 22.6979 508.732 24.5156C508.732 25.7448 508.855 26.7708 509.1 27.5937C509.35 28.4115 509.701 29.026 510.154 29.4375C510.607 29.8437 511.139 30.0469 511.748 30.0469Z" fill="white"/>
<path d="M444.326 32.5V30.0625L450.021 24.7891C450.506 24.3203 450.912 23.8984 451.24 23.5234C451.574 23.1484 451.826 22.7812 451.998 22.4219C452.17 22.0573 452.256 21.6641 452.256 21.2422C452.256 20.7734 452.149 20.3698 451.936 20.0312C451.722 19.6875 451.43 19.4245 451.061 19.2422C450.691 19.0547 450.271 18.9609 449.803 18.9609C449.313 18.9609 448.886 19.0599 448.521 19.2578C448.157 19.4557 447.876 19.7396 447.678 20.1094C447.48 20.4792 447.381 20.9193 447.381 21.4297H444.17C444.17 20.3828 444.407 19.474 444.881 18.7031C445.355 17.9323 446.019 17.3359 446.873 16.9141C447.727 16.4922 448.712 16.2812 449.826 16.2812C450.972 16.2812 451.969 16.4844 452.818 16.8906C453.673 17.2917 454.337 17.849 454.811 18.5625C455.285 19.276 455.521 20.0937 455.521 21.0156C455.521 21.6198 455.402 22.2161 455.162 22.8047C454.928 23.3932 454.508 24.0469 453.904 24.7656C453.3 25.4792 452.449 26.3359 451.35 27.3359L449.014 29.625V29.7344H455.732V32.5H444.326ZM458.816 32.5L465.449 19.375V19.2656H457.723V16.5H468.949V19.3047L462.309 32.5H458.816Z" fill="white"/>
<path d="M395.585 32.5V30.0625L401.28 24.7891C401.765 24.3203 402.171 23.8984 402.499 23.5234C402.832 23.1484 403.085 22.7812 403.257 22.4219C403.429 22.0573 403.515 21.6641 403.515 21.2422C403.515 20.7734 403.408 20.3698 403.194 20.0312C402.981 19.6875 402.689 19.4245 402.319 19.2422C401.95 19.0547 401.53 18.9609 401.062 18.9609C400.572 18.9609 400.145 19.0599 399.78 19.2578C399.416 19.4557 399.134 19.7396 398.937 20.1094C398.739 20.4792 398.64 20.9193 398.64 21.4297H395.429C395.429 20.3828 395.666 19.474 396.14 18.7031C396.614 17.9323 397.278 17.3359 398.132 16.9141C398.986 16.4922 399.97 16.2812 401.085 16.2812C402.231 16.2812 403.228 16.4844 404.077 16.8906C404.931 17.2917 405.595 17.849 406.069 18.5625C406.543 19.276 406.78 20.0937 406.78 21.0156C406.78 21.6198 406.66 22.2161 406.421 22.8047C406.187 23.3932 405.767 24.0469 405.163 24.7656C404.559 25.4792 403.707 26.3359 402.608 27.3359L400.272 29.625V29.7344H406.991V32.5H395.585ZM408.856 29.6875V27.0234L415.536 16.5H417.833V20.1875H416.474L412.263 26.8516V26.9766H421.755V29.6875H408.856ZM416.536 32.5V28.875L416.599 27.6953V16.5H419.771V32.5H416.536Z" fill="white"/>
<path d="M349.486 32.5V30.0625L355.182 24.7891C355.666 24.3203 356.072 23.8984 356.4 23.5234C356.734 23.1484 356.986 22.7812 357.158 22.4219C357.33 22.0573 357.416 21.6641 357.416 21.2422C357.416 20.7734 357.309 20.3698 357.096 20.0312C356.882 19.6875 356.59 19.4245 356.221 19.2422C355.851 19.0547 355.432 18.9609 354.963 18.9609C354.473 18.9609 354.046 19.0599 353.682 19.2578C353.317 19.4557 353.036 19.7396 352.838 20.1094C352.64 20.4792 352.541 20.9193 352.541 21.4297H349.33C349.33 20.3828 349.567 19.474 350.041 18.7031C350.515 17.9323 351.179 17.3359 352.033 16.9141C352.887 16.4922 353.872 16.2812 354.986 16.2812C356.132 16.2812 357.13 16.4844 357.979 16.8906C358.833 17.2917 359.497 17.849 359.971 18.5625C360.445 19.276 360.682 20.0937 360.682 21.0156C360.682 21.6198 360.562 22.2161 360.322 22.8047C360.088 23.3932 359.669 24.0469 359.064 24.7656C358.46 25.4792 357.609 26.3359 356.51 27.3359L354.174 29.625V29.7344H360.893V32.5H349.486ZM370.305 16.5V32.5H366.922V19.7109H366.828L363.164 22.0078V19.0078L367.125 16.5H370.305Z" fill="white"/>
<path d="M308.104 16.5V32.5H304.721V19.7109H304.627L300.963 22.0078V19.0078L304.924 16.5H308.104ZM317.875 32.7187C316.672 32.7187 315.602 32.5234 314.664 32.1328C313.732 31.737 313 31.1979 312.469 30.5156C311.938 29.8333 311.672 29.0599 311.672 28.1953C311.672 27.5286 311.823 26.9167 312.125 26.3594C312.432 25.7969 312.849 25.3307 313.375 24.9609C313.901 24.5859 314.49 24.3464 315.141 24.2422V24.1328C314.286 23.9609 313.594 23.5469 313.063 22.8906C312.531 22.2292 312.266 21.4609 312.266 20.5859C312.266 19.7578 312.508 19.0208 312.992 18.375C313.477 17.724 314.141 17.2135 314.984 16.8437C315.833 16.4687 316.797 16.2812 317.875 16.2812C318.953 16.2812 319.914 16.4687 320.758 16.8437C321.607 17.2187 322.273 17.7318 322.758 18.3828C323.242 19.0286 323.487 19.763 323.492 20.5859C323.487 21.4661 323.216 22.2344 322.68 22.8906C322.143 23.5469 321.456 23.9609 320.617 24.1328V24.2422C321.258 24.3464 321.839 24.5859 322.359 24.9609C322.885 25.3307 323.302 25.7969 323.609 26.3594C323.922 26.9167 324.081 27.5286 324.086 28.1953C324.081 29.0599 323.813 29.8333 323.281 30.5156C322.75 31.1979 322.016 31.737 321.078 32.1328C320.146 32.5234 319.078 32.7187 317.875 32.7187ZM317.875 30.2344C318.411 30.2344 318.88 30.138 319.281 29.9453C319.682 29.7474 319.995 29.4766 320.219 29.1328C320.448 28.7839 320.563 28.3828 320.563 27.9297C320.563 27.4661 320.445 27.0573 320.211 26.7031C319.977 26.3438 319.659 26.0625 319.258 25.8594C318.857 25.651 318.396 25.5469 317.875 25.5469C317.359 25.5469 316.898 25.651 316.492 25.8594C316.086 26.0625 315.766 26.3438 315.531 26.7031C315.302 27.0573 315.188 27.4661 315.188 27.9297C315.188 28.3828 315.299 28.7839 315.523 29.1328C315.747 29.4766 316.063 29.7474 316.469 29.9453C316.875 30.138 317.344 30.2344 317.875 30.2344ZM317.875 23.0859C318.323 23.0859 318.721 22.9948 319.07 22.8125C319.419 22.6302 319.693 22.3776 319.891 22.0547C320.089 21.7318 320.188 21.3594 320.188 20.9375C320.188 20.5208 320.089 20.1562 319.891 19.8437C319.693 19.526 319.422 19.2786 319.078 19.1016C318.734 18.9193 318.333 18.8281 317.875 18.8281C317.422 18.8281 317.021 18.9193 316.672 19.1016C316.323 19.2786 316.049 19.526 315.852 19.8437C315.659 20.1562 315.563 20.5208 315.563 20.9375C315.563 21.3594 315.661 21.7318 315.859 22.0547C316.057 22.3776 316.331 22.6302 316.68 22.8125C317.029 22.9948 317.427 23.0859 317.875 23.0859Z" fill="white"/>
<path d="M260.286 16.5V32.5H256.903V19.7109H256.81L253.146 22.0078V19.0078L257.106 16.5H260.286ZM269.933 32.7187C268.828 32.7187 267.844 32.5156 266.979 32.1094C266.12 31.7031 265.438 31.1432 264.933 30.4297C264.427 29.7161 264.164 28.8984 264.144 27.9766H267.425C267.461 28.5964 267.722 29.099 268.206 29.4844C268.69 29.8698 269.266 30.0625 269.933 30.0625C270.464 30.0625 270.933 29.9453 271.339 29.7109C271.75 29.4714 272.071 29.1406 272.3 28.7188C272.534 28.2917 272.651 27.8021 272.651 27.25C272.651 26.6875 272.532 26.1927 272.292 25.7656C272.058 25.3385 271.732 25.0052 271.315 24.7656C270.899 24.526 270.422 24.4036 269.886 24.3984C269.417 24.3984 268.961 24.4948 268.519 24.6875C268.081 24.8802 267.74 25.1432 267.495 25.4766L264.487 24.9375L265.245 16.5H275.026V19.2656H268.034L267.62 23.2734H267.714C267.995 22.8776 268.42 22.5495 268.987 22.2891C269.555 22.0286 270.19 21.8984 270.894 21.8984C271.857 21.8984 272.716 22.125 273.472 22.5781C274.227 23.0312 274.823 23.6536 275.261 24.4453C275.698 25.2318 275.914 26.138 275.909 27.1641C275.914 28.2422 275.664 29.2005 275.159 30.0391C274.659 30.8724 273.959 31.5286 273.058 32.0078C272.162 32.4818 271.12 32.7187 269.933 32.7187Z" fill="white"/>
<path d="M212.447 16.5V32.5H209.064V19.7109H208.971L205.307 22.0078V19.0078L209.268 16.5H212.447ZM216.25 32.5V30.0625L221.945 24.7891C222.43 24.3203 222.836 23.8984 223.164 23.5234C223.497 23.1484 223.75 22.7812 223.922 22.4219C224.094 22.0573 224.18 21.6641 224.18 21.2422C224.18 20.7734 224.073 20.3698 223.859 20.0312C223.646 19.6875 223.354 19.4245 222.984 19.2422C222.615 19.0547 222.195 18.9609 221.727 18.9609C221.237 18.9609 220.81 19.0599 220.445 19.2578C220.081 19.4557 219.799 19.7396 219.602 20.1094C219.404 20.4792 219.305 20.9193 219.305 21.4297H216.094C216.094 20.3828 216.331 19.474 216.805 18.7031C217.279 17.9323 217.943 17.3359 218.797 16.9141C219.651 16.4922 220.635 16.2812 221.75 16.2812C222.896 16.2812 223.893 16.4844 224.742 16.8906C225.596 17.2917 226.26 17.849 226.734 18.5625C227.208 19.276 227.445 20.0937 227.445 21.0156C227.445 21.6198 227.326 22.2161 227.086 22.8047C226.852 23.3932 226.432 24.0469 225.828 24.7656C225.224 25.4792 224.372 26.3359 223.273 27.3359L220.938 29.625V29.7344H227.656V32.5H216.25Z" fill="white"/>
<path d="M168.324 16.2812C169.147 16.2812 169.939 16.4193 170.699 16.6953C171.465 16.9714 172.147 17.4115 172.746 18.0156C173.35 18.6198 173.827 19.4219 174.176 20.4219C174.53 21.4167 174.71 22.638 174.715 24.0859C174.715 25.4453 174.561 26.6589 174.254 27.7266C173.952 28.7891 173.517 29.6927 172.949 30.4375C172.382 31.1823 171.697 31.75 170.895 32.1406C170.092 32.526 169.197 32.7187 168.207 32.7187C167.139 32.7187 166.197 32.513 165.379 32.1016C164.561 31.6849 163.902 31.1198 163.402 30.4062C162.908 29.6875 162.608 28.8802 162.504 27.9844H165.84C165.97 28.5677 166.243 29.0208 166.66 29.3438C167.077 29.6615 167.592 29.8203 168.207 29.8203C169.249 29.8203 170.04 29.3672 170.582 28.4609C171.124 27.5495 171.397 26.3021 171.402 24.7187H171.293C171.053 25.1875 170.73 25.5911 170.324 25.9297C169.918 26.263 169.452 26.5208 168.926 26.7031C168.405 26.8854 167.85 26.9766 167.262 26.9766C166.319 26.9766 165.478 26.7552 164.738 26.3125C163.999 25.8698 163.415 25.2604 162.988 24.4844C162.561 23.7083 162.348 22.8229 162.348 21.8281C162.342 20.7552 162.59 19.7995 163.09 18.9609C163.59 18.1224 164.288 17.4661 165.184 16.9922C166.085 16.513 167.132 16.276 168.324 16.2812ZM168.348 18.9375C167.822 18.9375 167.353 19.0625 166.941 19.3125C166.535 19.5625 166.212 19.8984 165.973 20.3203C165.738 20.7422 165.624 21.2135 165.629 21.7344C165.629 22.2604 165.743 22.7344 165.973 23.1562C166.207 23.5729 166.525 23.9062 166.926 24.1562C167.332 24.401 167.796 24.5234 168.316 24.5234C168.707 24.5234 169.069 24.4505 169.402 24.3047C169.736 24.1589 170.025 23.9583 170.27 23.7031C170.52 23.4427 170.715 23.1432 170.855 22.8047C170.996 22.4661 171.066 22.1068 171.066 21.7266C171.061 21.2214 170.941 20.7578 170.707 20.3359C170.473 19.9141 170.15 19.5755 169.738 19.3203C169.327 19.0651 168.863 18.9375 168.348 18.9375Z" fill="white"/>
<path d="M120.676 32.7187C119.853 32.7135 119.059 32.5755 118.293 32.3047C117.533 32.0339 116.85 31.5937 116.246 30.9844C115.642 30.375 115.163 29.5677 114.809 28.5625C114.46 27.5573 114.285 26.3229 114.285 24.8594C114.29 23.5156 114.444 22.3151 114.746 21.2578C115.053 20.1953 115.491 19.2943 116.059 18.5547C116.632 17.8151 117.316 17.2526 118.113 16.8672C118.91 16.4766 119.803 16.2812 120.793 16.2812C121.861 16.2812 122.803 16.4896 123.621 16.9063C124.439 17.3177 125.095 17.8776 125.59 18.5859C126.09 19.2943 126.392 20.0885 126.496 20.9687H123.16C123.03 20.4115 122.757 19.974 122.34 19.6563C121.923 19.3385 121.408 19.1797 120.793 19.1797C119.751 19.1797 118.96 19.6328 118.418 20.5391C117.882 21.4453 117.608 22.6771 117.598 24.2344H117.707C117.947 23.7604 118.27 23.3568 118.676 23.0234C119.087 22.6849 119.553 22.4271 120.074 22.25C120.6 22.0677 121.155 21.9766 121.738 21.9766C122.686 21.9766 123.53 22.2005 124.27 22.6484C125.009 23.0911 125.592 23.7005 126.02 24.4766C126.447 25.2526 126.66 26.1406 126.66 27.1406C126.66 28.224 126.408 29.1875 125.902 30.0312C125.402 30.875 124.702 31.5365 123.801 32.0156C122.905 32.4896 121.863 32.724 120.676 32.7187ZM120.66 30.0625C121.181 30.0625 121.647 29.9375 122.059 29.6875C122.47 29.4375 122.793 29.099 123.027 28.6719C123.262 28.2448 123.379 27.7656 123.379 27.2344C123.379 26.7031 123.262 26.2266 123.027 25.8047C122.798 25.3828 122.48 25.0469 122.074 24.7969C121.668 24.5469 121.204 24.4219 120.684 24.4219C120.293 24.4219 119.931 24.4948 119.598 24.6406C119.27 24.7865 118.98 24.9896 118.73 25.25C118.486 25.5104 118.293 25.8125 118.152 26.1562C118.012 26.4948 117.941 26.8568 117.941 27.2422C117.941 27.7578 118.059 28.2292 118.293 28.6562C118.533 29.0833 118.855 29.4245 119.262 29.6797C119.673 29.9349 120.139 30.0625 120.66 30.0625Z" fill="white"/>
<path d="M72.46 32.7187C71.2933 32.7187 70.2542 32.5182 69.3428 32.1172C68.4365 31.7109 67.7204 31.1536 67.1943 30.4453C66.6735 29.7318 66.4053 28.9089 66.3896 27.9766H69.7959C69.8167 28.3672 69.9443 28.7109 70.1787 29.0078C70.4183 29.2995 70.736 29.526 71.1318 29.6875C71.5277 29.849 71.973 29.9297 72.4678 29.9297C72.9834 29.9297 73.4391 29.8385 73.835 29.6562C74.2308 29.474 74.5407 29.2214 74.7646 28.8984C74.9886 28.5755 75.1006 28.2031 75.1006 27.7812C75.1006 27.3542 74.9808 26.9766 74.7412 26.6484C74.5068 26.3151 74.1683 26.0547 73.7256 25.8672C73.2881 25.6797 72.7673 25.5859 72.1631 25.5859H70.6709V23.1016H72.1631C72.6735 23.1016 73.124 23.013 73.5146 22.8359C73.9105 22.6589 74.2178 22.4141 74.4365 22.1016C74.6553 21.7839 74.7646 21.4141 74.7646 20.9922C74.7646 20.5911 74.6683 20.2396 74.4756 19.9375C74.2881 19.6302 74.0225 19.3906 73.6787 19.2187C73.3402 19.0469 72.9443 18.9609 72.4912 18.9609C72.0329 18.9609 71.6136 19.0443 71.2334 19.2109C70.8532 19.3724 70.5485 19.6042 70.3193 19.9062C70.0902 20.2083 69.9678 20.5625 69.9521 20.9687H66.71C66.7256 20.0469 66.9886 19.2344 67.499 18.5312C68.0094 17.8281 68.6969 17.2786 69.5615 16.8828C70.4313 16.4818 71.4131 16.2812 72.5068 16.2812C73.611 16.2812 74.5771 16.4818 75.4053 16.8828C76.2334 17.2839 76.8766 17.8255 77.335 18.5078C77.7985 19.1849 78.0277 19.9453 78.0225 20.7891C78.0277 21.6849 77.749 22.4323 77.1865 23.0312C76.6292 23.6302 75.9027 24.0104 75.0068 24.1719V24.2969C76.1839 24.4479 77.0798 24.8568 77.6943 25.5234C78.3141 26.1849 78.6214 27.013 78.6162 28.0078C78.6214 28.9193 78.3584 29.7292 77.8271 30.4375C77.3011 31.1458 76.5745 31.7031 75.6475 32.1094C74.7204 32.5156 73.6579 32.7187 72.46 32.7187Z" fill="white"/>
<path d="M24.4971 80.8516C23.1533 80.8464 21.9971 80.5156 21.0283 79.8594C20.0648 79.2031 19.3226 78.2526 18.8018 77.0078C18.2861 75.763 18.0309 74.2656 18.0361 72.5156C18.0361 70.7708 18.2939 69.2839 18.8096 68.0547C19.3304 66.8255 20.0726 65.8906 21.0361 65.25C22.0049 64.6042 23.1585 64.2812 24.4971 64.2812C25.8356 64.2812 26.9867 64.6042 27.9502 65.25C28.9189 65.8958 29.6637 66.8333 30.1846 68.0625C30.7054 69.2865 30.9632 70.7708 30.958 72.5156C30.958 74.2708 30.6976 75.7708 30.1768 77.0156C29.6611 78.2604 28.9216 79.2109 27.958 79.8672C26.9945 80.5234 25.8408 80.8516 24.4971 80.8516ZM24.4971 78.0469C25.4137 78.0469 26.1455 77.5859 26.6924 76.6641C27.2393 75.7422 27.5101 74.3594 27.5049 72.5156C27.5049 71.3021 27.3799 70.2917 27.1299 69.4844C26.8851 68.6771 26.5361 68.0703 26.083 67.6641C25.6351 67.2578 25.1064 67.0547 24.4971 67.0547C23.5856 67.0547 22.8564 67.5104 22.3096 68.4219C21.7627 69.3333 21.4867 70.6979 21.4814 72.5156C21.4814 73.7448 21.6038 74.7708 21.8486 75.5937C22.0986 76.4115 22.4502 77.026 22.9033 77.4375C23.3564 77.8437 23.8877 78.0469 24.4971 78.0469Z" fill="white"/>
</svg>
