<svg width="386" height="154" viewBox="0 0 386 154" fill="none" xmlns="http://www.w3.org/2000/svg">
<g clip-path="url(#clip0_6000_612380)">
<mask id="path-3-inside-1_6000_612380" fill="white">
<path d="M0 8C0 3.58172 3.58172 0 8 0H378C382.418 0 386 3.58172 386 8V34H0V8Z"/>
</mask>
<path d="M0 8C0 3.58172 3.58172 0 8 0H378C382.418 0 386 3.58172 386 8V34H0V8Z" fill="#030303" fill-opacity="0.62"/>
<path d="M0 0H386H0ZM386 35H0V33H386V35ZM0 34V0V34ZM386 0V34V0Z" fill="#3A3C44" mask="url(#path-3-inside-1_6000_612380)"/>
<path d="M133 12.6665H137.666C138.035 12.6665 138.333 12.965 138.333 13.3332V16.6665C138.333 17.0347 138.035 17.3332 137.666 17.3332H133C132.631 17.3332 132.333 17.0347 132.333 16.6665V13.3332C132.333 12.965 132.631 12.6665 133 12.6665Z" fill="white"/>
<path d="M133 18.6665H137.666C138.035 18.6665 138.333 18.965 138.333 19.3332V22.6665C138.333 23.0347 138.035 23.3332 137.666 23.3332H133C132.631 23.3332 132.333 23.0347 132.333 22.6665V19.3332C132.333 18.965 132.631 18.6665 133 18.6665Z" fill="white"/>
<path d="M145 12.6665H140.333C139.965 12.6665 139.666 12.965 139.666 13.3332V16.6665C139.666 17.0347 139.965 17.3332 140.333 17.3332H145C145.368 17.3332 145.666 17.0347 145.666 16.6665V13.3332C145.666 12.965 145.368 12.6665 145 12.6665Z" fill="white"/>
<path d="M140.333 18.6665H145C145.368 18.6665 145.666 18.965 145.666 19.3332V22.6665C145.666 23.0347 145.368 23.3332 145 23.3332H140.333C139.965 23.3332 139.666 23.0347 139.666 22.6665V19.3332C139.666 18.965 139.965 18.6665 140.333 18.6665Z" fill="white"/>
<line x1="127" y1="33" x2="151" y2="33" stroke="white" stroke-width="2"/>
<path d="M178.458 12.6667C177.438 12.6667 176.41 13.1438 175.761 13.8935L175 14.7731L174.238 13.8935C173.59 13.1438 172.562 12.6667 171.541 12.6667C169.673 12.6667 168.333 14.05 168.333 15.7521C168.333 16.8196 168.812 17.8787 169.891 19.1625C170.98 20.4581 172.564 21.8483 174.58 23.5921L175 24.0001L175.42 23.5921C177.436 21.8483 179.019 20.4582 180.108 19.1625C181.188 17.8787 181.666 16.8196 181.666 15.7521C181.666 14.05 180.327 12.6667 178.458 12.6667Z" fill="white" fill-opacity="0.8"/>
<path d="M211.248 11.8348L212.909 16.0215L217.416 16.3021C217.657 16.3171 217.756 16.6187 217.569 16.7722L214.088 19.6403L215.213 24.0005C215.274 24.2339 215.016 24.4203 214.812 24.2911L211 21.8769L207.188 24.2911C206.984 24.4203 206.727 24.2339 206.787 24.0005L207.912 19.6403L204.431 16.7722C204.245 16.6187 204.343 16.3171 204.584 16.3021L209.092 16.0215L210.752 11.8348C210.841 11.6107 211.159 11.6107 211.248 11.8348Z" fill="white" fill-opacity="0.8"/>
<path d="M247 11.3333C246.448 11.3333 246 11.781 246 12.3333V23.6666C246 24.2188 246.448 24.6666 247 24.6666C247.553 24.6666 248 24.2188 248 23.6666V12.3333C248 11.781 247.553 11.3333 247 11.3333Z" fill="white" fill-opacity="0.8"/>
<path d="M250.334 14.6666C249.781 14.6666 249.334 15.1143 249.334 15.6666V23.6666C249.334 24.2188 249.781 24.6666 250.334 24.6666C250.886 24.6666 251.334 24.2188 251.334 23.6666V15.6666C251.334 15.1143 250.886 14.6666 250.334 14.6666Z" fill="white" fill-opacity="0.8"/>
<path d="M243.667 17.9999C243.115 17.9999 242.667 18.4477 242.667 18.9999V23.6666C242.667 24.2188 243.115 24.6666 243.667 24.6666C244.219 24.6666 244.667 24.2188 244.667 23.6666V18.9999C244.667 18.4477 244.219 17.9999 243.667 17.9999Z" fill="white" fill-opacity="0.8"/>
<path d="M0 34H386V146C386 150.418 382.418 154 378 154H7.99999C3.58171 154 0 150.418 0 146V34Z" fill="#030303" fill-opacity="0.62"/>
<path d="M8 50C8 45.5817 11.5817 42 16 42H118C122.418 42 126 45.5817 126 50V106C126 110.418 122.418 114 118 114H16C11.5817 114 8 110.418 8 106V50Z" fill="#1B1B1B" fill-opacity="0.95"/>
<path d="M16 42.75H118C122.004 42.75 125.25 45.9959 125.25 50V106C125.25 110.004 122.004 113.25 118 113.25H16C11.9959 113.25 8.75 110.004 8.75 106V50C8.75 45.9959 11.9959 42.75 16 42.75Z" stroke="url(#paint0_linear_6000_612380)" stroke-opacity="0.2" stroke-width="1.5"/>
<path d="M75.8309 69.8425C75.422 71.1284 74.7485 72.296 73.8669 73.273C73.6999 73.458 73.6989 73.7357 73.8745 73.9123L74.8636 74.9068C75.0497 75.0939 75.3599 75.0944 75.538 74.8996C76.6805 73.6494 77.5475 72.1444 78.0628 70.4827C78.1411 70.2302 77.9859 69.9597 77.7318 69.8912L76.3854 69.5285C76.1455 69.4639 75.9065 69.6046 75.8309 69.8425Z" fill="white"/>
<path d="M58.1688 64.1573C58.5777 62.8714 59.2511 61.7037 60.1328 60.7268C60.2997 60.5418 60.3008 60.2641 60.1252 60.0875L59.1361 59.0929C58.9499 58.9058 58.6398 58.9053 58.4617 59.1002C57.3192 60.3504 56.4522 61.8553 55.9369 63.5171C55.8586 63.7696 56.0138 64.0401 56.2679 64.1085L57.6143 64.4712C57.8542 64.5358 58.0931 64.3951 58.1688 64.1573Z" fill="white"/>
<path d="M55.9369 70.4827C56.4522 72.1443 57.3192 73.6493 58.4617 74.8996C58.6398 75.0944 58.95 75.0939 59.1361 74.9068L60.1252 73.9123C60.3008 73.7357 60.2997 73.4579 60.1328 73.273C59.2511 72.296 58.5777 71.1283 58.1688 69.8425C58.0932 69.6046 57.8542 69.4639 57.6143 69.5285L56.2679 69.8912C56.0138 69.9597 55.8586 70.2302 55.9369 70.4827Z" fill="white"/>
<path d="M73.8669 60.7268C74.7485 61.7037 75.422 62.8714 75.8309 64.1573C75.9065 64.3951 76.1454 64.5358 76.3854 64.4712L77.7318 64.1085C77.9859 64.0401 78.1411 63.7696 78.0628 63.5171C77.5475 61.8553 76.6805 60.3504 75.538 59.1002C75.3599 58.9053 75.0497 58.9058 74.8636 59.0929L73.8745 60.0875C73.6989 60.2641 73.6999 60.5418 73.8669 60.7268Z" fill="white"/>
<path d="M69.5152 76.4387C69.4507 76.1967 69.2107 76.0577 68.9674 76.1119C68.3329 76.2532 67.6761 76.3331 66.9999 76.3331C66.3237 76.3331 65.6669 76.2532 65.0324 76.1119C64.7891 76.0577 64.549 76.1967 64.4845 76.4387L64.1234 77.7938C64.0556 78.048 64.208 78.3153 64.4632 78.3737C65.28 78.5604 66.1268 78.6665 66.9999 78.6665C67.8729 78.6665 68.7198 78.5604 69.5365 78.3737C69.7918 78.3153 69.9441 78.048 69.8764 77.7938L69.5152 76.4387Z" fill="white"/>
<path d="M64.4845 57.561C64.549 57.803 64.7891 57.942 65.0324 57.8878C65.6669 57.7465 66.3237 57.6666 66.9999 57.6666C67.6761 57.6666 68.3329 57.7465 68.9674 57.8878C69.2107 57.942 69.4507 57.803 69.5152 57.561L69.8764 56.2059C69.9441 55.9517 69.7918 55.6844 69.5365 55.6261C68.7198 55.4393 67.8729 55.3333 66.9999 55.3333C66.1268 55.3333 65.28 55.4393 64.4632 55.6261C64.2079 55.6844 64.0556 55.9517 64.1234 56.2059L64.4845 57.561Z" fill="white"/>
<path d="M66.9998 59.9999C70.8387 59.9999 73.9617 63.1402 73.9617 66.9999C73.9617 70.8597 70.8387 73.9999 66.9998 73.9999C63.161 73.9999 60.038 70.8597 60.038 66.9999C60.038 63.1402 63.161 59.9999 66.9998 59.9999ZM66.9998 58.8333C62.5141 58.8333 58.8776 62.4896 58.8776 66.9999C58.8776 71.5102 62.5141 75.1666 66.9998 75.1666C71.4856 75.1666 75.1221 71.5102 75.1221 66.9999C75.1221 62.4896 71.4856 58.8333 66.9998 58.8333Z" fill="white"/>
<path d="M21.2351 100V91.2727H24.7294C25.3714 91.2727 25.907 91.3679 26.3359 91.5582C26.7649 91.7486 27.0874 92.0128 27.3033 92.3509C27.5192 92.6861 27.6271 93.0724 27.6271 93.5099C27.6271 93.8509 27.5589 94.1506 27.4226 94.4091C27.2862 94.6648 27.0987 94.875 26.8601 95.0398C26.6243 95.2017 26.3544 95.3168 26.0504 95.3849V95.4702C26.3828 95.4844 26.6939 95.5781 26.9837 95.7514C27.2763 95.9247 27.5135 96.1676 27.6953 96.4801C27.8771 96.7898 27.968 97.1591 27.968 97.5881C27.968 98.0511 27.853 98.4645 27.6229 98.8281C27.3956 99.1889 27.0589 99.4744 26.6129 99.6847C26.1669 99.8949 25.6172 100 24.9638 100H21.2351ZM23.0803 98.4915H24.5845C25.0987 98.4915 25.4737 98.3935 25.7095 98.1974C25.9453 97.9986 26.0632 97.7344 26.0632 97.4048C26.0632 97.1634 26.005 96.9503 25.8885 96.7656C25.772 96.581 25.6058 96.4361 25.3899 96.331C25.1768 96.2259 24.9226 96.1733 24.6271 96.1733H23.0803V98.4915ZM23.0803 94.9247H24.4482C24.701 94.9247 24.9254 94.8807 25.1214 94.7926C25.3203 94.7017 25.4766 94.5739 25.5902 94.4091C25.7067 94.2443 25.7649 94.0469 25.7649 93.8168C25.7649 93.5014 25.6527 93.2472 25.4283 93.054C25.2067 92.8608 24.8913 92.7642 24.4822 92.7642H23.0803V94.9247ZM34.5593 91.2727H36.4045V96.9403C36.4045 97.5767 36.2525 98.1335 35.9485 98.6108C35.6474 99.0881 35.2255 99.4602 34.6829 99.7273C34.1403 99.9915 33.5082 100.124 32.7866 100.124C32.0621 100.124 31.4286 99.9915 30.886 99.7273C30.3434 99.4602 29.9215 99.0881 29.6204 98.6108C29.3192 98.1335 29.1687 97.5767 29.1687 96.9403V91.2727H31.0138V96.7827C31.0138 97.1151 31.0863 97.4105 31.2312 97.669C31.3789 97.9276 31.5863 98.1307 31.8533 98.2784C32.1204 98.4261 32.4315 98.5 32.7866 98.5C33.1445 98.5 33.4556 98.4261 33.7198 98.2784C33.9869 98.1307 34.1928 97.9276 34.3377 97.669C34.4854 97.4105 34.5593 97.1151 34.5593 96.7827V91.2727ZM39.7678 91.2727V100H37.9226V91.2727H39.7678ZM41.2859 100V91.2727H43.131V98.4787H46.8725V100H41.2859ZM51.1882 100H48.0945V91.2727H51.2138C52.0916 91.2727 52.8473 91.4474 53.4808 91.7969C54.1143 92.1435 54.6016 92.642 54.9425 93.2926C55.2862 93.9432 55.4581 94.7216 55.4581 95.6278C55.4581 96.5369 55.2862 97.3182 54.9425 97.9716C54.6016 98.625 54.1115 99.1264 53.4723 99.4759C52.8359 99.8253 52.0746 100 51.1882 100ZM49.9396 98.419H51.1115C51.657 98.419 52.1158 98.3224 52.4879 98.1293C52.8629 97.9332 53.1442 97.6307 53.3317 97.2216C53.522 96.8097 53.6172 96.2784 53.6172 95.6278C53.6172 94.983 53.522 94.456 53.3317 94.0469C53.1442 93.6378 52.8643 93.3366 52.4922 93.1435C52.12 92.9503 51.6612 92.8537 51.1158 92.8537H49.9396V98.419ZM66.902 91.2727V100H65.3082L61.5114 94.5071H61.4474V100H59.6023V91.2727H61.2216L64.9886 96.7614H65.0653V91.2727H66.902ZM68.4265 100V91.2727H74.3072V92.794H70.2717V94.8736H74.0046V96.3949H70.2717V98.4787H74.3242V100H68.4265ZM77.7386 100L75.2415 91.2727H77.2571L78.7017 97.3366H78.7741L80.3679 91.2727H82.0938L83.6832 97.3494H83.7599L85.2045 91.2727H87.2202L84.723 100H82.9247L81.2628 94.294H81.1946L79.5369 100H77.7386ZM90.9851 100V91.2727H94.4794C95.1214 91.2727 95.657 91.3679 96.0859 91.5582C96.5149 91.7486 96.8374 92.0128 97.0533 92.3509C97.2692 92.6861 97.3771 93.0724 97.3771 93.5099C97.3771 93.8509 97.3089 94.1506 97.1726 94.4091C97.0362 94.6648 96.8487 94.875 96.6101 95.0398C96.3743 95.2017 96.1044 95.3168 95.8004 95.3849V95.4702C96.1328 95.4844 96.4439 95.5781 96.7337 95.7514C97.0263 95.9247 97.2635 96.1676 97.4453 96.4801C97.6271 96.7898 97.718 97.1591 97.718 97.5881C97.718 98.0511 97.603 98.4645 97.3729 98.8281C97.1456 99.1889 96.8089 99.4744 96.3629 99.6847C95.9169 99.8949 95.3672 100 94.7138 100H90.9851ZM92.8303 98.4915H94.3345C94.8487 98.4915 95.2237 98.3935 95.4595 98.1974C95.6953 97.9986 95.8132 97.7344 95.8132 97.4048C95.8132 97.1634 95.755 96.9503 95.6385 96.7656C95.522 96.581 95.3558 96.4361 95.1399 96.331C94.9268 96.2259 94.6726 96.1733 94.3771 96.1733H92.8303V98.4915ZM92.8303 94.9247H94.1982C94.451 94.9247 94.6754 94.8807 94.8714 94.7926C95.0703 94.7017 95.2266 94.5739 95.3402 94.4091C95.4567 94.2443 95.5149 94.0469 95.5149 93.8168C95.5149 93.5014 95.4027 93.2472 95.1783 93.054C94.9567 92.8608 94.6413 92.7642 94.2322 92.7642H92.8303V94.9247ZM98.9187 100V91.2727H104.799V92.794H100.764V94.8736H104.497V96.3949H100.764V98.4787H104.816V100H98.9187ZM105.934 92.794V91.2727H113.102V92.794H110.43V100H108.606V92.794H105.934Z" fill="white"/>
<path d="M134 50C134 45.5817 137.582 42 142 42H244C248.418 42 252 45.5817 252 50V106C252 110.418 248.418 114 244 114H142C137.582 114 134 110.418 134 106V50Z" fill="#1B1B1B" fill-opacity="0.95"/>
<path d="M142 42.75H244C248.004 42.75 251.25 45.9959 251.25 50V106C251.25 110.004 248.004 113.25 244 113.25H142C137.996 113.25 134.75 110.004 134.75 106V50C134.75 45.9959 137.996 42.75 142 42.75Z" stroke="url(#paint1_linear_6000_612380)" stroke-opacity="0.2" stroke-width="1.5"/>
<path d="M185.632 68.842C185.632 69.9064 185.847 70.9144 186.277 71.8661C186.706 72.8179 187.321 73.652 188.119 74.3683C188.098 74.266 188.088 74.1739 188.088 74.092V73.8157C188.088 73.1607 188.211 72.5467 188.456 71.9736C188.702 71.4005 189.06 70.8786 189.531 70.4078L193 66.9999L196.47 70.4078C196.94 70.8786 197.299 71.4005 197.544 71.9736C197.79 72.5467 197.913 73.1607 197.913 73.8157V74.092C197.913 74.1739 197.902 74.266 197.882 74.3683C198.68 73.652 199.294 72.8179 199.724 71.8661C200.154 70.9144 200.369 69.9064 200.369 68.842C200.369 67.8186 200.179 66.8515 199.801 65.9407C199.422 65.0299 198.875 64.2163 198.158 63.4999C197.749 63.766 197.319 63.9656 196.869 64.0986C196.418 64.2316 195.958 64.2982 195.487 64.2982C194.218 64.2982 193.118 63.8786 192.187 63.0394C191.255 62.2002 190.718 61.1666 190.575 59.9385C189.777 60.614 189.071 61.315 188.456 62.0416C187.842 62.7682 187.326 63.505 186.906 64.2521C186.486 64.9992 186.169 65.7616 185.954 66.5394C185.739 67.3172 185.632 68.0847 185.632 68.842ZM193 70.4385L191.25 72.1578C191.025 72.383 190.851 72.6388 190.728 72.9254C190.606 73.2119 190.544 73.5087 190.544 73.8157C190.544 74.4707 190.785 75.0335 191.266 75.5043C191.747 75.9751 192.325 76.2104 193 76.2104C193.676 76.2104 194.254 75.9751 194.735 75.5043C195.216 75.0335 195.456 74.4707 195.456 73.8157C195.456 73.4882 195.395 73.1863 195.272 72.91C195.149 72.6337 194.975 72.383 194.75 72.1578L193 70.4385ZM193 55.3333V59.3859C193 60.0818 193.241 60.6651 193.722 61.1359C194.203 61.6066 194.791 61.842 195.487 61.842C195.856 61.842 196.198 61.7653 196.516 61.6118C196.833 61.4583 197.114 61.228 197.36 60.921L197.913 60.2455C199.427 61.1052 200.625 62.3026 201.505 63.8376C202.385 65.3727 202.825 67.0409 202.825 68.842C202.825 71.5847 201.873 73.9078 199.97 75.8113C198.066 77.7148 195.743 78.6666 193 78.6666C190.258 78.6666 187.935 77.7148 186.031 75.8113C184.128 73.9078 183.176 71.5847 183.176 68.842C183.176 66.2017 184.061 63.6944 185.831 61.3201C187.602 58.9458 189.992 56.9502 193 55.3333Z" fill="url(#paint2_linear_6000_612380)"/>
<path d="M145.382 101.129C144.693 101.129 144.079 101.011 143.54 100.774C143.005 100.534 142.581 100.204 142.271 99.7859C141.963 99.3642 141.804 98.878 141.795 98.3271H143.808C143.82 98.5579 143.896 98.761 144.034 98.9364C144.176 99.1088 144.363 99.2427 144.597 99.3381C144.831 99.4335 145.094 99.4812 145.387 99.4812C145.691 99.4812 145.961 99.4273 146.195 99.3196C146.429 99.2119 146.612 99.0626 146.744 98.8718C146.876 98.681 146.942 98.4609 146.942 98.2116C146.942 97.9593 146.872 97.7362 146.73 97.5423C146.592 97.3453 146.392 97.1914 146.13 97.0806C145.871 96.9698 145.564 96.9144 145.207 96.9144H144.325V95.4464H145.207C145.508 95.4464 145.775 95.3941 146.005 95.2894C146.239 95.1848 146.421 95.0401 146.55 94.8555C146.679 94.6677 146.744 94.4492 146.744 94.1999C146.744 93.9629 146.687 93.7552 146.573 93.5767C146.462 93.3951 146.305 93.2536 146.102 93.152C145.902 93.0504 145.668 92.9996 145.401 92.9996C145.13 92.9996 144.882 93.0489 144.657 93.1474C144.433 93.2428 144.253 93.3797 144.117 93.5582C143.982 93.7367 143.909 93.946 143.9 94.1861H141.984C141.994 93.6413 142.149 93.1612 142.451 92.7457C142.752 92.3303 143.158 92.0056 143.669 91.7717C144.183 91.5347 144.763 91.4162 145.41 91.4162C146.062 91.4162 146.633 91.5347 147.123 91.7717C147.612 92.0086 147.992 92.3287 148.263 92.7319C148.537 93.132 148.672 93.5813 148.669 94.0799C148.672 94.6093 148.507 95.0509 148.175 95.4048C147.846 95.7588 147.416 95.9834 146.887 96.0788V96.1527C147.583 96.242 148.112 96.4835 148.475 96.8775C148.841 97.2683 149.023 97.7577 149.02 98.3455C149.023 98.8841 148.868 99.3627 148.554 99.7812C148.243 100.2 147.813 100.529 147.266 100.769C146.718 101.009 146.09 101.129 145.382 101.129ZM150.457 101V99.5597L153.822 96.4435C154.108 96.1665 154.348 95.9173 154.542 95.6957C154.739 95.4741 154.889 95.2571 154.99 95.0447C155.092 94.8293 155.142 94.5969 155.142 94.3477C155.142 94.0707 155.079 93.8321 154.953 93.6321C154.827 93.429 154.655 93.2736 154.436 93.1658C154.218 93.055 153.97 92.9996 153.693 92.9996C153.404 92.9996 153.151 93.0581 152.936 93.1751C152.72 93.292 152.554 93.4598 152.437 93.6783C152.32 93.8968 152.262 94.1568 152.262 94.4585H150.364C150.364 93.8398 150.504 93.3028 150.785 92.8473C151.065 92.3918 151.457 92.0394 151.962 91.7901C152.466 91.5408 153.048 91.4162 153.707 91.4162C154.384 91.4162 154.973 91.5362 155.475 91.7763C155.98 92.0133 156.372 92.3426 156.652 92.7642C156.932 93.1858 157.072 93.669 157.072 94.2138C157.072 94.5708 157.001 94.9232 156.86 95.271C156.721 95.6187 156.474 96.005 156.117 96.4297C155.76 96.8513 155.256 97.3576 154.607 97.9485L153.227 99.3011V99.3658H157.197V101H150.457Z" fill="#FC281E"/>
<path d="M168.902 91.5455V101H166.903V93.4428H166.848L164.683 94.8001V93.0273L167.023 91.5455H168.902ZM174.676 101.129C173.965 101.129 173.333 101.014 172.779 100.783C172.228 100.549 171.795 100.231 171.482 99.8274C171.168 99.4242 171.011 98.9672 171.011 98.4563C171.011 98.0624 171.1 97.7008 171.278 97.3714C171.46 97.0391 171.706 96.7636 172.017 96.5451C172.328 96.3235 172.676 96.1819 173.06 96.1204V96.0558C172.556 95.9542 172.146 95.7095 171.832 95.3217C171.518 94.9309 171.362 94.4769 171.362 93.9599C171.362 93.4705 171.505 93.035 171.791 92.6534C172.077 92.2687 172.469 91.9671 172.968 91.7486C173.47 91.527 174.039 91.4162 174.676 91.4162C175.313 91.4162 175.881 91.527 176.38 91.7486C176.881 91.9702 177.275 92.2733 177.561 92.658C177.848 93.0397 177.992 93.4736 177.995 93.9599C177.992 94.48 177.832 94.9339 177.515 95.3217C177.198 95.7095 176.792 95.9542 176.297 96.0558V96.1204C176.675 96.1819 177.018 96.3235 177.326 96.5451C177.637 96.7636 177.883 97.0391 178.065 97.3714C178.249 97.7008 178.343 98.0624 178.346 98.4563C178.343 98.9672 178.185 99.4242 177.871 99.8274C177.557 100.231 177.123 100.549 176.569 100.783C176.018 101.014 175.387 101.129 174.676 101.129ZM174.676 99.6612C174.993 99.6612 175.27 99.6043 175.507 99.4904C175.744 99.3735 175.929 99.2134 176.061 99.0103C176.196 98.8041 176.264 98.5671 176.264 98.2994C176.264 98.0254 176.195 97.7839 176.056 97.5746C175.918 97.3622 175.73 97.196 175.493 97.076C175.256 96.9529 174.984 96.8913 174.676 96.8913C174.371 96.8913 174.099 96.9529 173.859 97.076C173.619 97.196 173.43 97.3622 173.291 97.5746C173.156 97.7839 173.088 98.0254 173.088 98.2994C173.088 98.5671 173.154 98.8041 173.287 99.0103C173.419 99.2134 173.605 99.3735 173.845 99.4904C174.085 99.6043 174.362 99.6612 174.676 99.6612ZM174.676 95.4371C174.941 95.4371 175.176 95.3833 175.382 95.2756C175.589 95.1679 175.75 95.0186 175.867 94.8278C175.984 94.637 176.043 94.4169 176.043 94.1676C176.043 93.9214 175.984 93.706 175.867 93.5213C175.75 93.3336 175.59 93.1874 175.387 93.0827C175.184 92.975 174.947 92.9212 174.676 92.9212C174.408 92.9212 174.171 92.975 173.965 93.0827C173.759 93.1874 173.597 93.3336 173.48 93.5213C173.367 93.706 173.31 93.9214 173.31 94.1676C173.31 94.4169 173.368 94.637 173.485 94.8278C173.602 95.0186 173.764 95.1679 173.97 95.2756C174.176 95.3833 174.411 95.4371 174.676 95.4371Z" fill="#FC281E"/>
<path d="M188.692 101.129C188.002 101.129 187.388 101.011 186.85 100.774C186.314 100.534 185.891 100.204 185.58 99.7859C185.272 99.3642 185.114 98.878 185.105 98.3271H187.117C187.13 98.5579 187.205 98.761 187.344 98.9364C187.485 99.1088 187.673 99.2427 187.907 99.3381C188.141 99.4335 188.404 99.4812 188.696 99.4812C189.001 99.4812 189.27 99.4273 189.504 99.3196C189.738 99.2119 189.921 99.0626 190.054 98.8718C190.186 98.681 190.252 98.4609 190.252 98.2116C190.252 97.9593 190.181 97.7362 190.04 97.5423C189.901 97.3453 189.701 97.1914 189.44 97.0806C189.181 96.9698 188.873 96.9144 188.516 96.9144H187.634V95.4464H188.516C188.818 95.4464 189.084 95.3941 189.315 95.2894C189.549 95.1848 189.73 95.0401 189.86 94.8555C189.989 94.6677 190.054 94.4492 190.054 94.1999C190.054 93.9629 189.997 93.7552 189.883 93.5767C189.772 93.3951 189.615 93.2536 189.412 93.152C189.212 93.0504 188.978 92.9996 188.71 92.9996C188.439 92.9996 188.192 93.0489 187.967 93.1474C187.742 93.2428 187.562 93.3797 187.427 93.5582C187.291 93.7367 187.219 93.946 187.21 94.1861H185.294C185.303 93.6413 185.459 93.1612 185.76 92.7457C186.062 92.3303 186.468 92.0056 186.979 91.7717C187.493 91.5347 188.073 91.4162 188.719 91.4162C189.372 91.4162 189.943 91.5347 190.432 91.7717C190.921 92.0086 191.302 92.3287 191.572 92.7319C191.846 93.132 191.982 93.5813 191.979 94.0799C191.982 94.6093 191.817 95.0509 191.485 95.4048C191.155 95.7588 190.726 95.9834 190.197 96.0788V96.1527C190.892 96.242 191.422 96.4835 191.785 96.8775C192.151 97.2683 192.333 97.7577 192.329 98.3455C192.333 98.8841 192.177 99.3627 191.863 99.7812C191.552 100.2 191.123 100.529 190.575 100.769C190.027 101.009 189.4 101.129 188.692 101.129ZM197.261 101.129C196.572 101.129 195.958 101.011 195.419 100.774C194.884 100.534 194.46 100.204 194.15 99.7859C193.842 99.3642 193.683 98.878 193.674 98.3271H195.687C195.699 98.5579 195.775 98.761 195.913 98.9364C196.055 99.1088 196.242 99.2427 196.476 99.3381C196.71 99.4335 196.973 99.4812 197.266 99.4812C197.57 99.4812 197.84 99.4273 198.074 99.3196C198.307 99.2119 198.491 99.0626 198.623 98.8718C198.755 98.681 198.821 98.4609 198.821 98.2116C198.821 97.9593 198.751 97.7362 198.609 97.5423C198.471 97.3453 198.27 97.1914 198.009 97.0806C197.75 96.9698 197.443 96.9144 197.086 96.9144H196.204V95.4464H197.086C197.387 95.4464 197.653 95.3941 197.884 95.2894C198.118 95.1848 198.3 95.0401 198.429 94.8555C198.558 94.6677 198.623 94.4492 198.623 94.1999C198.623 93.9629 198.566 93.7552 198.452 93.5767C198.341 93.3951 198.184 93.2536 197.981 93.152C197.781 93.0504 197.547 92.9996 197.279 92.9996C197.009 92.9996 196.761 93.0489 196.536 93.1474C196.312 93.2428 196.132 93.3797 195.996 93.5582C195.861 93.7367 195.788 93.946 195.779 94.1861H193.863C193.873 93.6413 194.028 93.1612 194.33 92.7457C194.631 92.3303 195.037 92.0056 195.548 91.7717C196.062 91.5347 196.642 91.4162 197.289 91.4162C197.941 91.4162 198.512 91.5347 199.001 91.7717C199.491 92.0086 199.871 92.3287 200.142 92.7319C200.416 93.132 200.551 93.5813 200.548 94.0799C200.551 94.6093 200.386 95.0509 200.054 95.4048C199.725 95.7588 199.295 95.9834 198.766 96.0788V96.1527C199.462 96.242 199.991 96.4835 200.354 96.8775C200.72 97.2683 200.902 97.7577 200.899 98.3455C200.902 98.8841 200.746 99.3627 200.433 99.7812C200.122 100.2 199.692 100.529 199.145 100.769C198.597 101.009 197.969 101.129 197.261 101.129Z" fill="white"/>
<path d="M207.806 101V99.5597L211.172 96.4435C211.458 96.1665 211.698 95.9173 211.892 95.6957C212.089 95.4741 212.238 95.2571 212.34 95.0447C212.441 94.8293 212.492 94.5969 212.492 94.3477C212.492 94.0707 212.429 93.8321 212.303 93.6321C212.177 93.429 212.004 93.2736 211.786 93.1658C211.567 93.055 211.32 92.9996 211.043 92.9996C210.753 92.9996 210.501 93.0581 210.285 93.1751C210.07 93.292 209.904 93.4598 209.787 93.6783C209.67 93.8968 209.611 94.1568 209.611 94.4585H207.714C207.714 93.8398 207.854 93.3028 208.134 92.8473C208.414 92.3918 208.807 92.0394 209.311 91.7901C209.816 91.5408 210.398 91.4162 211.056 91.4162C211.733 91.4162 212.323 91.5362 212.824 91.7763C213.329 92.0133 213.722 92.3426 214.002 92.7642C214.282 93.1858 214.422 93.669 214.422 94.2138C214.422 94.5708 214.351 94.9232 214.209 95.271C214.071 95.6187 213.823 96.005 213.466 96.4297C213.109 96.8513 212.606 97.3576 211.957 97.9485L210.576 99.3011V99.3658H214.546V101H207.806ZM216.369 101L220.288 93.2443V93.1797H215.722V91.5455H222.356V93.2028L218.432 101H216.369Z" fill="#FC281E"/>
<path d="M235.334 91.5455V101H233.335V93.4428H233.279L231.114 94.8001V93.0273L233.455 91.5455H235.334ZM237.955 101L241.874 93.2443V93.1797H237.308V91.5455H243.942V93.2028L240.018 101H237.955Z" fill="white"/>
<path d="M260 50C260 45.5817 263.582 42 268 42H370C374.418 42 378 45.5817 378 50V106C378 110.418 374.418 114 370 114H268C263.582 114 260 110.418 260 106V50Z" fill="#1B1B1B" fill-opacity="0.95"/>
<path d="M268 42.75H370C374.004 42.75 377.25 45.9959 377.25 50V106C377.25 110.004 374.004 113.25 370 113.25H268C263.996 113.25 260.75 110.004 260.75 106V50C260.75 45.9959 263.996 42.75 268 42.75Z" stroke="url(#paint3_linear_6000_612380)" stroke-opacity="0.2" stroke-width="1.5"/>
<path d="M317.833 78.6666V73.8249L314.041 77.5583L312.408 75.9249L317.833 70.4999V68.1666H315.5L310.075 73.5916L308.441 71.9583L312.175 68.1666H307.333V65.8333H312.175L308.441 62.0416L310.075 60.4083L315.5 65.8333H317.833V63.4999L312.408 58.0749L314.041 56.4416L317.833 60.1749V55.3333H320.166V60.1749L323.958 56.4416L325.591 58.0749L320.166 63.4999V65.8333H322.5L327.925 60.4083L329.558 62.0416L325.825 65.8333H330.666V68.1666H325.825L329.558 71.9583L327.925 73.5916L322.5 68.1666H320.166V70.4999L325.591 75.9249L323.958 77.5583L320.166 73.8249V78.6666H317.833Z" fill="url(#paint4_linear_6000_612380)"/>
<path d="M271.185 101.129C270.496 101.129 269.882 101.011 269.343 100.774C268.808 100.534 268.385 100.204 268.074 99.7859C267.766 99.3642 267.608 98.878 267.598 98.3271H269.611C269.623 98.5579 269.699 98.761 269.837 98.9364C269.979 99.1088 270.167 99.2427 270.401 99.3381C270.634 99.4335 270.898 99.4812 271.19 99.4812C271.495 99.4812 271.764 99.4273 271.998 99.3196C272.232 99.2119 272.415 99.0626 272.547 98.8718C272.68 98.681 272.746 98.4609 272.746 98.2116C272.746 97.9593 272.675 97.7362 272.533 97.5423C272.395 97.3453 272.195 97.1914 271.933 97.0806C271.675 96.9698 271.367 96.9144 271.01 96.9144H270.128V95.4464H271.01C271.312 95.4464 271.578 95.3941 271.809 95.2894C272.042 95.1848 272.224 95.0401 272.353 94.8555C272.483 94.6677 272.547 94.4492 272.547 94.1999C272.547 93.9629 272.49 93.7552 272.376 93.5767C272.266 93.3951 272.109 93.2536 271.905 93.152C271.705 93.0504 271.472 92.9996 271.204 92.9996C270.933 92.9996 270.685 93.0489 270.461 93.1474C270.236 93.2428 270.056 93.3797 269.92 93.5582C269.785 93.7367 269.713 93.946 269.703 94.1861H267.788C267.797 93.6413 267.952 93.1612 268.254 92.7457C268.555 92.3303 268.962 92.0056 269.473 91.7717C269.987 91.5347 270.567 91.4162 271.213 91.4162C271.865 91.4162 272.436 91.5347 272.926 91.7717C273.415 92.0086 273.795 92.3287 274.066 92.7319C274.34 93.132 274.475 93.5813 274.472 94.0799C274.475 94.6093 274.311 95.0509 273.978 95.4048C273.649 95.7588 273.22 95.9834 272.69 96.0788V96.1527C273.386 96.242 273.915 96.4835 274.278 96.8775C274.645 97.2683 274.826 97.7577 274.823 98.3455C274.826 98.8841 274.671 99.3627 274.357 99.7812C274.046 100.2 273.617 100.529 273.069 100.769C272.521 101.009 271.893 101.129 271.185 101.129ZM279.889 101.129C279.402 101.126 278.933 101.045 278.481 100.885C278.031 100.725 277.628 100.464 277.271 100.104C276.914 99.7443 276.631 99.2673 276.422 98.6733C276.215 98.0793 276.112 97.3499 276.112 96.4851C276.115 95.6911 276.206 94.9817 276.385 94.3569C276.566 93.729 276.825 93.1966 277.16 92.7596C277.499 92.3226 277.903 91.9902 278.374 91.7624C278.845 91.5316 279.373 91.4162 279.958 91.4162C280.589 91.4162 281.146 91.5393 281.629 91.7855C282.112 92.0286 282.5 92.3595 282.792 92.7781C283.088 93.1966 283.266 93.666 283.328 94.1861H281.357C281.28 93.8568 281.118 93.5982 280.872 93.4105C280.626 93.2228 280.321 93.1289 279.958 93.1289C279.342 93.1289 278.874 93.3967 278.554 93.9322C278.237 94.4677 278.076 95.1955 278.07 96.1158H278.134C278.276 95.8357 278.467 95.5972 278.707 95.4002C278.95 95.2002 279.225 95.0478 279.533 94.9432C279.844 94.8355 280.172 94.7816 280.516 94.7816C281.077 94.7816 281.575 94.9139 282.012 95.1786C282.449 95.4402 282.794 95.8003 283.046 96.2589C283.299 96.7174 283.425 97.2422 283.425 97.8331C283.425 98.4732 283.275 99.0426 282.977 99.5412C282.682 100.04 282.268 100.431 281.735 100.714C281.206 100.994 280.59 101.132 279.889 101.129ZM279.879 99.5597C280.187 99.5597 280.463 99.4858 280.706 99.3381C280.949 99.1903 281.14 98.9903 281.278 98.7379C281.417 98.4856 281.486 98.2024 281.486 97.8885C281.486 97.5746 281.417 97.293 281.278 97.0437C281.143 96.7944 280.955 96.5959 280.715 96.4482C280.475 96.3004 280.201 96.2266 279.893 96.2266C279.662 96.2266 279.448 96.2696 279.251 96.3558C279.058 96.442 278.887 96.562 278.739 96.7159C278.594 96.8698 278.481 97.0483 278.397 97.2514C278.314 97.4515 278.273 97.6654 278.273 97.8931C278.273 98.1978 278.342 98.4763 278.481 98.7287C278.622 98.9811 278.813 99.1826 279.053 99.3335C279.296 99.4843 279.572 99.5597 279.879 99.5597Z" fill="#FC281E"/>
<path d="M290.483 101V99.5597L293.848 96.4435C294.134 96.1665 294.374 95.9173 294.568 95.6957C294.765 95.4741 294.914 95.2571 295.016 95.0447C295.118 94.8293 295.168 94.5969 295.168 94.3477C295.168 94.0707 295.105 93.8321 294.979 93.6321C294.853 93.429 294.681 93.2736 294.462 93.1658C294.244 93.055 293.996 92.9996 293.719 92.9996C293.429 92.9996 293.177 93.0581 292.962 93.1751C292.746 93.292 292.58 93.4598 292.463 93.6783C292.346 93.8968 292.288 94.1568 292.288 94.4585H290.39C290.39 93.8398 290.53 93.3028 290.81 92.8473C291.09 92.3918 291.483 92.0394 291.988 91.7901C292.492 91.5408 293.074 91.4162 293.733 91.4162C294.41 91.4162 294.999 91.5362 295.501 91.7763C296.005 92.0133 296.398 92.3426 296.678 92.7642C296.958 93.1858 297.098 93.669 297.098 94.2138C297.098 94.5708 297.027 94.9232 296.886 95.271C296.747 95.6187 296.499 96.005 296.142 96.4297C295.785 96.8513 295.282 97.3576 294.633 97.9485L293.253 99.3011V99.3658H297.223V101H290.483ZM302.124 101.129C301.472 101.129 300.89 101.009 300.379 100.769C299.871 100.529 299.468 100.198 299.17 99.7766C298.871 99.355 298.716 98.8718 298.703 98.3271H300.642C300.664 98.6933 300.818 98.9903 301.104 99.218C301.39 99.4458 301.73 99.5597 302.124 99.5597C302.438 99.5597 302.715 99.4904 302.955 99.3519C303.198 99.2103 303.388 99.0149 303.523 98.7656C303.662 98.5133 303.731 98.224 303.731 97.8977C303.731 97.5653 303.66 97.273 303.518 97.0206C303.38 96.7682 303.188 96.5713 302.941 96.4297C302.695 96.2881 302.414 96.2158 302.097 96.2127C301.82 96.2127 301.55 96.2696 301.289 96.3835C301.03 96.4974 300.829 96.6528 300.684 96.8498L298.907 96.5312L299.354 91.5455H305.134V93.1797H301.002L300.758 95.5479H300.813C300.979 95.314 301.23 95.1201 301.566 94.9663C301.901 94.8124 302.277 94.7354 302.692 94.7354C303.261 94.7354 303.769 94.8693 304.216 95.1371C304.662 95.4048 305.014 95.7726 305.273 96.2404C305.531 96.7051 305.659 97.2406 305.656 97.8469C305.659 98.484 305.511 99.0503 305.213 99.5458C304.917 100.038 304.503 100.426 303.971 100.709C303.441 100.989 302.826 101.129 302.124 101.129Z" fill="#FC281E"/>
<path d="M312.381 101V99.5597L315.746 96.4435C316.033 96.1665 316.273 95.9173 316.467 95.6957C316.664 95.4741 316.813 95.2571 316.914 95.0447C317.016 94.8293 317.067 94.5969 317.067 94.3477C317.067 94.0707 317.004 93.8321 316.878 93.6321C316.751 93.429 316.579 93.2736 316.36 93.1658C316.142 93.055 315.894 92.9996 315.617 92.9996C315.328 92.9996 315.076 93.0581 314.86 93.1751C314.645 93.292 314.479 93.4598 314.362 93.6783C314.245 93.8968 314.186 94.1568 314.186 94.4585H312.289C312.289 93.8398 312.429 93.3028 312.709 92.8473C312.989 92.3918 313.381 92.0394 313.886 91.7901C314.391 91.5408 314.972 91.4162 315.631 91.4162C316.308 91.4162 316.898 91.5362 317.399 91.7763C317.904 92.0133 318.296 92.3426 318.576 92.7642C318.856 93.1858 318.996 93.669 318.996 94.2138C318.996 94.5708 318.926 94.9232 318.784 95.271C318.646 95.6187 318.398 96.005 318.041 96.4297C317.684 96.8513 317.181 97.3576 316.531 97.9485L315.151 99.3011V99.3658H319.121V101H312.381ZM323.99 91.4162C324.477 91.4162 324.944 91.4978 325.394 91.6609C325.846 91.824 326.249 92.084 326.603 92.4411C326.96 92.7981 327.242 93.272 327.448 93.8629C327.657 94.4508 327.764 95.1725 327.767 96.0281C327.767 96.8313 327.676 97.5484 327.494 98.1793C327.316 98.8072 327.059 99.3411 326.723 99.7812C326.388 100.221 325.983 100.557 325.509 100.788C325.035 101.015 324.506 101.129 323.921 101.129C323.29 101.129 322.733 101.008 322.25 100.765C321.767 100.518 321.377 100.184 321.082 99.7628C320.79 99.3381 320.613 98.861 320.551 98.3317H322.522C322.599 98.6764 322.761 98.9441 323.007 99.1349C323.253 99.3227 323.558 99.4165 323.921 99.4165C324.537 99.4165 325.004 99.1488 325.325 98.6133C325.645 98.0747 325.806 97.3376 325.809 96.402H325.745C325.603 96.679 325.412 96.9175 325.172 97.1175C324.932 97.3145 324.657 97.4669 324.346 97.5746C324.038 97.6823 323.71 97.7362 323.363 97.7362C322.805 97.7362 322.308 97.6054 321.871 97.3438C321.434 97.0821 321.09 96.7221 320.837 96.2635C320.585 95.8049 320.459 95.2817 320.459 94.6939C320.456 94.0599 320.602 93.4951 320.897 92.9996C321.193 92.5041 321.605 92.1164 322.135 91.8363C322.667 91.5531 323.286 91.4131 323.99 91.4162ZM324.004 92.9858C323.693 92.9858 323.416 93.0597 323.173 93.2074C322.933 93.3551 322.742 93.5536 322.601 93.8029C322.462 94.0522 322.395 94.3307 322.398 94.6385C322.398 94.9493 322.465 95.2294 322.601 95.4787C322.739 95.7249 322.927 95.9219 323.164 96.0696C323.404 96.2143 323.678 96.2866 323.986 96.2866C324.217 96.2866 324.43 96.2435 324.627 96.1573C324.824 96.0711 324.995 95.9527 325.14 95.8018C325.288 95.648 325.403 95.471 325.486 95.271C325.569 95.0709 325.611 94.8585 325.611 94.6339C325.608 94.3353 325.537 94.0614 325.398 93.8121C325.26 93.5629 325.069 93.3628 324.826 93.212C324.583 93.0612 324.309 92.9858 324.004 92.9858Z" fill="white"/>
<path d="M340.519 91.5455V101H338.52V93.4428H338.465L336.3 94.8001V93.0273L338.64 91.5455H340.519ZM346.88 91.5455V101H344.881V93.4428H344.825L342.66 94.8001V93.0273L345.001 91.5455H346.88Z" fill="white"/>
<path d="M363.998 101.208C363.204 101.205 362.521 101.009 361.949 100.621C361.379 100.234 360.941 99.672 360.633 98.9364C360.328 98.2009 360.177 97.3161 360.18 96.282C360.18 95.2509 360.333 94.3723 360.637 93.646C360.945 92.9196 361.384 92.3672 361.953 91.9886C362.526 91.607 363.207 91.4162 363.998 91.4162C364.789 91.4162 365.469 91.607 366.039 91.9886C366.611 92.3703 367.051 92.9242 367.359 93.6506C367.667 94.3738 367.819 95.2509 367.816 96.282C367.816 97.3191 367.662 98.2055 367.354 98.9411C367.05 99.6766 366.613 100.238 366.043 100.626C365.474 101.014 364.792 101.208 363.998 101.208ZM363.998 99.5504C364.54 99.5504 364.972 99.2781 365.295 98.7333C365.619 98.1886 365.779 97.3714 365.776 96.282C365.776 95.5649 365.702 94.9678 365.554 94.4908C365.409 94.0137 365.203 93.6552 364.935 93.4151C364.671 93.1751 364.358 93.055 363.998 93.055C363.46 93.055 363.029 93.3243 362.706 93.8629C362.383 94.4015 362.219 95.2079 362.216 96.282C362.216 97.0083 362.289 97.6146 362.433 98.1009C362.581 98.584 362.789 98.9472 363.057 99.1903C363.324 99.4304 363.638 99.5504 363.998 99.5504Z" fill="#3DAB49"/>
<mask id="path-40-inside-2_6000_612380" fill="white">
<path d="M0 122H386V154H0V122Z"/>
</mask>
<path d="M0 122V123H386V122V121H0V122Z" fill="#404040" mask="url(#path-40-inside-2_6000_612380)"/>
<g clip-path="url(#clip1_6000_612380)">
<rect x="9" y="129" width="26" height="18" rx="4" fill="white" fill-opacity="0.1"/>
<path d="M21.4956 143.139C20.73 143.139 20.0489 143.015 19.4523 142.766C18.859 142.514 18.3934 142.171 18.0553 141.737C17.7172 141.303 17.5482 140.811 17.5482 140.261C17.5482 139.836 17.6443 139.447 17.8366 139.092C18.0321 138.734 18.2973 138.438 18.632 138.202C18.9668 137.964 19.3413 137.811 19.7556 137.745V137.675C19.212 137.566 18.7712 137.303 18.4331 136.885C18.0951 136.464 17.926 135.975 17.926 135.418C17.926 134.891 18.0802 134.422 18.3884 134.011C18.6966 133.597 19.1192 133.272 19.6562 133.037C20.1964 132.798 20.8096 132.679 21.4956 132.679C22.1817 132.679 22.7932 132.798 23.3302 133.037C23.8704 133.276 24.2947 133.602 24.6029 134.016C24.9111 134.427 25.0669 134.895 25.0702 135.418C25.0669 135.978 24.8946 136.467 24.5532 136.885C24.2118 137.303 23.7743 137.566 23.2407 137.675V137.745C23.6483 137.811 24.0179 137.964 24.3493 138.202C24.6841 138.438 24.9492 138.734 25.1448 139.092C25.3437 139.447 25.4448 139.836 25.4481 140.261C25.4448 140.811 25.2741 141.303 24.936 141.737C24.5979 142.171 24.1306 142.514 23.534 142.766C22.9407 143.015 22.2613 143.139 21.4956 143.139ZM21.4956 141.558C21.837 141.558 22.1353 141.497 22.3905 141.374C22.6457 141.248 22.8446 141.076 22.9871 140.857C23.133 140.635 23.2059 140.38 23.2059 140.092C23.2059 139.797 23.1313 139.536 22.9822 139.311C22.833 139.082 22.6308 138.903 22.3756 138.774C22.1204 138.642 21.8271 138.575 21.4956 138.575C21.1675 138.575 20.8742 138.642 20.6157 138.774C20.3572 138.903 20.1533 139.082 20.0042 139.311C19.8583 139.536 19.7854 139.797 19.7854 140.092C19.7854 140.38 19.8567 140.635 19.9992 140.857C20.1417 141.076 20.3422 141.248 20.6008 141.374C20.8593 141.497 21.1576 141.558 21.4956 141.558ZM21.4956 137.009C21.7807 137.009 22.0342 136.951 22.2563 136.835C22.4784 136.719 22.6524 136.558 22.7783 136.353C22.9043 136.147 22.9672 135.911 22.9672 135.642C22.9672 135.377 22.9043 135.145 22.7783 134.946C22.6524 134.744 22.48 134.586 22.2613 134.474C22.0425 134.358 21.7873 134.3 21.4956 134.3C21.2073 134.3 20.9521 134.358 20.73 134.474C20.508 134.586 20.334 134.744 20.208 134.946C20.0854 135.145 20.0241 135.377 20.0241 135.642C20.0241 135.911 20.087 136.147 20.213 136.353C20.3389 136.558 20.5129 136.719 20.735 136.835C20.9571 136.951 21.2106 137.009 21.4956 137.009Z" fill="white"/>
<path d="M53.0108 132.818V143H50.8581V134.862H50.7985L48.4668 136.323V134.414L50.9874 132.818H53.0108ZM59.4229 143.224C58.5678 143.22 57.832 143.01 57.2156 142.592C56.6024 142.175 56.1301 141.57 55.7987 140.778C55.4705 139.986 55.3081 139.033 55.3114 137.919C55.3114 136.809 55.4755 135.862 55.8036 135.08C56.1351 134.298 56.6074 133.703 57.2205 133.295C57.837 132.884 58.5711 132.679 59.4229 132.679C60.2747 132.679 61.0072 132.884 61.6204 133.295C62.2369 133.706 62.7108 134.303 63.0423 135.085C63.3737 135.864 63.5378 136.809 63.5344 137.919C63.5344 139.036 63.3687 139.991 63.0373 140.783C62.7092 141.575 62.2385 142.18 61.6254 142.597C61.0122 143.015 60.2781 143.224 59.4229 143.224ZM59.4229 141.439C60.0063 141.439 60.4719 141.146 60.82 140.559C61.168 139.972 61.3403 139.092 61.337 137.919C61.337 137.147 61.2575 136.504 61.0984 135.99C60.9426 135.476 60.7205 135.09 60.4322 134.832C60.1471 134.573 59.8107 134.444 59.4229 134.444C58.8429 134.444 58.3789 134.734 58.0309 135.314C57.6829 135.894 57.5072 136.762 57.5039 137.919C57.5039 138.701 57.5818 139.354 57.7376 139.878C57.8967 140.398 58.1204 140.789 58.4087 141.051C58.6971 141.31 59.0352 141.439 59.4229 141.439Z" fill="white"/>
<path d="M81.8018 143V141.449L85.4261 138.093C85.7344 137.795 85.9929 137.526 86.2017 137.288C86.4138 137.049 86.5746 136.815 86.6839 136.587C86.7933 136.355 86.848 136.104 86.848 135.836C86.848 135.538 86.7801 135.281 86.6442 135.065C86.5083 134.847 86.3227 134.679 86.0874 134.563C85.852 134.444 85.5852 134.384 85.2869 134.384C84.9754 134.384 84.7036 134.447 84.4716 134.573C84.2396 134.699 84.0606 134.88 83.9347 135.115C83.8087 135.35 83.7457 135.63 83.7457 135.955H81.7024C81.7024 135.289 81.8532 134.711 82.1548 134.22C82.4564 133.73 82.879 133.35 83.4226 133.082C83.9661 132.813 84.5926 132.679 85.3018 132.679C86.031 132.679 86.6657 132.808 87.206 133.067C87.7495 133.322 88.1721 133.677 88.4737 134.131C88.7753 134.585 88.9261 135.105 88.9261 135.692C88.9261 136.076 88.8499 136.456 88.6974 136.83C88.5483 137.205 88.2815 137.621 87.897 138.078C87.5125 138.532 86.9706 139.077 86.2713 139.714L84.7848 141.17V141.24H89.0604V143H81.8018ZM94.3837 143.139C93.6413 143.139 92.9801 143.012 92.4 142.756C91.8233 142.498 91.3676 142.143 91.0328 141.692C90.7014 141.238 90.5307 140.715 90.5208 140.121H92.6884C92.7016 140.37 92.7828 140.589 92.932 140.778C93.0845 140.963 93.2866 141.107 93.5385 141.21C93.7904 141.313 94.0738 141.364 94.3887 141.364C94.7168 141.364 95.0068 141.306 95.2587 141.19C95.5106 141.074 95.7078 140.914 95.8503 140.708C95.9928 140.503 96.0641 140.266 96.0641 139.997C96.0641 139.725 95.9879 139.485 95.8354 139.276C95.6863 139.064 95.4708 138.898 95.1891 138.779C94.9107 138.66 94.5792 138.6 94.1948 138.6H93.2452V137.019H94.1948C94.5196 137.019 94.8063 136.963 95.0549 136.85C95.3068 136.737 95.5023 136.582 95.6415 136.383C95.7807 136.181 95.8503 135.945 95.8503 135.677C95.8503 135.422 95.789 135.198 95.6664 135.006C95.5471 134.81 95.378 134.658 95.1593 134.548C94.9438 134.439 94.6919 134.384 94.4036 134.384C94.1119 134.384 93.8451 134.437 93.6032 134.543C93.3612 134.646 93.1673 134.794 93.0215 134.986C92.8757 135.178 92.7978 135.403 92.7878 135.662H90.7246C90.7346 135.075 90.9019 134.558 91.2267 134.111C91.5516 133.663 91.9891 133.314 92.5392 133.062C93.0927 132.807 93.7175 132.679 94.4135 132.679C95.1162 132.679 95.731 132.807 96.258 133.062C96.785 133.317 97.1943 133.662 97.486 134.096C97.781 134.527 97.9268 135.011 97.9235 135.548C97.9268 136.118 97.7495 136.593 97.3915 136.974C97.0369 137.356 96.5745 137.598 96.0044 137.7V137.78C96.7535 137.876 97.3236 138.136 97.7147 138.56C98.1091 138.981 98.3046 139.508 98.3013 140.141C98.3046 140.721 98.1373 141.237 97.7992 141.688C97.4644 142.138 97.0021 142.493 96.4121 142.751C95.8221 143.01 95.146 143.139 94.3837 143.139Z" fill="#FC281E"/>
<path d="M121.905 132.818V143H119.753V134.862H119.693L117.361 136.323V134.414L119.882 132.818H121.905ZM128.755 132.818V143H126.602V134.862H126.543L124.211 136.323V134.414L126.732 132.818H128.755Z" fill="white"/>
<path d="M149.597 143V141.449L153.221 138.093C153.529 137.795 153.788 137.526 153.997 137.288C154.209 137.049 154.369 136.815 154.479 136.587C154.588 136.355 154.643 136.104 154.643 135.836C154.643 135.538 154.575 135.281 154.439 135.065C154.303 134.847 154.118 134.679 153.882 134.563C153.647 134.444 153.38 134.384 153.082 134.384C152.77 134.384 152.499 134.447 152.267 134.573C152.035 134.699 151.856 134.88 151.73 135.115C151.604 135.35 151.541 135.63 151.541 135.955H149.497C149.497 135.289 149.648 134.711 149.95 134.22C150.251 133.73 150.674 133.35 151.218 133.082C151.761 132.813 152.387 132.679 153.097 132.679C153.826 132.679 154.461 132.808 155.001 133.067C155.544 133.322 155.967 133.677 156.269 134.131C156.57 134.585 156.721 135.105 156.721 135.692C156.721 136.076 156.645 136.456 156.492 136.83C156.343 137.205 156.076 137.621 155.692 138.078C155.307 138.532 154.766 139.077 154.066 139.714L152.58 141.17V141.24H156.855V143H149.597ZM162.407 143.224C161.552 143.22 160.816 143.01 160.2 142.592C159.587 142.175 159.114 141.57 158.783 140.778C158.455 139.986 158.292 139.033 158.296 137.919C158.296 136.809 158.46 135.862 158.788 135.08C159.119 134.298 159.592 133.703 160.205 133.295C160.821 132.884 161.556 132.679 162.407 132.679C163.259 132.679 163.992 132.884 164.605 133.295C165.221 133.706 165.695 134.303 166.027 135.085C166.358 135.864 166.522 136.809 166.519 137.919C166.519 139.036 166.353 139.991 166.022 140.783C165.694 141.575 165.223 142.18 164.61 142.597C163.997 143.015 163.262 143.224 162.407 143.224ZM162.407 141.439C162.991 141.439 163.456 141.146 163.804 140.559C164.152 139.972 164.325 139.092 164.321 137.919C164.321 137.147 164.242 136.504 164.083 135.99C163.927 135.476 163.705 135.09 163.417 134.832C163.132 134.573 162.795 134.444 162.407 134.444C161.827 134.444 161.363 134.734 161.015 135.314C160.667 135.894 160.492 136.762 160.488 137.919C160.488 138.701 160.566 139.354 160.722 139.878C160.881 140.398 161.105 140.789 161.393 141.051C161.681 141.31 162.02 141.439 162.407 141.439Z" fill="white"/>
<path d="M187.155 143.139C186.413 143.139 185.752 143.012 185.172 142.756C184.595 142.498 184.139 142.143 183.804 141.692C183.473 141.238 183.302 140.715 183.292 140.121H185.46C185.473 140.37 185.554 140.589 185.703 140.778C185.856 140.963 186.058 141.107 186.31 141.21C186.562 141.313 186.845 141.364 187.16 141.364C187.488 141.364 187.778 141.306 188.03 141.19C188.282 141.074 188.479 140.914 188.622 140.708C188.764 140.503 188.836 140.266 188.836 139.997C188.836 139.725 188.759 139.485 188.607 139.276C188.458 139.064 188.242 138.898 187.961 138.779C187.682 138.66 187.351 138.6 186.966 138.6H186.017V137.019H186.966C187.291 137.019 187.578 136.963 187.826 136.85C188.078 136.737 188.274 136.582 188.413 136.383C188.552 136.181 188.622 135.945 188.622 135.677C188.622 135.422 188.56 135.198 188.438 135.006C188.319 134.81 188.15 134.658 187.931 134.548C187.715 134.439 187.463 134.384 187.175 134.384C186.883 134.384 186.617 134.437 186.375 134.543C186.133 134.646 185.939 134.794 185.793 134.986C185.647 135.178 185.569 135.403 185.559 135.662H183.496C183.506 135.075 183.673 134.558 183.998 134.111C184.323 133.663 184.761 133.314 185.311 133.062C185.864 132.807 186.489 132.679 187.185 132.679C187.888 132.679 188.502 132.807 189.029 133.062C189.556 133.317 189.966 133.662 190.257 134.096C190.552 134.527 190.698 135.011 190.695 135.548C190.698 136.118 190.521 136.593 190.163 136.974C189.808 137.356 189.346 137.598 188.776 137.7V137.78C189.525 137.876 190.095 138.136 190.486 138.56C190.881 138.981 191.076 139.508 191.073 140.141C191.076 140.721 190.909 141.237 190.571 141.688C190.236 142.138 189.774 142.493 189.184 142.751C188.594 143.01 187.917 143.139 187.155 143.139ZM196.612 143.224C195.757 143.22 195.021 143.01 194.405 142.592C193.792 142.175 193.32 141.57 192.988 140.778C192.66 139.986 192.498 139.033 192.501 137.919C192.501 136.809 192.665 135.862 192.993 135.08C193.325 134.298 193.797 133.703 194.41 133.295C195.026 132.884 195.761 132.679 196.612 132.679C197.464 132.679 198.197 132.884 198.81 133.295C199.426 133.706 199.9 134.303 200.232 135.085C200.563 135.864 200.727 136.809 200.724 137.919C200.724 139.036 200.558 139.991 200.227 140.783C199.899 141.575 199.428 142.18 198.815 142.597C198.202 143.015 197.468 143.224 196.612 143.224ZM196.612 141.439C197.196 141.439 197.661 141.146 198.009 140.559C198.357 139.972 198.53 139.092 198.526 137.919C198.526 137.147 198.447 136.504 198.288 135.99C198.132 135.476 197.91 135.09 197.622 134.832C197.337 134.573 197 134.444 196.612 134.444C196.032 134.444 195.568 134.734 195.22 135.314C194.872 135.894 194.697 136.762 194.693 137.919C194.693 138.701 194.771 139.354 194.927 139.878C195.086 140.398 195.31 140.789 195.598 141.051C195.887 141.31 196.225 141.439 196.612 141.439Z" fill="#FC281E"/>
<path d="M217.753 143V141.449L221.377 138.093C221.686 137.795 221.944 137.526 222.153 137.288C222.365 137.049 222.526 136.815 222.635 136.587C222.744 136.355 222.799 136.104 222.799 135.836C222.799 135.538 222.731 135.281 222.595 135.065C222.459 134.847 222.274 134.679 222.039 134.563C221.803 134.444 221.536 134.384 221.238 134.384C220.927 134.384 220.655 134.447 220.423 134.573C220.191 134.699 220.012 134.88 219.886 135.115C219.76 135.35 219.697 135.63 219.697 135.955H217.654C217.654 135.289 217.804 134.711 218.106 134.22C218.408 133.73 218.83 133.35 219.374 133.082C219.917 132.813 220.544 132.679 221.253 132.679C221.982 132.679 222.617 132.808 223.157 133.067C223.701 133.322 224.123 133.677 224.425 134.131C224.727 134.585 224.877 135.105 224.877 135.692C224.877 136.076 224.801 136.456 224.649 136.83C224.499 137.205 224.233 137.621 223.848 138.078C223.464 138.532 222.922 139.077 222.222 139.714L220.736 141.17V141.24H225.012V143H217.753ZM226.974 143L231.195 134.648V134.578H226.278V132.818H233.422V134.603L229.196 143H226.974Z" fill="#FC281E"/>
<path d="M255.36 143.139C254.618 143.139 253.957 143.012 253.377 142.756C252.8 142.498 252.344 142.143 252.009 141.692C251.678 141.238 251.507 140.715 251.497 140.121H253.665C253.678 140.37 253.759 140.589 253.909 140.778C254.061 140.963 254.263 141.107 254.515 141.21C254.767 141.313 255.05 141.364 255.365 141.364C255.693 141.364 255.983 141.306 256.235 141.19C256.487 141.074 256.684 140.914 256.827 140.708C256.969 140.503 257.041 140.266 257.041 139.997C257.041 139.725 256.964 139.485 256.812 139.276C256.663 139.064 256.447 138.898 256.166 138.779C255.887 138.66 255.556 138.6 255.171 138.6H254.222V137.019H255.171C255.496 137.019 255.783 136.963 256.031 136.85C256.283 136.737 256.479 136.582 256.618 136.383C256.757 136.181 256.827 135.945 256.827 135.677C256.827 135.422 256.766 135.198 256.643 135.006C256.524 134.81 256.355 134.658 256.136 134.548C255.92 134.439 255.669 134.384 255.38 134.384C255.088 134.384 254.822 134.437 254.58 134.543C254.338 134.646 254.144 134.794 253.998 134.986C253.852 135.178 253.774 135.403 253.764 135.662H251.701C251.711 135.075 251.878 134.558 252.203 134.111C252.528 133.663 252.966 133.314 253.516 133.062C254.069 132.807 254.694 132.679 255.39 132.679C256.093 132.679 256.708 132.807 257.235 133.062C257.762 133.317 258.171 133.662 258.463 134.096C258.758 134.527 258.903 135.011 258.9 135.548C258.903 136.118 258.726 136.593 258.368 136.974C258.013 137.356 257.551 137.598 256.981 137.7V137.78C257.73 137.876 258.3 138.136 258.691 138.56C259.086 138.981 259.281 139.508 259.278 140.141C259.281 140.721 259.114 141.237 258.776 141.688C258.441 142.138 257.979 142.493 257.389 142.751C256.799 143.01 256.123 143.139 255.36 143.139ZM264.589 143.139C263.846 143.139 263.185 143.012 262.605 142.756C262.028 142.498 261.573 142.143 261.238 141.692C260.906 141.238 260.736 140.715 260.726 140.121H262.893C262.907 140.37 262.988 140.589 263.137 140.778C263.29 140.963 263.492 141.107 263.744 141.21C263.996 141.313 264.279 141.364 264.594 141.364C264.922 141.364 265.212 141.306 265.464 141.19C265.716 141.074 265.913 140.914 266.055 140.708C266.198 140.503 266.269 140.266 266.269 139.997C266.269 139.725 266.193 139.485 266.04 139.276C265.891 139.064 265.676 138.898 265.394 138.779C265.116 138.66 264.784 138.6 264.4 138.6H263.45V137.019H264.4C264.725 137.019 265.011 136.963 265.26 136.85C265.512 136.737 265.707 136.582 265.847 136.383C265.986 136.181 266.055 135.945 266.055 135.677C266.055 135.422 265.994 135.198 265.871 135.006C265.752 134.81 265.583 134.658 265.364 134.548C265.149 134.439 264.897 134.384 264.609 134.384C264.317 134.384 264.05 134.437 263.808 134.543C263.566 134.646 263.372 134.794 263.227 134.986C263.081 135.178 263.003 135.403 262.993 135.662H260.93C260.94 135.075 261.107 134.558 261.432 134.111C261.757 133.663 262.194 133.314 262.744 133.062C263.298 132.807 263.923 132.679 264.619 132.679C265.321 132.679 265.936 132.807 266.463 133.062C266.99 133.317 267.399 133.662 267.691 134.096C267.986 134.527 268.132 135.011 268.129 135.548C268.132 136.118 267.955 136.593 267.597 136.974C267.242 137.356 266.78 137.598 266.21 137.7V137.78C266.959 137.876 267.529 138.136 267.92 138.56C268.314 138.981 268.51 139.508 268.506 140.141C268.51 140.721 268.342 141.237 268.004 141.688C267.67 142.138 267.207 142.493 266.617 142.751C266.027 143.01 265.351 143.139 264.589 143.139Z" fill="white"/>
<path d="M290.818 132.818V143H288.666V134.862H288.606L286.274 136.323V134.414L288.795 132.818H290.818ZM296.957 143.139C296.254 143.139 295.628 143.01 295.078 142.751C294.531 142.493 294.097 142.137 293.775 141.683C293.454 141.228 293.286 140.708 293.273 140.121H295.361C295.384 140.516 295.55 140.836 295.858 141.081C296.167 141.326 296.533 141.449 296.957 141.449C297.295 141.449 297.593 141.374 297.852 141.225C298.114 141.073 298.318 140.862 298.464 140.594C298.613 140.322 298.687 140.01 298.687 139.659C298.687 139.301 298.611 138.986 298.459 138.714C298.309 138.443 298.102 138.231 297.837 138.078C297.572 137.926 297.269 137.848 296.927 137.844C296.629 137.844 296.339 137.906 296.057 138.028C295.779 138.151 295.562 138.318 295.406 138.531L293.492 138.188L293.974 132.818H300.199V134.578H295.749L295.486 137.129H295.545C295.724 136.877 295.994 136.668 296.356 136.502C296.717 136.336 297.121 136.254 297.569 136.254C298.182 136.254 298.729 136.398 299.209 136.686C299.69 136.974 300.069 137.371 300.348 137.874C300.626 138.375 300.764 138.951 300.76 139.604C300.764 140.29 300.605 140.9 300.283 141.434C299.965 141.964 299.519 142.382 298.946 142.687C298.376 142.988 297.713 143.139 296.957 143.139Z" fill="white"/>
<path d="M329.83 132.818V143H327.677V134.862H327.618L325.286 136.323V134.414L327.807 132.818H329.83Z" fill="#FC281E"/>
<path d="M359.209 132.818V143H357.056V134.862H356.997L354.665 136.323V134.414L357.186 132.818H359.209ZM365.313 132.679C365.837 132.679 366.34 132.767 366.824 132.942C367.312 133.118 367.746 133.398 368.127 133.783C368.511 134.167 368.815 134.678 369.037 135.314C369.262 135.947 369.376 136.724 369.38 137.646C369.38 138.511 369.282 139.283 369.086 139.962C368.894 140.638 368.617 141.214 368.256 141.688C367.895 142.161 367.459 142.523 366.949 142.771C366.438 143.017 365.868 143.139 365.238 143.139C364.559 143.139 363.959 143.008 363.439 142.746C362.918 142.481 362.499 142.122 362.181 141.668C361.866 141.21 361.675 140.696 361.609 140.126H363.732C363.815 140.498 363.989 140.786 364.254 140.991C364.519 141.194 364.847 141.295 365.238 141.295C365.901 141.295 366.405 141.006 366.75 140.43C367.094 139.85 367.268 139.056 367.272 138.048H367.202C367.05 138.347 366.844 138.603 366.586 138.819C366.327 139.031 366.031 139.195 365.696 139.311C365.364 139.427 365.011 139.485 364.637 139.485C364.037 139.485 363.502 139.344 363.031 139.062C362.56 138.781 362.189 138.393 361.917 137.899C361.646 137.405 361.51 136.842 361.51 136.209C361.506 135.526 361.664 134.918 361.982 134.384C362.3 133.851 362.744 133.433 363.314 133.131C363.888 132.826 364.554 132.676 365.313 132.679ZM365.328 134.369C364.993 134.369 364.695 134.449 364.433 134.608C364.174 134.767 363.969 134.981 363.816 135.249C363.667 135.518 363.594 135.818 363.598 136.149C363.598 136.484 363.671 136.786 363.816 137.054C363.966 137.319 364.168 137.531 364.423 137.69C364.682 137.846 364.977 137.924 365.308 137.924C365.557 137.924 365.787 137.878 365.999 137.785C366.211 137.692 366.395 137.564 366.551 137.402C366.71 137.236 366.834 137.046 366.924 136.83C367.013 136.615 367.058 136.386 367.058 136.144C367.055 135.823 366.978 135.528 366.829 135.259C366.68 134.991 366.475 134.775 366.213 134.613C365.951 134.451 365.656 134.369 365.328 134.369Z" fill="#FC281E"/>
</g>
</g>
<rect x="0.5" y="0.5" width="385" height="153" rx="7.5" stroke="#404040"/>
<defs>
<linearGradient id="paint0_linear_6000_612380" x1="67" y1="42" x2="67" y2="114" gradientUnits="userSpaceOnUse">
<stop stop-color="white"/>
<stop offset="1" stop-color="white" stop-opacity="0"/>
</linearGradient>
<linearGradient id="paint1_linear_6000_612380" x1="193" y1="42" x2="193" y2="114" gradientUnits="userSpaceOnUse">
<stop stop-color="white"/>
<stop offset="1" stop-color="white" stop-opacity="0"/>
</linearGradient>
<linearGradient id="paint2_linear_6000_612380" x1="193" y1="78.6666" x2="193" y2="55.3333" gradientUnits="userSpaceOnUse">
<stop stop-color="#FF5050"/>
<stop offset="1" stop-color="#FF8A00"/>
</linearGradient>
<linearGradient id="paint3_linear_6000_612380" x1="319" y1="42" x2="319" y2="114" gradientUnits="userSpaceOnUse">
<stop stop-color="white"/>
<stop offset="1" stop-color="white" stop-opacity="0"/>
</linearGradient>
<linearGradient id="paint4_linear_6000_612380" x1="319" y1="78.6666" x2="319" y2="55.3333" gradientUnits="userSpaceOnUse">
<stop stop-color="#0080DC"/>
<stop offset="1" stop-color="#3CA5F1"/>
</linearGradient>
<clipPath id="clip0_6000_612380">
<rect width="386" height="154" rx="8" fill="white"/>
</clipPath>
<clipPath id="clip1_6000_612380">
<rect width="368" height="20" fill="white" transform="translate(9 128)"/>
</clipPath>
</defs>
</svg>
