<svg width="536" height="187" viewBox="0 0 536 187" fill="none" xmlns="http://www.w3.org/2000/svg">
<g filter="url(#filter0_dd_408_33990)">
<mask id="mask0_408_33990" style="mask-type:alpha" maskUnits="userSpaceOnUse" x="14" y="9" width="508" height="160">
<path d="M14 89C14 44.8172 49.8172 9 94 9L442 9C486.183 9 522 44.8172 522 89C522 133.183 486.183 169 442 169L94 169C49.8172 169 14 133.183 14 89ZM51 89C51 109.987 68.0132 127 89 127L449 127C469.987 127 487 109.987 487 89C487 68.0132 469.987 51 449 51L89 51C68.0132 51 51 68.0132 51 89Z" fill="#D9D9D9"/>
</mask>
<g mask="url(#mask0_408_33990)">
<path d="M522 88.9998C522 73.8188 517.681 58.9513 509.546 46.1336L442 88.9998H522Z" fill="#9B1912"/>
<path d="M522 88.9998C522 104.181 517.681 119.048 509.546 131.866L442 88.9998H522Z" fill="#13120E"/>
<path d="M509.546 46.1336C501.412 33.3159 489.798 23.0773 476.062 16.6136L442 88.9998L509.546 46.1336Z" fill="#13120E"/>
<path d="M509.546 131.866C501.412 144.684 489.798 154.922 476.062 161.386L442 88.9998L509.546 131.866Z" fill="#9B1912"/>
<rect x="137.996" y="89.0002" width="27" height="80" fill="#9B1912"/>
<rect x="191.996" y="89.0002" width="27" height="80" fill="#9B1912"/>
<rect x="245.996" y="89.0002" width="27" height="80" fill="#9B1912"/>
<rect x="299.996" y="89.0002" width="27" height="80" fill="#9B1912"/>
<rect x="353.996" y="89.0002" width="27" height="80" fill="#9B1912"/>
<rect x="407.996" y="89.0002" width="27" height="80" fill="#9B1912"/>
<path d="M442 89H435L435 169H442C453.776 169 465.407 166.4 476.062 161.386L442 89Z" fill="#13120E"/>
<rect x="110.999" y="9.00024" width="27" height="80" fill="#9B1912"/>
<rect x="164.999" y="9.00024" width="27" height="80" fill="#9B1912"/>
<rect x="218.999" y="9.00024" width="27" height="80" fill="#9B1912"/>
<rect x="272.999" y="9.00024" width="27" height="80" fill="#9B1912"/>
<rect x="326.999" y="9.00024" width="27" height="80" fill="#9B1912"/>
<rect x="380.999" y="9.00024" width="27" height="80" fill="#9B1912"/>
<path d="M43.0061 150.641C54.7032 160.318 68.9121 166.467 83.9733 168.369L94 89L43.0061 150.641Z" fill="#13120E"/>
<path d="M94 89H111L111 169H94C90.6479 169 87.2991 168.789 83.9734 168.369L94 89Z" fill="#9B1912"/>
<path d="M17.9155 113.721C22.6066 128.159 31.309 140.964 43.0061 150.641L94 89L17.9155 113.721Z" fill="#9B1912"/>
<path d="M17.9155 64.2786C12.6948 80.3461 12.6948 97.6539 17.9155 113.721L94 89L17.9155 64.2786Z" fill="#13120E"/>
<path d="M43.0061 27.3589C31.309 37.0356 22.6066 49.8407 17.9155 64.2786L94 89L43.0061 27.3589Z" fill="#2B7934"/>
<path d="M83.9733 9.63082C68.9121 11.5335 54.7032 17.6823 43.0061 27.359L94 89L83.9733 9.63082Z" fill="#9B1912"/>
<path d="M83.9734 9.63082C87.2991 9.21069 90.6479 9 94.0001 9H111L111 89H94.0001L83.9734 9.63082Z" fill="#13120E"/>
<rect x="137.999" y="9.00024" width="27" height="80" fill="#13120E"/>
<rect x="191.999" y="9.00024" width="27" height="80" fill="#13120E"/>
<rect x="245.999" y="9.00024" width="27" height="80" fill="#13120E"/>
<rect x="299.999" y="9.00024" width="27" height="80" fill="#13120E"/>
<rect x="353.999" y="9.00024" width="27" height="80" fill="#13120E"/>
<rect x="407.999" y="9.00024" width="27" height="80" fill="#13120E"/>
<path d="M442 9H435L435 89H442L476.062 16.6138C465.407 11.5998 453.776 9 442 9Z" fill="#9B1912"/>
<rect x="110.996" y="89.0002" width="27" height="80" fill="#13120E"/>
<rect x="164.996" y="89.0002" width="27" height="80" fill="#13120E"/>
<rect x="218.996" y="89.0002" width="27" height="80" fill="#13120E"/>
<rect x="272.996" y="89.0002" width="27" height="80" fill="#13120E"/>
<rect x="326.996" y="89.0002" width="27" height="80" fill="#13120E"/>
<rect x="380.996" y="89.0002" width="27" height="80" fill="#13120E"/>
</g>
<rect x="52.3741" y="50.9512" width="434.906" height="76.0976" rx="38.0488" fill="#1E1E1E" fill-opacity="0.64"/>
<line x1="380.591" y1="127.287" x2="326.591" y2="50.2871" stroke="#9E9E9E"/>
<mask id="mask1_408_33990" style="mask-type:alpha" maskUnits="userSpaceOnUse" x="109" y="51" width="37" height="76">
<rect width="76" height="37" transform="matrix(0 1 1 0 109 51)" fill="#6C6C6C"/>
</mask>
<g mask="url(#mask1_408_33990)">
<rect x="-0.5" y="-0.5" width="81" height="94.1942" rx="40.5" transform="matrix(0 1 1 0 45.7354 49)" stroke="#9E9E9E"/>
</g>
<mask id="path-43-inside-1_408_33990" fill="white">
<path d="M442 169C486.183 169 522 133.183 522 89V89C522 44.8172 486.183 9 442 9L94 9C49.8172 9 14 44.8172 14 89V89C14 133.183 49.8172 169 94 169L442 169ZM52 89C52 68.0132 69.0132 51 90 51L449 51C469.987 51 487 68.0132 487 89C487 109.987 469.987 127 449 127L90 127C69.0132 127 52 109.987 52 89Z"/>
</mask>
<path d="M90 51L90 50H90V51ZM449 127L449 128H449V127ZM442 9V10L94 10V9V8L442 8V9ZM94 169V168L442 168V169V170L94 170V169ZM52 89H51C51 67.4609 68.4609 50 90 50L90 51L90 52C69.5655 52 53 68.5655 53 89H52ZM90 51V50L449 50V51V52L90 52V51ZM449 51V50C470.539 50 488 67.4609 488 89H487H486C486 68.5655 469.435 52 449 52V51ZM487 89H488C488 110.539 470.539 128 449 128L449 127L449 126C469.435 126 486 109.435 486 89H487ZM449 127V128L90 128V127V126L449 126V127ZM90 127V128C68.4609 128 51 110.539 51 89H52H53C53 109.435 69.5655 126 90 126V127ZM14 89H15C15 132.63 50.3695 168 94 168V169V170C49.2649 170 13 133.735 13 89H14ZM94 9V10C50.3695 10 15 45.3695 15 89H14H13C13 44.2649 49.2649 8 94 8V9ZM522 89H521C521 45.3695 485.63 10 442 10V9V8C486.735 8 523 44.2649 523 89H522ZM522 89H523C523 133.735 486.735 170 442 170V169V168C485.631 168 521 132.63 521 89H522Z" fill="#9E9E9E" mask="url(#path-43-inside-1_408_33990)"/>
<line x1="246" y1="50" x2="246" y2="128" stroke="#9E9E9E"/>
<path d="M444.771 37.179C443.816 37.179 442.966 37.0149 442.221 36.6868C441.479 36.3544 440.893 35.8984 440.463 35.3189C440.037 34.7351 439.817 34.0618 439.804 33.299H442.591C442.608 33.6186 442.713 33.8999 442.904 34.1428C443.1 34.3814 443.36 34.5668 443.684 34.6989C444.008 34.831 444.373 34.897 444.777 34.897C445.199 34.897 445.572 34.8224 445.896 34.6733C446.22 34.5241 446.473 34.3175 446.657 34.0533C446.84 33.7891 446.931 33.4844 446.931 33.1392C446.931 32.7898 446.833 32.4808 446.637 32.2124C446.446 31.9396 446.169 31.7266 445.806 31.5732C445.449 31.4197 445.022 31.343 444.528 31.343H443.307V29.3104H444.528C444.946 29.3104 445.314 29.2379 445.634 29.093C445.958 28.9482 446.209 28.7479 446.388 28.4922C446.567 28.2322 446.657 27.9297 446.657 27.5845C446.657 27.2564 446.578 26.9688 446.42 26.7216C446.267 26.4702 446.049 26.2741 445.768 26.1335C445.491 25.9929 445.167 25.9226 444.797 25.9226C444.422 25.9226 444.078 25.9908 443.767 26.1271C443.456 26.2592 443.207 26.4489 443.02 26.696C442.832 26.9432 442.732 27.233 442.719 27.5653H440.066C440.079 26.8111 440.294 26.1463 440.712 25.571C441.13 24.9957 441.692 24.5462 442.4 24.2223C443.111 23.8942 443.914 23.7301 444.809 23.7301C445.713 23.7301 446.503 23.8942 447.181 24.2223C447.858 24.5504 448.385 24.9936 448.76 25.5518C449.139 26.1058 449.326 26.728 449.322 27.4183C449.326 28.1513 449.098 28.7628 448.638 29.2528C448.182 29.7429 447.588 30.054 446.855 30.1861V30.2884C447.818 30.4119 448.551 30.7464 449.054 31.2919C449.561 31.8331 449.812 32.5107 449.808 33.3246C449.812 34.0703 449.597 34.733 449.162 35.3125C448.732 35.892 448.137 36.348 447.379 36.6804C446.62 37.0128 445.751 37.179 444.771 37.179ZM456.93 37.2876C455.831 37.2834 454.885 37.0128 454.092 36.4759C453.304 35.9389 452.697 35.1612 452.27 34.1428C451.849 33.1243 451.64 31.8991 451.644 30.4673C451.644 29.0398 451.855 27.8232 452.277 26.8175C452.703 25.8118 453.31 25.0469 454.099 24.5227C454.891 23.9943 455.835 23.7301 456.93 23.7301C458.025 23.7301 458.967 23.9943 459.756 24.5227C460.548 25.0511 461.157 25.8182 461.584 26.8239C462.01 27.8253 462.221 29.0398 462.216 30.4673C462.216 31.9034 462.003 33.1307 461.577 34.1491C461.155 35.1676 460.55 35.9453 459.762 36.4822C458.974 37.0192 458.03 37.2876 456.93 37.2876ZM456.93 34.9929C457.68 34.9929 458.279 34.6158 458.726 33.8615C459.174 33.1072 459.395 31.9759 459.391 30.4673C459.391 29.4744 459.289 28.6477 459.084 27.9872C458.884 27.3267 458.599 26.8303 458.228 26.4979C457.861 26.1655 457.429 25.9993 456.93 25.9993C456.184 25.9993 455.588 26.3722 455.14 27.1179C454.693 27.8636 454.467 28.9801 454.463 30.4673C454.463 31.473 454.563 32.3125 454.763 32.9858C454.968 33.6548 455.256 34.1577 455.626 34.4943C455.997 34.8267 456.432 34.9929 456.93 34.9929Z" fill="white"/>
<path d="M481.994 50.179C481.01 50.179 480.134 50.0192 479.367 49.6996C478.604 49.3757 478.006 48.9347 477.571 48.3764C477.136 47.8182 476.919 47.1854 476.919 46.478C476.919 45.9325 477.043 45.4318 477.29 44.9759C477.541 44.5156 477.882 44.1342 478.313 43.8317C478.743 43.5249 479.225 43.3288 479.757 43.2436V43.1541C479.058 43.0135 478.492 42.6747 478.057 42.1378C477.622 41.5966 477.405 40.968 477.405 40.2521C477.405 39.5746 477.603 38.9716 477.999 38.4432C478.396 37.9105 478.939 37.4929 479.629 37.1903C480.324 36.8835 481.112 36.7301 481.994 36.7301C482.877 36.7301 483.663 36.8835 484.353 37.1903C485.048 37.4972 485.593 37.9169 485.989 38.4496C486.386 38.978 486.586 39.5788 486.59 40.2521C486.586 40.9723 486.364 41.6009 485.926 42.1378C485.487 42.6747 484.924 43.0135 484.238 43.1541V43.2436C484.762 43.3288 485.237 43.5249 485.663 43.8317C486.094 44.1342 486.435 44.5156 486.686 44.9759C486.942 45.4318 487.072 45.9325 487.076 46.478C487.072 47.1854 486.852 47.8182 486.418 48.3764C485.983 48.9347 485.382 49.3757 484.615 49.6996C483.852 50.0192 482.979 50.179 481.994 50.179ZM481.994 48.1463C482.433 48.1463 482.817 48.0675 483.145 47.9098C483.473 47.7479 483.729 47.5263 483.912 47.245C484.1 46.9595 484.193 46.6314 484.193 46.2607C484.193 45.8814 484.097 45.5469 483.906 45.2571C483.714 44.9631 483.454 44.733 483.126 44.5668C482.798 44.3963 482.421 44.3111 481.994 44.3111C481.573 44.3111 481.195 44.3963 480.863 44.5668C480.531 44.733 480.269 44.9631 480.077 45.2571C479.889 45.5469 479.796 45.8814 479.796 46.2607C479.796 46.6314 479.887 46.9595 480.07 47.245C480.254 47.5263 480.511 47.7479 480.844 47.9098C481.176 48.0675 481.56 48.1463 481.994 48.1463ZM481.994 42.2976C482.361 42.2976 482.687 42.223 482.972 42.0739C483.258 41.9247 483.482 41.718 483.644 41.4538C483.805 41.1896 483.886 40.8849 483.886 40.5398C483.886 40.1989 483.805 39.9006 483.644 39.6449C483.482 39.3849 483.26 39.1825 482.979 39.0376C482.698 38.8885 482.369 38.8139 481.994 38.8139C481.624 38.8139 481.296 38.8885 481.01 39.0376C480.725 39.1825 480.501 39.3849 480.339 39.6449C480.181 39.9006 480.102 40.1989 480.102 40.5398C480.102 40.8849 480.183 41.1896 480.345 41.4538C480.507 41.718 480.731 41.9247 481.016 42.0739C481.302 42.223 481.628 42.2976 481.994 42.2976Z" fill="white"/>
<path d="M491.46 79V77.0057L496.119 72.6911C496.516 72.3075 496.848 71.9624 497.116 71.6555C497.389 71.3487 497.596 71.0483 497.737 70.7543C497.877 70.456 497.947 70.1342 497.947 69.7891C497.947 69.4055 497.86 69.0753 497.685 68.7983C497.511 68.517 497.272 68.3018 496.969 68.1527C496.667 67.9993 496.324 67.9226 495.94 67.9226C495.54 67.9226 495.19 68.0036 494.892 68.1655C494.594 68.3274 494.364 68.5597 494.202 68.8622C494.04 69.1648 493.959 69.5249 493.959 69.9425H491.332C491.332 69.0859 491.526 68.3423 491.913 67.7116C492.301 67.081 492.844 66.593 493.543 66.2479C494.242 65.9027 495.048 65.7301 495.96 65.7301C496.897 65.7301 497.713 65.8963 498.408 66.2287C499.107 66.5568 499.65 67.0128 500.038 67.5966C500.425 68.1804 500.619 68.8494 500.619 69.6037C500.619 70.098 500.521 70.5859 500.325 71.0675C500.134 71.549 499.79 72.0838 499.296 72.6719C498.802 73.2557 498.105 73.9567 497.206 74.7749L495.295 76.6477V76.7372H500.792V79H491.46ZM507.636 79.179C506.682 79.179 505.831 79.0149 505.086 78.6868C504.344 78.3544 503.758 77.8984 503.328 77.3189C502.902 76.7351 502.682 76.0618 502.67 75.299H505.456C505.474 75.6186 505.578 75.8999 505.77 76.1428C505.966 76.3814 506.226 76.5668 506.55 76.6989C506.873 76.831 507.238 76.897 507.643 76.897C508.064 76.897 508.437 76.8224 508.761 76.6733C509.085 76.5241 509.339 76.3175 509.522 76.0533C509.705 75.7891 509.797 75.4844 509.797 75.1392C509.797 74.7898 509.699 74.4808 509.503 74.2124C509.311 73.9396 509.034 73.7266 508.672 73.5732C508.314 73.4197 507.888 73.343 507.393 73.343H506.172V71.3104H507.393C507.811 71.3104 508.18 71.2379 508.499 71.093C508.823 70.9482 509.074 70.7479 509.253 70.4922C509.432 70.2322 509.522 69.9297 509.522 69.5845C509.522 69.2564 509.443 68.9688 509.285 68.7216C509.132 68.4702 508.915 68.2741 508.633 68.1335C508.356 67.9929 508.032 67.9226 507.662 67.9226C507.287 67.9226 506.944 67.9908 506.633 68.1271C506.322 68.2592 506.072 68.4489 505.885 68.696C505.697 68.9432 505.597 69.233 505.584 69.5653H502.932C502.944 68.8111 503.16 68.1463 503.577 67.571C503.995 66.9957 504.557 66.5462 505.265 66.2223C505.976 65.8942 506.78 65.7301 507.675 65.7301C508.578 65.7301 509.368 65.8942 510.046 66.2223C510.724 66.5504 511.25 66.9936 511.625 67.5518C512.004 68.1058 512.192 68.728 512.187 69.4183C512.192 70.1513 511.964 70.7628 511.503 71.2528C511.047 71.7429 510.453 72.054 509.72 72.1861V72.2884C510.683 72.4119 511.416 72.7464 511.919 73.2919C512.426 73.8331 512.677 74.5107 512.673 75.3246C512.677 76.0703 512.462 76.733 512.028 77.3125C511.597 77.892 511.003 78.348 510.244 78.6804C509.486 79.0128 508.616 79.179 507.636 79.179Z" fill="white"/>
<path d="M498.157 99.9091V113H495.389V102.536H495.312L492.314 104.415V101.961L495.555 99.9091H498.157ZM506.401 113.288C505.301 113.283 504.355 113.013 503.563 112.476C502.775 111.939 502.167 111.161 501.741 110.143C501.319 109.124 501.11 107.899 501.115 106.467C501.115 105.04 501.326 103.823 501.748 102.817C502.174 101.812 502.781 101.047 503.569 100.523C504.362 99.9943 505.306 99.7301 506.401 99.7301C507.496 99.7301 508.438 99.9943 509.226 100.523C510.019 101.051 510.628 101.818 511.054 102.824C511.48 103.825 511.691 105.04 511.687 106.467C511.687 107.903 511.474 109.131 511.048 110.149C510.626 111.168 510.021 111.945 509.233 112.482C508.444 113.019 507.5 113.288 506.401 113.288ZM506.401 110.993C507.151 110.993 507.75 110.616 508.197 109.862C508.645 109.107 508.866 107.976 508.862 106.467C508.862 105.474 508.76 104.648 508.555 103.987C508.355 103.327 508.069 102.83 507.699 102.498C507.332 102.165 506.9 101.999 506.401 101.999C505.655 101.999 505.059 102.372 504.611 103.118C504.164 103.864 503.938 104.98 503.934 106.467C503.934 107.473 504.034 108.312 504.234 108.986C504.439 109.655 504.726 110.158 505.097 110.494C505.468 110.827 505.902 110.993 506.401 110.993Z" fill="white"/>
<path d="M482.042 142.179C481.138 142.179 480.333 142.013 479.625 141.68C478.922 141.348 478.364 140.89 477.951 140.306C477.537 139.722 477.322 139.053 477.305 138.299H479.99C480.02 138.806 480.233 139.217 480.629 139.533C481.025 139.848 481.496 140.006 482.042 140.006C482.476 140.006 482.86 139.91 483.192 139.718C483.529 139.522 483.791 139.251 483.978 138.906C484.17 138.557 484.266 138.156 484.266 137.705C484.266 137.244 484.168 136.839 483.972 136.49C483.78 136.141 483.514 135.868 483.173 135.672C482.832 135.476 482.442 135.376 482.003 135.371C481.62 135.371 481.247 135.45 480.885 135.608C480.527 135.766 480.248 135.981 480.047 136.254L477.586 135.812L478.206 128.909H486.209V131.172H480.488L480.15 134.451H480.226C480.456 134.127 480.804 133.859 481.268 133.646C481.733 133.433 482.252 133.326 482.828 133.326C483.616 133.326 484.319 133.511 484.937 133.882C485.555 134.253 486.043 134.762 486.401 135.41C486.759 136.053 486.936 136.795 486.931 137.634C486.936 138.516 486.731 139.3 486.318 139.987C485.909 140.668 485.336 141.205 484.598 141.597C483.865 141.985 483.013 142.179 482.042 142.179Z" fill="white"/>
<path d="M440.433 155V153.006L445.093 148.691C445.489 148.308 445.822 147.962 446.09 147.656C446.363 147.349 446.57 147.048 446.71 146.754C446.851 146.456 446.921 146.134 446.921 145.789C446.921 145.406 446.834 145.075 446.659 144.798C446.484 144.517 446.246 144.302 445.943 144.153C445.641 143.999 445.297 143.923 444.914 143.923C444.513 143.923 444.164 144.004 443.866 144.165C443.567 144.327 443.337 144.56 443.175 144.862C443.013 145.165 442.932 145.525 442.932 145.942H440.305C440.305 145.086 440.499 144.342 440.887 143.712C441.275 143.081 441.818 142.593 442.517 142.248C443.216 141.903 444.021 141.73 444.933 141.73C445.871 141.73 446.687 141.896 447.381 142.229C448.08 142.557 448.623 143.013 449.011 143.597C449.399 144.18 449.593 144.849 449.593 145.604C449.593 146.098 449.495 146.586 449.299 147.067C449.107 147.549 448.764 148.084 448.27 148.672C447.775 149.256 447.079 149.957 446.18 150.775L444.268 152.648V152.737H449.766V155H440.433ZM451.292 152.699V150.519L456.757 141.909H458.636V144.926H457.524L454.079 150.379V150.481H461.845V152.699H451.292ZM457.575 155V152.034L457.626 151.069V141.909H460.221V155H457.575Z" fill="white"/>
<path d="M417.912 141.909V155H415.144V144.536H415.067L412.069 146.415V143.961L415.31 141.909H417.912ZM426.047 155.179C425.374 155.175 424.724 155.062 424.098 154.84C423.475 154.619 422.917 154.259 422.423 153.76C421.929 153.261 421.536 152.601 421.247 151.778C420.961 150.956 420.818 149.946 420.818 148.749C420.823 147.649 420.948 146.667 421.196 145.802C421.447 144.933 421.805 144.195 422.269 143.59C422.738 142.985 423.299 142.525 423.951 142.21C424.603 141.89 425.333 141.73 426.143 141.73C427.017 141.73 427.788 141.901 428.457 142.241C429.126 142.578 429.663 143.036 430.068 143.616C430.477 144.195 430.724 144.845 430.809 145.565H428.08C427.973 145.109 427.75 144.751 427.409 144.491C427.068 144.232 426.646 144.102 426.143 144.102C425.291 144.102 424.643 144.472 424.2 145.214C423.761 145.955 423.537 146.963 423.529 148.237H423.618C423.814 147.849 424.078 147.519 424.411 147.246C424.747 146.969 425.129 146.759 425.555 146.614C425.985 146.464 426.439 146.39 426.916 146.39C427.692 146.39 428.382 146.573 428.987 146.94C429.593 147.302 430.07 147.8 430.419 148.435C430.769 149.07 430.943 149.797 430.943 150.615C430.943 151.501 430.737 152.29 430.323 152.98C429.914 153.67 429.341 154.212 428.604 154.604C427.871 154.991 427.019 155.183 426.047 155.179ZM426.034 153.006C426.46 153.006 426.842 152.903 427.179 152.699C427.515 152.494 427.779 152.217 427.971 151.868C428.163 151.518 428.259 151.126 428.259 150.692C428.259 150.257 428.163 149.867 427.971 149.522C427.784 149.177 427.524 148.902 427.191 148.697C426.859 148.493 426.48 148.391 426.054 148.391C425.734 148.391 425.438 148.45 425.165 148.57C424.897 148.689 424.66 148.855 424.456 149.068C424.255 149.281 424.098 149.528 423.983 149.81C423.867 150.087 423.81 150.383 423.81 150.698C423.81 151.12 423.906 151.506 424.098 151.855C424.294 152.205 424.558 152.484 424.89 152.692C425.227 152.901 425.608 153.006 426.034 153.006Z" fill="white"/>
<path d="M388.535 155.179C387.58 155.179 386.73 155.015 385.984 154.687C385.243 154.354 384.657 153.898 384.226 153.319C383.8 152.735 383.581 152.062 383.568 151.299H386.355C386.372 151.619 386.476 151.9 386.668 152.143C386.864 152.381 387.124 152.567 387.448 152.699C387.772 152.831 388.136 152.897 388.541 152.897C388.963 152.897 389.336 152.822 389.66 152.673C389.983 152.524 390.237 152.317 390.42 152.053C390.604 151.789 390.695 151.484 390.695 151.139C390.695 150.79 390.597 150.481 390.401 150.212C390.209 149.94 389.932 149.727 389.57 149.573C389.212 149.42 388.786 149.343 388.292 149.343H387.071V147.31H388.292C388.709 147.31 389.078 147.238 389.398 147.093C389.721 146.948 389.973 146.748 390.152 146.492C390.331 146.232 390.42 145.93 390.42 145.585C390.42 145.256 390.341 144.969 390.184 144.722C390.03 144.47 389.813 144.274 389.532 144.134C389.255 143.993 388.931 143.923 388.56 143.923C388.185 143.923 387.842 143.991 387.531 144.127C387.22 144.259 386.971 144.449 386.783 144.696C386.596 144.943 386.496 145.233 386.483 145.565H383.83C383.843 144.811 384.058 144.146 384.476 143.571C384.893 142.996 385.456 142.546 386.163 142.222C386.875 141.894 387.678 141.73 388.573 141.73C389.476 141.73 390.267 141.894 390.944 142.222C391.622 142.55 392.148 142.994 392.523 143.552C392.903 144.106 393.09 144.728 393.086 145.418C393.09 146.151 392.862 146.763 392.402 147.253C391.946 147.743 391.351 148.054 390.618 148.186V148.288C391.581 148.412 392.314 148.746 392.817 149.292C393.324 149.833 393.576 150.511 393.572 151.325C393.576 152.07 393.361 152.733 392.926 153.312C392.496 153.892 391.901 154.348 391.143 154.68C390.384 155.013 389.515 155.179 388.535 155.179ZM400.4 155.179C399.445 155.179 398.595 155.015 397.849 154.687C397.108 154.354 396.522 153.898 396.092 153.319C395.665 152.735 395.446 152.062 395.433 151.299H398.22C398.237 151.619 398.342 151.9 398.533 152.143C398.729 152.381 398.989 152.567 399.313 152.699C399.637 152.831 400.001 152.897 400.406 152.897C400.828 152.897 401.201 152.822 401.525 152.673C401.849 152.524 402.102 152.317 402.286 152.053C402.469 151.789 402.56 151.484 402.56 151.139C402.56 150.79 402.462 150.481 402.266 150.212C402.075 149.94 401.798 149.727 401.435 149.573C401.077 149.42 400.651 149.343 400.157 149.343H398.936V147.31H400.157C400.575 147.31 400.943 147.238 401.263 147.093C401.587 146.948 401.838 146.748 402.017 146.492C402.196 146.232 402.286 145.93 402.286 145.585C402.286 145.256 402.207 144.969 402.049 144.722C401.896 144.47 401.678 144.274 401.397 144.134C401.12 143.993 400.796 143.923 400.425 143.923C400.05 143.923 399.707 143.991 399.396 144.127C399.085 144.259 398.836 144.449 398.648 144.696C398.461 144.943 398.361 145.233 398.348 145.565H395.695C395.708 144.811 395.923 144.146 396.341 143.571C396.759 142.996 397.321 142.546 398.028 142.222C398.74 141.894 399.543 141.73 400.438 141.73C401.342 141.73 402.132 141.894 402.81 142.222C403.487 142.55 404.013 142.994 404.388 143.552C404.768 144.106 404.955 144.728 404.951 145.418C404.955 146.151 404.727 146.763 404.267 147.253C403.811 147.743 403.217 148.054 402.484 148.186V148.288C403.447 148.412 404.18 148.746 404.683 149.292C405.19 149.833 405.441 150.511 405.437 151.325C405.441 152.07 405.226 152.733 404.791 153.312C404.361 153.892 403.766 154.348 403.008 154.68C402.249 155.013 401.38 155.179 400.4 155.179Z" fill="white"/>
<path d="M369.853 141.909V155H367.085V144.536H367.009L364.011 146.415V143.961L367.252 141.909H369.853Z" fill="white"/>
<path d="M329.696 155V153.006L334.356 148.691C334.752 148.308 335.084 147.962 335.353 147.656C335.626 147.349 335.832 147.048 335.973 146.754C336.113 146.456 336.184 146.134 336.184 145.789C336.184 145.406 336.096 145.075 335.922 144.798C335.747 144.517 335.508 144.302 335.206 144.153C334.903 143.999 334.56 143.923 334.177 143.923C333.776 143.923 333.427 144.004 333.128 144.165C332.83 144.327 332.6 144.56 332.438 144.862C332.276 145.165 332.195 145.525 332.195 145.942H329.568C329.568 145.086 329.762 144.342 330.15 143.712C330.537 143.081 331.081 142.593 331.78 142.248C332.479 141.903 333.284 141.73 334.196 141.73C335.133 141.73 335.949 141.896 336.644 142.229C337.343 142.557 337.886 143.013 338.274 143.597C338.662 144.18 338.856 144.849 338.856 145.604C338.856 146.098 338.758 146.586 338.562 147.067C338.37 147.549 338.027 148.084 337.532 148.672C337.038 149.256 336.341 149.957 335.442 150.775L333.531 152.648V152.737H339.028V155H329.696ZM346.167 155.288C345.067 155.283 344.121 155.013 343.328 154.476C342.54 153.939 341.933 153.161 341.507 152.143C341.085 151.124 340.876 149.899 340.88 148.467C340.88 147.04 341.091 145.823 341.513 144.817C341.939 143.812 342.547 143.047 343.335 142.523C344.127 141.994 345.071 141.73 346.167 141.73C347.262 141.73 348.203 141.994 348.992 142.523C349.784 143.051 350.394 143.818 350.82 144.824C351.246 145.825 351.457 147.04 351.453 148.467C351.453 149.903 351.24 151.131 350.814 152.149C350.392 153.168 349.787 153.945 348.998 154.482C348.21 155.019 347.266 155.288 346.167 155.288ZM346.167 152.993C346.917 152.993 347.515 152.616 347.963 151.862C348.41 151.107 348.632 149.976 348.627 148.467C348.627 147.474 348.525 146.648 348.321 145.987C348.12 145.327 347.835 144.83 347.464 144.498C347.098 144.165 346.665 143.999 346.167 143.999C345.421 143.999 344.824 144.372 344.377 145.118C343.929 145.864 343.703 146.98 343.699 148.467C343.699 149.473 343.799 150.312 344 150.986C344.204 151.655 344.492 152.158 344.863 152.494C345.233 152.827 345.668 152.993 346.167 152.993Z" fill="white"/>
<path d="M309.753 141.909V155H306.986V144.536H306.909L303.911 146.415V143.961L307.152 141.909H309.753ZM312.667 152.699V150.519L318.132 141.909H320.011V144.926H318.899L315.454 150.379V150.481H323.22V152.699H312.667ZM318.95 155V152.034L319.001 151.069V141.909H321.596V155H318.95Z" fill="white"/>
<path d="M282.064 155.179C281.109 155.179 280.259 155.015 279.513 154.687C278.772 154.354 278.186 153.898 277.756 153.319C277.33 152.735 277.11 152.062 277.097 151.299H279.884C279.901 151.619 280.006 151.9 280.197 152.143C280.393 152.381 280.653 152.567 280.977 152.699C281.301 152.831 281.665 152.897 282.07 152.897C282.492 152.897 282.865 152.822 283.189 152.673C283.513 152.524 283.766 152.317 283.95 152.053C284.133 151.789 284.224 151.484 284.224 151.139C284.224 150.79 284.126 150.481 283.93 150.212C283.739 149.94 283.462 149.727 283.099 149.573C282.741 149.42 282.315 149.343 281.821 149.343H280.6V147.31H281.821C282.239 147.31 282.607 147.238 282.927 147.093C283.251 146.948 283.502 146.748 283.681 146.492C283.86 146.232 283.95 145.93 283.95 145.585C283.95 145.256 283.871 144.969 283.713 144.722C283.56 144.47 283.342 144.274 283.061 144.134C282.784 143.993 282.46 143.923 282.089 143.923C281.714 143.923 281.371 143.991 281.06 144.127C280.749 144.259 280.5 144.449 280.312 144.696C280.125 144.943 280.025 145.233 280.012 145.565H277.359C277.372 144.811 277.587 144.146 278.005 143.571C278.423 142.996 278.985 142.546 279.692 142.222C280.404 141.894 281.207 141.73 282.102 141.73C283.006 141.73 283.796 141.894 284.474 142.222C285.151 142.55 285.678 142.994 286.053 143.552C286.432 144.106 286.619 144.728 286.615 145.418C286.619 146.151 286.391 146.763 285.931 147.253C285.475 147.743 284.881 148.054 284.148 148.186V148.288C285.111 148.412 285.844 148.746 286.347 149.292C286.854 149.833 287.105 150.511 287.101 151.325C287.105 152.07 286.89 152.733 286.455 153.312C286.025 153.892 285.43 154.348 284.672 154.68C283.913 155.013 283.044 155.179 282.064 155.179ZM294.786 141.909V155H292.018V144.536H291.941L288.943 146.415V143.961L292.184 141.909H294.786Z" fill="white"/>
<path d="M259.356 141.73C260.029 141.73 260.677 141.843 261.299 142.069C261.926 142.295 262.484 142.655 262.974 143.149C263.468 143.643 263.858 144.3 264.144 145.118C264.434 145.932 264.581 146.931 264.585 148.116C264.585 149.228 264.459 150.221 264.208 151.094C263.961 151.964 263.605 152.703 263.14 153.312C262.676 153.922 262.115 154.386 261.459 154.706C260.803 155.021 260.07 155.179 259.26 155.179C258.387 155.179 257.615 155.011 256.946 154.674C256.277 154.333 255.738 153.871 255.329 153.287C254.924 152.699 254.679 152.038 254.594 151.305H257.324C257.43 151.783 257.654 152.153 257.995 152.418C258.336 152.678 258.757 152.808 259.26 152.808C260.113 152.808 260.76 152.437 261.203 151.695C261.647 150.95 261.87 149.929 261.875 148.634H261.785C261.589 149.017 261.325 149.347 260.993 149.624C260.66 149.897 260.279 150.108 259.848 150.257C259.422 150.406 258.968 150.481 258.487 150.481C257.716 150.481 257.027 150.3 256.422 149.938C255.817 149.575 255.34 149.077 254.99 148.442C254.641 147.807 254.466 147.082 254.466 146.268C254.462 145.391 254.664 144.609 255.074 143.923C255.483 143.237 256.054 142.7 256.787 142.312C257.524 141.92 258.38 141.726 259.356 141.73ZM259.375 143.903C258.945 143.903 258.561 144.006 258.225 144.21C257.892 144.415 257.628 144.69 257.432 145.035C257.24 145.38 257.147 145.766 257.151 146.192C257.151 146.622 257.245 147.01 257.432 147.355C257.624 147.696 257.884 147.969 258.212 148.173C258.544 148.374 258.924 148.474 259.35 148.474C259.669 148.474 259.966 148.414 260.238 148.295C260.511 148.175 260.748 148.011 260.948 147.803C261.152 147.589 261.312 147.344 261.427 147.067C261.542 146.79 261.6 146.496 261.6 146.185C261.596 145.772 261.498 145.393 261.306 145.048C261.114 144.702 260.85 144.425 260.513 144.217C260.176 144.008 259.797 143.903 259.375 143.903Z" fill="white"/>
<path d="M222.223 155V153.006L226.883 148.691C227.279 148.308 227.612 147.962 227.88 147.656C228.153 147.349 228.36 147.048 228.5 146.754C228.641 146.456 228.711 146.134 228.711 145.789C228.711 145.406 228.624 145.075 228.449 144.798C228.274 144.517 228.036 144.302 227.733 144.153C227.431 143.999 227.088 143.923 226.704 143.923C226.303 143.923 225.954 144.004 225.656 144.165C225.357 144.327 225.127 144.56 224.965 144.862C224.803 145.165 224.722 145.525 224.722 145.942H222.095C222.095 145.086 222.289 144.342 222.677 143.712C223.065 143.081 223.608 142.593 224.307 142.248C225.006 141.903 225.811 141.73 226.723 141.73C227.661 141.73 228.477 141.896 229.171 142.229C229.87 142.557 230.414 143.013 230.801 143.597C231.189 144.18 231.383 144.849 231.383 145.604C231.383 146.098 231.285 146.586 231.089 147.067C230.897 147.549 230.554 148.084 230.06 148.672C229.566 149.256 228.869 149.957 227.97 150.775L226.058 152.648V152.737H231.556V155H222.223ZM233.561 155V153.006L238.221 148.691C238.617 148.308 238.95 147.962 239.218 147.656C239.491 147.349 239.697 147.048 239.838 146.754C239.979 146.456 240.049 146.134 240.049 145.789C240.049 145.406 239.962 145.075 239.787 144.798C239.612 144.517 239.374 144.302 239.071 144.153C238.768 143.999 238.425 143.923 238.042 143.923C237.641 143.923 237.292 144.004 236.994 144.165C236.695 144.327 236.465 144.56 236.303 144.862C236.141 145.165 236.06 145.525 236.06 145.942H233.433C233.433 145.086 233.627 144.342 234.015 143.712C234.403 143.081 234.946 142.593 235.645 142.248C236.344 141.903 237.149 141.73 238.061 141.73C238.999 141.73 239.815 141.896 240.509 142.229C241.208 142.557 241.751 143.013 242.139 143.597C242.527 144.18 242.721 144.849 242.721 145.604C242.721 146.098 242.623 146.586 242.427 147.067C242.235 147.549 241.892 148.084 241.398 148.672C240.903 149.256 240.207 149.957 239.308 150.775L237.396 152.648V152.737H242.893V155H233.561Z" fill="white"/>
<path d="M201.903 141.909V155H199.135V144.536H199.058L196.061 146.415V143.961L199.301 141.909H201.903ZM209.898 155.179C208.913 155.179 208.038 155.019 207.271 154.7C206.508 154.376 205.909 153.935 205.474 153.376C205.04 152.818 204.822 152.185 204.822 151.478C204.822 150.933 204.946 150.432 205.193 149.976C205.445 149.516 205.786 149.134 206.216 148.832C206.646 148.525 207.128 148.329 207.661 148.244V148.154C206.962 148.013 206.395 147.675 205.96 147.138C205.526 146.597 205.308 145.968 205.308 145.252C205.308 144.575 205.506 143.972 205.903 143.443C206.299 142.911 206.842 142.493 207.533 142.19C208.227 141.884 209.016 141.73 209.898 141.73C210.78 141.73 211.566 141.884 212.256 142.19C212.951 142.497 213.496 142.917 213.893 143.45C214.289 143.978 214.489 144.579 214.494 145.252C214.489 145.972 214.268 146.601 213.829 147.138C213.39 147.675 212.827 148.013 212.141 148.154V148.244C212.665 148.329 213.141 148.525 213.567 148.832C213.997 149.134 214.338 149.516 214.589 149.976C214.845 150.432 214.975 150.933 214.979 151.478C214.975 152.185 214.756 152.818 214.321 153.376C213.886 153.935 213.286 154.376 212.518 154.7C211.756 155.019 210.882 155.179 209.898 155.179ZM209.898 153.146C210.337 153.146 210.72 153.067 211.048 152.91C211.376 152.748 211.632 152.526 211.815 152.245C212.003 151.96 212.097 151.631 212.097 151.261C212.097 150.881 212.001 150.547 211.809 150.257C211.617 149.963 211.357 149.733 211.029 149.567C210.701 149.396 210.324 149.311 209.898 149.311C209.476 149.311 209.099 149.396 208.766 149.567C208.434 149.733 208.172 149.963 207.98 150.257C207.793 150.547 207.699 150.881 207.699 151.261C207.699 151.631 207.79 151.96 207.974 152.245C208.157 152.526 208.415 152.748 208.747 152.91C209.08 153.067 209.463 153.146 209.898 153.146ZM209.898 147.298C210.264 147.298 210.59 147.223 210.876 147.074C211.161 146.925 211.385 146.718 211.547 146.454C211.709 146.19 211.79 145.885 211.79 145.54C211.79 145.199 211.709 144.901 211.547 144.645C211.385 144.385 211.163 144.183 210.882 144.038C210.601 143.888 210.273 143.814 209.898 143.814C209.527 143.814 209.199 143.888 208.913 144.038C208.628 144.183 208.404 144.385 208.242 144.645C208.085 144.901 208.006 145.199 208.006 145.54C208.006 145.885 208.087 146.19 208.249 146.454C208.411 146.718 208.634 146.925 208.92 147.074C209.205 147.223 209.531 147.298 209.898 147.298Z" fill="white"/>
<path d="M167.951 155V153.006L172.611 148.691C173.007 148.308 173.339 147.962 173.608 147.656C173.88 147.349 174.087 147.048 174.228 146.754C174.368 146.456 174.439 146.134 174.439 145.789C174.439 145.406 174.351 145.075 174.177 144.798C174.002 144.517 173.763 144.302 173.461 144.153C173.158 143.999 172.815 143.923 172.432 143.923C172.031 143.923 171.682 144.004 171.383 144.165C171.085 144.327 170.855 144.56 170.693 144.862C170.531 145.165 170.45 145.525 170.45 145.942H167.823C167.823 145.086 168.017 144.342 168.405 143.712C168.792 143.081 169.336 142.593 170.035 142.248C170.733 141.903 171.539 141.73 172.451 141.73C173.388 141.73 174.204 141.896 174.899 142.229C175.598 142.557 176.141 143.013 176.529 143.597C176.917 144.18 177.111 144.849 177.111 145.604C177.111 146.098 177.013 146.586 176.816 147.067C176.625 147.549 176.282 148.084 175.787 148.672C175.293 149.256 174.596 149.957 173.697 150.775L171.786 152.648V152.737H177.283V155H167.951ZM184.025 141.73C184.698 141.73 185.346 141.843 185.968 142.069C186.595 142.295 187.153 142.655 187.643 143.149C188.137 143.643 188.527 144.3 188.813 145.118C189.103 145.932 189.25 146.931 189.254 148.116C189.254 149.228 189.128 150.221 188.877 151.094C188.63 151.964 188.274 152.703 187.809 153.312C187.345 153.922 186.784 154.386 186.128 154.706C185.472 155.021 184.739 155.179 183.929 155.179C183.056 155.179 182.284 155.011 181.615 154.674C180.946 154.333 180.407 153.871 179.998 153.287C179.593 152.699 179.348 152.038 179.263 151.305H181.992C182.099 151.783 182.323 152.153 182.664 152.418C183.005 152.678 183.426 152.808 183.929 152.808C184.782 152.808 185.429 152.437 185.872 151.695C186.316 150.95 186.539 149.929 186.544 148.634H186.454C186.258 149.017 185.994 149.347 185.661 149.624C185.329 149.897 184.948 150.108 184.517 150.257C184.091 150.406 183.637 150.481 183.156 150.481C182.384 150.481 181.696 150.3 181.091 149.938C180.486 149.575 180.009 149.077 179.659 148.442C179.31 147.807 179.135 147.082 179.135 146.268C179.131 145.391 179.333 144.609 179.742 143.923C180.152 143.237 180.723 142.7 181.456 142.312C182.193 141.92 183.049 141.726 184.025 141.73ZM184.044 143.903C183.614 143.903 183.23 144.006 182.894 144.21C182.561 144.415 182.297 144.69 182.101 145.035C181.909 145.38 181.816 145.766 181.82 146.192C181.82 146.622 181.914 147.01 182.101 147.355C182.293 147.696 182.553 147.969 182.881 148.173C183.213 148.374 183.593 148.474 184.019 148.474C184.338 148.474 184.634 148.414 184.907 148.295C185.18 148.175 185.416 148.011 185.617 147.803C185.821 147.589 185.981 147.344 186.096 147.067C186.211 146.79 186.269 146.496 186.269 146.185C186.264 145.772 186.166 145.393 185.975 145.048C185.783 144.702 185.519 144.425 185.182 144.217C184.845 144.008 184.466 143.903 184.044 143.903Z" fill="white"/>
<path d="M147.726 155L153.153 144.261V144.172H146.831V141.909H156.017V144.204L150.584 155H147.726Z" fill="white"/>
<path d="M113.942 155V153.006L118.602 148.691C118.998 148.308 119.33 147.962 119.599 147.656C119.872 147.349 120.078 147.048 120.219 146.754C120.36 146.456 120.43 146.134 120.43 145.789C120.43 145.406 120.343 145.075 120.168 144.798C119.993 144.517 119.754 144.302 119.452 144.153C119.149 143.999 118.806 143.923 118.423 143.923C118.022 143.923 117.673 144.004 117.374 144.165C117.076 144.327 116.846 144.56 116.684 144.862C116.522 145.165 116.441 145.525 116.441 145.942H113.814C113.814 145.086 114.008 144.342 114.396 143.712C114.784 143.081 115.327 142.593 116.026 142.248C116.725 141.903 117.53 141.73 118.442 141.73C119.379 141.73 120.195 141.896 120.89 142.229C121.589 142.557 122.132 143.013 122.52 143.597C122.908 144.18 123.102 144.849 123.102 145.604C123.102 146.098 123.004 146.586 122.808 147.067C122.616 147.549 122.273 148.084 121.779 148.672C121.284 149.256 120.588 149.957 119.688 150.775L117.777 152.648V152.737H123.274V155H113.942ZM130.163 155.179C129.179 155.179 128.303 155.019 127.536 154.7C126.773 154.376 126.175 153.935 125.74 153.376C125.305 152.818 125.088 152.185 125.088 151.478C125.088 150.933 125.212 150.432 125.459 149.976C125.71 149.516 126.051 149.134 126.482 148.832C126.912 148.525 127.393 148.329 127.926 148.244V148.154C127.227 148.013 126.661 147.675 126.226 147.138C125.791 146.597 125.574 145.968 125.574 145.252C125.574 144.575 125.772 143.972 126.168 143.443C126.565 142.911 127.108 142.493 127.798 142.19C128.493 141.884 129.281 141.73 130.163 141.73C131.045 141.73 131.832 141.884 132.522 142.19C133.217 142.497 133.762 142.917 134.158 143.45C134.555 143.978 134.755 144.579 134.759 145.252C134.755 145.972 134.533 146.601 134.094 147.138C133.656 147.675 133.093 148.013 132.407 148.154V148.244C132.931 148.329 133.406 148.525 133.832 148.832C134.263 149.134 134.604 149.516 134.855 149.976C135.111 150.432 135.241 150.933 135.245 151.478C135.241 152.185 135.021 152.818 134.587 153.376C134.152 153.935 133.551 154.376 132.784 154.7C132.021 155.019 131.148 155.179 130.163 155.179ZM130.163 153.146C130.602 153.146 130.986 153.067 131.314 152.91C131.642 152.748 131.898 152.526 132.081 152.245C132.268 151.96 132.362 151.631 132.362 151.261C132.362 150.881 132.266 150.547 132.075 150.257C131.883 149.963 131.623 149.733 131.295 149.567C130.967 149.396 130.589 149.311 130.163 149.311C129.741 149.311 129.364 149.396 129.032 149.567C128.7 149.733 128.438 149.963 128.246 150.257C128.058 150.547 127.964 150.881 127.964 151.261C127.964 151.631 128.056 151.96 128.239 152.245C128.423 152.526 128.68 152.748 129.013 152.91C129.345 153.067 129.729 153.146 130.163 153.146ZM130.163 147.298C130.53 147.298 130.856 147.223 131.141 147.074C131.427 146.925 131.651 146.718 131.812 146.454C131.974 146.19 132.055 145.885 132.055 145.54C132.055 145.199 131.974 144.901 131.812 144.645C131.651 144.385 131.429 144.183 131.148 144.038C130.866 143.888 130.538 143.814 130.163 143.814C129.793 143.814 129.464 143.888 129.179 144.038C128.893 144.183 128.67 144.385 128.508 144.645C128.35 144.901 128.271 145.199 128.271 145.54C128.271 145.885 128.352 146.19 128.514 146.454C128.676 146.718 128.9 146.925 129.185 147.074C129.471 147.223 129.797 147.298 130.163 147.298Z" fill="white"/>
<path d="M94.6841 141.909V155H91.9164V144.536H91.8397L88.8418 146.415V143.961L92.0826 141.909H94.6841ZM97.7955 155V153.006L102.455 148.691C102.852 148.308 103.184 147.962 103.452 147.656C103.725 147.349 103.932 147.048 104.072 146.754C104.213 146.456 104.283 146.134 104.283 145.789C104.283 145.406 104.196 145.075 104.021 144.798C103.847 144.517 103.608 144.302 103.305 144.153C103.003 143.999 102.66 143.923 102.276 143.923C101.876 143.923 101.526 144.004 101.228 144.165C100.93 144.327 100.7 144.56 100.538 144.862C100.376 145.165 100.295 145.525 100.295 145.942H97.6676C97.6676 145.086 97.8615 144.342 98.2493 143.712C98.6371 143.081 99.1804 142.593 99.8793 142.248C100.578 141.903 101.384 141.73 102.295 141.73C103.233 141.73 104.049 141.896 104.744 142.229C105.442 142.557 105.986 143.013 106.374 143.597C106.761 144.18 106.955 144.849 106.955 145.604C106.955 146.098 106.857 146.586 106.661 147.067C106.469 147.549 106.126 148.084 105.632 148.672C105.138 149.256 104.441 149.957 103.542 150.775L101.631 152.648V152.737H107.128V155H97.7955Z" fill="white"/>
<path d="M64.1665 151.179C63.2119 151.179 62.3618 151.015 61.616 150.687C60.8746 150.354 60.2886 149.898 59.8582 149.319C59.4321 148.735 59.2126 148.062 59.1998 147.299H61.9868C62.0038 147.619 62.1082 147.9 62.3 148.143C62.496 148.381 62.7559 148.567 63.0798 148.699C63.4037 148.831 63.768 148.897 64.1729 148.897C64.5947 148.897 64.9676 148.822 65.2915 148.673C65.6153 148.524 65.8689 148.317 66.0521 148.053C66.2354 147.789 66.327 147.484 66.327 147.139C66.327 146.79 66.229 146.481 66.0329 146.212C65.8412 145.94 65.5642 145.727 65.202 145.573C64.844 145.42 64.4179 145.343 63.9236 145.343H62.7027V143.31H63.9236C64.3412 143.31 64.7098 143.238 65.0294 143.093C65.3532 142.948 65.6047 142.748 65.7836 142.492C65.9626 142.232 66.0521 141.93 66.0521 141.585C66.0521 141.256 65.9733 140.969 65.8156 140.722C65.6622 140.47 65.4449 140.274 65.1636 140.134C64.8866 139.993 64.5628 139.923 64.192 139.923C63.817 139.923 63.474 139.991 63.1629 140.127C62.8518 140.259 62.6025 140.449 62.415 140.696C62.2275 140.943 62.1274 141.233 62.1146 141.565H59.4619C59.4747 140.811 59.6899 140.146 60.1075 139.571C60.5251 138.996 61.0876 138.546 61.795 138.222C62.5067 137.894 63.3099 137.73 64.2048 137.73C65.1082 137.73 65.8987 137.894 66.5763 138.222C67.2538 138.55 67.7801 138.994 68.1551 139.552C68.5344 140.106 68.7219 140.728 68.7176 141.418C68.7219 142.151 68.4939 142.763 68.0336 143.253C67.5777 143.743 66.9832 144.054 66.2503 144.186V144.288C67.2133 144.412 67.9463 144.746 68.4491 145.292C68.9562 145.833 69.2077 146.511 69.2034 147.325C69.2077 148.07 68.9925 148.733 68.5578 149.312C68.1274 149.892 67.5329 150.348 66.7744 150.68C66.0159 151.013 65.1466 151.179 64.1665 151.179ZM75.9742 151.179C75.0708 151.179 74.2654 151.013 73.558 150.68C72.8548 150.348 72.2966 149.89 71.8833 149.306C71.4699 148.722 71.2547 148.053 71.2377 147.299H73.9223C73.9521 147.806 74.1652 148.217 74.5615 148.533C74.9578 148.848 75.4287 149.006 75.9742 149.006C76.4088 149.006 76.7923 148.91 77.1247 148.718C77.4614 148.522 77.7235 148.251 77.911 147.906C78.1027 147.557 78.1986 147.156 78.1986 146.705C78.1986 146.244 78.1006 145.839 77.9046 145.49C77.7128 145.141 77.4465 144.868 77.1056 144.672C76.7646 144.476 76.3747 144.376 75.9358 144.371C75.5523 144.371 75.1794 144.45 74.8172 144.608C74.4593 144.766 74.1801 144.981 73.9798 145.254L71.5189 144.812L72.1389 137.909H80.1418V140.172H74.4209L74.0821 143.451H74.1588C74.3889 143.127 74.7362 142.859 75.2007 142.646C75.6652 142.433 76.1851 142.326 76.7604 142.326C77.5487 142.326 78.2519 142.511 78.8698 142.882C79.4877 143.253 79.9756 143.762 80.3335 144.41C80.6915 145.053 80.8683 145.795 80.8641 146.634C80.8683 147.516 80.6638 148.3 80.2504 148.987C79.8414 149.668 79.2682 150.205 78.531 150.597C77.798 150.985 76.9458 151.179 75.9742 151.179Z" fill="white"/>
<path d="M42.9672 129.179C42.0127 129.179 41.1626 129.015 40.4168 128.687C39.6753 128.354 39.0894 127.898 38.659 127.319C38.2329 126.735 38.0134 126.062 38.0006 125.299H40.7876C40.8046 125.619 40.909 125.9 41.1008 126.143C41.2968 126.381 41.5567 126.567 41.8806 126.699C42.2045 126.831 42.5688 126.897 42.9736 126.897C43.3955 126.897 43.7684 126.822 44.0922 126.673C44.4161 126.524 44.6697 126.317 44.8529 126.053C45.0361 125.789 45.1278 125.484 45.1278 125.139C45.1278 124.79 45.0297 124.481 44.8337 124.212C44.642 123.94 44.365 123.727 44.0028 123.573C43.6448 123.42 43.2187 123.343 42.7243 123.343H41.5035V121.31H42.7243C43.142 121.31 43.5106 121.238 43.8302 121.093C44.154 120.948 44.4055 120.748 44.5844 120.492C44.7634 120.232 44.8529 119.93 44.8529 119.585C44.8529 119.256 44.7741 118.969 44.6164 118.722C44.463 118.47 44.2457 118.274 43.9644 118.134C43.6874 117.993 43.3635 117.923 42.9928 117.923C42.6178 117.923 42.2748 117.991 41.9637 118.127C41.6526 118.259 41.4033 118.449 41.2158 118.696C41.0283 118.943 40.9282 119.233 40.9154 119.565H38.2627C38.2755 118.811 38.4907 118.146 38.9083 117.571C39.3259 116.996 39.8884 116.546 40.5958 116.222C41.3074 115.894 42.1107 115.73 43.0056 115.73C43.909 115.73 44.6995 115.894 45.377 116.222C46.0546 116.55 46.5809 116.994 46.9559 117.552C47.3351 118.106 47.5226 118.728 47.5184 119.418C47.5226 120.151 47.2947 120.763 46.8344 121.253C46.3785 121.743 45.784 122.054 45.051 122.186V122.288C46.0141 122.412 46.7471 122.746 47.2499 123.292C47.757 123.833 48.0084 124.511 48.0042 125.325C48.0084 126.07 47.7932 126.733 47.3586 127.312C46.9282 127.892 46.3337 128.348 45.5752 128.68C44.8167 129.013 43.9474 129.179 42.9672 129.179Z" fill="white"/>
<path d="M21.4507 96V94.0057L26.1105 89.6911C26.5068 89.3075 26.8392 88.9624 27.1077 88.6555C27.3804 88.3487 27.5871 88.0483 27.7277 87.7543C27.8683 87.456 27.9387 87.1342 27.9387 86.7891C27.9387 86.4055 27.8513 86.0753 27.6766 85.7983C27.5019 85.517 27.2632 85.3018 26.9607 85.1527C26.6581 84.9993 26.3151 84.9226 25.9316 84.9226C25.531 84.9226 25.1816 85.0036 24.8833 85.1655C24.585 85.3274 24.3548 85.5597 24.1929 85.8622C24.031 86.1648 23.95 86.5249 23.95 86.9425H21.3229C21.3229 86.0859 21.5168 85.3423 21.9046 84.7116C22.2923 84.081 22.8357 83.593 23.5345 83.2479C24.2334 82.9027 25.0388 82.7301 25.9507 82.7301C26.8882 82.7301 27.7043 82.8963 28.3989 83.2287C29.0977 83.5568 29.6411 84.0128 30.0289 84.5966C30.4166 85.1804 30.6105 85.8494 30.6105 86.6037C30.6105 87.098 30.5125 87.5859 30.3165 88.0675C30.1247 88.549 29.7817 89.0838 29.2874 89.6719C28.7931 90.2557 28.0963 90.9567 27.1972 91.7749L25.286 93.6477V93.7372H30.7831V96H21.4507ZM37.8128 96.179C37.1395 96.1747 36.4896 96.0618 35.8632 95.8402C35.241 95.6186 34.6828 95.2585 34.1885 94.7599C33.6942 94.2614 33.3021 93.6009 33.0123 92.7784C32.7268 91.956 32.5841 90.946 32.5841 89.7486C32.5883 88.6491 32.714 87.6669 32.9612 86.8018C33.2126 85.9325 33.5706 85.1953 34.0351 84.5902C34.5038 83.9851 35.0642 83.5249 35.7162 83.2095C36.3682 82.8899 37.099 82.7301 37.9086 82.7301C38.7822 82.7301 39.5535 82.9006 40.2226 83.2415C40.8916 83.5781 41.4285 84.0362 41.8334 84.6158C42.2425 85.1953 42.4896 85.8452 42.5748 86.5653H39.8454C39.7389 86.1094 39.5152 85.7514 39.1743 85.4915C38.8334 85.2315 38.4115 85.1016 37.9086 85.1016C37.0564 85.1016 36.4086 85.4723 35.9655 86.2138C35.5265 86.9553 35.3028 87.9631 35.2943 89.2372H35.3838C35.5798 88.8494 35.844 88.5192 36.1764 88.2464C36.5131 87.9695 36.8944 87.7585 37.3206 87.6136C37.751 87.4645 38.2048 87.3899 38.6821 87.3899C39.4577 87.3899 40.148 87.5732 40.7531 87.9396C41.3582 88.3018 41.8355 88.8004 42.1849 89.4354C42.5344 90.0703 42.7091 90.7969 42.7091 91.6151C42.7091 92.5014 42.5024 93.2898 42.089 93.9801C41.68 94.6705 41.1068 95.2116 40.3696 95.6037C39.6366 95.9915 38.7844 96.1832 37.8128 96.179ZM37.8 94.0057C38.2261 94.0057 38.6075 93.9034 38.9442 93.6989C39.2808 93.4943 39.545 93.2173 39.7368 92.8679C39.9285 92.5185 40.0244 92.1264 40.0244 91.6918C40.0244 91.2571 39.9285 90.8672 39.7368 90.522C39.5493 90.1768 39.2893 89.902 38.9569 89.6974C38.6246 89.4929 38.2453 89.3906 37.8192 89.3906C37.4996 89.3906 37.2034 89.4503 36.9307 89.5696C36.6622 89.6889 36.4257 89.8551 36.2211 90.0682C36.0209 90.2812 35.8632 90.5284 35.7481 90.8097C35.6331 91.0866 35.5756 91.3828 35.5756 91.6982C35.5756 92.12 35.6714 92.5057 35.8632 92.8551C36.0592 93.2045 36.3234 93.4837 36.6558 93.6925C36.9925 93.9013 37.3738 94.0057 37.8 94.0057Z" fill="white"/>
<path d="M44.9976 63.2876C43.8982 63.2834 42.9521 63.0128 42.1595 62.4759C41.3712 61.9389 40.7639 61.1612 40.3378 60.1428C39.9159 59.1243 39.7071 57.8991 39.7114 56.4673C39.7114 55.0398 39.9223 53.8232 40.3442 52.8175C40.7703 51.8118 41.3776 51.0469 42.1659 50.5227C42.9585 49.9943 43.9024 49.7301 44.9976 49.7301C46.0928 49.7301 47.0345 49.9943 47.8229 50.5227C48.6155 51.0511 49.2249 51.8182 49.651 52.8239C50.0771 53.8253 50.2881 55.0398 50.2838 56.4673C50.2838 57.9034 50.0708 59.1307 49.6446 60.1491C49.2227 61.1676 48.6176 61.9453 47.8293 62.4822C47.0409 63.0192 46.097 63.2876 44.9976 63.2876ZM44.9976 60.9929C45.7476 60.9929 46.3463 60.6158 46.7938 59.8615C47.2412 59.1072 47.4628 57.9759 47.4585 56.4673C47.4585 55.4744 47.3563 54.6477 47.1517 53.9872C46.9514 53.3267 46.6659 52.8303 46.2952 52.4979C45.9287 52.1655 45.4962 51.9993 44.9976 51.9993C44.2519 51.9993 43.6553 52.3722 43.2078 53.1179C42.7604 53.8636 42.5345 54.9801 42.5303 56.4673C42.5303 57.473 42.6304 58.3125 42.8307 58.9858C43.0352 59.6548 43.3229 60.1577 43.6936 60.4943C44.0644 60.8267 44.499 60.9929 44.9976 60.9929Z" fill="white"/>
<path d="M64.2983 41.179C63.3438 41.179 62.4936 41.0149 61.7479 40.6868C61.0064 40.3544 60.4205 39.8984 59.9901 39.3189C59.5639 38.7351 59.3445 38.0618 59.3317 37.299H62.1186C62.1357 37.6186 62.2401 37.8999 62.4318 38.1428C62.6278 38.3814 62.8878 38.5668 63.2116 38.6989C63.5355 38.831 63.8999 38.897 64.3047 38.897C64.7266 38.897 65.0994 38.8224 65.4233 38.6733C65.7472 38.5241 66.0007 38.3175 66.1839 38.0533C66.3672 37.7891 66.4588 37.4844 66.4588 37.1392C66.4588 36.7898 66.3608 36.4808 66.1648 36.2124C65.973 35.9396 65.696 35.7266 65.3338 35.5732C64.9759 35.4197 64.5497 35.343 64.0554 35.343H62.8345V33.3104H64.0554C64.473 33.3104 64.8416 33.2379 65.1612 33.093C65.4851 32.9482 65.7365 32.7479 65.9155 32.4922C66.0945 32.2322 66.1839 31.9297 66.1839 31.5845C66.1839 31.2564 66.1051 30.9688 65.9474 30.7216C65.794 30.4702 65.5767 30.2741 65.2955 30.1335C65.0185 29.9929 64.6946 29.9226 64.3239 29.9226C63.9489 29.9226 63.6058 29.9908 63.2947 30.1271C62.9837 30.2592 62.7344 30.4489 62.5469 30.696C62.3594 30.9432 62.2592 31.233 62.2464 31.5653H59.5938C59.6065 30.8111 59.8217 30.1463 60.2393 29.571C60.657 28.9957 61.2195 28.5462 61.9268 28.2223C62.6385 27.8942 63.4418 27.7301 64.3366 27.7301C65.2401 27.7301 66.0305 27.8942 66.7081 28.2223C67.3857 28.5504 67.9119 28.9936 68.2869 29.5518C68.6662 30.1058 68.8537 30.728 68.8494 31.4183C68.8537 32.1513 68.6257 32.7628 68.1655 33.2528C67.7095 33.7429 67.1151 34.054 66.3821 34.1861V34.2884C67.3452 34.4119 68.0781 34.7464 68.581 35.2919C69.0881 35.8331 69.3395 36.5107 69.3352 37.3246C69.3395 38.0703 69.1243 38.733 68.6896 39.3125C68.2592 39.892 67.6648 40.348 66.9062 40.6804C66.1477 41.0128 65.2784 41.179 64.2983 41.179ZM71.3248 41V39.0057L75.9846 34.6911C76.3809 34.3075 76.7132 33.9624 76.9817 33.6555C77.2544 33.3487 77.4611 33.0483 77.6017 32.7543C77.7424 32.456 77.8127 32.1342 77.8127 31.7891C77.8127 31.4055 77.7253 31.0753 77.5506 30.7983C77.3759 30.517 77.1373 30.3018 76.8347 30.1527C76.5321 29.9993 76.1891 29.9226 75.8056 29.9226C75.405 29.9226 75.0556 30.0036 74.7573 30.1655C74.459 30.3274 74.2289 30.5597 74.0669 30.8622C73.905 31.1648 73.824 31.5249 73.824 31.9425H71.1969C71.1969 31.0859 71.3908 30.3423 71.7786 29.7116C72.1664 29.081 72.7097 28.593 73.4086 28.2479C74.1074 27.9027 74.9128 27.7301 75.8248 27.7301C76.7623 27.7301 77.5783 27.8963 78.2729 28.2287C78.9718 28.5568 79.5151 29.0128 79.9029 29.5966C80.2907 30.1804 80.4846 30.8494 80.4846 31.6037C80.4846 32.098 80.3865 32.5859 80.1905 33.0675C79.9988 33.549 79.6557 34.0838 79.1614 34.6719C78.6671 35.2557 77.9703 35.9567 77.0712 36.7749L75.16 38.6477V38.7372H80.6571V41H71.3248Z" fill="white"/>
<path d="M94.5523 23.9091V37H91.7845V26.5362H91.7078L88.71 28.4155V25.9609L91.9507 23.9091H94.5523ZM102.445 37.179C101.541 37.179 100.736 37.0128 100.029 36.6804C99.3256 36.348 98.7673 35.8899 98.354 35.3061C97.9406 34.7223 97.7254 34.0533 97.7084 33.299H100.393C100.423 33.8061 100.636 34.2173 101.032 34.5327C101.429 34.848 101.899 35.0057 102.445 35.0057C102.88 35.0057 103.263 34.9098 103.595 34.718C103.932 34.522 104.194 34.2514 104.382 33.9062C104.573 33.5568 104.669 33.1562 104.669 32.7045C104.669 32.2443 104.571 31.8395 104.375 31.4901C104.184 31.1406 103.917 30.8679 103.576 30.6719C103.235 30.4759 102.845 30.3757 102.407 30.3714C102.023 30.3714 101.65 30.4503 101.288 30.608C100.93 30.7656 100.651 30.9808 100.451 31.2536L97.9896 30.8125L98.6096 23.9091H106.612V26.1719H100.892L100.553 29.451H100.63C100.86 29.1271 101.207 28.8587 101.671 28.6456C102.136 28.4325 102.656 28.326 103.231 28.326C104.019 28.326 104.723 28.5114 105.34 28.8821C105.958 29.2528 106.446 29.7621 106.804 30.4098C107.162 31.0533 107.339 31.7947 107.335 32.6342C107.339 33.5163 107.134 34.3004 106.721 34.9865C106.312 35.6683 105.739 36.2053 105.002 36.5973C104.269 36.9851 103.416 37.179 102.445 37.179Z" fill="white"/>
<path d="M120.908 23.9091V37H118.14V26.5362H118.063L115.065 28.4155V25.9609L118.306 23.9091H120.908ZM128.756 23.7301C129.429 23.7301 130.077 23.843 130.699 24.0689C131.325 24.2947 131.883 24.6548 132.373 25.1491C132.868 25.6435 133.258 26.2997 133.543 27.1179C133.833 27.9318 133.98 28.9311 133.984 30.1158C133.984 31.228 133.859 32.2209 133.607 33.0945C133.36 33.9638 133.004 34.7031 132.54 35.3125C132.075 35.9219 131.515 36.3864 130.859 36.706C130.202 37.0213 129.469 37.179 128.66 37.179C127.786 37.179 127.015 37.0107 126.346 36.674C125.677 36.3331 125.138 35.8707 124.729 35.2869C124.324 34.6989 124.079 34.0384 123.994 33.3054H126.723C126.829 33.7827 127.053 34.1534 127.394 34.4176C127.735 34.6776 128.157 34.8075 128.66 34.8075C129.512 34.8075 130.16 34.4368 130.603 33.6953C131.046 32.9496 131.27 31.929 131.274 30.6335H131.185C130.989 31.017 130.724 31.3473 130.392 31.6243C130.06 31.897 129.678 32.108 129.248 32.2571C128.822 32.4062 128.368 32.4808 127.886 32.4808C127.115 32.4808 126.427 32.2997 125.822 31.9375C125.217 31.5753 124.739 31.0767 124.39 30.4418C124.04 29.8068 123.866 29.0824 123.866 28.2685C123.861 27.3906 124.064 26.6087 124.473 25.9226C124.882 25.2365 125.453 24.6996 126.186 24.3118C126.923 23.9197 127.78 23.7259 128.756 23.7301ZM128.775 25.9034C128.344 25.9034 127.961 26.0057 127.624 26.2102C127.292 26.4148 127.028 26.6896 126.832 27.0348C126.64 27.38 126.546 27.7656 126.55 28.1918C126.55 28.6222 126.644 29.0099 126.832 29.3551C127.023 29.696 127.283 29.9687 127.611 30.1733C127.944 30.3736 128.323 30.4737 128.749 30.4737C129.069 30.4737 129.365 30.4141 129.638 30.2947C129.91 30.1754 130.147 30.0114 130.347 29.8026C130.552 29.5895 130.712 29.3445 130.827 29.0675C130.942 28.7905 130.999 28.4964 130.999 28.1854C130.995 27.772 130.897 27.3928 130.705 27.0476C130.513 26.7024 130.249 26.4254 129.913 26.2166C129.576 26.0078 129.197 25.9034 128.775 25.9034Z" fill="white"/>
<path d="M146.259 34.6989V32.5192L151.725 23.9091H153.604V26.9261H152.492L149.046 32.3786V32.4808H156.813V34.6989H146.259ZM152.543 37V34.0341L152.594 33.0689V23.9091H155.189V37H152.543Z" fill="white"/>
<path d="M169.485 37V35.0057L174.145 30.6911C174.541 30.3075 174.873 29.9624 175.142 29.6555C175.415 29.3487 175.621 29.0483 175.762 28.7543C175.903 28.456 175.973 28.1342 175.973 27.7891C175.973 27.4055 175.885 27.0753 175.711 26.7983C175.536 26.517 175.297 26.3018 174.995 26.1527C174.692 25.9993 174.349 25.9226 173.966 25.9226C173.565 25.9226 173.216 26.0036 172.917 26.1655C172.619 26.3274 172.389 26.5597 172.227 26.8622C172.065 27.1648 171.984 27.5249 171.984 27.9425H169.357C169.357 27.0859 169.551 26.3423 169.939 25.7116C170.327 25.081 170.87 24.593 171.569 24.2479C172.268 23.9027 173.073 23.7301 173.985 23.7301C174.922 23.7301 175.738 23.8963 176.433 24.2287C177.132 24.5568 177.675 25.0128 178.063 25.5966C178.451 26.1804 178.645 26.8494 178.645 27.6037C178.645 28.098 178.547 28.5859 178.351 29.0675C178.159 29.549 177.816 30.0838 177.322 30.6719C176.827 31.2557 176.131 31.9567 175.231 32.7749L173.32 34.6477V34.7372H178.817V37H169.485ZM186.518 23.9091V37H183.75V26.5362H183.674L180.676 28.4155V25.9609L183.917 23.9091H186.518Z" fill="white"/>
<path d="M200.888 37V35.0057L205.548 30.6911C205.944 30.3075 206.277 29.9624 206.545 29.6555C206.818 29.3487 207.025 29.0483 207.165 28.7543C207.306 28.456 207.376 28.1342 207.376 27.7891C207.376 27.4055 207.289 27.0753 207.114 26.7983C206.939 26.517 206.701 26.3018 206.398 26.1527C206.096 25.9993 205.753 25.9226 205.369 25.9226C204.968 25.9226 204.619 26.0036 204.321 26.1655C204.022 26.3274 203.792 26.5597 203.63 26.8622C203.468 27.1648 203.388 27.5249 203.388 27.9425H200.76C200.76 27.0859 200.954 26.3423 201.342 25.7116C201.73 25.081 202.273 24.593 202.972 24.2479C203.671 23.9027 204.476 23.7301 205.388 23.7301C206.326 23.7301 207.142 23.8963 207.836 24.2287C208.535 24.5568 209.079 25.0128 209.466 25.5966C209.854 26.1804 210.048 26.8494 210.048 27.6037C210.048 28.098 209.95 28.5859 209.754 29.0675C209.562 29.549 209.219 30.0838 208.725 30.6719C208.231 31.2557 207.534 31.9567 206.635 32.7749L204.723 34.6477V34.7372H210.221V37H200.888Z" fill="white"/>
<path d="M222.087 37V35.0057L226.747 30.6911C227.144 30.3075 227.476 29.9624 227.744 29.6555C228.017 29.3487 228.224 29.0483 228.364 28.7543C228.505 28.456 228.575 28.1342 228.575 27.7891C228.575 27.4055 228.488 27.0753 228.313 26.7983C228.139 26.517 227.9 26.3018 227.597 26.1527C227.295 25.9993 226.952 25.9226 226.568 25.9226C226.168 25.9226 225.818 26.0036 225.52 26.1655C225.222 26.3274 224.992 26.5597 224.83 26.8622C224.668 27.1648 224.587 27.5249 224.587 27.9425H221.96C221.96 27.0859 222.153 26.3423 222.541 25.7116C222.929 25.081 223.472 24.593 224.171 24.2479C224.87 23.9027 225.676 23.7301 226.587 23.7301C227.525 23.7301 228.341 23.8963 229.036 24.2287C229.734 24.5568 230.278 25.0128 230.666 25.5966C231.053 26.1804 231.247 26.8494 231.247 27.6037C231.247 28.098 231.149 28.5859 230.953 29.0675C230.761 29.549 230.418 30.0838 229.924 30.6719C229.43 31.2557 228.733 31.9567 227.834 32.7749L225.923 34.6477V34.7372H231.42V37H222.087ZM238.207 37.179C237.303 37.179 236.498 37.0128 235.79 36.6804C235.087 36.348 234.529 35.8899 234.116 35.3061C233.702 34.7223 233.487 34.0533 233.47 33.299H236.155C236.185 33.8061 236.398 34.2173 236.794 34.5327C237.19 34.848 237.661 35.0057 238.207 35.0057C238.641 35.0057 239.025 34.9098 239.357 34.718C239.694 34.522 239.956 34.2514 240.143 33.9062C240.335 33.5568 240.431 33.1562 240.431 32.7045C240.431 32.2443 240.333 31.8395 240.137 31.4901C239.945 31.1406 239.679 30.8679 239.338 30.6719C238.997 30.4759 238.607 30.3757 238.168 30.3714C237.785 30.3714 237.412 30.4503 237.05 30.608C236.692 30.7656 236.413 30.9808 236.212 31.2536L233.751 30.8125L234.371 23.9091H242.374V26.1719H236.653L236.315 29.451H236.391C236.621 29.1271 236.969 28.8587 237.433 28.6456C237.898 28.4325 238.418 28.326 238.993 28.326C239.781 28.326 240.484 28.5114 241.102 28.8821C241.72 29.2528 242.208 29.7621 242.566 30.4098C242.924 31.0533 243.101 31.7947 243.097 32.6342C243.101 33.5163 242.896 34.3004 242.483 34.9865C242.074 35.6683 241.501 36.2053 240.763 36.5973C240.03 36.9851 239.178 37.179 238.207 37.179Z" fill="white"/>
<path d="M256.497 23.9091V37H253.729V26.5362H253.652L250.654 28.4155V25.9609L253.895 23.9091H256.497ZM260.126 37L265.553 26.2614V26.1719H259.231V23.9091H268.416V26.2038L262.983 37H260.126Z" fill="white"/>
<path d="M280.364 37.179C279.409 37.179 278.559 37.0149 277.813 36.6868C277.072 36.3544 276.486 35.8984 276.055 35.3189C275.629 34.7351 275.41 34.0618 275.397 33.299H278.184C278.201 33.6186 278.305 33.8999 278.497 34.1428C278.693 34.3814 278.953 34.5668 279.277 34.6989C279.601 34.831 279.965 34.897 280.37 34.897C280.792 34.897 281.165 34.8224 281.489 34.6733C281.813 34.5241 282.066 34.3175 282.249 34.0533C282.433 33.7891 282.524 33.4844 282.524 33.1392C282.524 32.7898 282.426 32.4808 282.23 32.2124C282.038 31.9396 281.761 31.7266 281.399 31.5732C281.041 31.4197 280.615 31.343 280.121 31.343H278.9V29.3104H280.121C280.538 29.3104 280.907 29.2379 281.227 29.093C281.551 28.9482 281.802 28.7479 281.981 28.4922C282.16 28.2322 282.249 27.9297 282.249 27.5845C282.249 27.2564 282.171 26.9688 282.013 26.7216C281.859 26.4702 281.642 26.2741 281.361 26.1335C281.084 25.9929 280.76 25.9226 280.389 25.9226C280.014 25.9226 279.671 25.9908 279.36 26.1271C279.049 26.2592 278.8 26.4489 278.612 26.696C278.425 26.9432 278.325 27.233 278.312 27.5653H275.659C275.672 26.8111 275.887 26.1463 276.305 25.571C276.722 24.9957 277.285 24.5462 277.992 24.2223C278.704 23.8942 279.507 23.7301 280.402 23.7301C281.305 23.7301 282.096 23.8942 282.774 24.2223C283.451 24.5504 283.977 24.9936 284.352 25.5518C284.732 26.1058 284.919 26.728 284.915 27.4183C284.919 28.1513 284.691 28.7628 284.231 29.2528C283.775 29.7429 283.18 30.054 282.448 30.1861V30.2884C283.411 30.4119 284.144 30.7464 284.646 31.2919C285.153 31.8331 285.405 32.5107 285.401 33.3246C285.405 34.0703 285.19 34.733 284.755 35.3125C284.325 35.892 283.73 36.348 282.972 36.6804C282.213 37.0128 281.344 37.179 280.364 37.179ZM287.192 34.6989V32.5192L292.657 23.9091H294.536V26.9261H293.424L289.979 32.3786V32.4808H297.745V34.6989H287.192ZM293.475 37V34.0341L293.527 33.0689V23.9091H296.122V37H293.475Z" fill="white"/>
<path d="M313.64 37.179C312.967 37.1747 312.317 37.0618 311.69 36.8402C311.068 36.6186 310.51 36.2585 310.016 35.7599C309.521 35.2614 309.129 34.6009 308.839 33.7784C308.554 32.956 308.411 31.946 308.411 30.7486C308.415 29.6491 308.541 28.6669 308.788 27.8018C309.04 26.9325 309.398 26.1953 309.862 25.5902C310.331 24.9851 310.891 24.5249 311.543 24.2095C312.195 23.8899 312.926 23.7301 313.736 23.7301C314.609 23.7301 315.381 23.9006 316.05 24.2415C316.719 24.5781 317.256 25.0362 317.661 25.6158C318.07 26.1953 318.317 26.8452 318.402 27.5653H315.673C315.566 27.1094 315.342 26.7514 315.001 26.4915C314.661 26.2315 314.239 26.1016 313.736 26.1016C312.884 26.1016 312.236 26.4723 311.793 27.2138C311.354 27.9553 311.13 28.9631 311.121 30.2372H311.211C311.407 29.8494 311.671 29.5192 312.004 29.2464C312.34 28.9695 312.722 28.7585 313.148 28.6136C313.578 28.4645 314.032 28.3899 314.509 28.3899C315.285 28.3899 315.975 28.5732 316.58 28.9396C317.185 29.3018 317.663 29.8004 318.012 30.4354C318.362 31.0703 318.536 31.7969 318.536 32.6151C318.536 33.5014 318.33 34.2898 317.916 34.9801C317.507 35.6705 316.934 36.2116 316.197 36.6037C315.464 36.9915 314.612 37.1832 313.64 37.179ZM313.627 35.0057C314.053 35.0057 314.435 34.9034 314.771 34.6989C315.108 34.4943 315.372 34.2173 315.564 33.8679C315.756 33.5185 315.852 33.1264 315.852 32.6918C315.852 32.2571 315.756 31.8672 315.564 31.522C315.376 31.1768 315.116 30.902 314.784 30.6974C314.452 30.4929 314.072 30.3906 313.646 30.3906C313.327 30.3906 313.031 30.4503 312.758 30.5696C312.489 30.6889 312.253 30.8551 312.048 31.0682C311.848 31.2812 311.69 31.5284 311.575 31.8097C311.46 32.0866 311.403 32.3828 311.403 32.6982C311.403 33.12 311.499 33.5057 311.69 33.8551C311.886 34.2045 312.151 34.4837 312.483 34.6925C312.82 34.9013 313.201 35.0057 313.627 35.0057Z" fill="white"/>
<path d="M330.536 37V35.0057L335.195 30.6911C335.592 30.3075 335.924 29.9624 336.193 29.6555C336.465 29.3487 336.672 29.0483 336.813 28.7543C336.953 28.456 337.024 28.1342 337.024 27.7891C337.024 27.4055 336.936 27.0753 336.762 26.7983C336.587 26.517 336.348 26.3018 336.046 26.1527C335.743 25.9993 335.4 25.9226 335.017 25.9226C334.616 25.9226 334.267 26.0036 333.968 26.1655C333.67 26.3274 333.44 26.5597 333.278 26.8622C333.116 27.1648 333.035 27.5249 333.035 27.9425H330.408C330.408 27.0859 330.602 26.3423 330.99 25.7116C331.377 25.081 331.921 24.593 332.619 24.2479C333.318 23.9027 334.124 23.7301 335.036 23.7301C335.973 23.7301 336.789 23.8963 337.484 24.2287C338.183 24.5568 338.726 25.0128 339.114 25.5966C339.502 26.1804 339.695 26.8494 339.695 27.6037C339.695 28.098 339.597 28.5859 339.401 29.0675C339.21 29.549 338.867 30.0838 338.372 30.6719C337.878 31.2557 337.181 31.9567 336.282 32.7749L334.371 34.6477V34.7372H339.868V37H330.536ZM342.391 37L347.818 26.2614V26.1719H341.496V23.9091H350.682V26.2038L345.249 37H342.391Z" fill="white"/>
<path d="M363.917 23.9091V37H361.149V26.5362H361.072L358.074 28.4155V25.9609L361.315 23.9091H363.917ZM371.867 37.179C370.912 37.179 370.062 37.0149 369.316 36.6868C368.575 36.3544 367.989 35.8984 367.558 35.3189C367.132 34.7351 366.913 34.0618 366.9 33.299H369.687C369.704 33.6186 369.808 33.8999 370 34.1428C370.196 34.3814 370.456 34.5668 370.78 34.6989C371.104 34.831 371.468 34.897 371.873 34.897C372.295 34.897 372.668 34.8224 372.992 34.6733C373.316 34.5241 373.569 34.3175 373.752 34.0533C373.936 33.7891 374.027 33.4844 374.027 33.1392C374.027 32.7898 373.929 32.4808 373.733 32.2124C373.541 31.9396 373.264 31.7266 372.902 31.5732C372.544 31.4197 372.118 31.343 371.624 31.343H370.403V29.3104H371.624C372.041 29.3104 372.41 29.2379 372.73 29.093C373.053 28.9482 373.305 28.7479 373.484 28.4922C373.663 28.2322 373.752 27.9297 373.752 27.5845C373.752 27.2564 373.673 26.9688 373.516 26.7216C373.362 26.4702 373.145 26.2741 372.864 26.1335C372.587 25.9929 372.263 25.9226 371.892 25.9226C371.517 25.9226 371.174 25.9908 370.863 26.1271C370.552 26.2592 370.303 26.4489 370.115 26.696C369.928 26.9432 369.828 27.233 369.815 27.5653H367.162C367.175 26.8111 367.39 26.1463 367.808 25.571C368.225 24.9957 368.788 24.5462 369.495 24.2223C370.207 23.8942 371.01 23.7301 371.905 23.7301C372.808 23.7301 373.599 23.8942 374.276 24.2223C374.954 24.5504 375.48 24.9936 375.855 25.5518C376.235 26.1058 376.422 26.728 376.418 27.4183C376.422 28.1513 376.194 28.7628 375.734 29.2528C375.278 29.7429 374.683 30.054 373.95 30.1861V30.2884C374.914 30.4119 375.646 30.7464 376.149 31.2919C376.656 31.8331 376.908 32.5107 376.904 33.3246C376.908 34.0703 376.693 34.733 376.258 35.3125C375.828 35.892 375.233 36.348 374.475 36.6804C373.716 37.0128 372.847 37.179 371.867 37.179Z" fill="white"/>
<path d="M388.522 37.179C387.567 37.179 386.717 37.0149 385.972 36.6868C385.23 36.3544 384.644 35.8984 384.214 35.3189C383.788 34.7351 383.568 34.0618 383.555 33.299H386.342C386.359 33.6186 386.464 33.8999 386.655 34.1428C386.851 34.3814 387.111 34.5668 387.435 34.6989C387.759 34.831 388.123 34.897 388.528 34.897C388.95 34.897 389.323 34.8224 389.647 34.6733C389.971 34.5241 390.224 34.3175 390.408 34.0533C390.591 33.7891 390.682 33.4844 390.682 33.1392C390.682 32.7898 390.584 32.4808 390.388 32.2124C390.197 31.9396 389.92 31.7266 389.557 31.5732C389.199 31.4197 388.773 31.343 388.279 31.343H387.058V29.3104H388.279C388.697 29.3104 389.065 29.2379 389.385 29.093C389.709 28.9482 389.96 28.7479 390.139 28.4922C390.318 28.2322 390.408 27.9297 390.408 27.5845C390.408 27.2564 390.329 26.9688 390.171 26.7216C390.018 26.4702 389.8 26.2741 389.519 26.1335C389.242 25.9929 388.918 25.9226 388.547 25.9226C388.172 25.9226 387.829 25.9908 387.518 26.1271C387.207 26.2592 386.958 26.4489 386.771 26.696C386.583 26.9432 386.483 27.233 386.47 27.5653H383.817C383.83 26.8111 384.045 26.1463 384.463 25.571C384.881 24.9957 385.443 24.5462 386.15 24.2223C386.862 23.8942 387.665 23.7301 388.56 23.7301C389.464 23.7301 390.254 23.8942 390.932 24.2223C391.609 24.5504 392.136 24.9936 392.511 25.5518C392.89 26.1058 393.077 26.728 393.073 27.4183C393.077 28.1513 392.849 28.7628 392.389 29.2528C391.933 29.7429 391.339 30.054 390.606 30.1861V30.2884C391.569 30.4119 392.302 30.7464 392.805 31.2919C393.312 31.8331 393.563 32.5107 393.559 33.3246C393.563 34.0703 393.348 34.733 392.913 35.3125C392.483 35.892 391.888 36.348 391.13 36.6804C390.371 37.0128 389.502 37.179 388.522 37.179ZM400.573 37.179C399.899 37.1747 399.249 37.0618 398.623 36.8402C398.001 36.6186 397.443 36.2585 396.948 35.7599C396.454 35.2614 396.062 34.6009 395.772 33.7784C395.487 32.956 395.344 31.946 395.344 30.7486C395.348 29.6491 395.474 28.6669 395.721 27.8018C395.972 26.9325 396.33 26.1953 396.795 25.5902C397.264 24.9851 397.824 24.5249 398.476 24.2095C399.128 23.8899 399.859 23.7301 400.668 23.7301C401.542 23.7301 402.313 23.9006 402.982 24.2415C403.651 24.5781 404.188 25.0362 404.593 25.6158C405.002 26.1953 405.249 26.8452 405.335 27.5653H402.605C402.499 27.1094 402.275 26.7514 401.934 26.4915C401.593 26.2315 401.171 26.1016 400.668 26.1016C399.816 26.1016 399.168 26.4723 398.725 27.2138C398.286 27.9553 398.063 28.9631 398.054 30.2372H398.144C398.34 29.8494 398.604 29.5192 398.936 29.2464C399.273 28.9695 399.654 28.7585 400.08 28.6136C400.511 28.4645 400.965 28.3899 401.442 28.3899C402.217 28.3899 402.908 28.5732 403.513 28.9396C404.118 29.3018 404.595 29.8004 404.945 30.4354C405.294 31.0703 405.469 31.7969 405.469 32.6151C405.469 33.5014 405.262 34.2898 404.849 34.9801C404.44 35.6705 403.867 36.2116 403.129 36.6037C402.396 36.9915 401.544 37.1832 400.573 37.179ZM400.56 35.0057C400.986 35.0057 401.367 34.9034 401.704 34.6989C402.041 34.4943 402.305 34.2173 402.497 33.8679C402.688 33.5185 402.784 33.1264 402.784 32.6918C402.784 32.2571 402.688 31.8672 402.497 31.522C402.309 31.1768 402.049 30.902 401.717 30.6974C401.384 30.4929 401.005 30.3906 400.579 30.3906C400.259 30.3906 399.963 30.4503 399.69 30.5696C399.422 30.6889 399.185 30.8551 398.981 31.0682C398.781 31.2812 398.623 31.5284 398.508 31.8097C398.393 32.0866 398.335 32.3828 398.335 32.6982C398.335 33.12 398.431 33.5057 398.623 33.8551C398.819 34.2045 399.083 34.4837 399.416 34.6925C399.752 34.9013 400.134 35.0057 400.56 35.0057Z" fill="white"/>
<path d="M419.446 23.9091V37H416.678V26.5362H416.601L413.604 28.4155V25.9609L416.844 23.9091H419.446ZM428.252 23.9091V37H425.485V26.5362H425.408L422.41 28.4155V25.9609L425.651 23.9091H428.252Z" fill="white"/>
<path d="M72.2823 94.2237C71.4272 94.2204 70.6914 94.0099 70.0749 93.5923C69.4618 93.1747 68.9895 92.5698 68.658 91.7777C68.3299 90.9856 68.1675 90.0327 68.1708 88.919C68.1708 87.8087 68.3349 86.8625 68.663 86.0803C68.9944 85.2981 69.4667 84.7031 70.0799 84.2955C70.6964 83.8845 71.4305 83.679 72.2823 83.679C73.1341 83.679 73.8666 83.8845 74.4798 84.2955C75.0962 84.7064 75.5702 85.303 75.9016 86.0852C76.2331 86.8641 76.3971 87.8087 76.3938 88.919C76.3938 90.036 76.2281 90.9905 75.8967 91.7827C75.5685 92.5748 75.0979 93.1797 74.4847 93.5973C73.8716 94.0149 73.1374 94.2237 72.2823 94.2237ZM72.2823 92.4389C72.8656 92.4389 73.3313 92.1456 73.6793 91.5589C74.0273 90.9723 74.1997 90.0923 74.1964 88.919C74.1964 88.1468 74.1168 87.5038 73.9577 86.9901C73.802 86.4763 73.5799 86.0902 73.2915 85.8317C73.0065 85.5732 72.6701 85.4439 72.2823 85.4439C71.7023 85.4439 71.2383 85.7339 70.8903 86.3139C70.5423 86.8939 70.3666 87.7623 70.3633 88.919C70.3633 89.7012 70.4412 90.3542 70.5969 90.8778C70.756 91.3982 70.9798 91.7893 71.2681 92.0511C71.5565 92.3097 71.8945 92.4389 72.2823 92.4389ZM87.9801 87.1094C87.9105 86.8674 87.8127 86.6536 87.6868 86.468C87.5608 86.2791 87.4067 86.12 87.2244 85.9908C87.0455 85.8582 86.84 85.7571 86.608 85.6875C86.3793 85.6179 86.1257 85.5831 85.8473 85.5831C85.3269 85.5831 84.8696 85.7124 84.4751 85.9709C84.084 86.2294 83.7791 86.6056 83.5604 87.0994C83.3416 87.59 83.2322 88.1899 83.2322 88.8991C83.2322 89.6084 83.34 90.2116 83.5554 90.7088C83.7708 91.206 84.0758 91.5855 84.4702 91.8473C84.8646 92.1058 85.3303 92.2351 85.8672 92.2351C86.3544 92.2351 86.7704 92.1489 87.1151 91.9766C87.4631 91.8009 87.7282 91.554 87.9105 91.2358C88.0961 90.9176 88.1889 90.5414 88.1889 90.1072L88.6264 90.1719H86.0014V88.5511H90.2621V89.8338C90.2621 90.7287 90.0732 91.4976 89.6953 92.1406C89.3175 92.7803 88.7971 93.2741 88.1342 93.6222C87.4714 93.9669 86.7124 94.1392 85.8572 94.1392C84.9027 94.1392 84.0642 93.9287 83.3416 93.5078C82.6191 93.0836 82.0556 92.482 81.6513 91.7031C81.2502 90.9209 81.0497 89.9929 81.0497 88.919C81.0497 88.0937 81.169 87.358 81.4077 86.7116C81.6496 86.062 81.9877 85.5118 82.4219 85.0611C82.8561 84.6103 83.3615 84.2673 83.9382 84.032C84.5149 83.7966 85.1397 83.679 85.8125 83.679C86.3892 83.679 86.9261 83.7635 87.4233 83.9325C87.9205 84.0982 88.3613 84.3336 88.7457 84.6385C89.1335 84.9434 89.45 85.3063 89.6953 85.7273C89.9406 86.1449 90.098 86.6056 90.1676 87.1094H87.9801ZM93.3196 94H91.0128L94.5277 83.8182H97.3018L100.812 94H98.505L95.9545 86.1449H95.875L93.3196 94ZM93.1754 89.9979H98.6243V91.6783H93.1754V89.9979ZM102.037 83.8182H104.692L107.496 90.6591H107.615L110.419 83.8182H113.074V94H110.986V87.3729H110.902L108.267 93.9503H106.845L104.21 87.348H104.125V94H102.037V83.8182ZM114.848 94V83.8182H121.709V85.593H117.001V88.0192H121.356V89.794H117.001V92.2251H121.729V94H114.848Z" fill="white"/>
<path d="M164.055 83.8182L166.515 91.554H166.61L169.076 83.8182H171.462L167.952 94H165.178L161.663 83.8182H164.055ZM181.47 88.9091C181.47 90.0194 181.26 90.964 180.839 91.7429C180.421 92.5218 179.851 93.1167 179.128 93.5277C178.409 93.9354 177.6 94.1392 176.702 94.1392C175.797 94.1392 174.985 93.9337 174.266 93.5227C173.547 93.1117 172.979 92.5168 172.561 91.7379C172.143 90.959 171.934 90.0161 171.934 88.9091C171.934 87.7988 172.143 86.8542 172.561 86.0753C172.979 85.2964 173.547 84.7031 174.266 84.2955C174.985 83.8845 175.797 83.679 176.702 83.679C177.6 83.679 178.409 83.8845 179.128 84.2955C179.851 84.7031 180.421 85.2964 180.839 86.0753C181.26 86.8542 181.47 87.7988 181.47 88.9091ZM179.287 88.9091C179.287 88.1899 179.18 87.5833 178.964 87.0895C178.752 86.5956 178.452 86.2211 178.064 85.9659C177.677 85.7107 177.223 85.5831 176.702 85.5831C176.182 85.5831 175.728 85.7107 175.34 85.9659C174.952 86.2211 174.651 86.5956 174.435 87.0895C174.223 87.5833 174.117 88.1899 174.117 88.9091C174.117 89.6283 174.223 90.2348 174.435 90.7287C174.651 91.2225 174.952 91.5971 175.34 91.8523C175.728 92.1075 176.182 92.2351 176.702 92.2351C177.223 92.2351 177.677 92.1075 178.064 91.8523C178.452 91.5971 178.752 91.2225 178.964 90.7287C179.18 90.2348 179.287 89.6283 179.287 88.9091ZM185.217 83.8182V94H183.065V83.8182H185.217ZM192.512 86.7464C192.472 86.3454 192.301 86.0339 192 85.8118C191.698 85.5897 191.289 85.4787 190.772 85.4787C190.421 85.4787 190.124 85.5284 189.882 85.6278C189.64 85.724 189.454 85.8582 189.325 86.0305C189.199 86.2029 189.136 86.3984 189.136 86.6172C189.13 86.7995 189.168 86.9586 189.251 87.0945C189.337 87.2304 189.454 87.348 189.604 87.4474C189.753 87.5436 189.925 87.6281 190.121 87.701C190.316 87.7706 190.525 87.8303 190.747 87.88L191.662 88.0987C192.106 88.1982 192.514 88.3307 192.885 88.4964C193.256 88.6622 193.577 88.866 193.849 89.108C194.121 89.3499 194.331 89.6349 194.481 89.9631C194.633 90.2912 194.711 90.6674 194.714 91.0916C194.711 91.7147 194.552 92.255 194.237 92.7124C193.925 93.1664 193.475 93.5194 192.885 93.7713C192.298 94.0199 191.59 94.1442 190.762 94.1442C189.94 94.1442 189.224 94.0182 188.614 93.7663C188.008 93.5144 187.534 93.1416 187.192 92.6477C186.854 92.1506 186.677 91.5357 186.66 90.8033H188.743C188.767 91.1446 188.864 91.4297 189.037 91.6584C189.212 91.8838 189.446 92.0545 189.738 92.1705C190.033 92.2831 190.366 92.3395 190.737 92.3395C191.102 92.3395 191.418 92.2865 191.687 92.1804C191.958 92.0743 192.169 91.9268 192.318 91.7379C192.467 91.549 192.542 91.3319 192.542 91.0866C192.542 90.858 192.474 90.6657 192.338 90.5099C192.205 90.3542 192.01 90.2216 191.751 90.1122C191.496 90.0028 191.183 89.9034 190.812 89.8139L189.703 89.5355C188.845 89.3267 188.167 89.0002 187.67 88.5561C187.172 88.112 186.925 87.5137 186.929 86.7614C186.925 86.1449 187.09 85.6063 187.421 85.1456C187.756 84.6849 188.215 84.3253 188.798 84.0668C189.381 83.8082 190.044 83.679 190.787 83.679C191.542 83.679 192.202 83.8082 192.765 84.0668C193.332 84.3253 193.773 84.6849 194.088 85.1456C194.403 85.6063 194.565 86.1399 194.575 86.7464H192.512ZM198.315 83.8182V94H196.162V83.8182H198.315ZM208.602 83.8182V94H206.743L202.313 87.5916H202.239V94H200.086V83.8182H201.975L206.37 90.2216H206.46V83.8182H208.602ZM215.904 86.7464C215.865 86.3454 215.694 86.0339 215.392 85.8118C215.091 85.5897 214.681 85.4787 214.164 85.4787C213.813 85.4787 213.516 85.5284 213.275 85.6278C213.033 85.724 212.847 85.8582 212.718 86.0305C212.592 86.2029 212.529 86.3984 212.529 86.6172C212.522 86.7995 212.56 86.9586 212.643 87.0945C212.729 87.2304 212.847 87.348 212.996 87.4474C213.145 87.5436 213.318 87.6281 213.513 87.701C213.709 87.7706 213.917 87.8303 214.14 87.88L215.054 88.0987C215.498 88.1982 215.906 88.3307 216.277 88.4964C216.649 88.6622 216.97 88.866 217.242 89.108C217.514 89.3499 217.724 89.6349 217.873 89.9631C218.026 90.2912 218.104 90.6674 218.107 91.0916C218.104 91.7147 217.944 92.255 217.63 92.7124C217.318 93.1664 216.867 93.5194 216.277 93.7713C215.691 94.0199 214.983 94.1442 214.154 94.1442C213.333 94.1442 212.617 94.0182 212.007 93.7663C211.4 93.5144 210.926 93.1416 210.585 92.6477C210.247 92.1506 210.069 91.5357 210.053 90.8033H212.136C212.159 91.1446 212.257 91.4297 212.429 91.6584C212.605 91.8838 212.839 92.0545 213.13 92.1705C213.425 92.2831 213.758 92.3395 214.13 92.3395C214.494 92.3395 214.811 92.2865 215.079 92.1804C215.351 92.0743 215.561 91.9268 215.711 91.7379C215.86 91.549 215.934 91.3319 215.934 91.0866C215.934 90.858 215.866 90.6657 215.73 90.5099C215.598 90.3542 215.402 90.2216 215.144 90.1122C214.889 90.0028 214.575 89.9034 214.204 89.8139L213.096 89.5355C212.237 89.3267 211.559 89.0002 211.062 88.5561C210.565 88.112 210.318 87.5137 210.321 86.7614C210.318 86.1449 210.482 85.6063 210.814 85.1456C211.148 84.6849 211.607 84.3253 212.191 84.0668C212.774 83.8082 213.437 83.679 214.179 83.679C214.935 83.679 215.595 83.8082 216.158 84.0668C216.725 84.3253 217.166 84.6849 217.48 85.1456C217.795 85.6063 217.958 86.1399 217.968 86.7464H215.904Z" fill="white"/>
<path d="M267.463 88.9091C267.463 90.0194 267.253 90.964 266.832 91.7429C266.414 92.5218 265.844 93.1167 265.122 93.5277C264.402 93.9354 263.594 94.1392 262.695 94.1392C261.791 94.1392 260.979 93.9337 260.259 93.5227C259.54 93.1117 258.972 92.5168 258.554 91.7379C258.136 90.959 257.928 90.0161 257.928 88.9091C257.928 87.7988 258.136 86.8542 258.554 86.0753C258.972 85.2964 259.54 84.7031 260.259 84.2955C260.979 83.8845 261.791 83.679 262.695 83.679C263.594 83.679 264.402 83.8845 265.122 84.2955C265.844 84.7031 266.414 85.2964 266.832 86.0753C267.253 86.8542 267.463 87.7988 267.463 88.9091ZM265.281 88.9091C265.281 88.1899 265.173 87.5833 264.957 87.0895C264.745 86.5956 264.445 86.2211 264.058 85.9659C263.67 85.7107 263.216 85.5831 262.695 85.5831C262.175 85.5831 261.721 85.7107 261.333 85.9659C260.945 86.2211 260.644 86.5956 260.428 87.0895C260.216 87.5833 260.11 88.1899 260.11 88.9091C260.11 89.6283 260.216 90.2348 260.428 90.7287C260.644 91.2225 260.945 91.5971 261.333 91.8523C261.721 92.1075 262.175 92.2351 262.695 92.2351C263.216 92.2351 263.67 92.1075 264.058 91.8523C264.445 91.5971 264.745 91.2225 264.957 90.7287C265.173 90.2348 265.281 89.6283 265.281 88.9091ZM269.058 94V83.8182H273.075C273.844 83.8182 274.5 83.9557 275.044 84.2308C275.59 84.5026 276.006 84.8887 276.291 85.3892C276.58 85.8864 276.724 86.4714 276.724 87.1442C276.724 87.8203 276.578 88.402 276.286 88.8892C275.995 89.3731 275.572 89.7443 275.019 90.0028C274.469 90.2614 273.802 90.3906 273.02 90.3906H270.331V88.6605H272.672C273.083 88.6605 273.425 88.6042 273.696 88.4915C273.968 88.3788 274.17 88.2098 274.303 87.9844C274.439 87.759 274.507 87.4789 274.507 87.1442C274.507 86.8061 274.439 86.5211 274.303 86.2891C274.17 86.0571 273.966 85.8814 273.691 85.7621C273.42 85.6394 273.076 85.5781 272.662 85.5781H271.21V94H269.058ZM274.556 89.3665L277.087 94H274.71L272.235 89.3665H274.556ZM278.245 94V83.8182H282.262C283.035 83.8182 283.693 83.9657 284.236 84.2607C284.78 84.5523 285.194 84.9583 285.479 85.4787C285.767 85.9957 285.911 86.5923 285.911 87.2685C285.911 87.9446 285.766 88.5412 285.474 89.0582C285.182 89.5753 284.76 89.978 284.206 90.2663C283.656 90.5547 282.99 90.6989 282.208 90.6989H279.647V88.9737H281.86C282.274 88.9737 282.615 88.9025 282.884 88.7599C283.156 88.6141 283.358 88.4136 283.49 88.1584C283.626 87.8999 283.694 87.6032 283.694 87.2685C283.694 86.9304 283.626 86.6354 283.49 86.3835C283.358 86.1283 283.156 85.9311 282.884 85.7919C282.612 85.6494 282.267 85.5781 281.85 85.5781H280.398V94H278.245ZM287.31 94V83.8182H289.462V88.0192H293.832V83.8182H295.98V94H293.832V89.794H289.462V94H287.31ZM297.755 94V83.8182H304.616V85.593H299.908V88.0192H304.263V89.794H299.908V92.2251H304.636V94H297.755ZM306.327 94V83.8182H308.48V92.2251H312.845V94H306.327ZM316.423 83.8182V94H314.271V83.8182H316.423ZM326.711 83.8182V94H324.851L320.422 87.5916H320.347V94H318.195V83.8182H320.084L324.479 90.2216H324.568V83.8182H326.711ZM334.013 86.7464C333.973 86.3454 333.802 86.0339 333.501 85.8118C333.199 85.5897 332.79 85.4787 332.273 85.4787C331.921 85.4787 331.625 85.5284 331.383 85.6278C331.141 85.724 330.955 85.8582 330.826 86.0305C330.7 86.2029 330.637 86.3984 330.637 86.6172C330.631 86.7995 330.669 86.9586 330.752 87.0945C330.838 87.2304 330.955 87.348 331.104 87.4474C331.254 87.5436 331.426 87.6281 331.622 87.701C331.817 87.7706 332.026 87.8303 332.248 87.88L333.163 88.0987C333.607 88.1982 334.015 88.3307 334.386 88.4964C334.757 88.6622 335.078 88.866 335.35 89.108C335.622 89.3499 335.832 89.6349 335.982 89.9631C336.134 90.2912 336.212 90.6674 336.215 91.0916C336.212 91.7147 336.053 92.255 335.738 92.7124C335.426 93.1664 334.976 93.5194 334.386 93.7713C333.799 94.0199 333.091 94.1442 332.263 94.1442C331.441 94.1442 330.725 94.0182 330.115 93.7663C329.509 93.5144 329.035 93.1416 328.693 92.6477C328.355 92.1506 328.178 91.5357 328.161 90.8033H330.244C330.268 91.1446 330.365 91.4297 330.538 91.6584C330.713 91.8838 330.947 92.0545 331.239 92.1705C331.534 92.2831 331.867 92.3395 332.238 92.3395C332.603 92.3395 332.919 92.2865 333.188 92.1804C333.459 92.0743 333.67 91.9268 333.819 91.7379C333.968 91.549 334.043 91.3319 334.043 91.0866C334.043 90.858 333.975 90.6657 333.839 90.5099C333.706 90.3542 333.511 90.2216 333.252 90.1122C332.997 90.0028 332.684 89.9034 332.313 89.8139L331.204 89.5355C330.345 89.3267 329.668 89.0002 329.171 88.5561C328.673 88.112 328.426 87.5137 328.43 86.7614C328.426 86.1449 328.591 85.6063 328.922 85.1456C329.257 84.6849 329.716 84.3253 330.299 84.0668C330.882 83.8082 331.545 83.679 332.288 83.679C333.043 83.679 333.703 83.8082 334.266 84.0668C334.833 84.3253 335.274 84.6849 335.589 85.1456C335.904 85.6063 336.066 86.1399 336.076 86.7464H334.013Z" fill="white"/>
<path d="M397.893 85.593V83.8182H406.255V85.593H403.138V94H401.01V85.593H397.893ZM409.785 83.8182V94H407.632V83.8182H409.785ZM411.556 94V83.8182H418.417V85.593H413.709V88.0192H418.064V89.794H413.709V92.2251H418.437V94H411.556ZM420.128 94V83.8182H424.145C424.914 83.8182 425.57 83.9557 426.114 84.2308C426.661 84.5026 427.077 84.8887 427.362 85.3892C427.65 85.8864 427.794 86.4714 427.794 87.1442C427.794 87.8203 427.648 88.402 427.357 88.8892C427.065 89.3731 426.643 89.7443 426.089 90.0028C425.539 90.2614 424.873 90.3906 424.09 90.3906H421.401V88.6605H423.742C424.153 88.6605 424.495 88.6042 424.767 88.4915C425.038 88.3788 425.241 88.2098 425.373 87.9844C425.509 87.759 425.577 87.4789 425.577 87.1442C425.577 86.8061 425.509 86.5211 425.373 86.2891C425.241 86.0571 425.037 85.8814 424.762 85.7621C424.49 85.6394 424.147 85.5781 423.733 85.5781H422.281V94H420.128ZM425.627 89.3665L428.157 94H425.781L423.305 89.3665H425.627ZM434.839 86.7464C434.799 86.3454 434.629 86.0339 434.327 85.8118C434.025 85.5897 433.616 85.4787 433.099 85.4787C432.748 85.4787 432.451 85.5284 432.209 85.6278C431.967 85.724 431.782 85.8582 431.652 86.0305C431.526 86.2029 431.463 86.3984 431.463 86.6172C431.457 86.7995 431.495 86.9586 431.578 87.0945C431.664 87.2304 431.782 87.348 431.931 87.4474C432.08 87.5436 432.252 87.6281 432.448 87.701C432.643 87.7706 432.852 87.8303 433.074 87.88L433.989 88.0987C434.433 88.1982 434.841 88.3307 435.212 88.4964C435.583 88.6622 435.905 88.866 436.176 89.108C436.448 89.3499 436.659 89.6349 436.808 89.9631C436.96 90.2912 437.038 90.6674 437.041 91.0916C437.038 91.7147 436.879 92.255 436.564 92.7124C436.253 93.1664 435.802 93.5194 435.212 93.7713C434.625 94.0199 433.918 94.1442 433.089 94.1442C432.267 94.1442 431.551 94.0182 430.941 93.7663C430.335 93.5144 429.861 93.1416 429.519 92.6477C429.181 92.1506 429.004 91.5357 428.987 90.8033H431.071C431.094 91.1446 431.192 91.4297 431.364 91.6584C431.54 91.8838 431.773 92.0545 432.065 92.1705C432.36 92.2831 432.693 92.3395 433.064 92.3395C433.429 92.3395 433.745 92.2865 434.014 92.1804C434.286 92.0743 434.496 91.9268 434.645 91.7379C434.794 91.549 434.869 91.3319 434.869 91.0866C434.869 90.858 434.801 90.6657 434.665 90.5099C434.532 90.3542 434.337 90.2216 434.078 90.1122C433.823 90.0028 433.51 89.9034 433.139 89.8139L432.03 89.5355C431.172 89.3267 430.494 89.0002 429.997 88.5561C429.5 88.112 429.253 87.5137 429.256 86.7614C429.253 86.1449 429.417 85.6063 429.748 85.1456C430.083 84.6849 430.542 84.3253 431.125 84.0668C431.709 83.8082 432.371 83.679 433.114 83.679C433.87 83.679 434.529 83.8082 435.093 84.0668C435.659 84.3253 436.1 84.6849 436.415 85.1456C436.73 85.6063 436.892 86.1399 436.902 86.7464H434.839Z" fill="white"/>
</g>
<defs>
<filter id="filter0_dd_408_33990" x="0.696219" y="0.130813" width="534.608" height="186.608" filterUnits="userSpaceOnUse" color-interpolation-filters="sRGB">
<feFlood flood-opacity="0" result="BackgroundImageFix"/>
<feColorMatrix in="SourceAlpha" type="matrix" values="0 0 0 0 0 0 0 0 0 0 0 0 0 0 0 0 0 0 127 0" result="hardAlpha"/>
<feOffset dy="2.2173"/>
<feGaussianBlur stdDeviation="2.2173"/>
<feColorMatrix type="matrix" values="0 0 0 0 0 0 0 0 0 0 0 0 0 0 0 0 0 0 0.25 0"/>
<feBlend mode="normal" in2="BackgroundImageFix" result="effect1_dropShadow_408_33990"/>
<feColorMatrix in="SourceAlpha" type="matrix" values="0 0 0 0 0 0 0 0 0 0 0 0 0 0 0 0 0 0 127 0" result="hardAlpha"/>
<feOffset dy="4.43459"/>
<feGaussianBlur stdDeviation="6.65189"/>
<feColorMatrix type="matrix" values="0 0 0 0 0 0 0 0 0 0 0 0 0 0 0 0 0 0 0.25 0"/>
<feBlend mode="normal" in2="effect1_dropShadow_408_33990" result="effect2_dropShadow_408_33990"/>
<feBlend mode="normal" in="SourceGraphic" in2="effect2_dropShadow_408_33990" result="shape"/>
</filter>
</defs>
</svg>
