<svg width="17" height="17" viewBox="0 0 17 17" fill="none" xmlns="http://www.w3.org/2000/svg">
<path d="M2.5 5.5V2.5H5.5C5.6841 2.5 5.83333 2.35076 5.83333 2.16667V0.333333C5.83333 0.149241 5.6841 0 5.5 0H0.833333C0.3731 0 0 0.3731 0 0.833333V5.5C0 5.68409 0.149249 5.83333 0.333341 5.83333H2.16667C2.35076 5.83333 2.5 5.68409 2.5 5.5Z" fill="white"/>
<path d="M14.5 5.83333H16.3333C16.5174 5.83333 16.6667 5.68409 16.6667 5.5V0.833333C16.6667 0.3731 16.2936 0 15.8333 0H11.1667C10.9826 0 10.8333 0.149241 10.8333 0.333333V2.16667C10.8333 2.35076 10.9826 2.5 11.1667 2.5H14.1667V5.5C14.1667 5.68409 14.3159 5.83333 14.5 5.83333Z" fill="white"/>
<path d="M14.1667 11.1667V14.1667H11.1667C10.9826 14.1667 10.8333 14.3159 10.8333 14.5V16.3333C10.8333 16.5174 10.9826 16.6667 11.1667 16.6667H15.8333C16.2936 16.6667 16.6667 16.2936 16.6667 15.8333V11.1667C16.6667 10.9826 16.5174 10.8333 16.3333 10.8333H14.5C14.3159 10.8333 14.1667 10.9826 14.1667 11.1667Z" fill="white"/>
<path d="M7.5 8.33325H0.833333C0.373096 8.33325 0 8.70635 0 9.16658V15.8333C0 16.2935 0.373096 16.6666 0.833333 16.6666H7.5C7.96024 16.6666 8.33333 16.2935 8.33333 15.8333V9.16658C8.33333 8.70635 7.96024 8.33325 7.5 8.33325Z" fill="white" fill-opacity="0.3"/>
</svg>
