<svg width="164" height="556" viewBox="0 0 164 556" fill="none" xmlns="http://www.w3.org/2000/svg">
<mask id="mask0_371_85559" style="mask-type:alpha" maskUnits="userSpaceOnUse" x="0" y="0" width="164" height="556">
<path d="M82 0C127.287 0 164 36.7127 164 82V474C164 519.287 127.287 556 82 556C36.7127 556 0 519.287 0 474V82C6.95892e-06 36.7127 36.7127 0 82 0ZM82 41C60.4609 41 43 58.4609 43 80V479C43 500.539 60.4609 518 82 518C103.539 518 121 500.539 121 479V80C121 58.4609 103.539 41 82 41Z" fill="#D9D9D9"/>
</mask>
<g mask="url(#mask0_371_85559)">
<path d="M82 556C97.5604 556 112.8 551.572 125.938 543.235L82 474L82 556Z" fill="#9B1912"/>
<path d="M82 556C66.4396 556 51.2003 551.572 38.0622 543.235L82 474L82 556Z" fill="#13120E"/>
<path d="M125.938 543.235C139.076 534.897 149.571 522.993 156.196 508.914L82 474L125.938 543.235Z" fill="#13120E"/>
<path d="M38.0622 543.235C24.9241 534.897 14.4295 522.993 7.80418 508.914L82 474L38.0622 543.235Z" fill="#9B1912"/>
<rect y="168" width="30" height="82" transform="rotate(-90 0 168)" fill="#9B1912"/>
<rect y="228" width="30" height="82" transform="rotate(-90 0 228)" fill="#9B1912"/>
<rect y="288" width="30" height="82" transform="rotate(-90 0 288)" fill="#9B1912"/>
<rect y="348" width="30" height="82" transform="rotate(-90 0 PortraitReceTrack348)" fill="#9B1912"/>
<rect y="408" width="30" height="82" transform="rotate(-90 0 408)" fill="#9B1912"/>
<rect y="468" width="30" height="82" transform="rotate(-90 0 468)" fill="#9B1912"/>
<path d="M0 468V474C0 486.071 2.66481 497.992 7.80418 508.914L82 474V468L0 468Z" fill="#13120E"/>
<rect x="82" y="138" width="30" height="82" transform="rotate(-90 82 138)" fill="#9B1912"/>
<rect x="82" y="198" width="30" height="82" transform="rotate(-90 82 198)" fill="#9B1912"/>
<rect x="82" y="258" width="30" height="82" transform="rotate(-90 82 258)" fill="#9B1912"/>
<rect x="82" y="318" width="30" height="82" transform="rotate(-90 82 318)" fill="#9B1912"/>
<rect x="82" y="378" width="30" height="82" transform="rotate(-90 82 378)" fill="#9B1912"/>
<rect x="82" y="438" width="30" height="82" transform="rotate(-90 82 438)" fill="#9B1912"/>
<path d="M15.6606 33.8016C6.51441 46.3903 1.13886 61.3214 0.161808 76.8512L82 82L15.6606 33.8016Z" fill="#13120E"/>
<path d="M0 82C1.59781e-07 80.2825 0.0539552 78.5654 0.161804 76.8512L82 82L82 108L0 108L0 82Z" fill="#9B1912"/>
<path d="M56.6606 4.01336C40.1915 9.36451 25.8391 19.7921 15.6606 33.8016L82 82L56.6606 4.01336Z" fill="#9B1912"/>
<path d="M107.339 4.01337C90.8702 -1.33779 73.1298 -1.33779 56.6606 4.01337L82 82L107.339 4.01337Z" fill="#13120E"/>
<path d="M148.339 33.8016C138.161 19.7921 123.809 9.36452 107.339 4.01337L82 82L148.339 33.8016Z" fill="#2B7934"/>
<path d="M163.838 76.8512C162.861 61.3214 157.486 46.3903 148.339 33.8016L82 82L163.838 76.8512Z" fill="#9B1912"/>
<path d="M164 82C164 80.2824 163.946 78.5653 163.838 76.8512L82 82L82 108L164 108L164 82Z" fill="#13120E"/>
<rect x="82" y="168" width="30" height="82" transform="rotate(-90 82 168)" fill="#13120E"/>
<rect x="82" y="228" width="30" height="82" transform="rotate(-90 82 228)" fill="#13120E"/>
<rect x="82" y="288" width="30" height="82" transform="rotate(-90 82 288)" fill="#13120E"/>
<rect x="82" y="348" width="30" height="82" transform="rotate(-90 82 348)" fill="#13120E"/>
<rect x="82" y="408" width="30" height="82" transform="rotate(-90 82 408)" fill="#13120E"/>
<rect x="82" y="468" width="30" height="82" transform="rotate(-90 82 468)" fill="#13120E"/>
<path d="M156.196 508.914C161.335 497.992 164 486.071 164 474V468L82 468L82 474L156.196 508.914Z" fill="#9B1912"/>
<rect y="138" width="30" height="82" transform="rotate(-90 0 138)" fill="#13120E"/>
<rect y="198" width="30" height="82" transform="rotate(-90 0 198)" fill="#13120E"/>
<rect y="258" width="30" height="82" transform="rotate(-90 0 258)" fill="#13120E"/>
<rect y="318" width="30" height="82" transform="rotate(-90 0 318)" fill="#13120E"/>
<rect y="378" width="30" height="82" transform="rotate(-90 0 378)" fill="#13120E"/>
<rect y="438" width="30" height="82" transform="rotate(-90 0 438)" fill="#13120E"/>
</g>
<rect x="43" y="41" width="78" height="477" rx="39" fill="#1E1E1E" fill-opacity="0.64"/>
<line x1="42.6976" y1="407.602" x2="121.698" y2="347.602" stroke="#9E9E9E"/>
<mask id="mask1_371_85559" style="mask-type:alpha" maskUnits="userSpaceOnUse" x="42" y="105" width="80" height="46">
<rect x="42" y="105" width="80" height="46" fill="#9E9E9E"/>
</mask>
<g mask="url(#mask1_371_85559)">
<rect x="40.5" y="32.5" width="83" height="105" rx="41.5" stroke="#9E9E9E"/>
</g>
<mask id="path-43-inside-1_371_85559" fill="white">
<path d="M164 474C164 519.287 127.287 556 82 556V556C36.7127 556 0 519.287 0 474V82C0 36.7127 36.7127 0 82 0V0C127.287 0 164 36.7126 164 82V474ZM82 41C60.4609 41 43 58.4609 43 80V479C43 500.539 60.4609 518 82 518C103.539 518 121 500.539 121 479V80C121 58.4609 103.539 41 82 41Z"/>
</mask>
<path d="M0 474H1V82H0H-1V474H0ZM164 82H163V474H164H165V82H164ZM82 41V40C59.9086 40 42 57.9086 42 80H43H44C44 59.0132 61.0132 42 82 42V41ZM43 80H42V479H43H44V80H43ZM43 479H42C42 501.091 59.9086 519 82 519V518V517C61.0132 517 44 499.987 44 479H43ZM82 518V519C104.091 519 122 501.091 122 479H121H120C120 499.987 102.987 517 82 517V518ZM121 479H122V80H121H120V479H121ZM121 80H122C122 57.9086 104.091 40 82 40V41V42C102.987 42 120 59.0132 120 80H121ZM82 0V1C126.735 1 163 37.2649 163 82H164H165C165 36.1604 127.84 -1 82 -1V0ZM0 82H1C1 37.2649 37.2649 1 82 1V0V-1C36.1604 -1 -1 36.1604 -1 82H0ZM82 556V555C37.2649 555 1 518.735 1 474H0H-1C-1 519.84 36.1604 557 82 557V556ZM82 556V557C127.84 557 165 519.84 165 474H164H163C163 518.735 126.735 555 82 555V556Z" fill="#9E9E9E" mask="url(#path-43-inside-1_371_85559)"/>
<line x1="42" y1="258" x2="122" y2="258" stroke="#9E9E9E"/>
<path d="M135.579 490.199C134.518 490.199 133.574 490.017 132.745 489.652C131.921 489.283 131.27 488.776 130.792 488.132C130.318 487.483 130.075 486.735 130.06 485.888H133.157C133.176 486.243 133.292 486.555 133.505 486.825C133.723 487.09 134.012 487.296 134.371 487.443C134.731 487.59 135.136 487.663 135.586 487.663C136.055 487.663 136.469 487.58 136.829 487.415C137.189 487.249 137.47 487.019 137.674 486.726C137.878 486.432 137.979 486.094 137.979 485.71C137.979 485.322 137.871 484.979 137.653 484.68C137.44 484.377 137.132 484.141 136.729 483.97C136.332 483.8 135.858 483.714 135.309 483.714H133.952V481.456H135.309C135.773 481.456 136.183 481.375 136.538 481.214C136.897 481.054 137.177 480.831 137.376 480.547C137.575 480.258 137.674 479.922 137.674 479.538C137.674 479.174 137.586 478.854 137.411 478.58C137.241 478.3 136.999 478.082 136.687 477.926C136.379 477.77 136.019 477.692 135.607 477.692C135.191 477.692 134.809 477.768 134.464 477.919C134.118 478.066 133.841 478.277 133.633 478.551C133.424 478.826 133.313 479.148 133.299 479.517H130.352C130.366 478.679 130.605 477.94 131.069 477.301C131.533 476.662 132.158 476.162 132.944 475.803C133.735 475.438 134.627 475.256 135.621 475.256C136.625 475.256 137.504 475.438 138.256 475.803C139.009 476.167 139.594 476.66 140.011 477.28C140.432 477.895 140.64 478.587 140.636 479.354C140.64 480.168 140.387 480.848 139.876 481.392C139.369 481.937 138.709 482.282 137.894 482.429V482.543C138.964 482.68 139.779 483.052 140.337 483.658C140.901 484.259 141.18 485.012 141.175 485.916C141.18 486.745 140.941 487.481 140.458 488.125C139.98 488.769 139.319 489.276 138.477 489.645C137.634 490.014 136.668 490.199 135.579 490.199ZM149.089 490.32C147.868 490.315 146.816 490.014 145.936 489.418C145.06 488.821 144.385 487.957 143.912 486.825C143.443 485.694 143.211 484.332 143.216 482.741C143.216 481.155 143.45 479.804 143.919 478.686C144.392 477.569 145.067 476.719 145.943 476.136C146.824 475.549 147.872 475.256 149.089 475.256C150.306 475.256 151.352 475.549 152.228 476.136C153.109 476.723 153.786 477.576 154.26 478.693C154.733 479.806 154.967 481.155 154.963 482.741C154.963 484.337 154.726 485.701 154.252 486.832C153.784 487.964 153.111 488.828 152.235 489.425C151.359 490.021 150.311 490.32 149.089 490.32ZM149.089 487.77C149.922 487.77 150.588 487.351 151.085 486.513C151.582 485.675 151.828 484.418 151.824 482.741C151.824 481.638 151.71 480.72 151.483 479.986C151.26 479.252 150.943 478.7 150.531 478.331C150.124 477.962 149.643 477.777 149.089 477.777C148.261 477.777 147.598 478.191 147.1 479.02C146.603 479.848 146.352 481.089 146.348 482.741C146.348 483.859 146.459 484.792 146.681 485.54C146.909 486.283 147.228 486.842 147.64 487.216C148.052 487.585 148.535 487.77 149.089 487.77Z" fill="white"/>
<path d="M128.494 522.199C127.4 522.199 126.427 522.021 125.575 521.666C124.727 521.306 124.062 520.816 123.579 520.196C123.096 519.576 122.855 518.873 122.855 518.087C122.855 517.481 122.992 516.924 123.267 516.418C123.546 515.906 123.925 515.482 124.403 515.146C124.881 514.805 125.416 514.588 126.008 514.493V514.393C125.231 514.237 124.602 513.861 124.119 513.264C123.636 512.663 123.394 511.964 123.394 511.169C123.394 510.416 123.615 509.746 124.055 509.159C124.495 508.567 125.099 508.103 125.866 507.767C126.638 507.426 127.514 507.256 128.494 507.256C129.474 507.256 130.347 507.426 131.115 507.767C131.886 508.108 132.492 508.574 132.933 509.166C133.373 509.753 133.596 510.421 133.6 511.169C133.596 511.969 133.349 512.668 132.862 513.264C132.374 513.861 131.749 514.237 130.987 514.393V514.493C131.569 514.588 132.097 514.805 132.57 515.146C133.049 515.482 133.427 515.906 133.707 516.418C133.991 516.924 134.135 517.481 134.14 518.087C134.135 518.873 133.892 519.576 133.409 520.196C132.926 520.816 132.258 521.306 131.406 521.666C130.558 522.021 129.588 522.199 128.494 522.199ZM128.494 519.94C128.981 519.94 129.408 519.853 129.772 519.678C130.137 519.498 130.421 519.251 130.624 518.939C130.833 518.622 130.937 518.257 130.937 517.845C130.937 517.424 130.83 517.052 130.617 516.73C130.404 516.403 130.115 516.148 129.751 515.963C129.386 515.774 128.967 515.679 128.494 515.679C128.025 515.679 127.606 515.774 127.237 515.963C126.867 516.148 126.576 516.403 126.363 516.73C126.155 517.052 126.051 517.424 126.051 517.845C126.051 518.257 126.152 518.622 126.356 518.939C126.56 519.251 126.846 519.498 127.215 519.678C127.585 519.853 128.011 519.94 128.494 519.94ZM128.494 513.442C128.901 513.442 129.263 513.359 129.58 513.193C129.898 513.027 130.146 512.798 130.326 512.504C130.506 512.211 130.596 511.872 130.596 511.489C130.596 511.11 130.506 510.778 130.326 510.494C130.146 510.205 129.9 509.981 129.588 509.82C129.275 509.654 128.91 509.571 128.494 509.571C128.082 509.571 127.717 509.654 127.4 509.82C127.083 509.981 126.834 510.205 126.654 510.494C126.479 510.778 126.392 511.11 126.392 511.489C126.392 511.872 126.481 512.211 126.661 512.504C126.841 512.798 127.09 513.027 127.407 513.193C127.724 513.359 128.087 513.442 128.494 513.442Z" fill="white"/>
<path d="M87.7884 543V540.784L92.9659 535.99C93.4063 535.564 93.7756 535.18 94.0739 534.839C94.3769 534.499 94.6065 534.165 94.7628 533.838C94.919 533.507 94.9972 533.149 94.9972 532.766C94.9972 532.339 94.9001 531.973 94.706 531.665C94.5118 531.352 94.2467 531.113 93.9105 530.947C93.5743 530.777 93.1932 530.692 92.767 530.692C92.322 530.692 91.9337 530.782 91.6023 530.962C91.2708 531.142 91.0152 531.4 90.8352 531.736C90.6553 532.072 90.5653 532.472 90.5653 532.936H87.6463C87.6463 531.984 87.8617 531.158 88.2926 530.457C88.7235 529.757 89.3272 529.214 90.1037 528.831C90.8802 528.447 91.7751 528.256 92.7884 528.256C93.83 528.256 94.7367 528.44 95.5085 528.81C96.285 529.174 96.8887 529.681 97.3196 530.33C97.7505 530.978 97.9659 531.722 97.9659 532.56C97.9659 533.109 97.857 533.651 97.6392 534.186C97.4261 534.721 97.045 535.315 96.4957 535.969C95.9465 536.617 95.1723 537.396 94.1733 538.305L92.0497 540.386V540.486H98.1577V543H87.7884ZM105.762 543.199C104.702 543.199 103.757 543.017 102.929 542.652C102.105 542.283 101.454 541.776 100.975 541.132C100.502 540.483 100.258 539.735 100.244 538.888H103.341C103.359 539.243 103.475 539.555 103.689 539.825C103.906 540.09 104.195 540.296 104.555 540.443C104.915 540.59 105.32 540.663 105.77 540.663C106.238 540.663 106.653 540.58 107.012 540.415C107.372 540.249 107.654 540.019 107.858 539.726C108.061 539.432 108.163 539.094 108.163 538.71C108.163 538.322 108.054 537.979 107.836 537.68C107.623 537.377 107.315 537.141 106.913 536.97C106.515 536.8 106.042 536.714 105.493 536.714H104.136V534.456H105.493C105.957 534.456 106.366 534.375 106.721 534.214C107.081 534.054 107.36 533.831 107.559 533.547C107.758 533.258 107.858 532.922 107.858 532.538C107.858 532.174 107.77 531.854 107.595 531.58C107.424 531.3 107.183 531.082 106.87 530.926C106.563 530.77 106.203 530.692 105.791 530.692C105.374 530.692 104.993 530.768 104.647 530.919C104.302 531.066 104.025 531.277 103.816 531.551C103.608 531.826 103.497 532.148 103.483 532.517H100.535C100.549 531.679 100.788 530.94 101.252 530.301C101.717 529.662 102.342 529.162 103.127 528.803C103.918 528.438 104.811 528.256 105.805 528.256C106.809 528.256 107.687 528.438 108.44 528.803C109.193 529.167 109.778 529.66 110.194 530.28C110.616 530.895 110.824 531.587 110.819 532.354C110.824 533.168 110.571 533.848 110.059 534.392C109.553 534.937 108.892 535.282 108.078 535.429V535.543C109.148 535.68 109.962 536.052 110.521 536.658C111.084 537.259 111.364 538.012 111.359 538.916C111.364 539.745 111.125 540.481 110.642 541.125C110.163 541.769 109.503 542.276 108.66 542.645C107.817 543.014 106.851 543.199 105.762 543.199Z" fill="white"/>
<path d="M60.2298 528.455V543H57.1545V531.374H57.0692L53.7383 533.462V530.734L57.3391 528.455H60.2298ZM69.3899 543.32C68.1683 543.315 67.1172 543.014 66.2365 542.418C65.3606 541.821 64.6858 540.957 64.2124 539.825C63.7436 538.694 63.5116 537.332 63.5163 535.741C63.5163 534.155 63.7507 532.804 64.2195 531.686C64.6929 530.569 65.3677 529.719 66.2436 529.136C67.1243 528.549 68.1731 528.256 69.3899 528.256C70.6068 528.256 71.6532 528.549 72.5291 529.136C73.4098 529.723 74.0869 530.576 74.5604 531.693C75.0339 532.806 75.2682 534.155 75.2635 535.741C75.2635 537.337 75.0268 538.701 74.5533 539.832C74.0845 540.964 73.4122 541.828 72.5362 542.425C71.6603 543.021 70.6115 543.32 69.3899 543.32ZM69.3899 540.77C70.2232 540.77 70.8885 540.351 71.3857 539.513C71.8828 538.675 72.129 537.418 72.1243 535.741C72.1243 534.638 72.0107 533.72 71.7834 532.986C71.5608 532.252 71.2436 531.7 70.8317 531.331C70.4245 530.962 69.9439 530.777 69.3899 530.777C68.5613 530.777 67.8984 531.191 67.4013 532.02C66.9041 532.848 66.6532 534.089 66.6484 535.741C66.6484 536.859 66.7597 537.792 66.9822 538.54C67.2095 539.283 67.5291 539.842 67.9411 540.216C68.353 540.585 68.8359 540.77 69.3899 540.77Z" fill="white"/>
<path d="M35.5462 522.199C34.5424 522.199 33.6475 522.014 32.8615 521.645C32.0803 521.276 31.46 520.767 31.0007 520.118C30.5414 519.469 30.3023 518.726 30.2834 517.888H33.2663C33.2995 518.451 33.5362 518.908 33.9766 519.259C34.4169 519.609 34.9401 519.784 35.5462 519.784C36.0291 519.784 36.4553 519.678 36.8246 519.464C37.1986 519.247 37.4898 518.946 37.6982 518.562C37.9112 518.174 38.0178 517.729 38.0178 517.227C38.0178 516.716 37.9089 516.266 37.6911 515.878C37.478 515.49 37.1821 515.187 36.8033 514.969C36.4245 514.751 35.9912 514.64 35.5036 514.635C35.0774 514.635 34.6631 514.723 34.2607 514.898C33.8629 515.073 33.5528 515.312 33.3303 515.615L30.5959 515.125L31.2848 507.455H40.1768V509.969H33.8203L33.4439 513.612H33.5291C33.7848 513.252 34.1707 512.954 34.6868 512.717C35.2029 512.481 35.7805 512.362 36.4197 512.362C37.2957 512.362 38.0769 512.568 38.7635 512.98C39.45 513.392 39.9922 513.958 40.3899 514.678C40.7876 515.393 40.9841 516.216 40.9794 517.149C40.9841 518.129 40.7569 519 40.2976 519.763C39.843 520.52 39.2062 521.117 38.3871 521.553C37.5727 521.983 36.6257 522.199 35.5462 522.199Z" fill="white"/>
<path d="M9.75906 490V487.784L14.9366 482.99C15.377 482.564 15.7463 482.18 16.0446 481.839C16.3476 481.499 16.5772 481.165 16.7335 480.838C16.8897 480.507 16.9679 480.149 16.9679 479.766C16.9679 479.339 16.8708 478.973 16.6767 478.665C16.4825 478.352 16.2174 478.113 15.8812 477.947C15.545 477.777 15.1639 477.692 14.7377 477.692C14.2927 477.692 13.9044 477.782 13.573 477.962C13.2415 478.142 12.9859 478.4 12.8059 478.736C12.626 479.072 12.536 479.472 12.536 479.936H9.61701C9.61701 478.984 9.83245 478.158 10.2633 477.457C10.6942 476.757 11.2979 476.214 12.0744 475.831C12.8509 475.447 13.7458 475.256 14.7591 475.256C15.8007 475.256 16.7074 475.44 17.4792 475.81C18.2557 476.174 18.8594 476.681 19.2903 477.33C19.7212 477.978 19.9366 478.722 19.9366 479.56C19.9366 480.109 19.8277 480.651 19.6099 481.186C19.3968 481.721 19.0157 482.315 18.4664 482.969C17.9172 483.617 17.1431 484.396 16.144 485.305L14.0204 487.386V487.486H20.1284V490H9.75906ZM21.824 487.443V485.021L27.8965 475.455H29.9846V478.807H28.7488L24.9206 484.865V484.979H33.5499V487.443H21.824ZM28.8056 490V486.705L28.8624 485.632V475.455H31.7459V490H28.8056Z" fill="white"/>
<path d="M17.513 445.455V460H14.4377V448.374H14.3525L11.0215 450.462V447.734L14.6223 445.455H17.513ZM26.5524 460.199C25.8043 460.194 25.0822 460.069 24.3862 459.822C23.6949 459.576 23.0746 459.176 22.5254 458.622C21.9761 458.068 21.5405 457.334 21.2186 456.42C20.9013 455.507 20.7427 454.384 20.7427 453.054C20.7475 451.832 20.8871 450.741 21.1618 449.78C21.4411 448.814 21.8388 447.995 22.3549 447.322C22.8758 446.65 23.4984 446.139 24.2228 445.788C24.9473 445.433 25.7593 445.256 26.6589 445.256C27.6296 445.256 28.4866 445.445 29.2299 445.824C29.9733 446.198 30.5699 446.707 31.0197 447.351C31.4743 447.995 31.7489 448.717 31.8436 449.517H28.8109C28.6925 449.01 28.444 448.613 28.0652 448.324C27.6864 448.035 27.2176 447.891 26.6589 447.891C25.7119 447.891 24.9922 448.303 24.4998 449.126C24.0121 449.95 23.7636 451.07 23.7541 452.486H23.8535C24.0713 452.055 24.3649 451.688 24.7342 451.385C25.1083 451.077 25.532 450.843 26.0055 450.682C26.4837 450.516 26.988 450.433 27.5183 450.433C28.38 450.433 29.1471 450.637 29.8194 451.044C30.4918 451.446 31.0221 452 31.4103 452.706C31.7986 453.411 31.9927 454.219 31.9927 455.128C31.9927 456.113 31.7631 456.989 31.3038 457.756C30.8493 458.523 30.2124 459.124 29.3933 459.56C28.5789 459.991 27.6319 460.204 26.5524 460.199ZM26.5382 457.784C27.0117 457.784 27.4354 457.67 27.8095 457.443C28.1835 457.216 28.4771 456.908 28.6902 456.52C28.9032 456.132 29.0098 455.696 29.0098 455.213C29.0098 454.73 28.9032 454.297 28.6902 453.913C28.4818 453.53 28.193 453.224 27.8237 452.997C27.4544 452.77 27.033 452.656 26.5595 452.656C26.2044 452.656 25.8753 452.723 25.5723 452.855C25.274 452.988 25.0112 453.172 24.7839 453.409C24.5614 453.646 24.3862 453.92 24.2583 454.233C24.1305 454.541 24.0666 454.87 24.0666 455.22C24.0666 455.689 24.1731 456.117 24.3862 456.506C24.604 456.894 24.8975 457.204 25.2669 457.436C25.6409 457.668 26.0647 457.784 26.5382 457.784Z" fill="white"/>
<path d="M14.8718 430.199C13.8112 430.199 12.8666 430.017 12.038 429.652C11.2141 429.283 10.5631 428.776 10.0849 428.132C9.61139 427.483 9.36754 426.735 9.35334 425.888H12.4499C12.4689 426.243 12.5849 426.555 12.7979 426.825C13.0157 427.09 13.3046 427.296 13.6644 427.443C14.0243 427.59 14.4291 427.663 14.8789 427.663C15.3477 427.663 15.762 427.58 16.1218 427.415C16.4817 427.249 16.7634 427.019 16.967 426.726C17.1706 426.432 17.2724 426.094 17.2724 425.71C17.2724 425.322 17.1635 424.979 16.9457 424.68C16.7326 424.377 16.4248 424.141 16.0224 423.97C15.6246 423.8 15.1512 423.714 14.6019 423.714H13.2454V421.456H14.6019C15.0659 421.456 15.4755 421.375 15.8306 421.214C16.1905 421.054 16.4698 420.831 16.6687 420.547C16.8675 420.258 16.967 419.922 16.967 419.538C16.967 419.174 16.8794 418.854 16.7042 418.58C16.5337 418.3 16.2923 418.082 15.9798 417.926C15.672 417.77 15.3121 417.692 14.9002 417.692C14.4835 417.692 14.1024 417.768 13.7567 417.919C13.4111 418.066 13.1341 418.277 12.9258 418.551C12.7174 418.826 12.6062 419.148 12.592 419.517H9.64453C9.65874 418.679 9.89785 417.94 10.3619 417.301C10.8259 416.662 11.4509 416.162 12.2369 415.803C13.0276 415.438 13.9201 415.256 14.9144 415.256C15.9182 415.256 16.7965 415.438 17.5494 415.803C18.3022 416.167 18.887 416.66 19.3036 417.28C19.725 417.895 19.9334 418.587 19.9286 419.354C19.9334 420.168 19.68 420.848 19.1687 421.392C18.6621 421.937 18.0015 422.282 17.1871 422.429V422.543C18.2572 422.68 19.0716 423.052 19.6303 423.658C20.1938 424.259 20.4731 425.012 20.4684 425.916C20.4731 426.745 20.234 427.481 19.7511 428.125C19.2728 428.769 18.6123 429.276 17.7695 429.645C16.9267 430.014 15.9608 430.199 14.8718 430.199ZM28.0554 430.199C26.9948 430.199 26.0502 430.017 25.2216 429.652C24.3977 429.283 23.7467 428.776 23.2685 428.132C22.795 427.483 22.5511 426.735 22.5369 425.888H25.6335C25.6525 426.243 25.7685 426.555 25.9815 426.825C26.1993 427.09 26.4882 427.296 26.848 427.443C27.2079 427.59 27.6127 427.663 28.0625 427.663C28.5312 427.663 28.9455 427.58 29.3054 427.415C29.6652 427.249 29.947 427.019 30.1506 426.726C30.3542 426.432 30.456 426.094 30.456 425.71C30.456 425.322 30.3471 424.979 30.1293 424.68C29.9162 424.377 29.6084 424.141 29.206 423.97C28.8082 423.8 28.3348 423.714 27.7855 423.714H26.429V421.456H27.7855C28.2495 421.456 28.6591 421.375 29.0142 421.214C29.3741 421.054 29.6534 420.831 29.8523 420.547C30.0511 420.258 30.1506 419.922 30.1506 419.538C30.1506 419.174 30.063 418.854 29.8878 418.58C29.7173 418.3 29.4759 418.082 29.1634 417.926C28.8556 417.77 28.4957 417.692 28.0838 417.692C27.6671 417.692 27.286 417.768 26.9403 417.919C26.5947 418.066 26.3177 418.277 26.1094 418.551C25.901 418.826 25.7898 419.148 25.7756 419.517H22.8281C22.8423 418.679 23.0814 417.94 23.5455 417.301C24.0095 416.662 24.6345 416.162 25.4205 415.803C26.2112 415.438 27.1037 415.256 28.098 415.256C29.1018 415.256 29.9801 415.438 30.733 415.803C31.4858 416.167 32.0705 416.66 32.4872 417.28C32.9086 417.895 33.117 418.587 33.1122 419.354C33.117 420.168 32.8636 420.848 32.3523 421.392C31.8456 421.937 31.1851 422.282 30.3707 422.429V422.543C31.4408 422.68 32.2552 423.052 32.8139 423.658C33.3774 424.259 33.6567 425.012 33.652 425.916C33.6567 426.745 33.4176 427.481 32.9347 428.125C32.4564 428.769 31.7959 429.276 30.9531 429.645C30.1103 430.014 29.1444 430.199 28.0554 430.199Z" fill="white"/>
<path d="M24.1145 385.455V400H21.0392V388.374H20.954L17.623 390.462V387.734L21.2239 385.455H24.1145Z" fill="white"/>
<path d="M9.49538 370V367.784L14.6729 362.99C15.1133 362.564 15.4826 362.18 15.7809 361.839C16.0839 361.499 16.3136 361.165 16.4698 360.838C16.6261 360.507 16.7042 360.149 16.7042 359.766C16.7042 359.339 16.6071 358.973 16.413 358.665C16.2189 358.352 15.9537 358.113 15.6175 357.947C15.2814 357.777 14.9002 357.692 14.4741 357.692C14.029 357.692 13.6407 357.782 13.3093 357.962C12.9779 358.142 12.7222 358.4 12.5423 358.736C12.3623 359.072 12.2724 359.472 12.2724 359.936H9.35334C9.35334 358.984 9.56877 358.158 9.99964 357.457C10.4305 356.757 11.0342 356.214 11.8107 355.831C12.5872 355.447 13.4821 355.256 14.4954 355.256C15.5371 355.256 16.4438 355.44 17.2156 355.81C17.9921 356.174 18.5958 356.681 19.0266 357.33C19.4575 357.978 19.6729 358.722 19.6729 359.56C19.6729 360.109 19.564 360.651 19.3462 361.186C19.1332 361.721 18.752 362.315 18.2028 362.969C17.6535 363.617 16.8794 364.396 15.8803 365.305L13.7567 367.386V367.486H19.8647V370H9.49538ZM27.7962 370.32C26.5746 370.315 25.5234 370.014 24.6428 369.418C23.7668 368.821 23.0921 367.957 22.6186 366.825C22.1499 365.694 21.9179 364.332 21.9226 362.741C21.9226 361.155 22.157 359.804 22.6257 358.686C23.0992 357.569 23.7739 356.719 24.6499 356.136C25.5305 355.549 26.5793 355.256 27.7962 355.256C29.013 355.256 30.0594 355.549 30.9354 356.136C31.8161 356.723 32.4931 357.576 32.9666 358.693C33.4401 359.806 33.6745 361.155 33.6697 362.741C33.6697 364.337 33.433 365.701 32.9595 366.832C32.4908 367.964 31.8184 368.828 30.9425 369.425C30.0665 370.021 29.0178 370.32 27.7962 370.32ZM27.7962 367.77C28.6295 367.77 29.2947 367.351 29.7919 366.513C30.2891 365.675 30.5353 364.418 30.5305 362.741C30.5305 361.638 30.4169 360.72 30.1896 359.986C29.9671 359.252 29.6499 358.7 29.2379 358.331C28.8307 357.962 28.3501 357.777 27.7962 357.777C26.9676 357.777 26.3047 358.191 25.8075 359.02C25.3104 359.848 25.0594 361.089 25.0547 362.741C25.0547 363.859 25.166 364.792 25.3885 365.54C25.6158 366.283 25.9354 366.842 26.3473 367.216C26.7592 367.585 27.2422 367.77 27.7962 367.77Z" fill="white"/>
<path d="M17.3372 325.455V340H14.2619V328.374H14.1767L10.8457 330.462V327.734L14.4466 325.455H17.3372ZM20.574 337.443V335.021L26.6465 325.455H28.7346V328.807H27.4988L23.6706 334.865V334.979H32.2999V337.443H20.574ZM27.5556 340V336.705L27.6124 335.632V325.455H30.4959V340H27.5556Z" fill="white"/>
<path d="M16.571 310.199C15.5104 310.199 14.5658 310.017 13.7372 309.652C12.9134 309.283 12.2623 308.776 11.7841 308.132C11.3106 307.483 11.0668 306.735 11.0526 305.888H14.1491C14.1681 306.243 14.2841 306.555 14.4972 306.825C14.715 307.09 15.0038 307.296 15.3636 307.443C15.7235 307.59 16.1283 307.663 16.5781 307.663C17.0469 307.663 17.4612 307.58 17.821 307.415C18.1809 307.249 18.4626 307.019 18.6662 306.726C18.8698 306.432 18.9716 306.094 18.9716 305.71C18.9716 305.322 18.8627 304.979 18.6449 304.68C18.4318 304.377 18.1241 304.141 17.7216 303.97C17.3239 303.8 16.8504 303.714 16.3011 303.714H14.9446V301.456H16.3011C16.7652 301.456 17.1747 301.375 17.5298 301.214C17.8897 301.054 18.169 300.831 18.3679 300.547C18.5668 300.258 18.6662 299.922 18.6662 299.538C18.6662 299.174 18.5786 298.854 18.4034 298.58C18.233 298.3 17.9915 298.082 17.679 297.926C17.3712 297.77 17.0114 297.692 16.5994 297.692C16.1828 297.692 15.8016 297.768 15.456 297.919C15.1103 298.066 14.8333 298.277 14.625 298.551C14.4167 298.826 14.3054 299.148 14.2912 299.517H11.3438C11.358 298.679 11.5971 297.94 12.0611 297.301C12.5251 296.662 13.1501 296.162 13.9361 295.803C14.7268 295.438 15.6193 295.256 16.6136 295.256C17.6174 295.256 18.4957 295.438 19.2486 295.803C20.0014 296.167 20.5862 296.66 21.0028 297.28C21.4242 297.895 21.6326 298.587 21.6278 299.354C21.6326 300.168 21.3793 300.848 20.8679 301.392C20.3613 301.937 19.7008 302.282 18.8864 302.429V302.543C19.9564 302.68 20.7708 303.052 21.3295 303.658C21.893 304.259 22.1723 305.012 22.1676 305.916C22.1723 306.745 21.9332 307.481 21.4503 308.125C20.9721 308.769 20.3116 309.276 19.4688 309.645C18.6259 310.014 17.66 310.199 16.571 310.199ZM30.7063 295.455V310H27.631V298.374H27.5458L24.2148 300.462V297.734L27.8157 295.455H30.7063Z" fill="white"/>
<path d="M21.3402 265.256C22.0883 265.256 22.808 265.381 23.4993 265.632C24.1953 265.883 24.8156 266.283 25.3601 266.832C25.9093 267.382 26.3426 268.111 26.6598 269.02C26.9818 269.924 27.1451 271.035 27.1499 272.351C27.1499 273.587 27.0102 274.69 26.7308 275.661C26.4562 276.626 26.0608 277.448 25.5447 278.125C25.0286 278.802 24.406 279.318 23.6768 279.673C22.9477 280.024 22.1333 280.199 21.2337 280.199C20.263 280.199 19.406 280.012 18.6626 279.638C17.9193 279.259 17.3203 278.745 16.8658 278.097C16.416 277.443 16.1437 276.709 16.049 275.895H19.0817C19.2 276.425 19.4486 276.837 19.8274 277.131C20.2062 277.42 20.675 277.564 21.2337 277.564C22.1806 277.564 22.9003 277.152 23.3928 276.328C23.8852 275.5 24.1338 274.366 24.1385 272.926H24.0391C23.8213 273.352 23.5277 273.719 23.1584 274.027C22.7891 274.33 22.3653 274.564 21.8871 274.73C21.4136 274.896 20.9093 274.979 20.3743 274.979C19.5173 274.979 18.7526 274.777 18.0803 274.375C17.4079 273.973 16.8776 273.419 16.4893 272.713C16.1011 272.008 15.907 271.203 15.907 270.298C15.9022 269.323 16.1271 268.454 16.5817 267.692C17.0362 266.929 17.6707 266.333 18.4851 265.902C19.3042 265.466 20.2559 265.251 21.3402 265.256ZM21.3615 267.67C20.8833 267.67 20.4571 267.784 20.0831 268.011C19.7138 268.239 19.4202 268.544 19.2024 268.928C18.9893 269.311 18.8852 269.74 18.8899 270.213C18.8899 270.691 18.9941 271.122 19.2024 271.506C19.4155 271.884 19.7043 272.187 20.0689 272.415C20.4382 272.637 20.8596 272.749 21.3331 272.749C21.6882 272.749 22.0173 272.682 22.3203 272.55C22.6233 272.417 22.8861 272.235 23.1087 272.003C23.3359 271.766 23.5135 271.494 23.6413 271.186C23.7692 270.878 23.8331 270.552 23.8331 270.206C23.8284 269.747 23.7195 269.325 23.5064 268.942C23.2933 268.558 22.9998 268.25 22.6257 268.018C22.2517 267.786 21.8303 267.67 21.3615 267.67Z" fill="white"/>
<path d="M10.0813 250V247.784L15.2589 242.99C15.6992 242.564 16.0685 242.18 16.3668 241.839C16.6699 241.499 16.8995 241.165 17.0558 240.838C17.212 240.507 17.2901 240.149 17.2901 239.766C17.2901 239.339 17.1931 238.973 16.9989 238.665C16.8048 238.352 16.5397 238.113 16.2035 237.947C15.8673 237.777 15.4862 237.692 15.06 237.692C14.6149 237.692 14.2267 237.782 13.8952 237.962C13.5638 238.142 13.3081 238.4 13.1282 238.736C12.9483 239.072 12.8583 239.472 12.8583 239.936H9.93928C9.93928 238.984 10.1547 238.158 10.5856 237.457C11.0165 236.757 11.6201 236.214 12.3967 235.831C13.1732 235.447 14.0681 235.256 15.0813 235.256C16.123 235.256 17.0297 235.44 17.8015 235.81C18.578 236.174 19.1817 236.681 19.6126 237.33C20.0434 237.978 20.2589 238.722 20.2589 239.56C20.2589 240.109 20.15 240.651 19.9322 241.186C19.7191 241.721 19.3379 242.315 18.7887 242.969C18.2395 243.617 17.4653 244.396 16.4663 245.305L14.3427 247.386V247.486H20.4506V250H10.0813ZM22.679 250V247.784L27.8565 242.99C28.2969 242.564 28.6662 242.18 28.9645 241.839C29.2675 241.499 29.4972 241.165 29.6534 240.838C29.8097 240.507 29.8878 240.149 29.8878 239.766C29.8878 239.339 29.7907 238.973 29.5966 238.665C29.4025 238.352 29.1373 238.113 28.8011 237.947C28.465 237.777 28.0838 237.692 27.6577 237.692C27.2126 237.692 26.8243 237.782 26.4929 237.962C26.1615 238.142 25.9058 238.4 25.7259 238.736C25.5459 239.072 25.456 239.472 25.456 239.936H22.5369C22.5369 238.984 22.7524 238.158 23.1832 237.457C23.6141 236.757 24.2178 236.214 24.9943 235.831C25.7708 235.447 26.6657 235.256 27.679 235.256C28.7206 235.256 29.6274 235.44 30.3991 235.81C31.1757 236.174 31.7794 236.681 32.2102 237.33C32.6411 237.978 32.8565 238.722 32.8565 239.56C32.8565 240.109 32.7476 240.651 32.5298 241.186C32.3168 241.721 31.9356 242.315 31.3864 242.969C30.8371 243.617 30.063 244.396 29.0639 245.305L26.9403 247.386V247.486H33.0483V250H22.679Z" fill="white"/>
<path d="M17.5032 205.455V220H14.4279V208.374H14.3427L11.0117 210.462V207.734L14.6126 205.455H17.5032ZM26.3864 220.199C25.2926 220.199 24.3196 220.021 23.4673 219.666C22.6198 219.306 21.9545 218.816 21.4716 218.196C20.9886 217.576 20.7472 216.873 20.7472 216.087C20.7472 215.481 20.8845 214.924 21.1591 214.418C21.4384 213.906 21.8172 213.482 22.2955 213.146C22.7737 212.805 23.3087 212.588 23.9006 212.493V212.393C23.1241 212.237 22.4943 211.861 22.0114 211.264C21.5284 210.663 21.2869 209.964 21.2869 209.169C21.2869 208.416 21.5071 207.746 21.9474 207.159C22.3878 206.567 22.9915 206.103 23.7585 205.767C24.5303 205.426 25.4062 205.256 26.3864 205.256C27.3665 205.256 28.2401 205.426 29.0071 205.767C29.7789 206.108 30.3849 206.574 30.8253 207.166C31.2656 207.753 31.4882 208.421 31.4929 209.169C31.4882 209.969 31.242 210.668 30.7543 211.264C30.2666 211.861 29.6416 212.237 28.8793 212.393V212.493C29.4616 212.588 29.9896 212.805 30.4631 213.146C30.9413 213.482 31.3201 213.906 31.5994 214.418C31.8835 214.924 32.0279 215.481 32.0327 216.087C32.0279 216.873 31.7841 217.576 31.3011 218.196C30.8182 218.816 30.1506 219.306 29.2983 219.666C28.4508 220.021 27.4801 220.199 26.3864 220.199ZM26.3864 217.94C26.8741 217.94 27.3002 217.853 27.6648 217.678C28.0294 217.498 28.3134 217.251 28.517 216.939C28.7254 216.622 28.8295 216.257 28.8295 215.845C28.8295 215.424 28.723 215.052 28.5099 214.73C28.2969 214.403 28.008 214.148 27.6435 213.963C27.2789 213.774 26.8598 213.679 26.3864 213.679C25.9176 213.679 25.4986 213.774 25.1293 213.963C24.7599 214.148 24.4688 214.403 24.2557 214.73C24.0473 215.052 23.9432 215.424 23.9432 215.845C23.9432 216.257 24.045 216.622 24.2486 216.939C24.4522 217.251 24.7386 217.498 25.108 217.678C25.4773 217.853 25.9034 217.94 26.3864 217.94ZM26.3864 211.442C26.7936 211.442 27.1558 211.359 27.473 211.193C27.7902 211.027 28.0388 210.798 28.2188 210.504C28.3987 210.211 28.4886 209.872 28.4886 209.489C28.4886 209.11 28.3987 208.778 28.2188 208.494C28.0388 208.205 27.7926 207.981 27.4801 207.82C27.1676 207.654 26.803 207.571 26.3864 207.571C25.9744 207.571 25.6098 207.654 25.2926 207.82C24.9754 207.981 24.7268 208.205 24.5469 208.494C24.3717 208.778 24.2841 209.11 24.2841 209.489C24.2841 209.872 24.3741 210.211 24.554 210.504C24.7339 210.798 24.9825 211.027 25.2997 211.193C25.617 211.359 25.9792 211.442 26.3864 211.442Z" fill="white"/>
<path d="M9.77859 190V187.784L14.9561 182.99C15.3965 182.564 15.7658 182.18 16.0641 181.839C16.3671 181.499 16.5968 181.165 16.753 180.838C16.9093 180.507 16.9874 180.149 16.9874 179.766C16.9874 179.339 16.8903 178.973 16.6962 178.665C16.5021 178.352 16.2369 178.113 15.9007 177.947C15.5646 177.777 15.1834 177.692 14.7573 177.692C14.3122 177.692 13.9239 177.782 13.5925 177.962C13.2611 178.142 13.0054 178.4 12.8255 178.736C12.6455 179.072 12.5556 179.472 12.5556 179.936H9.63654C9.63654 178.984 9.85198 178.158 10.2828 177.457C10.7137 176.757 11.3174 176.214 12.0939 175.831C12.8704 175.447 13.7653 175.256 14.7786 175.256C15.8203 175.256 16.727 175.44 17.4988 175.81C18.2753 176.174 18.879 176.681 19.3098 177.33C19.7407 177.978 19.9561 178.722 19.9561 179.56C19.9561 180.109 19.8472 180.651 19.6294 181.186C19.4164 181.721 19.0352 182.315 18.486 182.969C17.9367 183.617 17.1626 184.396 16.1635 185.305L14.04 187.386V187.486H20.1479V190H9.77859ZM27.639 175.256C28.3871 175.256 29.1068 175.381 29.7981 175.632C30.4941 175.883 31.1144 176.283 31.6589 176.832C32.2082 177.382 32.6414 178.111 32.9586 179.02C33.2806 179.924 33.444 181.035 33.4487 182.351C33.4487 183.587 33.309 184.69 33.0297 185.661C32.755 186.626 32.3597 187.448 31.8436 188.125C31.3275 188.802 30.7048 189.318 29.9757 189.673C29.2465 190.024 28.4321 190.199 27.5325 190.199C26.5618 190.199 25.7048 190.012 24.9615 189.638C24.2181 189.259 23.6191 188.745 23.1646 188.097C22.7148 187.443 22.4425 186.709 22.3478 185.895H25.3805C25.4989 186.425 25.7475 186.837 26.1262 187.131C26.505 187.42 26.9738 187.564 27.5325 187.564C28.4795 187.564 29.1992 187.152 29.6916 186.328C30.184 185.5 30.4326 184.366 30.4373 182.926H30.3379C30.1201 183.352 29.8265 183.719 29.4572 184.027C29.0879 184.33 28.6641 184.564 28.1859 184.73C27.7124 184.896 27.2082 184.979 26.6731 184.979C25.8161 184.979 25.0514 184.777 24.3791 184.375C23.7067 183.973 23.1764 183.419 22.7882 182.713C22.3999 182.008 22.2058 181.203 22.2058 180.298C22.2011 179.323 22.426 178.454 22.8805 177.692C23.335 176.929 23.9695 176.333 24.7839 175.902C25.603 175.466 26.5547 175.251 27.639 175.256ZM27.6603 177.67C27.1821 177.67 26.756 177.784 26.3819 178.011C26.0126 178.239 25.719 178.544 25.5012 178.928C25.2882 179.311 25.184 179.74 25.1887 180.213C25.1887 180.691 25.2929 181.122 25.5012 181.506C25.7143 181.884 26.0031 182.187 26.3677 182.415C26.737 182.637 27.1584 182.749 27.6319 182.749C27.987 182.749 28.3161 182.682 28.6191 182.55C28.9222 182.417 29.185 182.235 29.4075 182.003C29.6348 181.766 29.8123 181.494 29.9402 181.186C30.068 180.878 30.1319 180.552 30.1319 180.206C30.1272 179.747 30.0183 179.325 29.8052 178.942C29.5922 178.558 29.2986 178.25 28.9245 178.018C28.5505 177.786 28.1291 177.67 27.6603 177.67Z" fill="white"/>
<path d="M17.307 160L23.3368 148.068V147.969H16.3127V145.455H26.5186V148.004L20.4817 160H17.307Z" fill="white"/>
<path d="M9.76882 130V127.784L14.9464 122.99C15.3867 122.564 15.756 122.18 16.0543 121.839C16.3574 121.499 16.587 121.165 16.7433 120.838C16.8995 120.507 16.9776 120.149 16.9776 119.766C16.9776 119.339 16.8806 118.973 16.6864 118.665C16.4923 118.352 16.2272 118.113 15.891 117.947C15.5548 117.777 15.1737 117.692 14.7475 117.692C14.3024 117.692 13.9142 117.782 13.5827 117.962C13.2513 118.142 12.9956 118.4 12.8157 118.736C12.6358 119.072 12.5458 119.472 12.5458 119.936H9.62678C9.62678 118.984 9.84221 118.158 10.2731 117.457C10.704 116.757 11.3076 116.214 12.0842 115.831C12.8607 115.447 13.7556 115.256 14.7688 115.256C15.8105 115.256 16.7172 115.44 17.489 115.81C18.2655 116.174 18.8692 116.681 19.3001 117.33C19.7309 117.978 19.9464 118.722 19.9464 119.56C19.9464 120.109 19.8375 120.651 19.6197 121.186C19.4066 121.721 19.0254 122.315 18.4762 122.969C17.927 123.617 17.1528 124.396 16.1538 125.305L14.0302 127.386V127.486H20.1381V130H9.76882ZM27.7926 130.199C26.6989 130.199 25.7259 130.021 24.8736 129.666C24.026 129.306 23.3608 128.816 22.8778 128.196C22.3949 127.576 22.1534 126.873 22.1534 126.087C22.1534 125.481 22.2907 124.924 22.5653 124.418C22.8447 123.906 23.2235 123.482 23.7017 123.146C24.1799 122.805 24.715 122.588 25.3068 122.493V122.393C24.5303 122.237 23.9006 121.861 23.4176 121.264C22.9347 120.663 22.6932 119.964 22.6932 119.169C22.6932 118.416 22.9134 117.746 23.3537 117.159C23.794 116.567 24.3977 116.103 25.1648 115.767C25.9366 115.426 26.8125 115.256 27.7926 115.256C28.7727 115.256 29.6463 115.426 30.4134 115.767C31.1851 116.108 31.7912 116.574 32.2315 117.166C32.6719 117.753 32.8944 118.421 32.8991 119.169C32.8944 119.969 32.6482 120.668 32.1605 121.264C31.6728 121.861 31.0478 122.237 30.2855 122.393V122.493C30.8679 122.588 31.3958 122.805 31.8693 123.146C32.3475 123.482 32.7263 123.906 33.0057 124.418C33.2898 124.924 33.4342 125.481 33.4389 126.087C33.4342 126.873 33.1903 127.576 32.7074 128.196C32.2244 128.816 31.5568 129.306 30.7045 129.666C29.857 130.021 28.8864 130.199 27.7926 130.199ZM27.7926 127.94C28.2803 127.94 28.7064 127.853 29.071 127.678C29.4356 127.498 29.7197 127.251 29.9233 126.939C30.1316 126.622 30.2358 126.257 30.2358 125.845C30.2358 125.424 30.1293 125.052 29.9162 124.73C29.7031 124.403 29.4143 124.148 29.0497 123.963C28.6851 123.774 28.2661 123.679 27.7926 123.679C27.3239 123.679 26.9048 123.774 26.5355 123.963C26.1662 124.148 25.875 124.403 25.6619 124.73C25.4536 125.052 25.3494 125.424 25.3494 125.845C25.3494 126.257 25.4512 126.622 25.6548 126.939C25.8584 127.251 26.1449 127.498 26.5142 127.678C26.8835 127.853 27.3097 127.94 27.7926 127.94ZM27.7926 121.442C28.1998 121.442 28.562 121.359 28.8793 121.193C29.1965 121.027 29.4451 120.798 29.625 120.504C29.8049 120.211 29.8949 119.872 29.8949 119.489C29.8949 119.11 29.8049 118.778 29.625 118.494C29.4451 118.205 29.1989 117.981 28.8864 117.82C28.5739 117.654 28.2093 117.571 27.7926 117.571C27.3807 117.571 27.0161 117.654 26.6989 117.82C26.3816 117.981 26.133 118.205 25.9531 118.494C25.7779 118.778 25.6903 119.11 25.6903 119.489C25.6903 119.872 25.7803 120.211 25.9602 120.504C26.1402 120.798 26.3887 121.027 26.706 121.193C27.0232 121.359 27.3854 121.442 27.7926 121.442Z" fill="white"/>
<path d="M17.8157 85.4545V100H14.7404V88.3736H14.6552L11.3242 90.4616V87.7344L14.9251 85.4545H17.8157ZM21.2727 100V97.7841L26.4503 92.9901C26.8906 92.5639 27.2599 92.1804 27.5582 91.8395C27.8613 91.4986 28.0909 91.1648 28.2472 90.8381C28.4034 90.5066 28.4815 90.1491 28.4815 89.7656C28.4815 89.3395 28.3845 88.9725 28.1903 88.6648C27.9962 88.3523 27.7311 88.1132 27.3949 87.9474C27.0587 87.777 26.6776 87.6918 26.2514 87.6918C25.8063 87.6918 25.4181 87.7817 25.0866 87.9616C24.7552 88.1416 24.4995 88.3996 24.3196 88.7358C24.1397 89.072 24.0497 89.4721 24.0497 89.9361H21.1307C21.1307 88.9844 21.3461 88.1581 21.777 87.4574C22.2079 86.7566 22.8116 86.2145 23.5881 85.831C24.3646 85.4474 25.2595 85.2557 26.2727 85.2557C27.3144 85.2557 28.2211 85.4403 28.9929 85.8097C29.7694 86.1742 30.3731 86.6809 30.804 87.3295C31.2348 87.9782 31.4503 88.7216 31.4503 89.5597C31.4503 90.1089 31.3414 90.651 31.1236 91.1861C30.9105 91.7211 30.5294 92.3153 29.9801 92.9688C29.4309 93.6174 28.6567 94.3963 27.6577 95.3054L25.5341 97.3864V97.4858H31.642V100H21.2727Z" fill="white"/>
<path d="M17.0183 70.1989C15.9577 70.1989 15.0131 70.0166 14.1845 69.652C13.3606 69.2827 12.7096 68.776 12.2314 68.1321C11.7579 67.4834 11.514 66.7353 11.4998 65.8878H14.5964C14.6154 66.2429 14.7314 66.5554 14.9444 66.8253C15.1622 67.0904 15.4511 67.2964 15.8109 67.4432C16.1708 67.59 16.5756 67.6634 17.0254 67.6634C17.4941 67.6634 17.9084 67.5805 18.2683 67.4148C18.6281 67.2491 18.9099 67.0194 19.1135 66.7259C19.3171 66.4323 19.4189 66.0937 19.4189 65.7102C19.4189 65.322 19.31 64.9787 19.0922 64.6804C18.8791 64.3774 18.5713 64.1406 18.1689 63.9702C17.7711 63.7997 17.2976 63.7145 16.7484 63.7145H15.3919V61.456H16.7484C17.2124 61.456 17.622 61.3755 17.9771 61.2145C18.3369 61.0535 18.6163 60.831 18.8152 60.5469C19.014 60.258 19.1135 59.9219 19.1135 59.5384C19.1135 59.1738 19.0259 58.8542 18.8507 58.5795C18.6802 58.3002 18.4387 58.0824 18.1262 57.9261C17.8185 57.7699 17.4586 57.6918 17.0467 57.6918C16.63 57.6918 16.2489 57.7675 15.9032 57.919C15.5576 58.0658 15.2806 58.2765 15.0723 58.5511C14.8639 58.8258 14.7527 59.1477 14.7385 59.517H11.791C11.8052 58.679 12.0443 57.9403 12.5083 57.3011C12.9724 56.6619 13.5974 56.1624 14.3833 55.8026C15.1741 55.438 16.0666 55.2557 17.0609 55.2557C18.0647 55.2557 18.943 55.438 19.6958 55.8026C20.4487 56.1671 21.0334 56.6596 21.4501 57.2798C21.8715 57.8954 22.0798 58.5866 22.0751 59.3537C22.0798 60.1681 21.8265 60.8475 21.3152 61.392C20.8085 61.9366 20.148 62.2822 19.3336 62.429V62.5426C20.4037 62.6799 21.2181 63.0516 21.7768 63.6577C22.3403 64.259 22.6196 65.0118 22.6149 65.9162C22.6196 66.7448 22.3805 67.4811 21.8976 68.125C21.4193 68.7689 20.7588 69.2756 19.916 69.6449C19.0732 70.0142 18.1073 70.1989 17.0183 70.1989ZM30.138 70.1989C29.1342 70.1989 28.2393 70.0142 27.4533 69.6449C26.6721 69.2756 26.0518 68.7666 25.5925 68.1179C25.1332 67.4692 24.8941 66.7259 24.8752 65.8878H27.8581C27.8913 66.4512 28.128 66.9081 28.5684 67.2585C29.0087 67.6089 29.5319 67.7841 30.138 67.7841C30.6209 67.7841 31.0471 67.6776 31.4164 67.4645C31.7904 67.2467 32.0816 66.946 32.29 66.5625C32.503 66.1742 32.6096 65.7292 32.6096 65.2273C32.6096 64.7159 32.5007 64.2661 32.2828 63.8778C32.0698 63.4896 31.7739 63.1866 31.3951 62.9688C31.0163 62.7509 30.583 62.6397 30.0953 62.6349C29.6692 62.6349 29.2549 62.7225 28.8525 62.8977C28.4547 63.0729 28.1446 63.312 27.9221 63.6151L25.1877 63.125L25.8766 55.4545H34.7686V57.9688H28.4121L28.0357 61.6122H28.1209C28.3766 61.2524 28.7625 60.9541 29.2786 60.7173C29.7947 60.4806 30.3723 60.3622 31.0115 60.3622C31.8875 60.3622 32.6687 60.5682 33.3553 60.9801C34.0418 61.392 34.584 61.9579 34.9817 62.6776C35.3794 63.3925 35.5759 64.2164 35.5712 65.1491C35.5759 66.1293 35.3487 67.0005 34.8894 67.7628C34.4348 68.5204 33.798 69.117 32.9789 69.5526C32.1645 69.9834 31.2175 70.1989 30.138 70.1989Z" fill="white"/>
<path d="M45.4636 40.1989C44.403 40.1989 43.4584 40.0166 42.6298 39.652C41.8059 39.2827 41.1549 38.776 40.6767 38.1321C40.2032 37.4834 39.9593 36.7353 39.9451 35.8878H43.0417C43.0607 36.2429 43.1767 36.5554 43.3897 36.8253C43.6075 37.0904 43.8964 37.2964 44.2562 37.4432C44.6161 37.59 45.0209 37.6634 45.4707 37.6634C45.9395 37.6634 46.3538 37.5805 46.7136 37.4148C47.0734 37.2491 47.3552 37.0194 47.5588 36.7259C47.7624 36.4323 47.8642 36.0937 47.8642 35.7102C47.8642 35.322 47.7553 34.9787 47.5375 34.6804C47.3244 34.3774 47.0166 34.1406 46.6142 33.9702C46.2164 33.7997 45.743 33.7145 45.1937 33.7145H43.8372V31.456H45.1937C45.6577 31.456 46.0673 31.3755 46.4224 31.2145C46.7823 31.0535 47.0616 30.831 47.2605 30.5469C47.4593 30.258 47.5588 29.9219 47.5588 29.5384C47.5588 29.1738 47.4712 28.8542 47.296 28.5795C47.1255 28.3002 46.8841 28.0824 46.5716 27.9261C46.2638 27.7699 45.9039 27.6918 45.492 27.6918C45.0753 27.6918 44.6942 27.7675 44.3485 27.919C44.0029 28.0658 43.7259 28.2765 43.5176 28.5511C43.3092 28.8258 43.198 29.1477 43.1838 29.517H40.2363C40.2505 28.679 40.4896 27.9403 40.9537 27.3011C41.4177 26.6619 42.0427 26.1624 42.8287 25.8026C43.6194 25.438 44.5119 25.2557 45.5062 25.2557C46.51 25.2557 47.3883 25.438 48.1412 25.8026C48.894 26.1671 49.4788 26.6596 49.8954 27.2798C50.3168 27.8954 50.5252 28.5866 50.5204 29.3537C50.5252 30.1681 50.2718 30.8475 49.7605 31.392C49.2538 31.9366 48.5933 32.2822 47.7789 32.429V32.5426C48.849 32.6799 49.6634 33.0516 50.2221 33.6577C50.7856 34.259 51.0649 35.0118 51.0602 35.9162C51.0649 36.7448 50.8258 37.4811 50.3429 38.125C49.8646 38.7689 49.2041 39.2756 48.3613 39.6449C47.5185 40.0142 46.5526 40.1989 45.4636 40.1989Z" fill="white"/>
<path d="M70.7786 28V25.7841L75.9561 20.9901C76.3965 20.5639 76.7658 20.1804 77.0641 19.8395C77.3671 19.4986 77.5968 19.1648 77.753 18.8381C77.9093 18.5066 77.9874 18.1491 77.9874 17.7656C77.9874 17.3395 77.8903 16.9725 77.6962 16.6648C77.5021 16.3523 77.2369 16.1132 76.9007 15.9474C76.5646 15.777 76.1834 15.6918 75.7573 15.6918C75.3122 15.6918 74.9239 15.7817 74.5925 15.9616C74.2611 16.1416 74.0054 16.3996 73.8255 16.7358C73.6455 17.072 73.5556 17.4721 73.5556 17.9361H70.6365C70.6365 16.9844 70.852 16.1581 71.2828 15.4574C71.7137 14.7566 72.3174 14.2145 73.0939 13.831C73.8704 13.4474 74.7653 13.2557 75.7786 13.2557C76.8203 13.2557 77.727 13.4403 78.4988 13.8097C79.2753 14.1742 79.879 14.6809 80.3098 15.3295C80.7407 15.9782 80.9561 16.7216 80.9561 17.5597C80.9561 18.1089 80.8472 18.651 80.6294 19.1861C80.4164 19.7211 80.0352 20.3153 79.486 20.9688C78.9367 21.6174 78.1626 22.3963 77.1635 23.3054L75.04 25.3864V25.4858H81.1479V28H70.7786ZM88.9586 28.1989C88.2105 28.1941 87.4885 28.0687 86.7924 27.8224C86.1011 27.5762 85.4809 27.1761 84.9316 26.6222C84.3824 26.0682 83.9468 25.3343 83.6248 24.4205C83.3076 23.5066 83.149 22.3845 83.149 21.054C83.1537 19.8324 83.2934 18.741 83.568 17.7798C83.8474 16.8139 84.2451 15.9948 84.7612 15.3224C85.282 14.6501 85.9047 14.1387 86.6291 13.7884C87.3535 13.4332 88.1655 13.2557 89.0652 13.2557C90.0358 13.2557 90.8928 13.4451 91.6362 13.8239C92.3796 14.1979 92.9761 14.7069 93.426 15.3509C93.8805 15.9948 94.1551 16.7169 94.2498 17.517H91.2172C91.0988 17.0104 90.8502 16.6127 90.4714 16.3239C90.0926 16.035 89.6239 15.8906 89.0652 15.8906C88.1182 15.8906 87.3985 16.3026 86.9061 17.1264C86.4184 17.9503 86.1698 19.0701 86.1603 20.4858H86.2598C86.4776 20.0549 86.7711 19.688 87.1404 19.3849C87.5145 19.0772 87.9383 18.8428 88.4118 18.6818C88.89 18.5161 89.3942 18.4332 89.9245 18.4332C90.7863 18.4332 91.5533 18.6368 92.2257 19.044C92.898 19.4465 93.4283 20.0005 93.8166 20.706C94.2048 21.4115 94.399 22.2187 94.399 23.1278C94.399 24.1127 94.1693 24.9886 93.7101 25.7557C93.2555 26.5227 92.6187 27.1241 91.7995 27.5597C90.9851 27.9905 90.0382 28.2036 88.9586 28.1989ZM88.9444 25.7841C89.4179 25.7841 89.8417 25.6705 90.2157 25.4432C90.5898 25.2159 90.8833 24.9081 91.0964 24.5199C91.3095 24.1316 91.416 23.696 91.416 23.2131C91.416 22.7301 91.3095 22.2969 91.0964 21.9134C90.8881 21.5298 90.5993 21.2244 90.2299 20.9972C89.8606 20.7699 89.4392 20.6562 88.9657 20.6562C88.6106 20.6562 88.2815 20.7225 87.9785 20.8551C87.6802 20.9877 87.4174 21.1723 87.1902 21.4091C86.9676 21.6458 86.7924 21.9205 86.6646 22.233C86.5368 22.5407 86.4728 22.8698 86.4728 23.2202C86.4728 23.6889 86.5794 24.1174 86.7924 24.5057C87.0102 24.8939 87.3038 25.2041 87.6731 25.4361C88.0472 25.6681 88.4709 25.7841 88.9444 25.7841Z" fill="white"/>
<path d="M118.497 40.3196C117.276 40.3149 116.225 40.0142 115.344 39.4176C114.468 38.821 113.793 37.9569 113.32 36.8253C112.851 35.6937 112.619 34.3324 112.624 32.7415C112.624 31.1553 112.858 29.8035 113.327 28.6861C113.8 27.5687 114.475 26.7187 115.351 26.1364C116.232 25.5492 117.28 25.2557 118.497 25.2557C119.714 25.2557 120.761 25.5492 121.637 26.1364C122.517 26.7235 123.194 27.5758 123.668 28.6932C124.141 29.8059 124.376 31.1553 124.371 32.7415C124.371 34.3371 124.134 35.7008 123.661 36.8324C123.192 37.964 122.52 38.8281 121.644 39.4247C120.768 40.0213 119.719 40.3196 118.497 40.3196ZM118.497 37.7699C119.331 37.7699 119.996 37.3509 120.493 36.5128C120.99 35.6747 121.236 34.4176 121.232 32.7415C121.232 31.6383 121.118 30.7197 120.891 29.9858C120.668 29.2519 120.351 28.7003 119.939 28.331C119.532 27.9616 119.051 27.777 118.497 27.777C117.669 27.777 117.006 28.1913 116.509 29.0199C116.012 29.8485 115.761 31.089 115.756 32.7415C115.756 33.8589 115.867 34.7917 116.09 35.5398C116.317 36.2831 116.637 36.8419 117.048 37.2159C117.46 37.5852 117.943 37.7699 118.497 37.7699Z" fill="white"/>
<path d="M134.165 70.1989C133.104 70.1989 132.16 70.0166 131.331 69.652C130.507 69.2827 129.856 68.776 129.378 68.1321C128.904 67.4834 128.661 66.7353 128.646 65.8878H131.743C131.762 66.2429 131.878 66.5554 132.091 66.8253C132.309 67.0904 132.598 67.2964 132.957 67.4432C133.317 67.59 133.722 67.6634 134.172 67.6634C134.641 67.6634 135.055 67.5805 135.415 67.4148C135.775 67.2491 136.056 67.0194 136.26 66.7259C136.464 66.4323 136.565 66.0937 136.565 65.7102C136.565 65.322 136.456 64.9787 136.239 64.6804C136.026 64.3774 135.718 64.1406 135.315 63.9702C134.918 63.7997 134.444 63.7145 133.895 63.7145H132.538V61.456H133.895C134.359 61.456 134.768 61.3755 135.124 61.2145C135.483 61.0535 135.763 60.831 135.962 60.5469C136.161 60.258 136.26 59.9219 136.26 59.5384C136.26 59.1738 136.172 58.8542 135.997 58.5795C135.827 58.3002 135.585 58.0824 135.273 57.9261C134.965 57.7699 134.605 57.6918 134.193 57.6918C133.777 57.6918 133.395 57.7675 133.05 57.919C132.704 58.0658 132.427 58.2765 132.219 58.5511C132.01 58.8258 131.899 59.1477 131.885 59.517H128.938C128.952 58.679 129.191 57.9403 129.655 57.3011C130.119 56.6619 130.744 56.1624 131.53 55.8026C132.321 55.438 133.213 55.2557 134.207 55.2557C135.211 55.2557 136.089 55.438 136.842 55.8026C137.595 56.1671 138.18 56.6596 138.597 57.2798C139.018 57.8954 139.226 58.5866 139.222 59.3537C139.226 60.1681 138.973 60.8475 138.462 61.392C137.955 61.9366 137.295 62.2822 136.48 62.429V62.5426C137.55 62.6799 138.365 63.0516 138.923 63.6577C139.487 64.259 139.766 65.0118 139.761 65.9162C139.766 66.7448 139.527 67.4811 139.044 68.125C138.566 68.7689 137.905 69.2756 137.062 69.6449C136.22 70.0142 135.254 70.1989 134.165 70.1989ZM141.972 70V67.7841L147.15 62.9901C147.59 62.5639 147.959 62.1804 148.257 61.8395C148.56 61.4986 148.79 61.1648 148.946 60.8381C149.103 60.5066 149.181 60.1491 149.181 59.7656C149.181 59.3395 149.084 58.9725 148.89 58.6648C148.695 58.3523 148.43 58.1132 148.094 57.9474C147.758 57.777 147.377 57.6918 146.951 57.6918C146.506 57.6918 146.117 57.7817 145.786 57.9616C145.454 58.1416 145.199 58.3996 145.019 58.7358C144.839 59.072 144.749 59.4721 144.749 59.9361H141.83C141.83 58.9844 142.045 58.1581 142.476 57.4574C142.907 56.7566 143.511 56.2145 144.287 55.831C145.064 55.4474 145.959 55.2557 146.972 55.2557C148.014 55.2557 148.92 55.4403 149.692 55.8097C150.469 56.1742 151.072 56.6809 151.503 57.3295C151.934 57.9782 152.15 58.7216 152.15 59.5597C152.15 60.1089 152.041 60.651 151.823 61.1861C151.61 61.7211 151.229 62.3153 150.679 62.9688C150.13 63.6174 149.356 64.3963 148.357 65.3054L146.233 67.3864V67.4858H152.341V70H141.972Z" fill="white"/>
<path d="M138.669 85.4545V100H135.594V88.3736H135.509L132.178 90.4616V87.7344L135.779 85.4545H138.669ZM147.439 100.199C146.435 100.199 145.54 100.014 144.754 99.6449C143.973 99.2756 143.353 98.7666 142.893 98.1179C142.434 97.4692 142.195 96.7259 142.176 95.8878H145.159C145.192 96.4512 145.429 96.9081 145.869 97.2585C146.309 97.6089 146.833 97.7841 147.439 97.7841C147.922 97.7841 148.348 97.6776 148.717 97.4645C149.091 97.2467 149.382 96.946 149.591 96.5625C149.804 96.1742 149.91 95.7292 149.91 95.2273C149.91 94.7159 149.801 94.2661 149.584 93.8778C149.371 93.4896 149.075 93.1866 148.696 92.9688C148.317 92.7509 147.884 92.6397 147.396 92.6349C146.97 92.6349 146.556 92.7225 146.153 92.8977C145.756 93.0729 145.445 93.312 145.223 93.6151L142.488 93.125L143.177 85.4545H152.069V87.9688H145.713L145.336 91.6122H145.422C145.677 91.2524 146.063 90.9541 146.579 90.7173C147.095 90.4806 147.673 90.3622 148.312 90.3622C149.188 90.3622 149.97 90.5682 150.656 90.9801C151.343 91.392 151.885 91.9579 152.282 92.6776C152.68 93.3925 152.877 94.2164 152.872 95.1491C152.877 96.1293 152.649 97.0005 152.19 97.7628C151.736 98.5204 151.099 99.117 150.28 99.5526C149.465 99.9834 148.518 100.199 147.439 100.199Z" fill="white"/>
<path d="M138.513 115.455V130H135.438V118.374H135.352L132.021 120.462V117.734L135.622 115.455H138.513ZM147.233 115.256C147.981 115.256 148.701 115.381 149.392 115.632C150.088 115.883 150.708 116.283 151.253 116.832C151.802 117.382 152.235 118.111 152.552 119.02C152.874 119.924 153.038 121.035 153.042 122.351C153.042 123.587 152.903 124.69 152.623 125.661C152.349 126.626 151.953 127.448 151.437 128.125C150.921 128.802 150.299 129.318 149.569 129.673C148.84 130.024 148.026 130.199 147.126 130.199C146.156 130.199 145.299 130.012 144.555 129.638C143.812 129.259 143.213 128.745 142.758 128.097C142.309 127.443 142.036 126.709 141.942 125.895H144.974C145.093 126.425 145.341 126.837 145.72 127.131C146.099 127.42 146.568 127.564 147.126 127.564C148.073 127.564 148.793 127.152 149.285 126.328C149.778 125.5 150.026 124.366 150.031 122.926H149.932C149.714 123.352 149.42 123.719 149.051 124.027C148.682 124.33 148.258 124.564 147.78 124.73C147.306 124.896 146.802 124.979 146.267 124.979C145.41 124.979 144.645 124.777 143.973 124.375C143.3 123.973 142.77 123.419 142.382 122.713C141.994 122.008 141.8 121.203 141.8 120.298C141.795 119.323 142.02 118.454 142.474 117.692C142.929 116.929 143.563 116.333 144.378 115.902C145.197 115.466 146.148 115.251 147.233 115.256ZM147.254 117.67C146.776 117.67 146.35 117.784 145.976 118.011C145.606 118.239 145.313 118.544 145.095 118.928C144.882 119.311 144.778 119.74 144.782 120.213C144.782 120.691 144.887 121.122 145.095 121.506C145.308 121.884 145.597 122.187 145.961 122.415C146.331 122.637 146.752 122.749 147.226 122.749C147.581 122.749 147.91 122.682 148.213 122.55C148.516 122.417 148.779 122.235 149.001 122.003C149.229 121.766 149.406 121.494 149.534 121.186C149.662 120.878 149.726 120.552 149.726 120.206C149.721 119.747 149.612 119.325 149.399 118.942C149.186 118.558 148.892 118.25 148.518 118.018C148.144 117.786 147.723 117.67 147.254 117.67Z" fill="white"/>
<path d="M136.681 157.443V155.021L142.754 145.455H144.842V148.807H143.606L139.778 154.865V154.979H148.407V157.443H136.681ZM143.663 160V156.705L143.72 155.632V145.455H146.603V160H143.663Z" fill="white"/>
<path d="M132.488 190V187.784L137.665 182.99C138.105 182.564 138.475 182.18 138.773 181.839C139.076 181.499 139.306 181.165 139.462 180.838C139.618 180.507 139.696 180.149 139.696 179.766C139.696 179.339 139.599 178.973 139.405 178.665C139.211 178.352 138.946 178.113 138.61 177.947C138.274 177.777 137.892 177.692 137.466 177.692C137.021 177.692 136.633 177.782 136.301 177.962C135.97 178.142 135.714 178.4 135.534 178.736C135.355 179.072 135.265 179.472 135.265 179.936H132.346C132.346 178.984 132.561 178.158 132.992 177.457C133.423 176.757 134.026 176.214 134.803 175.831C135.579 175.447 136.474 175.256 137.488 175.256C138.529 175.256 139.436 175.44 140.208 175.81C140.984 176.174 141.588 176.681 142.019 177.33C142.45 177.978 142.665 178.722 142.665 179.56C142.665 180.109 142.556 180.651 142.338 181.186C142.125 181.721 141.744 182.315 141.195 182.969C140.646 183.617 139.872 184.396 138.873 185.305L136.749 187.386V187.486H142.857V190H132.488ZM151.413 175.455V190H148.338V178.374H148.253L144.922 180.462V177.734L148.523 175.455H151.413Z" fill="white"/>
<path d="M137.38 220V217.784L142.558 212.99C142.998 212.564 143.367 212.18 143.666 211.839C143.969 211.499 144.198 211.165 144.355 210.838C144.511 210.507 144.589 210.149 144.589 209.766C144.589 209.339 144.492 208.973 144.298 208.665C144.104 208.352 143.838 208.113 143.502 207.947C143.166 207.777 142.785 207.692 142.359 207.692C141.914 207.692 141.526 207.782 141.194 207.962C140.863 208.142 140.607 208.4 140.427 208.736C140.247 209.072 140.157 209.472 140.157 209.936H137.238C137.238 208.984 137.454 208.158 137.884 207.457C138.315 206.757 138.919 206.214 139.695 205.831C140.472 205.447 141.367 205.256 142.38 205.256C143.422 205.256 144.329 205.44 145.1 205.81C145.877 206.174 146.481 206.681 146.911 207.33C147.342 207.978 147.558 208.722 147.558 209.56C147.558 210.109 147.449 210.651 147.231 211.186C147.018 211.721 146.637 212.315 146.088 212.969C145.538 213.617 144.764 214.396 143.765 215.305L141.642 217.386V217.486H147.749V220H137.38Z" fill="white"/>
<path d="M130.935 250V247.784L136.112 242.99C136.553 242.564 136.922 242.18 137.22 241.839C137.523 241.499 137.753 241.165 137.909 240.838C138.066 240.507 138.144 240.149 138.144 239.766C138.144 239.339 138.047 238.973 137.852 238.665C137.658 238.352 137.393 238.113 137.057 237.947C136.721 237.777 136.34 237.692 135.914 237.692C135.468 237.692 135.08 237.782 134.749 237.962C134.417 238.142 134.162 238.4 133.982 238.736C133.802 239.072 133.712 239.472 133.712 239.936H130.793C130.793 238.984 131.008 238.158 131.439 237.457C131.87 236.757 132.474 236.214 133.25 235.831C134.027 235.447 134.922 235.256 135.935 235.256C136.977 235.256 137.883 235.44 138.655 235.81C139.432 236.174 140.035 236.681 140.466 237.33C140.897 237.978 141.112 238.722 141.112 239.56C141.112 240.109 141.003 240.651 140.786 241.186C140.573 241.721 140.191 242.315 139.642 242.969C139.093 243.617 138.319 244.396 137.32 245.305L135.196 247.386V247.486H141.304V250H130.935ZM148.845 250.199C147.841 250.199 146.946 250.014 146.16 249.645C145.379 249.276 144.759 248.767 144.3 248.118C143.84 247.469 143.601 246.726 143.582 245.888H146.565C146.598 246.451 146.835 246.908 147.275 247.259C147.716 247.609 148.239 247.784 148.845 247.784C149.328 247.784 149.754 247.678 150.123 247.464C150.497 247.247 150.789 246.946 150.997 246.562C151.21 246.174 151.317 245.729 151.317 245.227C151.317 244.716 151.208 244.266 150.99 243.878C150.777 243.49 150.481 243.187 150.102 242.969C149.723 242.751 149.29 242.64 148.802 242.635C148.376 242.635 147.962 242.723 147.559 242.898C147.162 243.073 146.852 243.312 146.629 243.615L143.895 243.125L144.584 235.455H153.476V237.969H147.119L146.743 241.612H146.828C147.084 241.252 147.47 240.954 147.986 240.717C148.502 240.481 149.079 240.362 149.719 240.362C150.595 240.362 151.376 240.568 152.062 240.98C152.749 241.392 153.291 241.958 153.689 242.678C154.086 243.393 154.283 244.216 154.278 245.149C154.283 246.129 154.056 247 153.596 247.763C153.142 248.52 152.505 249.117 151.686 249.553C150.872 249.983 149.925 250.199 148.845 250.199Z" fill="white"/>
<path d="M139.167 265.455V280H136.092V268.374H136.007L132.676 270.462V267.734L136.277 265.455H139.167ZM143.2 280L149.229 268.068V267.969H142.205V265.455H152.411V268.004L146.374 280H143.2Z" fill="white"/>
<path d="M135.686 310.199C134.626 310.199 133.681 310.017 132.852 309.652C132.029 309.283 131.378 308.776 130.899 308.132C130.426 307.483 130.182 306.735 130.168 305.888H133.264C133.283 306.243 133.399 306.555 133.612 306.825C133.83 307.09 134.119 307.296 134.479 307.443C134.839 307.59 135.244 307.663 135.693 307.663C136.162 307.663 136.576 307.58 136.936 307.415C137.296 307.249 137.578 307.019 137.781 306.726C137.985 306.432 138.087 306.094 138.087 305.71C138.087 305.322 137.978 304.979 137.76 304.68C137.547 304.377 137.239 304.141 136.837 303.97C136.439 303.8 135.966 303.714 135.416 303.714H134.06V301.456H135.416C135.88 301.456 136.29 301.375 136.645 301.214C137.005 301.054 137.284 300.831 137.483 300.547C137.682 300.258 137.781 299.922 137.781 299.538C137.781 299.174 137.694 298.854 137.519 298.58C137.348 298.3 137.107 298.082 136.794 297.926C136.486 297.77 136.127 297.692 135.715 297.692C135.298 297.692 134.917 297.768 134.571 297.919C134.226 298.066 133.949 298.277 133.74 298.551C133.532 298.826 133.421 299.148 133.406 299.517H130.459C130.473 298.679 130.712 297.94 131.176 297.301C131.64 296.662 132.265 296.162 133.051 295.803C133.842 295.438 134.735 295.256 135.729 295.256C136.733 295.256 137.611 295.438 138.364 295.803C139.117 296.167 139.701 296.66 140.118 297.28C140.539 297.895 140.748 298.587 140.743 299.354C140.748 300.168 140.494 300.848 139.983 301.392C139.477 301.937 138.816 302.282 138.002 302.429V302.543C139.072 302.68 139.886 303.052 140.445 303.658C141.008 304.259 141.288 305.012 141.283 305.916C141.288 306.745 141.048 307.481 140.566 308.125C140.087 308.769 139.427 309.276 138.584 309.645C137.741 310.014 136.775 310.199 135.686 310.199ZM143.273 307.443V305.021L149.346 295.455H151.434V298.807H150.198L146.37 304.865V304.979H154.999V307.443H143.273ZM150.255 310V306.705L150.312 305.632V295.455H153.195V310H150.255Z" fill="white"/>
<path d="M142.66 340.199C141.912 340.194 141.19 340.069 140.494 339.822C139.802 339.576 139.182 339.176 138.633 338.622C138.084 338.068 137.648 337.334 137.326 336.42C137.009 335.507 136.85 334.384 136.85 333.054C136.855 331.832 136.995 330.741 137.269 329.78C137.549 328.814 137.946 327.995 138.462 327.322C138.983 326.65 139.606 326.139 140.33 325.788C141.055 325.433 141.867 325.256 142.766 325.256C143.737 325.256 144.594 325.445 145.337 325.824C146.081 326.198 146.677 326.707 147.127 327.351C147.582 327.995 147.856 328.717 147.951 329.517H144.918C144.8 329.01 144.551 328.613 144.173 328.324C143.794 328.035 143.325 327.891 142.766 327.891C141.819 327.891 141.1 328.303 140.607 329.126C140.12 329.95 139.871 331.07 139.862 332.486H139.961C140.179 332.055 140.472 331.688 140.842 331.385C141.216 331.077 141.639 330.843 142.113 330.682C142.591 330.516 143.095 330.433 143.626 330.433C144.487 330.433 145.254 330.637 145.927 331.044C146.599 331.446 147.129 332 147.518 332.706C147.906 333.411 148.1 334.219 148.1 335.128C148.1 336.113 147.871 336.989 147.411 337.756C146.957 338.523 146.32 339.124 145.501 339.56C144.686 339.991 143.739 340.204 142.66 340.199ZM142.646 337.784C143.119 337.784 143.543 337.67 143.917 337.443C144.291 337.216 144.585 336.908 144.798 336.52C145.011 336.132 145.117 335.696 145.117 335.213C145.117 334.73 145.011 334.297 144.798 333.913C144.589 333.53 144.3 333.224 143.931 332.997C143.562 332.77 143.14 332.656 142.667 332.656C142.312 332.656 141.983 332.723 141.68 332.855C141.381 332.988 141.119 333.172 140.891 333.409C140.669 333.646 140.494 333.92 140.366 334.233C140.238 334.541 140.174 334.87 140.174 335.22C140.174 335.689 140.281 336.117 140.494 336.506C140.711 336.894 141.005 337.204 141.374 337.436C141.748 337.668 142.172 337.784 142.646 337.784Z" fill="white"/>
<path d="M131.433 370V367.784L136.61 362.99C137.051 362.564 137.42 362.18 137.718 361.839C138.021 361.499 138.251 361.165 138.407 360.838C138.564 360.507 138.642 360.149 138.642 359.766C138.642 359.339 138.545 358.973 138.35 358.665C138.156 358.352 137.891 358.113 137.555 357.947C137.219 357.777 136.838 357.692 136.412 357.692C135.967 357.692 135.578 357.782 135.247 357.962C134.915 358.142 134.66 358.4 134.48 358.736C134.3 359.072 134.21 359.472 134.21 359.936H131.291C131.291 358.984 131.506 358.158 131.937 357.457C132.368 356.757 132.972 356.214 133.748 355.831C134.525 355.447 135.42 355.256 136.433 355.256C137.475 355.256 138.381 355.44 139.153 355.81C139.93 356.174 140.533 356.681 140.964 357.33C141.395 357.978 141.61 358.722 141.61 359.56C141.61 360.109 141.502 360.651 141.284 361.186C141.071 361.721 140.69 362.315 140.14 362.969C139.591 363.617 138.817 364.396 137.818 365.305L135.694 367.386V367.486H141.802V370H131.433ZM144.606 370L150.636 358.068V357.969H143.612V355.455H153.817V358.004L147.781 370H144.606Z" fill="white"/>
<path d="M138.523 385.455V400H135.447V388.374H135.362L132.031 390.462V387.734L135.632 385.455H138.523ZM147.356 400.199C146.296 400.199 145.351 400.017 144.522 399.652C143.699 399.283 143.047 398.776 142.569 398.132C142.096 397.483 141.852 396.735 141.838 395.888H144.934C144.953 396.243 145.069 396.555 145.282 396.825C145.5 397.09 145.789 397.296 146.149 397.443C146.509 397.59 146.913 397.663 147.363 397.663C147.832 397.663 148.246 397.58 148.606 397.415C148.966 397.249 149.248 397.019 149.451 396.726C149.655 396.432 149.757 396.094 149.757 395.71C149.757 395.322 149.648 394.979 149.43 394.68C149.217 394.377 148.909 394.141 148.507 393.97C148.109 393.8 147.636 393.714 147.086 393.714H145.73V391.456H147.086C147.55 391.456 147.96 391.375 148.315 391.214C148.675 391.054 148.954 390.831 149.153 390.547C149.352 390.258 149.451 389.922 149.451 389.538C149.451 389.174 149.364 388.854 149.189 388.58C149.018 388.3 148.777 388.082 148.464 387.926C148.156 387.77 147.797 387.692 147.385 387.692C146.968 387.692 146.587 387.768 146.241 387.919C145.895 388.066 145.618 388.277 145.41 388.551C145.202 388.826 145.091 389.148 145.076 389.517H142.129C142.143 388.679 142.382 387.94 142.846 387.301C143.31 386.662 143.935 386.162 144.721 385.803C145.512 385.438 146.404 385.256 147.399 385.256C148.403 385.256 149.281 385.438 150.034 385.803C150.787 386.167 151.371 386.66 151.788 387.28C152.209 387.895 152.418 388.587 152.413 389.354C152.418 390.168 152.164 390.848 151.653 391.392C151.146 391.937 150.486 392.282 149.672 392.429V392.543C150.742 392.68 151.556 393.052 152.115 393.658C152.678 394.259 152.958 395.012 152.953 395.916C152.958 396.745 152.718 397.481 152.235 398.125C151.757 398.769 151.097 399.276 150.254 399.645C149.411 400.014 148.445 400.199 147.356 400.199Z" fill="white"/>
<path d="M135.862 430.199C134.801 430.199 133.857 430.017 133.028 429.652C132.204 429.283 131.553 428.776 131.075 428.132C130.602 427.483 130.358 426.735 130.344 425.888H133.44C133.459 426.243 133.575 426.555 133.788 426.825C134.006 427.09 134.295 427.296 134.655 427.443C135.015 427.59 135.419 427.663 135.869 427.663C136.338 427.663 136.752 427.58 137.112 427.415C137.472 427.249 137.754 427.019 137.957 426.726C138.161 426.432 138.263 426.094 138.263 425.71C138.263 425.322 138.154 424.979 137.936 424.68C137.723 424.377 137.415 424.141 137.013 423.97C136.615 423.8 136.141 423.714 135.592 423.714H134.236V421.456H135.592C136.056 421.456 136.466 421.375 136.821 421.214C137.181 421.054 137.46 420.831 137.659 420.547C137.858 420.258 137.957 419.922 137.957 419.538C137.957 419.174 137.87 418.854 137.694 418.58C137.524 418.3 137.282 418.082 136.97 417.926C136.662 417.77 136.302 417.692 135.89 417.692C135.474 417.692 135.093 417.768 134.747 417.919C134.401 418.066 134.124 418.277 133.916 418.551C133.708 418.826 133.596 419.148 133.582 419.517H130.635C130.649 418.679 130.888 417.94 131.352 417.301C131.816 416.662 132.441 416.162 133.227 415.803C134.018 415.438 134.91 415.256 135.905 415.256C136.908 415.256 137.787 415.438 138.54 415.803C139.292 416.167 139.877 416.66 140.294 417.28C140.715 417.895 140.924 418.587 140.919 419.354C140.924 420.168 140.67 420.848 140.159 421.392C139.652 421.937 138.992 422.282 138.177 422.429V422.543C139.247 422.68 140.062 423.052 140.621 423.658C141.184 424.259 141.463 425.012 141.459 425.916C141.463 426.745 141.224 427.481 140.741 428.125C140.263 428.769 139.603 429.276 138.76 429.645C137.917 430.014 136.951 430.199 135.862 430.199ZM149.252 430.199C148.503 430.194 147.781 430.069 147.085 429.822C146.394 429.576 145.774 429.176 145.225 428.622C144.675 428.068 144.24 427.334 143.918 426.42C143.601 425.507 143.442 424.384 143.442 423.054C143.447 421.832 143.586 420.741 143.861 419.78C144.14 418.814 144.538 417.995 145.054 417.322C145.575 416.65 146.198 416.139 146.922 415.788C147.646 415.433 148.459 415.256 149.358 415.256C150.329 415.256 151.186 415.445 151.929 415.824C152.673 416.198 153.269 416.707 153.719 417.351C154.173 417.995 154.448 418.717 154.543 419.517H151.51C151.392 419.01 151.143 418.613 150.764 418.324C150.386 418.035 149.917 417.891 149.358 417.891C148.411 417.891 147.691 418.303 147.199 419.126C146.711 419.95 146.463 421.07 146.453 422.486H146.553C146.771 422.055 147.064 421.688 147.433 421.385C147.807 421.077 148.231 420.843 148.705 420.682C149.183 420.516 149.687 420.433 150.218 420.433C151.079 420.433 151.846 420.637 152.519 421.044C153.191 421.446 153.721 422 154.11 422.706C154.498 423.411 154.692 424.219 154.692 425.128C154.692 426.113 154.462 426.989 154.003 427.756C153.548 428.523 152.912 429.124 152.093 429.56C151.278 429.991 150.331 430.204 149.252 430.199ZM149.237 427.784C149.711 427.784 150.135 427.67 150.509 427.443C150.883 427.216 151.176 426.908 151.389 426.52C151.602 426.132 151.709 425.696 151.709 425.213C151.709 424.73 151.602 424.297 151.389 423.913C151.181 423.53 150.892 423.224 150.523 422.997C150.154 422.77 149.732 422.656 149.259 422.656C148.904 422.656 148.575 422.723 148.271 422.855C147.973 422.988 147.71 423.172 147.483 423.409C147.261 423.646 147.085 423.92 146.958 424.233C146.83 424.541 146.766 424.87 146.766 425.22C146.766 425.689 146.872 426.117 147.085 426.506C147.303 426.894 147.597 427.204 147.966 427.436C148.34 427.668 148.764 427.784 149.237 427.784Z" fill="white"/>
<path d="M140.222 445.455V460H137.147V448.374H137.061L133.73 450.462V447.734L137.331 445.455H140.222ZM150.007 445.455V460H146.932V448.374H146.847L143.516 450.462V447.734L147.116 445.455H150.007Z" fill="white"/>
<path d="M62.5277 93.1918C61.7947 93.1889 61.1641 93.0085 60.6357 92.6506C60.1101 92.2926 59.7053 91.7741 59.4212 91.0952C59.1399 90.4162 59.0007 89.5994 59.0036 88.6449C59.0036 87.6932 59.1442 86.8821 59.4254 86.2116C59.7095 85.5412 60.1143 85.0312 60.6399 84.6818C61.1683 84.3295 61.7976 84.1534 62.5277 84.1534C63.2578 84.1534 63.8857 84.3295 64.4112 84.6818C64.9396 85.0341 65.3459 85.5455 65.63 86.2159C65.9141 86.8835 66.0547 87.6932 66.0518 88.6449C66.0518 89.6023 65.9098 90.4205 65.6257 91.0994C65.3445 91.7784 64.9411 92.2969 64.4155 92.6548C63.8899 93.0128 63.2607 93.1918 62.5277 93.1918ZM62.5277 91.6619C63.0277 91.6619 63.4268 91.4105 63.7251 90.9077C64.0234 90.4048 64.1712 89.6506 64.1683 88.6449C64.1683 87.983 64.1001 87.4318 63.9638 86.9915C63.8303 86.5511 63.6399 86.2202 63.3928 85.9986C63.1484 85.777 62.8601 85.6662 62.5277 85.6662C62.0305 85.6662 61.6328 85.9148 61.3345 86.4119C61.0362 86.9091 60.8857 87.6534 60.8828 88.6449C60.8828 89.3153 60.9496 89.875 61.0831 90.3239C61.2195 90.7699 61.4112 91.1051 61.6584 91.3295C61.9055 91.5511 62.1953 91.6619 62.5277 91.6619ZM75.983 87.0938C75.9233 86.8864 75.8395 86.7031 75.7315 86.544C75.6236 86.3821 75.4915 86.2457 75.3352 86.1349C75.1818 86.0213 75.0057 85.9347 74.8068 85.875C74.6108 85.8153 74.3935 85.7855 74.1548 85.7855C73.7088 85.7855 73.3168 85.8963 72.9787 86.1179C72.6435 86.3395 72.3821 86.6619 72.1946 87.0852C72.0071 87.5057 71.9134 88.0199 71.9134 88.6278C71.9134 89.2358 72.0057 89.7528 72.1903 90.179C72.375 90.6051 72.6364 90.9304 72.9744 91.1548C73.3125 91.3764 73.7116 91.4872 74.1719 91.4872C74.5895 91.4872 74.946 91.4134 75.2415 91.2656C75.5398 91.1151 75.767 90.9034 75.9233 90.6307C76.0824 90.358 76.1619 90.0355 76.1619 89.6634L76.5369 89.7188H74.2869V88.3295H77.9389V89.429C77.9389 90.196 77.777 90.8551 77.4531 91.4062C77.1293 91.9545 76.6832 92.3778 76.1151 92.6761C75.5469 92.9716 74.8963 93.1193 74.1634 93.1193C73.3452 93.1193 72.6264 92.9389 72.0071 92.5781C71.3878 92.2145 70.9048 91.6989 70.5582 91.0312C70.2145 90.3608 70.0426 89.5653 70.0426 88.6449C70.0426 87.9375 70.1449 87.3068 70.3494 86.7528C70.5568 86.196 70.8466 85.7244 71.2188 85.3381C71.5909 84.9517 72.0241 84.6577 72.5185 84.456C73.0128 84.2543 73.5483 84.1534 74.125 84.1534C74.6193 84.1534 75.0795 84.2259 75.5057 84.3707C75.9318 84.5128 76.3097 84.7145 76.6392 84.9759C76.9716 85.2372 77.2429 85.5483 77.4531 85.9091C77.6634 86.267 77.7983 86.6619 77.858 87.0938H75.983ZM80.5597 93H78.5824L81.5952 84.2727H83.973L86.9815 93H85.0043L82.8182 86.267H82.75L80.5597 93ZM80.4361 89.5696H85.1065V91.0099H80.4361V89.5696ZM88.032 84.2727H90.3075L92.7109 90.1364H92.8132L95.2166 84.2727H97.4922V93H95.7024V87.3196H95.63L93.3714 92.9574H92.1527L89.8942 87.2983H89.8217V93H88.032V84.2727ZM99.0124 93V84.2727H104.893V85.794H100.858V87.8736H104.591V89.3949H100.858V91.4787H104.91V93H99.0124Z" fill="white"/>
<path d="M59.761 189.273L61.8704 195.903H61.9513L64.065 189.273H66.1104L63.1019 198H60.7241L57.7113 189.273H59.761ZM74.6886 193.636C74.6886 194.588 74.5082 195.398 74.1474 196.065C73.7894 196.733 73.3008 197.243 72.6815 197.595C72.065 197.945 71.3718 198.119 70.6019 198.119C69.8263 198.119 69.1303 197.943 68.5138 197.591C67.8974 197.239 67.4102 196.729 67.0522 196.061C66.6942 195.393 66.5153 194.585 66.5153 193.636C66.5153 192.685 66.6942 191.875 67.0522 191.207C67.4102 190.54 67.8974 190.031 68.5138 189.682C69.1303 189.33 69.8263 189.153 70.6019 189.153C71.3718 189.153 72.065 189.33 72.6815 189.682C73.3008 190.031 73.7894 190.54 74.1474 191.207C74.5082 191.875 74.6886 192.685 74.6886 193.636ZM72.8178 193.636C72.8178 193.02 72.7255 192.5 72.5408 192.077C72.359 191.653 72.1019 191.332 71.7695 191.114C71.4371 190.895 71.0479 190.786 70.6019 190.786C70.1559 190.786 69.7667 190.895 69.4343 191.114C69.1019 191.332 68.8434 191.653 68.6587 192.077C68.4769 192.5 68.386 193.02 68.386 193.636C68.386 194.253 68.4769 194.773 68.6587 195.196C68.8434 195.619 69.1019 195.94 69.4343 196.159C69.7667 196.378 70.1559 196.487 70.6019 196.487C71.0479 196.487 71.4371 196.378 71.7695 196.159C72.1019 195.94 72.359 195.619 72.5408 195.196C72.7255 194.773 72.8178 194.253 72.8178 193.636ZM77.9006 189.273V198H76.0554V189.273H77.9006ZM84.1531 191.783C84.119 191.439 83.9727 191.172 83.7141 190.982C83.4556 190.791 83.1048 190.696 82.6616 190.696C82.3604 190.696 82.1062 190.739 81.8988 190.824C81.6914 190.906 81.5323 191.021 81.4215 191.169C81.3136 191.317 81.2596 191.484 81.2596 191.672C81.2539 191.828 81.2866 191.964 81.3576 192.081C81.4315 192.197 81.5323 192.298 81.6602 192.384C81.788 192.466 81.9357 192.538 82.1033 192.601C82.271 192.661 82.4499 192.712 82.6403 192.754L83.4244 192.942C83.805 193.027 84.1545 193.141 84.4727 193.283C84.7908 193.425 85.0664 193.599 85.2994 193.807C85.5323 194.014 85.7127 194.259 85.8406 194.54C85.9712 194.821 86.038 195.143 86.0408 195.507C86.038 196.041 85.9016 196.504 85.6317 196.896C85.3647 197.286 84.9783 197.588 84.4727 197.804C83.9698 198.017 83.3633 198.124 82.6531 198.124C81.9485 198.124 81.3349 198.016 80.8121 197.8C80.2923 197.584 79.886 197.264 79.5934 196.841C79.3036 196.415 79.1516 195.888 79.1374 195.26H80.9229C80.9428 195.553 81.0266 195.797 81.1744 195.993C81.3249 196.186 81.5252 196.332 81.7752 196.432C82.0281 196.528 82.3136 196.577 82.6317 196.577C82.9442 196.577 83.2156 196.531 83.4457 196.44C83.6786 196.349 83.859 196.223 83.9869 196.061C84.1147 195.899 84.1786 195.713 84.1786 195.503C84.1786 195.307 84.1204 195.142 84.0039 195.009C83.8903 194.875 83.7227 194.761 83.5011 194.668C83.2823 194.574 83.0138 194.489 82.6957 194.412L81.7454 194.173C81.0096 193.994 80.4286 193.714 80.0025 193.334C79.5763 192.953 79.3647 192.44 79.3675 191.795C79.3647 191.267 79.5053 190.805 79.7894 190.411C80.0763 190.016 80.4698 189.707 80.9698 189.486C81.4698 189.264 82.038 189.153 82.6744 189.153C83.3221 189.153 83.8874 189.264 84.3704 189.486C84.8562 189.707 85.234 190.016 85.5039 190.411C85.7738 190.805 85.913 191.263 85.9215 191.783H84.1531ZM89.1271 189.273V198H87.282V189.273H89.1271ZM97.945 189.273V198H96.3512L92.5543 192.507H92.4904V198H90.6452V189.273H92.2646L96.0316 194.761H96.1083V189.273H97.945ZM104.204 191.783C104.17 191.439 104.023 191.172 103.765 190.982C103.506 190.791 103.156 190.696 102.712 190.696C102.411 190.696 102.157 190.739 101.95 190.824C101.742 190.906 101.583 191.021 101.472 191.169C101.364 191.317 101.31 191.484 101.31 191.672C101.305 191.828 101.337 191.964 101.408 192.081C101.482 192.197 101.583 192.298 101.711 192.384C101.839 192.466 101.987 192.538 102.154 192.601C102.322 192.661 102.501 192.712 102.691 192.754L103.475 192.942C103.856 193.027 104.205 193.141 104.523 193.283C104.842 193.425 105.117 193.599 105.35 193.807C105.583 194.014 105.763 194.259 105.891 194.54C106.022 194.821 106.089 195.143 106.092 195.507C106.089 196.041 105.952 196.504 105.683 196.896C105.415 197.286 105.029 197.588 104.523 197.804C104.021 198.017 103.414 198.124 102.704 198.124C101.999 198.124 101.386 198.016 100.863 197.8C100.343 197.584 99.9368 197.264 99.6442 196.841C99.3544 196.415 99.2024 195.888 99.1882 195.26H100.974C100.994 195.553 101.077 195.797 101.225 195.993C101.376 196.186 101.576 196.332 101.826 196.432C102.079 196.528 102.364 196.577 102.683 196.577C102.995 196.577 103.266 196.531 103.496 196.44C103.729 196.349 103.91 196.223 104.038 196.061C104.165 195.899 104.229 195.713 104.229 195.503C104.229 195.307 104.171 195.142 104.055 195.009C103.941 194.875 103.773 194.761 103.552 194.668C103.333 194.574 103.065 194.489 102.746 194.412L101.796 194.173C101.06 193.994 100.479 193.714 100.053 193.334C99.6271 192.953 99.4155 192.44 99.4183 191.795C99.4155 191.267 99.5561 190.805 99.8402 190.411C100.127 190.016 100.521 189.707 101.021 189.486C101.521 189.264 102.089 189.153 102.725 189.153C103.373 189.153 103.938 189.264 104.421 189.486C104.907 189.707 105.285 190.016 105.555 190.411C105.825 190.805 105.964 191.263 105.972 191.783H104.204Z" fill="white"/>
<path d="M56.6827 316.636C56.6827 317.588 56.5023 318.398 56.1415 319.065C55.7836 319.733 55.2949 320.243 54.6756 320.595C54.0591 320.945 53.3659 321.119 52.5961 321.119C51.8205 321.119 51.1245 320.943 50.508 320.591C49.8915 320.239 49.4043 319.729 49.0463 319.061C48.6884 318.393 48.5094 317.585 48.5094 316.636C48.5094 315.685 48.6884 314.875 49.0463 314.207C49.4043 313.54 49.8915 313.031 50.508 312.682C51.1245 312.33 51.8205 312.153 52.5961 312.153C53.3659 312.153 54.0591 312.33 54.6756 312.682C55.2949 313.031 55.7836 313.54 56.1415 314.207C56.5023 314.875 56.6827 315.685 56.6827 316.636ZM54.812 316.636C54.812 316.02 54.7196 315.5 54.535 315.077C54.3532 314.653 54.0961 314.332 53.7637 314.114C53.4313 313.895 53.0421 313.786 52.5961 313.786C52.15 313.786 51.7608 313.895 51.4284 314.114C51.0961 314.332 50.8375 314.653 50.6529 315.077C50.4711 315.5 50.3801 316.02 50.3801 316.636C50.3801 317.253 50.4711 317.773 50.6529 318.196C50.8375 318.619 51.0961 318.94 51.4284 319.159C51.7608 319.378 52.15 319.487 52.5961 319.487C53.0421 319.487 53.4313 319.378 53.7637 319.159C54.0961 318.94 54.3532 318.619 54.535 318.196C54.7196 317.773 54.812 317.253 54.812 316.636ZM58.0495 321V312.273H61.4927C62.1518 312.273 62.7143 312.391 63.1802 312.626C63.649 312.859 64.0055 313.19 64.2498 313.619C64.497 314.045 64.6206 314.547 64.6206 315.124C64.6206 315.703 64.4956 316.202 64.2456 316.619C63.9956 317.034 63.6333 317.352 63.1589 317.574C62.6873 317.795 62.1163 317.906 61.4458 317.906H59.1404V316.423H61.1475C61.4998 316.423 61.7924 316.375 62.0254 316.278C62.2583 316.182 62.4316 316.037 62.5453 315.844C62.6618 315.651 62.72 315.411 62.72 315.124C62.72 314.834 62.6618 314.589 62.5453 314.391C62.4316 314.192 62.2569 314.041 62.0211 313.939C61.7882 313.834 61.4941 313.781 61.139 313.781H59.8947V321H58.0495ZM62.7626 317.028L64.9316 321H62.8947L60.7725 317.028H62.7626ZM65.9245 321V312.273H69.3677C70.0297 312.273 70.5936 312.399 71.0595 312.652C71.5254 312.902 71.8805 313.25 72.1248 313.696C72.372 314.139 72.4956 314.651 72.4956 315.23C72.4956 315.81 72.3706 316.321 72.1206 316.764C71.8706 317.207 71.5083 317.553 71.0339 317.8C70.5623 318.047 69.9913 318.17 69.3208 318.17H67.1262V316.692H69.0225C69.3777 316.692 69.6703 316.631 69.9004 316.509C70.1333 316.384 70.3066 316.212 70.4203 315.993C70.5368 315.771 70.595 315.517 70.595 315.23C70.595 314.94 70.5368 314.687 70.4203 314.472C70.3066 314.253 70.1333 314.084 69.9004 313.964C69.6674 313.842 69.372 313.781 69.014 313.781H67.7697V321H65.9245ZM73.6941 321V312.273H75.5392V315.874H79.285V312.273H81.1259V321H79.285V317.395H75.5392V321H73.6941ZM82.6472 321V312.273H88.5279V313.794H84.4924V315.874H88.2253V317.395H84.4924V319.479H88.5449V321H82.6472ZM89.9949 321V312.273H91.84V319.479H95.5815V321H89.9949ZM98.6486 312.273V321H96.8034V312.273H98.6486ZM107.466 312.273V321H105.873L102.076 315.507H102.012V321H100.167V312.273H101.786L105.553 317.761H105.63V312.273H107.466ZM113.725 314.783C113.691 314.439 113.545 314.172 113.286 313.982C113.028 313.791 112.677 313.696 112.234 313.696C111.933 313.696 111.678 313.739 111.471 313.824C111.264 313.906 111.105 314.021 110.994 314.169C110.886 314.317 110.832 314.484 110.832 314.672C110.826 314.828 110.859 314.964 110.93 315.081C111.004 315.197 111.105 315.298 111.232 315.384C111.36 315.466 111.508 315.538 111.676 315.601C111.843 315.661 112.022 315.712 112.213 315.754L112.997 315.942C113.377 316.027 113.727 316.141 114.045 316.283C114.363 316.425 114.639 316.599 114.872 316.807C115.105 317.014 115.285 317.259 115.413 317.54C115.544 317.821 115.61 318.143 115.613 318.507C115.61 319.041 115.474 319.504 115.204 319.896C114.937 320.286 114.551 320.588 114.045 320.804C113.542 321.017 112.936 321.124 112.225 321.124C111.521 321.124 110.907 321.016 110.384 320.8C109.865 320.584 109.458 320.264 109.166 319.841C108.876 319.415 108.724 318.888 108.71 318.26H110.495C110.515 318.553 110.599 318.797 110.747 318.993C110.897 319.186 111.097 319.332 111.347 319.432C111.6 319.528 111.886 319.577 112.204 319.577C112.517 319.577 112.788 319.531 113.018 319.44C113.251 319.349 113.431 319.223 113.559 319.061C113.687 318.899 113.751 318.713 113.751 318.503C113.751 318.307 113.693 318.142 113.576 318.009C113.463 317.875 113.295 317.761 113.073 317.668C112.855 317.574 112.586 317.489 112.268 317.412L111.318 317.173C110.582 316.994 110.001 316.714 109.575 316.334C109.149 315.953 108.937 315.44 108.94 314.795C108.937 314.267 109.078 313.805 109.362 313.411C109.649 313.016 110.042 312.707 110.542 312.486C111.042 312.264 111.61 312.153 112.247 312.153C112.894 312.153 113.46 312.264 113.943 312.486C114.428 312.707 114.806 313.016 115.076 313.411C115.346 313.805 115.485 314.263 115.494 314.783H113.725Z" fill="white"/>
<path d="M65.1937 439.794V438.273H72.3613V439.794H69.6895V447H67.8656V439.794H65.1937ZM75.3869 438.273V447H73.5417V438.273H75.3869ZM76.905 447V438.273H82.7857V439.794H78.7502V441.874H82.4831V443.395H78.7502V445.479H82.8027V447H76.905ZM84.2527 447V438.273H87.6958C88.3549 438.273 88.9174 438.391 89.3833 438.626C89.8521 438.859 90.2086 439.19 90.4529 439.619C90.7001 440.045 90.8237 440.547 90.8237 441.124C90.8237 441.703 90.6987 442.202 90.4487 442.619C90.1987 443.034 89.8365 443.352 89.362 443.574C88.8904 443.795 88.3194 443.906 87.649 443.906H85.3436V442.423H87.3507C87.7029 442.423 87.9956 442.375 88.2285 442.278C88.4615 442.182 88.6348 442.037 88.7484 441.844C88.8649 441.651 88.9231 441.411 88.9231 441.124C88.9231 440.834 88.8649 440.589 88.7484 440.391C88.6348 440.192 88.46 440.041 88.2243 439.939C87.9913 439.834 87.6973 439.781 87.3422 439.781H86.0978V447H84.2527ZM88.9657 443.028L91.1348 447H89.0978L86.9757 443.028H88.9657ZM96.862 440.783C96.8279 440.439 96.6816 440.172 96.4231 439.982C96.1646 439.791 95.8137 439.696 95.3706 439.696C95.0694 439.696 94.8152 439.739 94.6078 439.824C94.4004 439.906 94.2413 440.021 94.1305 440.169C94.0225 440.317 93.9686 440.484 93.9686 440.672C93.9629 440.828 93.9956 440.964 94.0666 441.081C94.1404 441.197 94.2413 441.298 94.3691 441.384C94.497 441.466 94.6447 441.538 94.8123 441.601C94.9799 441.661 95.1589 441.712 95.3493 441.754L96.1333 441.942C96.514 442.027 96.8635 442.141 97.1816 442.283C97.4998 442.425 97.7754 442.599 98.0083 442.807C98.2413 443.014 98.4217 443.259 98.5495 443.54C98.6802 443.821 98.747 444.143 98.7498 444.507C98.747 445.041 98.6106 445.504 98.3407 445.896C98.0737 446.286 97.6873 446.588 97.1816 446.804C96.6788 447.017 96.0723 447.124 95.362 447.124C94.6575 447.124 94.0439 447.016 93.5211 446.8C93.0012 446.584 92.595 446.264 92.3024 445.841C92.0126 445.415 91.8606 444.888 91.8464 444.26H93.6319C93.6518 444.553 93.7356 444.797 93.8833 444.993C94.0339 445.186 94.2342 445.332 94.4842 445.432C94.737 445.528 95.0225 445.577 95.3407 445.577C95.6532 445.577 95.9245 445.531 96.1547 445.44C96.3876 445.349 96.568 445.223 96.6958 445.061C96.8237 444.899 96.8876 444.713 96.8876 444.503C96.8876 444.307 96.8294 444.142 96.7129 444.009C96.5993 443.875 96.4316 443.761 96.21 443.668C95.9913 443.574 95.7228 443.489 95.4047 443.412L94.4544 443.173C93.7186 442.994 93.1376 442.714 92.7115 442.334C92.2853 441.953 92.0737 441.44 92.0765 440.795C92.0737 440.267 92.2143 439.805 92.4984 439.411C92.7853 439.016 93.1788 438.707 93.6788 438.486C94.1788 438.264 94.747 438.153 95.3833 438.153C96.0311 438.153 96.5964 438.264 97.0794 438.486C97.5652 438.707 97.943 439.016 98.2129 439.411C98.4828 439.805 98.622 440.263 98.6305 440.783H96.862Z" fill="white"/>
</svg>
