<svg width="12" height="17" viewBox="0 0 12 17" fill="none" xmlns="http://www.w3.org/2000/svg">
<path d="M5.83332 0C4.28623 1.9459e-06 2.8025 0.506464 1.70854 1.40797C0.61458 2.30947 0 3.53216 0 4.80708V11.8596C0 13.1345 0.61458 14.3572 1.70854 15.2587C2.8025 16.1602 4.28623 16.6667 5.83332 16.6667C6.59936 16.6667 7.35791 16.5423 8.06564 16.3008C8.77337 16.0592 9.41643 15.7051 9.95811 15.2587C10.4998 14.8123 10.9295 14.2824 11.2226 13.6992C11.5158 13.116 11.6666 12.4909 11.6666 11.8596V4.80708C11.6666 4.1758 11.5158 3.55071 11.2226 2.96749C10.9295 2.38427 10.4998 1.85434 9.95811 1.40796C9.41643 0.961578 8.77337 0.607496 8.06564 0.365918C7.35791 0.124341 6.59936 -9.63505e-07 5.83332 0V0ZM0.356117 7.18569H2.58196V9.56525H0.356117V7.18569ZM1.45835 2.09494L3.23697 3.19636C2.81154 3.65976 2.58154 4.22502 2.58198 4.80609H0.356143C0.355203 3.82753 0.742241 2.87552 1.45835 2.09492V2.09494ZM2.58458 11.9448C2.60589 12.5149 2.84857 13.0643 3.27694 13.5122L1.49833 14.6136C0.779305 13.8485 0.379583 12.9124 0.358743 11.9448H2.58458ZM2.93809 11.8596V4.8071C2.93944 4.17506 3.24506 3.56927 3.78788 3.12274C4.33069 2.6762 5.06633 2.42541 5.83332 2.42541C6.6003 2.42541 7.33594 2.6762 7.87876 3.12274C8.42157 3.56927 8.7272 4.17506 8.72854 4.8071V11.8596C8.7272 12.4917 8.42157 13.0974 7.87876 13.544C7.33594 13.9905 6.6003 14.2413 5.83332 14.2413C5.06633 14.2413 4.33069 13.9905 3.78788 13.544C3.24506 13.0974 2.93944 12.4917 2.93809 11.8596ZM8.38148 13.5208C8.81489 13.0714 9.0606 12.5186 9.08205 11.9448H11.3079C11.2869 12.9162 10.8842 13.8556 10.1601 14.6223L8.38148 13.5208ZM9.08467 9.56528V7.18571H11.3105V9.56528H9.08467ZM9.08467 4.80616C9.08516 4.23096 8.85983 3.67108 8.44233 3.21013L10.2212 2.10852C10.9293 2.88676 11.3116 3.83345 11.3105 4.80616H9.08467ZM5.83335 0.293507C6.41864 0.293467 7.00013 0.371078 7.55549 0.523361L6.86061 2.26558C6.1958 2.08234 5.47679 2.0818 4.81158 2.26404L4.1167 0.521821C4.6704 0.370528 5.24998 0.293435 5.83332 0.29348L5.83335 0.293507ZM5.83335 16.3732C5.26078 16.3733 4.69175 16.2992 4.14718 16.1534L4.84207 14.4112C5.48879 14.5821 6.1843 14.5815 6.8306 14.4095L7.52548 16.1517C6.9791 16.2986 6.408 16.3733 5.8333 16.3732L5.83335 16.3732Z" fill="white"/>
</svg>
