<svg width="28" height="27" viewBox="0 0 28 27" fill="none" xmlns="http://www.w3.org/2000/svg">
<g filter="url(#filter0_d_286_77651)">
<rect x="1" width="25.2" height="25.2" rx="12.6" fill="#FF8E09" shape-rendering="crispEdges"/>
<circle cx="13.6" cy="12.6" r="12.6" fill="#1998CE"/>
<path d="M22.812 12.6001C22.812 17.68 18.6939 21.798 13.6141 21.798C8.53416 21.798 4.4161 17.68 4.4161 12.6001C4.4161 7.52013 8.53416 3.40204 13.6141 3.40204C18.6939 3.40204 22.812 7.52013 22.812 12.6001Z" fill="black" fill-opacity="0.2"/>
<path d="M22.8048 15.7154C21.507 19.5455 17.8823 22.302 13.6138 22.302C9.34532 22.302 5.72065 19.5455 4.42286 15.7154L4.90401 15.5644C6.13756 19.1899 9.57111 21.798 13.6138 21.798C17.6565 21.798 21.0901 19.1899 22.3236 15.5645L22.8048 15.7154Z" fill="white" fill-opacity="0.6"/>
<path d="M22.8048 9.48467C21.507 5.65458 17.8823 2.89801 13.6138 2.89801C9.34531 2.89801 5.72064 5.6546 4.42285 9.48469L4.904 9.63564C6.13755 6.01017 9.57111 3.40201 13.6138 3.40201C17.6565 3.40201 21.0901 6.01016 22.3236 9.63561L22.8048 9.48467Z" fill="white" fill-opacity="0.6"/>
<path d="M16.6182 0.363476C14.8352 -0.0743242 12.9702 -0.11899 11.1545 0.242275C10.9716 0.278697 10.7899 0.319057 10.6094 0.363353L11.0552 2.3273C11.8745 2.12391 12.7315 2.016 13.6138 2.016C14.496 2.016 15.3531 2.12391 16.1724 2.3273L16.6182 0.363476Z" fill="#E1E1E1"/>
<path d="M21.229 5.24954C22.4149 6.47792 23.3064 7.99251 23.7897 9.67948L25.7131 9.08356C25.3551 7.85162 24.8091 6.67492 24.0884 5.59691C23.6776 4.98253 23.2156 4.4084 22.7088 3.87979L21.229 5.24954Z" fill="#E1E1E1"/>
<path d="M25.7134 16.1166L23.7897 15.5206C23.3064 17.2076 22.4149 18.7222 21.229 19.9506L22.7091 21.3206C23.7925 20.1906 24.6565 18.8679 25.2558 17.4199C25.4324 16.9933 25.5851 16.5582 25.7134 16.1166Z" fill="#E1E1E1"/>
<path d="M16.6182 24.8369L16.1724 22.8727C15.353 23.0761 14.496 23.184 13.6138 23.184C12.7316 23.184 11.8745 23.0761 11.0552 22.8727L10.6094 24.8366C11.586 25.0765 12.5929 25.1997 13.6091 25.2C14.6254 25.2005 15.6357 25.0781 16.6182 24.8369Z" fill="#E1E1E1"/>
<path d="M4.51876 21.3202L5.99856 19.9504C4.81265 18.7221 3.9212 17.2076 3.43792 15.5206L1.5144 16.1164C1.64257 16.5574 1.79517 16.9926 1.972 17.4197C2.57416 18.8743 3.44024 20.1953 4.51876 21.3202Z" fill="#E1E1E1"/>
<path d="M1.5144 9.08356L3.4379 9.67948C3.92119 7.99251 4.81261 6.47792 5.99851 5.24954L4.51873 3.87991C3.10957 5.3497 2.08039 7.1361 1.5144 9.08356Z" fill="#E1E1E1"/>
<path d="M16.2726 16.6149C14.7122 16.6149 13.551 15.4264 13.551 13.3308C13.551 11.2352 14.7122 10.0468 16.2726 10.0468C17.8421 10.0468 18.9942 11.2352 18.9942 13.3308C18.9942 15.4264 17.8421 16.6149 16.2726 16.6149ZM16.2726 15.372C17.0075 15.372 17.5155 14.7733 17.5155 13.3308C17.5155 11.8884 17.0075 11.2896 16.2726 11.2896C15.5469 11.2896 15.0388 11.8884 15.0388 13.3308C15.0388 14.7733 15.5469 15.372 16.2726 15.372Z" fill="black" fill-opacity="0.3"/>
<path d="M10.2137 15.3085H12.9444V16.506H8.14528V15.5535L10.5947 13.2401C11.1572 12.7048 11.257 12.3783 11.257 12.0698C11.257 11.5708 10.9122 11.2805 10.2409 11.2805C9.6966 11.2805 9.23392 11.4892 8.92548 11.9156L7.85498 11.2261C8.34487 10.5094 9.23392 10.0468 10.377 10.0468C11.7922 10.0468 12.7357 10.7725 12.7357 11.9247C12.7357 12.5416 12.5633 13.104 11.6743 13.9296L10.2137 15.3085Z" fill="black" fill-opacity="0.3"/>
<path d="M16.2721 15.9849C14.7118 15.9849 13.5505 14.7964 13.5505 12.7008C13.5505 10.6052 14.7118 9.41675 16.2721 9.41675C17.8416 9.41675 18.9937 10.6052 18.9937 12.7008C18.9937 14.7964 17.8416 15.9849 16.2721 15.9849ZM16.2721 14.742C17.007 14.742 17.515 14.1433 17.515 12.7008C17.515 11.2584 17.007 10.6596 16.2721 10.6596C15.5464 10.6596 15.0383 11.2584 15.0383 12.7008C15.0383 14.1433 15.5464 14.742 16.2721 14.742Z" fill="white"/>
<path d="M10.2132 14.6785H12.9439V15.876H8.1448V14.9235L10.5942 12.6101C11.1567 12.0748 11.2565 11.7483 11.2565 11.4398C11.2565 10.9408 10.9118 10.6505 10.2404 10.6505C9.69611 10.6505 9.23344 10.8592 8.92499 11.2856L7.85449 10.5961C8.34438 9.87942 9.23344 9.41675 10.3765 9.41675C11.7917 9.41675 12.7352 10.1425 12.7352 11.2947C12.7352 11.9115 12.5629 12.474 11.6738 13.2996L10.2132 14.6785Z" fill="white"/>
</g>
<defs>
<filter id="filter0_d_286_77651" x="0.1" y="0" width="27" height="27" filterUnits="userSpaceOnUse" color-interpolation-filters="sRGB">
<feFlood flood-opacity="0" result="BackgroundImageFix"/>
<feColorMatrix in="SourceAlpha" type="matrix" values="0 0 0 0 0 0 0 0 0 0 0 0 0 0 0 0 0 0 127 0" result="hardAlpha"/>
<feOffset dy="0.9"/>
<feGaussianBlur stdDeviation="0.45"/>
<feComposite in2="hardAlpha" operator="out"/>
<feColorMatrix type="matrix" values="0 0 0 0 0 0 0 0 0 0 0 0 0 0 0 0 0 0 0.4 0"/>
<feBlend mode="normal" in2="BackgroundImageFix" result="effect1_dropShadow_286_77651"/>
<feBlend mode="normal" in="SourceGraphic" in2="effect1_dropShadow_286_77651" result="shape"/>
</filter>
</defs>
</svg>
